<svg width="218" height="113" viewBox="0 0 218 113" fill="#ffffff" xmlns="http://www.w3.org/2000/svg">
<path d="M12.88 53.034C12.6653 53.034 12.328 52.942 11.868 52.758C11.4387 52.5433 10.9787 52.298 10.488 52.022C9.99733 51.7153 9.59867 51.424 9.292 51.148C8.61733 50.504 8.05 49.722 7.59 48.802C7.13 47.882 6.808 46.9007 6.624 45.858C6.44 44.7847 6.42467 43.7573 6.578 42.776C6.91533 40.8133 7.65133 38.8813 8.786 36.98C9.92067 35.048 11.224 33.4533 12.696 32.196C13.4933 31.4907 14.214 30.954 14.858 30.586C15.502 30.1873 16.284 29.8807 17.204 29.666C17.5413 29.574 17.9093 29.528 18.308 29.528C18.7067 29.4973 19.0133 29.482 19.228 29.482C19.8413 29.482 20.4547 29.6047 21.068 29.85C21.6813 30.0953 22.2027 30.402 22.632 30.77C23.0613 31.1073 23.276 31.4293 23.276 31.736C23.276 31.9507 23.2607 32.1193 23.23 32.242C23.1993 32.334 23.0613 32.3187 22.816 32.196H22.356L22.816 33.53C22.9387 33.7753 23.046 34.1127 23.138 34.542C23.23 34.9407 23.276 35.3087 23.276 35.646C23.276 35.922 23.23 36.3667 23.138 36.98C23.046 37.5627 22.9233 38.1913 22.77 38.866C22.6167 39.5407 22.4633 40.1693 22.31 40.752C22.1567 41.3347 22.0187 41.764 21.896 42.04C21.804 42.224 21.7427 42.408 21.712 42.592C21.712 42.7453 21.712 42.8833 21.712 43.006C21.5893 43.2207 21.39 43.6347 21.114 44.248C20.8687 44.8613 20.6847 45.2907 20.562 45.536C20.4393 45.6587 20.332 45.766 20.24 45.858C20.1787 45.95 20.2093 46.0573 20.332 46.18C20.332 46.2413 20.2553 46.4407 20.102 46.778C19.9487 47.0847 19.78 47.376 19.596 47.652C19.4427 47.928 19.32 48.066 19.228 48.066C19.228 48.066 19.182 48.0813 19.09 48.112C19.0287 48.112 18.998 48.158 18.998 48.25C18.998 48.3727 18.7987 48.6947 18.4 49.216C18.0013 49.7067 17.526 50.228 16.974 50.78C16.6673 51.0867 16.238 51.424 15.686 51.792C15.1647 52.1293 14.6433 52.4207 14.122 52.666C13.6007 52.9113 13.1867 53.034 12.88 53.034ZM12.742 50.136C13.0793 50.136 13.4013 50.09 13.708 49.998C14.0147 49.8753 14.2753 49.7067 14.49 49.492C15.042 49.124 15.686 48.526 16.422 47.698C17.158 46.8393 17.6947 46.0113 18.032 45.214C18.3693 44.754 18.63 44.2787 18.814 43.788C19.0287 43.2667 19.3507 42.3927 19.78 41.166C20.0253 40.8287 20.194 40.4147 20.286 39.924C20.378 39.4333 20.424 39.0193 20.424 38.682C20.424 38.3447 20.424 37.8847 20.424 37.302C20.4547 36.7193 20.5313 36.2287 20.654 35.83C20.654 35.0327 20.6387 34.5113 20.608 34.266C20.5773 33.99 20.4547 33.7293 20.24 33.484C20.1173 33.392 19.9487 33.3 19.734 33.208C19.55 33.116 19.3507 33.07 19.136 33.07C18.9213 33.07 18.5227 33.1927 17.94 33.438C17.3573 33.6527 16.9433 33.8367 16.698 33.99C16.4833 34.1127 16.238 34.128 15.962 34.036C15.7167 33.944 15.594 33.8213 15.594 33.668C15.594 33.2387 15.318 33.208 14.766 33.576C14.214 33.9133 13.6007 34.496 12.926 35.324C12.374 35.876 11.8987 36.4433 11.5 37.026C11.132 37.578 10.948 37.9153 10.948 38.038C10.948 38.1607 10.902 38.314 10.81 38.498C10.718 38.682 10.626 38.8967 10.534 39.142C10.3807 39.3567 10.1967 39.7093 9.982 40.2C9.76733 40.6907 9.55267 41.1813 9.338 41.672C9.154 42.132 9.03133 42.4847 8.97 42.73C8.97 42.8527 8.97 43.19 8.97 43.742C8.97 44.2633 8.97 44.754 8.97 45.214C8.97 45.7353 8.98533 46.18 9.016 46.548C9.07733 46.916 9.154 47.238 9.246 47.514C9.338 47.7593 9.46067 48.0353 9.614 48.342C9.73667 48.5567 9.92067 48.8173 10.166 49.124C10.442 49.4 10.626 49.5993 10.718 49.722C11.0553 50.0287 11.3313 50.2127 11.546 50.274C11.7607 50.3047 12.1593 50.2587 12.742 50.136ZM31.887 53.264C31.1203 53.264 30.369 53.1873 29.633 53.034C28.9277 52.85 28.3603 52.62 27.931 52.344C27.5017 52.0373 27.3023 51.7 27.333 51.332C27.3637 50.8413 27.471 50.5807 27.655 50.55C27.839 50.4887 28.2683 50.504 28.943 50.596C29.9857 50.8107 31.105 50.826 32.301 50.642C33.497 50.458 34.6163 50.136 35.659 49.676C36.7017 49.216 37.5143 48.6947 38.097 48.112C38.925 47.3147 39.293 46.5173 39.201 45.72C39.1397 44.9227 38.6643 44.2327 37.775 43.65C37.3763 43.374 36.8243 43.1133 36.119 42.868C35.4137 42.6227 34.7083 42.4387 34.003 42.316C33.3283 42.1627 32.7763 42.1013 32.347 42.132C32.071 42.1627 31.841 42.1627 31.657 42.132C31.5037 42.1013 31.2277 41.9787 30.829 41.764C30.645 41.5493 30.4763 41.3193 30.323 41.074C30.1697 40.798 30.0623 40.5987 30.001 40.476C29.9703 40.3227 30.047 40.1693 30.231 40.016C30.4457 39.8627 30.8903 39.602 31.565 39.234C32.2397 38.8353 33.2823 38.2527 34.693 37.486C35.981 36.7807 36.993 36.2133 37.729 35.784C38.4957 35.324 39.0937 34.956 39.523 34.68C39.983 34.3733 40.351 34.0973 40.627 33.852C41.179 33.116 41.455 32.6407 41.455 32.426C41.455 32.2113 41.0563 32.0273 40.259 31.874C39.4923 31.8127 38.7563 31.7667 38.051 31.736C37.3457 31.7053 36.993 31.7513 36.993 31.874C36.993 31.874 36.9777 31.874 36.947 31.874C36.947 31.874 36.901 31.874 36.809 31.874C36.6557 31.8127 36.3183 31.828 35.797 31.92C35.2757 32.012 34.7697 32.1193 34.279 32.242C33.819 32.3647 33.5737 32.472 33.543 32.564C33.5123 32.6253 33.3283 32.7327 32.991 32.886C32.6843 33.0087 32.3623 33.116 32.025 33.208C31.7183 33.3 31.519 33.346 31.427 33.346C31.2737 33.2847 31.0897 33.1313 30.875 32.886C30.691 32.61 30.5377 32.334 30.415 32.058C30.2923 31.7513 30.2617 31.5213 30.323 31.368C30.3843 31.2453 30.5683 31.092 30.875 30.908C31.2123 30.6933 31.5957 30.4787 32.025 30.264C32.4543 30.0187 32.8377 29.8193 33.175 29.666C33.6043 29.5433 34.2023 29.4513 34.969 29.39C35.7663 29.3287 36.5637 29.298 37.361 29.298C38.1583 29.2673 38.741 29.2673 39.109 29.298C40.5197 29.4513 41.6083 29.8193 42.375 30.402C43.1417 30.9847 43.617 31.7667 43.801 32.748C43.893 33.1773 43.9237 33.53 43.893 33.806C43.8623 34.082 43.7243 34.3733 43.479 34.68C43.2337 34.956 42.8043 35.37 42.191 35.922C41.4243 36.4127 40.7957 36.8267 40.305 37.164C39.8143 37.5013 39.0783 37.9307 38.097 38.452C37.8823 38.6053 37.591 38.8047 37.223 39.05C36.855 39.2953 36.5177 39.5253 36.211 39.74C35.9043 39.924 35.751 40.0467 35.751 40.108C35.751 40.108 35.8123 40.154 35.935 40.246C36.0577 40.3073 36.211 40.3993 36.395 40.522C36.579 40.6447 36.7477 40.7827 36.901 40.936C37.7903 41.2427 38.603 41.7333 39.339 42.408C40.075 43.0827 40.5963 43.6347 40.903 44.064C41.3323 45.0147 41.501 45.9347 41.409 46.824C41.3477 47.7133 41.041 48.5567 40.489 49.354C39.937 50.1207 39.1243 50.826 38.051 51.47C37.1923 51.9607 36.1957 52.3747 35.061 52.712C33.9263 53.0187 32.8683 53.2027 31.887 53.264ZM48.456 51.608C47.8733 51.8227 47.3826 51.93 46.984 51.93C46.616 51.8993 46.202 51.7153 45.742 51.378C45.1593 50.826 44.96 50.274 45.144 49.722C45.3586 49.1393 45.8646 48.572 46.662 48.02C47.214 47.6827 47.6126 47.4987 47.858 47.468C48.134 47.4373 48.548 47.5447 49.1 47.79C50.02 48.3727 50.4186 49.0167 50.296 49.722C50.204 50.4273 49.5906 51.056 48.456 51.608ZM71.5677 56.024C71.3224 56.024 71.0464 55.8247 70.7397 55.426C70.4331 55.0273 70.2951 54.644 70.3257 54.276C70.3564 53.7853 70.4944 53.08 70.7397 52.16C70.9851 51.24 71.2611 50.3047 71.5677 49.354C71.8744 48.4033 72.1504 47.652 72.3957 47.1C72.5184 46.6093 72.6257 46.18 72.7177 45.812C72.8404 45.4133 72.9171 45.1527 72.9477 45.03C73.0397 44.9073 73.1777 44.5853 73.3617 44.064C73.5764 43.5427 73.7451 43.0367 73.8677 42.546C73.9291 42.3007 74.0517 41.8407 74.2357 41.166C74.4504 40.4607 74.6957 39.648 74.9717 38.728C75.2784 37.808 75.5697 36.9033 75.8457 36.014C76.1524 35.1247 76.4131 34.3427 76.6277 33.668C76.8424 32.9933 76.9804 32.5487 77.0417 32.334C77.2871 31.966 77.4711 31.6133 77.5937 31.276C77.7164 30.9387 77.7931 30.7087 77.8237 30.586C78.0077 30.4633 78.1151 30.31 78.1457 30.126C78.1764 29.9113 78.1917 29.7427 78.1917 29.62C78.1917 29.4667 78.2377 29.344 78.3297 29.252C78.4524 29.16 78.5137 29.0527 78.5137 28.93C78.6364 28.838 78.7131 28.7 78.7437 28.516C78.7744 28.3013 78.8664 28.1173 79.0197 27.964L79.2497 27.182L81.9637 27.136C81.9024 27.504 81.8104 27.964 81.6877 28.516C81.5651 29.0373 81.2737 29.7427 80.8137 30.632C80.6604 31.2453 80.4764 31.7973 80.2617 32.288C80.0777 32.7787 80.0011 33.1007 80.0317 33.254C79.9704 33.3153 79.8324 33.622 79.6177 34.174C79.4337 34.726 79.2037 35.4007 78.9277 36.198C78.6824 36.9953 78.4217 37.7927 78.1457 38.59C77.9004 39.3873 77.6704 40.0927 77.4557 40.706C77.2717 41.2887 77.1491 41.6567 77.0877 41.81C76.8424 42.3007 76.5664 43.0213 76.2597 43.972C75.9531 44.9227 75.4931 46.2107 74.8797 47.836C74.6344 48.3267 74.3277 49.0627 73.9597 50.044C73.6224 51.0253 73.3464 51.9147 73.1317 52.712C72.7944 53.908 72.5491 54.736 72.3957 55.196C72.2731 55.6867 72.1657 55.9473 72.0737 55.978C71.9817 56.0393 71.8131 56.0547 71.5677 56.024ZM71.9357 28.608C71.0771 28.6387 70.4331 28.5927 70.0037 28.47C69.6051 28.3473 69.4671 28.0407 69.5897 27.55C69.6817 27.182 69.8811 26.906 70.1877 26.722C70.4944 26.538 70.9391 26.4 71.5217 26.308C71.8591 26.2467 72.2884 26.17 72.8097 26.078C73.3617 25.986 73.8831 25.894 74.3737 25.802C75.3857 25.6793 76.2137 25.572 76.8577 25.48C77.5324 25.388 78.2224 25.3113 78.9277 25.25C79.6331 25.1887 80.5224 25.1273 81.5957 25.066C82.4851 25.0047 83.2364 24.9587 83.8497 24.928C84.4937 24.8667 84.8157 24.836 84.8157 24.836C84.9077 24.836 85.2297 24.8667 85.7817 24.928C86.3337 24.9893 86.9317 25.066 87.5757 25.158C88.2197 25.25 88.6951 25.3573 89.0017 25.48C89.7071 25.6333 90.2131 25.848 90.5197 26.124C90.8571 26.4 91.0871 26.7987 91.2097 27.32C91.3017 27.688 91.3017 27.918 91.2097 28.01C91.1177 28.0713 90.9491 28.1633 90.7037 28.286C89.9984 28.5007 89.4771 28.608 89.1397 28.608C88.8024 28.608 88.4191 28.5313 87.9897 28.378C87.8364 28.2247 87.6524 28.0867 87.4377 27.964C87.2537 27.8413 86.9164 27.7493 86.4257 27.688C85.9657 27.596 85.2297 27.5193 84.2177 27.458C83.3591 27.55 82.6077 27.596 81.9637 27.596C81.3197 27.596 80.9977 27.6727 80.9977 27.826L78.2837 27.964L76.0297 28.194C75.7231 28.2247 75.2937 28.2707 74.7417 28.332C74.1897 28.3627 73.6531 28.4087 73.1317 28.47C72.6104 28.5007 72.2117 28.5467 71.9357 28.608ZM90.4497 53.862C89.9897 53.862 89.407 53.8313 88.7017 53.77C88.027 53.7087 87.4443 53.2793 86.9537 52.482C86.647 51.9607 86.417 51.3627 86.2637 50.688C86.141 50.0133 86.141 49.538 86.2637 49.262C86.693 46.9007 87.0303 45.2753 87.2757 44.386C87.521 43.4967 87.659 42.9907 87.6897 42.868C87.751 42.7453 87.8737 42.454 88.0577 41.994C88.2723 41.5033 88.395 41.1967 88.4257 41.074C88.579 40.5833 88.625 40.0313 88.5637 39.418C88.533 39.1727 88.5483 38.958 88.6097 38.774C88.7017 38.5593 88.8397 38.3753 89.0237 38.222C89.545 37.8233 89.959 37.302 90.2657 36.658C90.3577 36.4433 90.5263 36.0753 90.7717 35.554C91.0477 35.002 91.3237 34.4653 91.5997 33.944C91.9063 33.392 92.1363 33.0087 92.2897 32.794C92.7803 32.1807 93.225 31.5367 93.6237 30.862C94.053 30.1567 94.5743 29.5433 95.1877 29.022C95.5863 28.3473 96.0923 27.734 96.7057 27.182C97.319 26.5993 97.9323 26.0627 98.5457 25.572C99.159 25.0813 99.6497 24.652 100.018 24.284C100.171 24.1307 100.585 23.9927 101.26 23.87C101.965 23.7167 102.532 23.5787 102.962 23.456C103.146 23.364 103.498 23.4407 104.02 23.686C104.541 23.9007 104.909 24.146 105.124 24.422C105.522 25.0967 105.752 25.6487 105.814 26.078C105.906 26.5073 105.844 27.0133 105.63 27.596C105.446 28.148 105.078 29.0067 104.526 30.172C103.912 31.3987 103.038 32.564 101.904 33.668C100.8 34.7413 99.665 35.6767 98.4997 36.474C97.917 36.9953 97.3037 37.4707 96.6597 37.9C96.0463 38.3293 95.4177 38.7127 94.7737 39.05C94.375 39.2647 93.961 39.464 93.5317 39.648C93.133 39.832 92.719 40.0007 92.2897 40.154C92.075 40.2153 91.8757 40.338 91.6917 40.522C91.5077 40.6753 91.3543 40.9053 91.2317 41.212C91.0477 41.6413 90.9403 42.0093 90.9097 42.316C90.9097 42.592 90.8177 42.822 90.6337 43.006C90.5417 43.098 90.4037 43.466 90.2197 44.11C90.0663 44.7233 89.8823 45.4593 89.6677 46.318C89.4837 47.146 89.3303 47.928 89.2077 48.664C89.085 49.3693 89.039 49.8447 89.0697 50.09C89.1003 50.2433 89.131 50.412 89.1617 50.596C89.223 50.7493 89.361 50.872 89.5757 50.964C90.0357 50.872 90.4037 50.7187 90.6797 50.504C90.9557 50.2587 91.2623 49.9367 91.5997 49.538C91.9677 49.078 92.305 48.5873 92.6117 48.066C92.949 47.5447 93.225 47.008 93.4397 46.456C93.5623 46.1187 93.6543 45.766 93.7157 45.398C93.777 44.9993 93.8843 44.6467 94.0377 44.34C94.0377 43.6347 94.0223 43.1133 93.9917 42.776C93.9917 42.408 93.961 42.1167 93.8997 41.902C93.869 41.6567 93.7923 41.3807 93.6697 41.074C93.915 40.9207 94.053 40.798 94.0837 40.706C94.145 40.614 94.283 40.5987 94.4977 40.66C94.8963 40.752 95.2643 40.9053 95.6017 41.12C95.9697 41.3347 96.3223 41.6107 96.6597 41.948C96.7823 42.0707 96.859 42.1933 96.8897 42.316C96.9203 42.4387 96.905 42.5767 96.8437 42.73C96.813 43.098 96.767 43.466 96.7057 43.834C96.675 44.1713 96.6597 44.5087 96.6597 44.846C96.445 45.2447 96.307 45.674 96.2457 46.134C96.1843 46.5633 96.077 46.9927 95.9237 47.422C95.7397 47.8207 95.5557 48.2193 95.3717 48.618C95.1877 49.0167 94.973 49.3847 94.7277 49.722C94.3597 50.3967 93.9303 50.9947 93.4397 51.516C92.9797 52.0373 92.489 52.5127 91.9677 52.942L90.4497 53.862ZM92.5657 36.888C92.9337 36.9493 93.1943 36.9647 93.3477 36.934C93.5317 36.8727 93.7157 36.7193 93.8997 36.474C95.341 35.5233 96.6597 34.588 97.8557 33.668C99.0517 32.7173 100.048 31.8127 100.846 30.954C101.674 30.0647 102.21 29.2827 102.456 28.608C102.609 28.2707 102.778 27.9487 102.962 27.642C103.176 27.3353 103.314 26.9827 103.376 26.584L103.192 25.296C102.333 25.6947 101.643 26.0627 101.122 26.4C100.631 26.7373 99.987 27.3047 99.1897 28.102C98.883 28.4087 98.423 28.93 97.8097 29.666C97.227 30.3713 96.583 31.1687 95.8777 32.058C95.1723 32.9473 94.513 33.8213 93.8997 34.68C93.317 35.5387 92.8723 36.2747 92.5657 36.888ZM101.733 52.528C101.488 52.2827 101.304 51.976 101.181 51.608C101.089 51.24 101.058 50.872 101.089 50.504C101.12 50.136 101.196 49.8293 101.319 49.584C101.319 49.3387 101.35 49.1547 101.411 49.032C101.503 48.8787 101.534 48.7407 101.503 48.618C101.472 48.4953 101.503 48.2807 101.595 47.974C101.687 47.6673 101.779 47.376 101.871 47.1C102.086 46.6093 102.316 46.0267 102.561 45.352C102.806 44.6467 103.036 43.9567 103.251 43.282C103.466 42.6073 103.65 42.0247 103.803 41.534C103.956 41.0433 104.048 40.7367 104.079 40.614C104.079 40.246 104.324 40.0467 104.815 40.016C105.183 39.8933 105.459 39.8933 105.643 40.016C105.827 40.108 106.072 40.3993 106.379 40.89C106.624 41.1353 106.716 41.5033 106.655 41.994C106.594 42.4847 106.394 43.098 106.057 43.834C105.934 44.0793 105.781 44.432 105.597 44.892C105.444 45.352 105.336 45.766 105.275 46.134C105.152 46.3793 104.999 46.732 104.815 47.192C104.662 47.6213 104.524 48.0353 104.401 48.434C104.34 48.5873 104.278 48.8173 104.217 49.124C104.156 49.4 104.079 49.7067 103.987 50.044C103.895 50.3507 103.772 50.6267 103.619 50.872C103.343 52.1293 103.082 52.8653 102.837 53.08C102.622 53.2947 102.254 53.1107 101.733 52.528ZM106.195 33.852C106.042 33.6987 105.904 33.484 105.781 33.208C105.658 32.9013 105.582 32.6253 105.551 32.38C105.52 32.104 105.551 31.966 105.643 31.966C105.888 31.9353 106.18 31.6747 106.517 31.184C106.854 30.6933 106.992 30.264 106.931 29.896C106.931 29.7733 106.977 29.666 107.069 29.574C107.161 29.4513 107.268 29.3747 107.391 29.344C107.759 29.0987 108.112 29.068 108.449 29.252C108.817 29.4053 109.154 29.7273 109.461 30.218C109.737 30.8007 109.814 31.2913 109.691 31.69C109.568 32.058 109.231 32.5793 108.679 33.254C108.219 33.8673 107.79 34.2047 107.391 34.266C107.023 34.3273 106.624 34.1893 106.195 33.852ZM120.801 53.908C120.586 54.0307 120.295 53.9847 119.927 53.77C119.59 53.5553 119.252 53.2333 118.915 52.804C118.7 52.436 118.547 52.0373 118.455 51.608C118.394 51.1787 118.363 50.5807 118.363 49.814C118.394 49.2007 118.363 48.802 118.271 48.618C118.21 48.434 118.041 48.4647 117.765 48.71C117.489 48.9247 117.014 49.3693 116.339 50.044C115.572 50.8107 114.836 51.4087 114.131 51.838C113.456 52.2673 112.904 52.4667 112.475 52.436C112.26 52.436 112.015 52.3287 111.739 52.114C111.494 51.8687 111.264 51.5773 111.049 51.24C110.834 50.872 110.65 50.504 110.497 50.136C110.313 49.4613 110.282 48.6027 110.405 47.56C110.558 46.4867 110.804 45.3673 111.141 44.202C111.478 43.0367 111.862 41.9327 112.291 40.89C112.751 39.8473 113.211 39.004 113.671 38.36C114.162 37.716 114.591 37.394 114.959 37.394C115.204 37.394 115.419 37.5167 115.603 37.762C115.818 38.0073 116.032 38.3907 116.247 38.912C116.37 39.1267 116.416 39.3107 116.385 39.464C116.385 39.6173 116.262 39.8013 116.017 40.016C115.741 40.384 115.419 40.936 115.051 41.672C114.714 42.408 114.376 43.2053 114.039 44.064C113.732 44.9227 113.456 45.7507 113.211 46.548C112.966 47.3453 112.797 48.0047 112.705 48.526C112.613 49.0167 112.628 49.262 112.751 49.262C113.18 49.262 113.686 49.0933 114.269 48.756C114.882 48.388 115.465 47.9433 116.017 47.422C116.661 46.778 117.228 46.0727 117.719 45.306C118.24 44.5393 118.762 43.7267 119.283 42.868C119.682 42.2547 120.096 41.58 120.525 40.844C120.985 40.108 121.276 39.5867 121.399 39.28C121.828 38.4827 122.15 37.946 122.365 37.67C122.58 37.3633 122.84 37.164 123.147 37.072C123.3 37.072 123.438 37.072 123.561 37.072C123.714 37.072 123.791 37.072 123.791 37.072C123.975 37.1027 124.19 37.2407 124.435 37.486C124.68 37.6087 124.818 37.7313 124.849 37.854C124.88 37.946 124.895 38.0687 124.895 38.222C124.772 38.5287 124.573 38.9887 124.297 39.602C124.052 40.1847 123.868 40.614 123.745 40.89C123.162 42.2087 122.58 43.512 121.997 44.8C121.445 46.0573 121.046 47.3453 120.801 48.664C120.74 49.0933 120.724 49.5993 120.755 50.182C120.816 50.734 120.908 51.1327 121.031 51.378C121.123 51.562 121.23 51.7767 121.353 52.022C121.506 52.2367 121.675 52.4207 121.859 52.574C122.135 52.758 122.181 52.9573 121.997 53.172C121.844 53.3867 121.629 53.5707 121.353 53.724C121.077 53.8467 120.893 53.908 120.801 53.908ZM120.203 34.818C119.252 34.9407 118.455 34.6647 117.811 33.99C117.167 33.3153 116.676 32.3187 116.339 31C116.278 30.7547 116.247 30.54 116.247 30.356C116.278 30.1413 116.339 29.9573 116.431 29.804C116.492 29.6813 116.615 29.5893 116.799 29.528C116.983 29.436 117.136 29.4207 117.259 29.482C117.688 29.6353 117.995 29.8347 118.179 30.08C118.394 30.2947 118.532 30.5707 118.593 30.908C118.654 31.0613 118.685 31.2147 118.685 31.368C118.716 31.5213 118.731 31.5827 118.731 31.552C118.884 32.0427 119.084 32.38 119.329 32.564C119.574 32.748 119.942 32.7327 120.433 32.518C120.954 32.3033 121.46 32.058 121.951 31.782C122.472 31.506 122.932 31.1687 123.331 30.77C123.668 30.4327 123.99 30.126 124.297 29.85C124.634 29.574 124.956 29.2827 125.263 28.976L125.309 28.93C125.432 28.838 125.585 28.8073 125.769 28.838C125.953 28.8687 126.06 28.9147 126.091 28.976C126.306 29.1907 126.413 29.4053 126.413 29.62C126.413 29.8347 126.413 30.0647 126.413 30.31L126.367 30.402C126.428 30.586 126.275 30.9387 125.907 31.46C125.57 31.9813 125.156 32.426 124.665 32.794C124.236 33.1313 123.776 33.438 123.285 33.714C122.794 33.99 122.288 34.2507 121.767 34.496C121.552 34.6187 121.322 34.6953 121.077 34.726C120.862 34.726 120.571 34.7567 120.203 34.818ZM7.728 98.77C7.51333 98.6473 7.28333 98.5247 7.038 98.402C6.82333 98.2793 6.60867 98.1567 6.394 98.034C6.21 97.9113 6.04133 97.7887 5.888 97.666C5.244 97.0833 4.81467 96.4547 4.6 95.78C4.416 95.0747 4.35467 94.4 4.416 93.756C4.47733 93.112 4.56933 92.56 4.692 92.1C4.81467 91.6093 4.876 91.272 4.876 91.088C4.84533 90.8427 4.89133 90.6127 5.014 90.398C5.13667 90.1527 5.25933 89.9073 5.382 89.662C5.934 88.5887 6.44 87.6687 6.9 86.902C7.39067 86.1047 8.096 85.1847 9.016 84.142C9.2 83.9887 9.36867 83.8507 9.522 83.728C9.706 83.5747 9.89 83.4673 10.074 83.406L11.132 84.188C11.2547 84.3107 11.3313 84.464 11.362 84.648C11.3927 84.8013 11.362 85.016 11.27 85.292C11.2087 85.5067 11.132 85.7213 11.04 85.936C10.9787 86.12 10.8867 86.2887 10.764 86.442C10.2427 86.9327 9.82867 87.4847 9.522 88.098C9.21533 88.6807 8.89333 89.2787 8.556 89.892C8.556 90.168 8.44867 90.398 8.234 90.582C8.01933 90.7353 7.89667 90.9653 7.866 91.272C7.866 91.4867 7.83533 91.7013 7.774 91.916C7.71267 92.1307 7.65133 92.3607 7.59 92.606C7.37533 93.0967 7.28333 93.572 7.314 94.032C7.34467 94.492 7.36 94.9673 7.36 95.458C7.60533 95.5807 7.82 95.6573 8.004 95.688C8.188 95.688 8.43333 95.5347 8.74 95.228C9.35333 94.7067 9.78267 94.2467 10.028 93.848C10.304 93.4493 10.5187 93.0507 10.672 92.652C10.8253 92.2533 11.04 91.7933 11.316 91.272C11.6227 90.7507 11.8833 90.0913 12.098 89.294C12.3127 88.4967 12.466 87.7453 12.558 87.04C12.65 86.304 12.65 85.8133 12.558 85.568C12.5273 85.4147 12.5427 85.2307 12.604 85.016C12.6653 84.8013 12.5733 84.5867 12.328 84.372C12.4507 84.2493 12.512 84.0193 12.512 83.682C12.512 83.3447 12.4813 82.992 12.42 82.624C12.3587 82.256 12.2667 81.9953 12.144 81.842C12.0827 80.6153 12.0367 79.588 12.006 78.76C12.006 77.9013 12.0213 77.1653 12.052 76.552C12.1133 75.908 12.19 75.31 12.282 74.758C12.3127 74.666 12.4967 74.3593 12.834 73.838C13.202 73.286 13.5393 72.8567 13.846 72.55C14.3673 72.09 15.0727 71.7373 15.962 71.492C16.882 71.216 17.664 71.1087 18.308 71.17C18.2773 71.2007 18.4613 71.216 18.86 71.216C19.2893 71.216 19.7647 71.2007 20.286 71.17C20.8073 71.1393 21.1907 71.1087 21.436 71.078C21.6813 71.0167 21.9267 70.9553 22.172 70.894C22.4173 70.8327 22.8313 70.6333 23.414 70.296C23.6593 70.1427 23.8587 70.0967 24.012 70.158L25.254 71.216C25.2233 72.0747 25.0087 72.7187 24.61 73.148C24.2113 73.5467 23.4447 73.8073 22.31 73.93C22.126 73.93 21.9267 73.93 21.712 73.93C21.4973 73.8993 21.2827 73.9147 21.068 73.976C20.884 74.0373 20.7153 74.0373 20.562 73.976C20.4393 73.9147 20.2553 73.884 20.01 73.884C19.6727 73.884 19.32 73.93 18.952 74.022C18.584 74.0833 18.2007 74.068 17.802 73.976C16.698 74.2827 15.8393 74.6967 15.226 75.218C14.6127 75.7393 14.306 76.598 14.306 77.794C14.4287 78.9287 14.582 79.9407 14.766 80.83C14.9807 81.7193 15.088 82.7007 15.088 83.774C15.1493 84.05 15.226 84.28 15.318 84.464C15.41 84.648 15.364 84.8473 15.18 85.062C15.3333 85.7673 15.41 86.4573 15.41 87.132C15.41 87.776 15.318 88.2667 15.134 88.604C15.0727 88.8187 15.0267 89.2173 14.996 89.8C14.996 90.352 14.8427 90.9347 14.536 91.548C13.8307 92.9893 13.11 94.2773 12.374 95.412C11.638 96.516 10.7027 97.4513 9.568 98.218C9.35333 98.3407 9.09267 98.4327 8.786 98.494C8.51 98.5553 8.15733 98.6473 7.728 98.77ZM19.2564 97.528C19.0111 97.2827 18.8271 96.976 18.7044 96.608C18.6124 96.24 18.5817 95.872 18.6124 95.504C18.6431 95.136 18.7197 94.8293 18.8424 94.584C18.8424 94.3387 18.8731 94.1547 18.9344 94.032C19.0264 93.8787 19.0571 93.7407 19.0264 93.618C18.9957 93.4953 19.0264 93.2807 19.1184 92.974C19.2104 92.6673 19.3024 92.376 19.3944 92.1C19.6091 91.6093 19.8391 91.0267 20.0844 90.352C20.3297 89.6467 20.5597 88.9567 20.7744 88.282C20.9891 87.6073 21.1731 87.0247 21.3264 86.534C21.4797 86.0433 21.5717 85.7367 21.6024 85.614C21.6024 85.246 21.8477 85.0467 22.3384 85.016C22.7064 84.8933 22.9824 84.8933 23.1664 85.016C23.3504 85.108 23.5957 85.3993 23.9024 85.89C24.1477 86.1353 24.2397 86.5033 24.1784 86.994C24.1171 87.4847 23.9177 88.098 23.5804 88.834C23.4577 89.0793 23.3044 89.432 23.1204 89.892C22.9671 90.352 22.8597 90.766 22.7984 91.134C22.6757 91.3793 22.5224 91.732 22.3384 92.192C22.1851 92.6213 22.0471 93.0353 21.9244 93.434C21.8631 93.5873 21.8017 93.8173 21.7404 94.124C21.6791 94.4 21.6024 94.7067 21.5104 95.044C21.4184 95.3507 21.2957 95.6267 21.1424 95.872C20.8664 97.1293 20.6057 97.8653 20.3604 98.08C20.1457 98.2947 19.7777 98.1107 19.2564 97.528ZM23.7184 78.852C23.5651 78.6987 23.4271 78.484 23.3044 78.208C23.1817 77.9013 23.1051 77.6253 23.0744 77.38C23.0437 77.104 23.0744 76.966 23.1664 76.966C23.4117 76.9353 23.7031 76.6747 24.0404 76.184C24.3777 75.6933 24.5157 75.264 24.4544 74.896C24.4544 74.7733 24.5004 74.666 24.5924 74.574C24.6844 74.4513 24.7917 74.3747 24.9144 74.344C25.2824 74.0987 25.6351 74.068 25.9724 74.252C26.3404 74.4053 26.6777 74.7273 26.9844 75.218C27.2604 75.8007 27.3371 76.2913 27.2144 76.69C27.0917 77.058 26.7544 77.5793 26.2024 78.254C25.7424 78.8673 25.3131 79.2047 24.9144 79.266C24.5464 79.3273 24.1477 79.1893 23.7184 78.852ZM22.8225 112.754C22.1478 112.754 21.5038 112.631 20.8905 112.386C20.2465 112.141 19.6485 111.742 19.0965 111.19C18.8205 110.515 18.6211 110.071 18.4985 109.856C18.3451 109.672 18.0691 109.396 17.6705 109.028C17.6705 108.875 17.7318 108.583 17.8545 108.154C17.9771 107.755 18.1611 107.403 18.4065 107.096C19.0505 106.329 19.8325 105.639 20.7525 105.026C21.6725 104.443 22.7458 103.937 23.9725 103.508C24.1258 103.447 24.2791 103.37 24.4325 103.278C24.6165 103.217 24.7851 103.186 24.9385 103.186C25.0918 103.186 25.1838 103.094 25.2145 102.91C25.2758 102.726 25.4138 102.711 25.6285 102.864C25.7818 102.803 25.9045 102.726 25.9965 102.634C26.0885 102.542 26.2418 102.527 26.4565 102.588C26.4565 102.588 26.6251 102.542 26.9625 102.45C27.3305 102.358 27.7445 102.235 28.2045 102.082C28.6645 101.959 29.0631 101.837 29.4005 101.714C29.7685 101.622 29.9525 101.576 29.9525 101.576C30.0138 100.748 30.0291 99.8893 29.9985 99C29.9985 98.1107 29.7531 97.4513 29.2625 97.022C28.9558 96.6847 28.7105 96.3013 28.5265 95.872C28.3731 95.4427 28.1738 94.9827 27.9285 94.492C27.9898 94.216 28.0971 93.986 28.2505 93.802C28.4038 93.618 28.6185 93.4647 28.8945 93.342C29.4771 93.066 30.1825 92.6367 31.0105 92.054C31.8691 91.4407 32.7431 90.72 33.6325 89.892C34.5218 89.064 35.3038 88.1747 35.9785 87.224C36.4078 86.6107 36.5611 86.028 36.4385 85.476C36.3465 84.924 35.8098 84.5867 34.8285 84.464C34.2151 84.464 33.5251 84.6787 32.7585 85.108C31.9918 85.5067 31.1945 86.0587 30.3665 86.764C29.8758 86.948 29.5231 86.902 29.3085 86.626C29.0938 86.3193 28.9251 85.982 28.8025 85.614C28.8638 85.2767 28.9865 84.9853 29.1705 84.74C29.3545 84.464 29.5538 84.2033 29.7685 83.958C30.0138 83.7127 30.2285 83.452 30.4125 83.176C30.6578 83.0533 30.8725 82.9307 31.0565 82.808C31.2405 82.6547 31.4398 82.5167 31.6545 82.394C31.8385 82.2713 32.0225 82.1793 32.2065 82.118C32.4211 82.026 32.6358 81.98 32.8505 81.98C33.0345 81.98 33.2185 81.9493 33.4025 81.888C33.5865 81.796 33.7858 81.75 34.0005 81.75C35.4418 81.8113 36.5765 82.3633 37.4045 83.406C38.2325 84.4487 38.6005 85.476 38.5085 86.488C38.4471 87.5 37.9258 88.8187 36.9445 90.444C36.6685 90.904 36.2085 91.3947 35.5645 91.916C34.9511 92.4373 34.2918 92.9433 33.5865 93.434C32.9118 93.9247 32.3138 94.354 31.7925 94.722C31.2711 95.0593 30.9645 95.274 30.8725 95.366C31.1485 95.7033 31.4398 96.2707 31.7465 97.068C32.0531 97.8347 32.2985 98.6167 32.4825 99.414C32.6971 100.242 32.7278 100.886 32.5745 101.346C32.8811 101.407 33.2645 101.377 33.7245 101.254C34.2151 101.162 34.5985 101.116 34.8745 101.116C35.1505 101.392 35.4265 101.653 35.7025 101.898C35.9785 102.143 36.1165 102.404 36.1165 102.68C36.1778 102.864 36.1318 103.033 35.9785 103.186C35.8558 103.339 35.7178 103.431 35.5645 103.462C35.1658 103.523 34.6598 103.539 34.0465 103.508C33.4331 103.477 32.8351 103.585 32.2525 103.83C31.8231 104.474 31.4551 105.179 31.1485 105.946C30.8418 106.743 30.4431 107.556 29.9525 108.384C29.4618 109.243 28.6951 110.117 27.6525 111.006C27.2845 111.313 26.9011 111.589 26.5025 111.834C26.1038 112.11 25.7818 112.248 25.5365 112.248C25.0458 112.401 24.5705 112.524 24.1105 112.616C23.6811 112.708 23.2518 112.754 22.8225 112.754ZM20.8445 110.408C20.8445 110.469 21.0745 110.485 21.5345 110.454C21.9638 110.454 22.4851 110.377 23.0985 110.224C23.7425 110.101 24.3098 109.902 24.8005 109.626C25.4138 109.258 25.9351 108.813 26.3645 108.292C26.7938 107.801 27.2078 107.265 27.6065 106.682C27.7598 106.437 27.9131 106.161 28.0665 105.854C28.2198 105.578 28.3425 105.287 28.4345 104.98C28.2198 104.735 27.8671 104.75 27.3765 105.026C26.8858 105.302 26.3031 105.563 25.6285 105.808C24.9231 106.053 24.0645 106.421 23.0525 106.912C22.0711 107.433 21.3198 108.001 20.7985 108.614C20.6451 108.829 20.4765 109.028 20.2925 109.212C20.1085 109.396 19.9091 109.565 19.6945 109.718C19.8478 109.933 20.0165 110.101 20.2005 110.224C20.3845 110.347 20.5991 110.408 20.8445 110.408ZM51.1326 98.494C50.9486 98.4327 50.7646 98.3867 50.5806 98.356C50.3966 98.2947 50.2126 98.2333 50.0286 98.172C49.8753 98.1107 49.6913 98.0647 49.4766 98.034C49.1699 97.6047 49.0473 97.0833 49.1086 96.47C49.1699 95.826 49.3079 95.1667 49.5226 94.492C49.7679 93.8173 49.9979 93.158 50.2126 92.514C50.4579 91.87 50.5959 91.318 50.6266 90.858C50.5959 90.7353 50.5499 90.7047 50.4886 90.766C50.4273 90.7967 50.3966 90.8427 50.3966 90.904C50.1819 91.1493 49.8753 91.318 49.4766 91.41C49.0779 91.502 48.7099 91.5787 48.3726 91.64C47.7899 91.732 47.2073 91.8393 46.6246 91.962C46.0419 92.0847 45.4746 92.2227 44.9226 92.376C44.8306 92.3147 44.7233 92.238 44.6006 92.146C44.5086 92.054 44.4166 91.9773 44.3246 91.916C44.1099 91.916 43.9259 92.1153 43.7726 92.514C43.6193 92.9127 43.4813 93.4033 43.3586 93.986C43.2359 94.538 43.1133 95.0747 42.9906 95.596C42.8986 96.0867 42.8066 96.4393 42.7146 96.654C42.2239 96.7153 41.8713 96.7307 41.6566 96.7C41.4726 96.6693 41.1199 96.5773 40.5986 96.424C40.3533 96.0867 40.2153 95.7647 40.1846 95.458C40.1846 95.1513 40.2306 94.814 40.3226 94.446C40.4759 93.7407 40.5986 93.1733 40.6906 92.744C40.8133 92.3147 41.0126 91.7627 41.2886 91.088C41.4419 90.7507 41.5799 90.4287 41.7026 90.122C41.8559 89.7847 41.9326 89.4167 41.9326 89.018C42.1779 88.7113 42.3466 88.374 42.4386 88.006C42.5306 87.638 42.6379 87.27 42.7606 86.902C43.2513 85.6447 43.6346 84.6787 43.9106 84.004C44.2173 83.2987 44.4319 82.7467 44.5546 82.348C44.6773 81.9493 44.7539 81.5813 44.7846 81.244C44.8153 80.8147 45.0759 80.6 45.5666 80.6C45.8733 80.6 46.1953 80.7227 46.5326 80.968C46.8699 81.1827 47.1306 81.4587 47.3146 81.796C47.4986 82.1333 47.5139 82.486 47.3606 82.854C47.2686 83.0993 47.1153 83.498 46.9006 84.05C46.7166 84.5713 46.5019 85.154 46.2566 85.798C46.0419 86.4113 45.8273 86.994 45.6126 87.546C45.4286 88.0673 45.2753 88.4507 45.1526 88.696C45.1219 88.8187 45.0606 88.926 44.9686 89.018C44.8766 89.0793 44.8306 89.1867 44.8306 89.34C45.0453 89.4933 45.3979 89.5547 45.8886 89.524C46.4099 89.4627 46.7779 89.3707 46.9926 89.248C47.4526 89.248 47.8973 89.248 48.3266 89.248C48.7866 89.248 49.2466 89.248 49.7066 89.248C50.1666 89.524 50.5193 89.938 50.7646 90.49C50.9793 89.9073 51.2706 89.1407 51.6386 88.19C52.0066 87.2087 52.3593 86.2427 52.6966 85.292C53.0339 84.3413 53.2333 83.6207 53.2946 83.13C53.3559 82.854 53.4786 82.6087 53.6626 82.394C53.8466 82.1793 54.0459 82.0107 54.2606 81.888C54.6899 82.1027 55.1039 82.2867 55.5026 82.44C55.9319 82.5627 56.2079 82.9153 56.3306 83.498C56.2999 83.774 56.2386 84.05 56.1466 84.326C56.0546 84.5713 55.9626 84.8167 55.8706 85.062C55.5639 85.9513 55.1806 86.9327 54.7206 88.006C54.2606 89.0487 53.8313 90.122 53.4326 91.226C53.0646 92.2993 52.8039 93.3113 52.6506 94.262C52.6506 94.354 52.5739 94.6607 52.4206 95.182C52.2979 95.7033 52.1599 96.2093 52.0066 96.7C51.8839 97.1907 51.8073 97.4513 51.7766 97.482C51.7766 97.6967 51.7153 97.896 51.5926 98.08C51.4699 98.2333 51.3166 98.3713 51.1326 98.494ZM66.4675 97.39C65.8235 97.942 65.0722 98.264 64.2135 98.356C63.3855 98.448 62.5728 98.3253 61.7755 97.988C60.9782 97.62 60.3188 97.068 59.7975 96.332C59.2762 95.6573 58.9388 94.8907 58.7855 94.032C58.6322 93.1427 58.6168 91.9927 58.7395 90.582C58.8315 89.386 59.2148 88.19 59.8895 86.994C60.5642 85.7673 61.3768 84.6787 62.3275 83.728C63.3088 82.7773 64.2748 82.118 65.2255 81.75C65.6855 81.4433 66.0688 81.3053 66.3755 81.336C66.7128 81.336 67.2188 81.3667 67.8935 81.428C68.5988 81.52 69.1202 81.658 69.4575 81.842C69.8255 82.026 70.1168 82.2713 70.3315 82.578C70.7915 83.038 71.0982 83.498 71.2515 83.958C71.4048 84.3873 71.4815 84.8167 71.4815 85.246C71.3588 85.9207 70.8988 86.7487 70.1015 87.73C69.3348 88.6807 68.3228 89.4627 67.0655 90.076C66.3908 90.2907 65.6548 90.3827 64.8575 90.352C64.0602 90.3213 63.4008 90.122 62.8795 89.754C62.2968 89.5087 61.9135 89.5547 61.7295 89.892C61.5455 90.1987 61.3768 90.9653 61.2235 92.192C61.1008 93.3573 61.1928 94.216 61.4995 94.768C61.8062 95.2893 62.2202 95.596 62.7415 95.688C63.3548 95.8107 63.8302 95.9027 64.1675 95.964C64.5355 95.9947 64.9802 95.8567 65.5015 95.55C65.9922 95.2433 66.2988 95.0747 66.4215 95.044C66.5442 94.9827 66.6362 94.9213 66.6975 94.86C66.7895 94.768 66.9888 94.5687 67.2955 94.262C67.5102 94.0473 67.6788 93.894 67.8015 93.802C67.9242 93.6793 68.0622 93.618 68.2155 93.618C68.3688 93.618 68.5068 93.6947 68.6295 93.848C68.7522 93.9707 68.8748 94.0627 68.9975 94.124C69.3042 94.124 69.3655 94.308 69.1815 94.676C69.0282 95.044 68.7062 95.4887 68.2155 96.01C67.7248 96.5007 67.1422 96.9607 66.4675 97.39ZM66.4215 87.638C66.7588 87.4847 67.1115 87.27 67.4795 86.994C67.8475 86.6873 68.1542 86.3653 68.3995 86.028C68.6755 85.66 68.8135 85.3533 68.8135 85.108C68.8135 84.6787 68.6142 84.326 68.2155 84.05C67.8168 83.7433 67.2188 83.6973 66.4215 83.912C66.0842 84.004 65.7008 84.234 65.2715 84.602C64.8422 84.9393 64.4282 85.3227 64.0295 85.752C63.6615 86.1813 63.3548 86.5647 63.1095 86.902C62.8948 87.2393 62.8182 87.4387 62.8795 87.5C62.9715 87.6533 63.2322 87.776 63.6615 87.868C64.0908 87.9293 64.5662 87.9447 65.0875 87.914C65.6395 87.8833 66.0842 87.7913 66.4215 87.638ZM79.9545 97.804C79.5558 97.988 79.0958 98.0647 78.5745 98.034C78.0531 98.0033 77.3478 97.8347 76.4585 97.528C76.3971 97.528 76.2591 97.4667 76.0445 97.344C75.8605 97.2213 75.6611 97.068 75.4465 96.884C75.2625 96.6693 75.1091 96.4393 74.9865 96.194C74.4958 95.4887 74.2965 94.446 74.3885 93.066C74.4805 91.686 74.9098 90.03 75.6765 88.098C75.8911 87.638 76.2131 87.0553 76.6425 86.35C77.1025 85.6447 77.5471 85.0007 77.9765 84.418C78.4365 83.8047 78.7585 83.452 78.9425 83.36C78.9425 83.36 79.1111 83.2987 79.4485 83.176C79.7858 83.0533 80.2151 82.854 80.7365 82.578C80.8898 82.5167 81.0585 82.4553 81.2425 82.394C81.4571 82.3327 81.6718 82.2867 81.8865 82.256C82.1011 82.2253 82.2851 82.2253 82.4385 82.256C83.0518 82.2867 83.6805 82.5167 84.3245 82.946C84.9991 83.3447 85.5511 83.82 85.9805 84.372C86.4098 84.8933 86.5478 85.3533 86.3945 85.752C86.3945 85.8133 86.3025 85.936 86.1185 86.12C85.9651 86.2733 85.7811 86.442 85.5665 86.626C85.3825 86.7793 85.2291 86.9327 85.1065 87.086C84.9531 87.27 84.7385 87.3467 84.4625 87.316C84.2171 87.2853 83.9871 87.1627 83.7725 86.948C83.5885 86.7027 83.4811 86.396 83.4505 86.028C83.3891 85.7827 83.1591 85.5527 82.7605 85.338C82.3925 85.1233 82.2085 85.016 82.2085 85.016C81.9631 85.016 81.6105 85.246 81.1505 85.706C80.7211 86.1353 80.2918 86.6567 79.8625 87.27C79.3105 87.822 78.8351 88.4813 78.4365 89.248C78.0378 89.984 77.7158 90.6893 77.4705 91.364C77.2558 92.008 77.1025 92.468 77.0105 92.744C76.8878 93.0507 76.8725 93.48 76.9645 94.032C77.0565 94.584 77.1638 94.9213 77.2865 95.044C77.4091 95.1053 77.7158 95.1207 78.2065 95.09C78.7278 95.0593 79.3411 94.998 80.0465 94.906C80.7518 94.7833 81.4418 94.6453 82.1165 94.492C82.7911 94.3387 83.3431 94.17 83.7725 93.986C84.3551 93.618 84.8611 93.4033 85.2905 93.342C85.7198 93.2807 86.0418 93.2807 86.2565 93.342C86.5938 93.4647 86.7931 93.6333 86.8545 93.848C86.9158 94.0627 86.8391 94.308 86.6245 94.584C86.4098 94.8293 86.0418 95.09 85.5205 95.366C85.0298 95.6113 84.5851 95.8873 84.1865 96.194C83.8185 96.47 83.6345 96.6847 83.6345 96.838C83.5118 96.838 83.3738 96.884 83.2205 96.976C83.0978 97.0373 82.9905 97.0527 82.8985 97.022C82.8371 97.022 82.5918 97.068 82.1625 97.16C81.7331 97.252 81.2885 97.3593 80.8285 97.482C80.3991 97.6047 80.1078 97.712 79.9545 97.804ZM99.8373 109.304C99.7146 109.304 99.5613 109.304 99.3773 109.304C99.1933 109.335 99.0246 109.212 98.8713 108.936C98.7486 108.783 98.6719 108.553 98.6413 108.246C98.6413 107.939 98.7179 107.387 98.8713 106.59C99.0246 106.069 99.1473 105.547 99.2393 105.026C99.3313 104.535 99.3773 104.167 99.3773 103.922C99.3773 103.799 99.4079 103.554 99.4693 103.186C99.5613 102.849 99.6073 102.603 99.6073 102.45C99.7606 102.205 99.8833 101.867 99.9753 101.438C100.067 101.009 100.113 100.625 100.113 100.288C100.113 99.92 100.297 99.5827 100.665 99.276C100.665 99.0307 100.711 98.724 100.803 98.356C100.926 97.988 100.987 97.7427 100.987 97.62C101.079 97.1907 101.279 96.4393 101.585 95.366C101.923 94.262 102.321 93.02 102.781 91.64C103.272 90.26 103.747 88.9107 104.207 87.592C104.667 86.2733 105.081 85.154 105.449 84.234C105.817 83.3753 106.063 82.6393 106.185 82.026C106.339 81.382 106.415 80.9067 106.415 80.6C106.415 80.4773 106.446 80.3853 106.507 80.324C106.569 80.232 106.707 80.0633 106.921 79.818C107.228 79.5113 107.489 79.4193 107.703 79.542C107.949 79.6647 108.24 79.8487 108.577 80.094C108.823 80.4927 108.991 80.83 109.083 81.106C109.206 81.382 109.206 81.8573 109.083 82.532C109.083 82.992 109.007 83.3907 108.853 83.728C108.7 84.0653 108.562 84.326 108.439 84.51C108.317 84.6633 108.286 84.7247 108.347 84.694C109.605 84.1113 110.709 83.8047 111.659 83.774C112.641 83.7127 113.453 83.8813 114.097 84.28C114.772 84.648 115.278 85.1693 115.615 85.844C115.953 86.5187 116.121 87.3007 116.121 88.19C116.121 88.558 116.045 89.0027 115.891 89.524C115.738 90.0147 115.539 90.4747 115.293 90.904C115.079 91.3027 114.879 91.594 114.695 91.778C114.573 91.778 114.45 91.8853 114.327 92.1C114.205 92.284 114.082 92.4987 113.959 92.744C113.714 93.0507 113.315 93.4033 112.763 93.802C112.242 94.17 111.721 94.4767 111.199 94.722C110.678 94.9367 110.295 94.998 110.049 94.906C110.049 94.906 110.003 94.9213 109.911 94.952C109.85 94.952 109.819 95.0287 109.819 95.182C109.819 95.2433 109.574 95.3813 109.083 95.596C108.593 95.78 108.025 95.964 107.381 96.148C106.737 96.3013 106.17 96.378 105.679 96.378C105.035 96.378 104.575 96.2553 104.299 96.01C104.238 96.0713 104.161 96.1633 104.069 96.286C104.008 96.4087 103.977 96.516 103.977 96.608C103.977 96.792 103.901 97.1447 103.747 97.666C103.625 98.1567 103.471 98.632 103.287 99.092C103.103 99.552 102.935 99.782 102.781 99.782C102.781 99.782 102.751 99.828 102.689 99.92C102.628 100.012 102.659 100.135 102.781 100.288C102.781 100.288 102.766 100.457 102.735 100.794C102.735 101.162 102.659 101.469 102.505 101.714C102.505 101.959 102.459 102.327 102.367 102.818C102.275 103.309 102.168 103.677 102.045 103.922C102.045 104.29 101.984 104.643 101.861 104.98C101.769 105.348 101.662 105.532 101.539 105.532C101.417 105.563 101.34 105.747 101.309 106.084C101.279 106.452 101.263 106.713 101.263 106.866C101.233 107.633 101.079 108.231 100.803 108.66C100.527 109.089 100.205 109.304 99.8373 109.304ZM105.403 93.94C105.649 93.94 106.155 93.8327 106.921 93.618C107.688 93.4033 108.47 93.1427 109.267 92.836C110.095 92.4987 110.709 92.1613 111.107 91.824C111.905 91.1187 112.518 90.3213 112.947 89.432C113.407 88.512 113.377 87.638 112.855 86.81C112.61 86.3807 112.165 86.212 111.521 86.304C110.877 86.3653 110.172 86.6107 109.405 87.04C108.639 87.4693 107.918 88.006 107.243 88.65C106.875 89.0487 106.538 89.5393 106.231 90.122C105.925 90.7047 105.664 91.2873 105.449 91.87C105.265 92.4527 105.158 92.9433 105.127 93.342C105.097 93.7407 105.189 93.94 105.403 93.94ZM123.846 97.252C123.202 97.3747 122.788 97.4207 122.604 97.39C122.451 97.3287 122.205 97.1447 121.868 96.838C121.377 96.5927 120.963 96.286 120.626 95.918C120.319 95.55 120.089 95.1667 119.936 94.768C119.813 94.3387 119.767 93.986 119.798 93.71C119.89 92.6367 120.151 91.4867 120.58 90.26C121.009 89.0333 121.531 87.8527 122.144 86.718C122.757 85.5833 123.417 84.6173 124.122 83.82C124.858 82.992 125.563 82.4553 126.238 82.21C126.851 81.9647 127.434 81.8727 127.986 81.934C128.538 81.9953 128.937 82.2867 129.182 82.808C129.642 83.6973 129.535 84.2647 128.86 84.51C128.768 84.51 128.661 84.556 128.538 84.648C128.415 84.7093 128.354 84.8013 128.354 84.924C128.477 84.9853 128.814 85.0007 129.366 84.97C129.918 84.9087 130.47 84.8167 131.022 84.694C131.605 84.5407 131.988 84.3873 132.172 84.234C132.356 84.142 132.494 84.096 132.586 84.096C132.678 84.096 132.908 84.1267 133.276 84.188C133.797 84.3413 134.058 84.5253 134.058 84.74C134.058 84.8627 134.104 84.9853 134.196 85.108C134.288 85.2 134.395 85.246 134.518 85.246C134.733 85.2767 134.702 85.4147 134.426 85.66C134.181 85.9053 133.751 86.2427 133.138 86.672C132.555 87.04 132.187 87.2853 132.034 87.408C131.911 87.5 131.896 87.7147 131.988 88.052C132.233 88.6347 132.249 89.3093 132.034 90.076C131.819 90.8427 131.436 91.6247 130.884 92.422C130.332 93.2193 129.657 93.9707 128.86 94.676C128.093 95.3507 127.265 95.9333 126.376 96.424C125.517 96.884 124.674 97.16 123.846 97.252ZM123.064 95.228C123.187 95.228 123.401 95.1667 123.708 95.044C124.015 94.8907 124.26 94.768 124.444 94.676C124.567 94.5533 124.72 94.4153 124.904 94.262C125.119 94.078 125.287 93.9707 125.41 93.94C125.533 93.94 125.686 93.894 125.87 93.802C126.054 93.6793 126.315 93.4493 126.652 93.112C126.989 92.744 127.434 92.2073 127.986 91.502C128.599 90.8273 129.075 90.214 129.412 89.662C129.749 89.0793 129.841 88.5427 129.688 88.052C129.657 87.9293 129.565 87.8527 129.412 87.822C129.289 87.7913 129.121 87.7147 128.906 87.592C128.599 87.592 128.308 87.5153 128.032 87.362C127.787 87.178 127.495 86.948 127.158 86.672L126.422 85.752L125.64 86.534C125.149 87.0247 124.628 87.7607 124.076 88.742C123.555 89.6927 123.11 90.674 122.742 91.686C122.374 92.6673 122.159 93.4493 122.098 94.032C122.067 94.492 122.144 94.7987 122.328 94.952C122.512 95.1053 122.757 95.1973 123.064 95.228ZM140.063 97.942C139.388 97.942 138.882 97.9113 138.545 97.85C138.207 97.7887 137.947 97.6967 137.763 97.574C137.579 97.4513 137.364 97.2827 137.119 97.068C136.996 96.8227 136.843 96.562 136.659 96.286C136.475 96.01 136.321 95.8107 136.199 95.688C136.076 95.228 136.015 94.63 136.015 93.894C136.045 93.158 136.137 92.3607 136.291 91.502C136.475 90.6433 136.72 89.846 137.027 89.11C137.149 88.8647 137.257 88.6193 137.349 88.374C137.441 88.1287 137.487 88.006 137.487 88.006C137.487 87.8527 137.671 87.4847 138.039 86.902C138.437 86.3193 138.867 85.706 139.327 85.062C139.817 84.418 140.216 83.958 140.523 83.682C140.737 83.4367 141.059 83.176 141.489 82.9C141.949 82.624 142.347 82.4247 142.685 82.302C143.022 82.1793 143.359 82.072 143.697 81.98C144.065 81.888 144.479 81.842 144.939 81.842C145.368 81.842 145.767 81.934 146.135 82.118C146.503 82.302 146.855 82.624 147.193 83.084C147.745 83.636 148.051 84.188 148.113 84.74C148.205 85.2613 148.189 85.798 148.067 86.35C147.913 86.9633 147.714 87.4387 147.469 87.776C147.223 88.0827 146.947 88.2207 146.641 88.19C146.334 88.1593 145.981 87.9293 145.583 87.5C145.46 87.2547 145.399 87.0553 145.399 86.902C145.399 86.718 145.46 86.4573 145.583 86.12C145.705 85.6907 145.705 85.246 145.583 84.786C145.46 84.326 145.261 84.096 144.985 84.096C144.586 84.096 144.141 84.28 143.651 84.648C143.191 84.9853 142.715 85.4147 142.225 85.936C142.01 86.1813 141.703 86.5647 141.305 87.086C140.937 87.5767 140.569 88.1287 140.201 88.742C139.833 89.3247 139.526 89.892 139.281 90.444C138.943 91.456 138.667 92.2687 138.453 92.882C138.269 93.4953 138.177 93.802 138.177 93.802C138.177 93.9247 138.207 94.0473 138.269 94.17C138.361 94.262 138.407 94.3693 138.407 94.492C138.407 94.86 138.621 95.1513 139.051 95.366C139.388 95.5807 139.787 95.7033 140.247 95.734C140.707 95.734 141.274 95.5807 141.949 95.274C142.439 95.0287 142.899 94.7067 143.329 94.308C143.789 93.9093 144.264 93.5567 144.755 93.25C145.092 93.0353 145.353 92.8513 145.537 92.698C145.751 92.5447 145.859 92.5293 145.859 92.652C145.859 92.7747 145.905 92.836 145.997 92.836C146.089 92.836 146.196 92.7747 146.319 92.652C146.503 92.4067 146.702 92.2533 146.917 92.192C147.131 92.1 147.315 92.0693 147.469 92.1C147.653 92.1 147.745 92.146 147.745 92.238C147.683 92.514 147.745 92.744 147.929 92.928C147.929 93.0507 147.883 93.2193 147.791 93.434C147.729 93.618 147.637 93.7713 147.515 93.894C147.361 94.1087 147.131 94.354 146.825 94.63C146.549 94.906 146.288 95.1513 146.043 95.366C145.797 95.55 145.675 95.642 145.675 95.642C145.552 95.6113 145.429 95.642 145.307 95.734C145.215 95.826 145.107 95.9333 144.985 96.056C144.739 96.2707 144.509 96.4393 144.295 96.562C144.08 96.654 143.911 96.7 143.789 96.7C143.574 96.8227 143.405 96.8993 143.283 96.93C143.191 96.9607 143.145 97.0373 143.145 97.16C142.838 97.4667 142.455 97.6813 141.995 97.804C141.565 97.896 140.921 97.942 140.063 97.942ZM153.522 96.746C153.184 96.5313 152.878 96.2553 152.602 95.918C152.326 95.55 152.188 95.09 152.188 94.538C152.188 94.2313 152.249 93.71 152.372 92.974C152.494 92.238 152.663 91.41 152.878 90.49C153.092 89.57 153.307 88.7113 153.522 87.914C153.828 87.362 154.089 86.81 154.304 86.258C154.518 85.706 154.626 85.3687 154.626 85.246C154.687 84.878 154.764 84.4487 154.856 83.958C154.978 83.4673 155.101 83.0227 155.224 82.624C155.346 82.2253 155.438 81.9953 155.5 81.934C155.653 81.7807 155.837 81.6887 156.052 81.658C156.266 81.5967 156.481 81.6273 156.696 81.75C156.941 81.842 157.125 82.0413 157.248 82.348C157.585 82.716 157.754 83.1607 157.754 83.682C157.754 84.1727 157.585 84.9087 157.248 85.89C156.972 86.5033 156.696 87.224 156.42 88.052C156.144 88.88 155.898 89.6467 155.684 90.352C155.5 91.0267 155.392 91.4867 155.362 91.732L154.442 92.008C154.963 91.5173 155.454 91.0113 155.914 90.49C156.374 89.938 156.711 89.5087 156.926 89.202C157.447 88.4967 157.892 87.914 158.26 87.454C158.658 86.9633 159.164 86.3807 159.778 85.706C160.391 85.0007 160.989 84.5713 161.572 84.418C162.185 84.234 162.66 84.142 162.998 84.142C163.672 84.2647 164.209 84.6173 164.608 85.2C165.037 85.752 165.313 86.58 165.436 87.684C165.436 88.1133 165.39 88.6193 165.298 89.202C165.236 89.7847 165.206 90.076 165.206 90.076C165.206 90.076 165.451 89.754 165.942 89.11C166.463 88.466 167.153 87.7607 168.012 86.994C168.594 86.5647 169.162 86.3193 169.714 86.258C170.266 86.166 170.756 86.35 171.186 86.81C171.983 87.2393 172.504 87.8987 172.75 88.788C172.995 89.6467 173.056 90.7507 172.934 92.1C172.842 92.8973 172.826 93.4953 172.888 93.894C172.949 94.262 173.041 94.63 173.164 94.998C173.409 95.1207 173.455 95.3813 173.302 95.78C173.148 96.148 172.964 96.332 172.75 96.332C172.443 96.332 172.09 96.2707 171.692 96.148C171.324 96.0253 170.986 95.826 170.68 95.55C170.404 95.2433 170.266 94.8293 170.266 94.308V91.456C170.266 90.7813 170.235 90.2293 170.174 89.8C170.143 89.3707 170.066 89.11 169.944 89.018C169.606 88.834 169.116 89.0333 168.472 89.616C167.828 90.1987 167.138 90.9807 166.402 91.962C165.666 92.9433 164.976 93.9553 164.332 94.998C163.749 95.9487 163.381 96.5007 163.228 96.654C163.105 96.7767 162.875 96.7307 162.538 96.516C161.863 96.3013 161.434 96.01 161.25 95.642C161.096 95.2433 161.081 94.7987 161.204 94.308C161.357 93.7867 161.541 93.0813 161.756 92.192C162.001 91.3027 162.231 90.444 162.446 89.616C162.66 88.7573 162.798 88.144 162.86 87.776C162.737 87.5307 162.522 87.454 162.216 87.546C161.94 87.6073 161.648 87.7453 161.342 87.96C160.974 88.2053 160.529 88.6653 160.008 89.34C159.486 90.0147 158.95 90.7967 158.398 91.686C158.03 92.2687 157.646 92.8513 157.248 93.434C156.849 93.986 156.481 94.4767 156.144 94.906C155.806 95.3353 155.515 95.6573 155.27 95.872C154.84 96.5467 154.549 96.9147 154.396 96.976C154.242 97.0373 153.951 96.9607 153.522 96.746ZM180.32 97.896C179.124 97.4053 178.342 96.7307 177.974 95.872C177.637 94.9827 177.575 93.618 177.79 91.778C177.851 90.8273 177.882 90.1987 177.882 89.892C177.882 89.5853 177.713 89.2787 177.376 88.972C177.284 88.8493 177.115 88.6807 176.87 88.466C176.655 88.2513 176.563 88.0673 176.594 87.914C176.563 87.6993 176.579 87.4693 176.64 87.224C176.701 86.948 176.793 86.81 176.916 86.81C177.039 86.81 177.161 86.7793 177.284 86.718C177.437 86.6567 177.575 86.6567 177.698 86.718C177.821 86.718 177.959 86.7333 178.112 86.764C178.265 86.7947 178.342 86.8713 178.342 86.994C178.465 87.2087 178.664 87.2393 178.94 87.086C179.216 86.902 179.507 86.5033 179.814 85.89C180.121 85.3993 180.519 84.9087 181.01 84.418C181.531 83.9273 182.037 83.4827 182.528 83.084C183.049 82.6547 183.479 82.348 183.816 82.164C183.969 82.1027 184.199 82.026 184.506 81.934C184.813 81.842 185.135 81.7653 185.472 81.704C185.84 81.6427 186.147 81.6273 186.392 81.658C186.944 81.6887 187.404 81.842 187.772 82.118C188.171 82.394 188.539 82.716 188.876 83.084C189.275 83.36 189.52 83.728 189.612 84.188C189.735 84.648 189.765 85.1387 189.704 85.66C189.643 86.1813 189.505 86.6567 189.29 87.086C189.198 87.3927 188.937 87.7607 188.508 88.19C188.079 88.6193 187.588 89.0333 187.036 89.432C186.484 89.8307 185.978 90.122 185.518 90.306C185.119 90.398 184.598 90.4747 183.954 90.536C183.341 90.5973 182.758 90.628 182.206 90.628C181.685 90.5973 181.332 90.536 181.148 90.444C180.933 90.3213 180.765 90.49 180.642 90.95C180.519 91.41 180.427 92.0693 180.366 92.928C180.305 93.6027 180.305 94.0933 180.366 94.4C180.427 94.7067 180.489 94.9213 180.55 95.044C180.765 95.2587 181.056 95.5347 181.424 95.872C181.823 96.1787 182.375 96.2247 183.08 96.01C183.663 95.8567 184.23 95.458 184.782 94.814C185.365 94.17 185.901 93.6487 186.392 93.25C186.515 93.0353 186.714 92.9127 186.99 92.882C187.297 92.8207 187.619 92.836 187.956 92.928C188.293 93.1427 188.431 93.4033 188.37 93.71C188.339 93.986 188.186 94.4153 187.91 94.998C187.818 95.2127 187.603 95.4887 187.266 95.826C186.959 96.1327 186.607 96.4547 186.208 96.792C185.84 97.0987 185.503 97.344 185.196 97.528C184.276 98.0187 183.417 98.2793 182.62 98.31C181.823 98.31 181.056 98.172 180.32 97.896ZM183.034 88.558C183.709 88.4047 184.245 88.2973 184.644 88.236C185.043 88.1747 185.426 88.006 185.794 87.73C186.162 87.4233 186.622 86.856 187.174 86.028C187.297 85.6907 187.327 85.3533 187.266 85.016C187.235 84.6787 187.159 84.4487 187.036 84.326C186.76 84.0193 186.423 83.9273 186.024 84.05C185.656 84.142 185.303 84.3107 184.966 84.556C184.751 84.648 184.429 84.878 184 85.246C183.601 85.5833 183.203 85.982 182.804 86.442C182.405 86.8713 182.083 87.27 181.838 87.638C181.593 88.006 181.531 88.2207 181.654 88.282C181.593 88.4047 181.761 88.4813 182.16 88.512C182.589 88.5427 182.881 88.558 183.034 88.558Z" fill="#FFFFFF"/>
<path d="M145 60.5873C161.42 39.4739 179.247 20.9064 197.997 9.63988C201.099 7.77627 194.696 21.2459 194.275 23.5843C193.851 25.9359 196.613 20.2346 197.642 18.3211C198.539 16.6542 202.303 10.9065 200.214 8.9012C195.519 4.3952 185.85 10.9001 180.184 13.0189" stroke="#FFFFFF" stroke-width="2" stroke-linecap="round"/>
</svg>
