<svg width="186" height="90" viewBox="0 0 186 90" fill="none" xmlns="http://www.w3.org/2000/svg">
<path d="M8.88 30.034C8.66533 30.034 8.328 29.942 7.868 29.758C7.43867 29.5433 6.97867 29.298 6.488 29.022C5.99733 28.7153 5.59867 28.424 5.292 28.148C4.61733 27.504 4.05 26.722 3.59 25.802C3.13 24.882 2.808 23.9007 2.624 22.858C2.44 21.7847 2.42467 20.7573 2.578 19.776C2.91533 17.8133 3.65133 15.8813 4.786 13.98C5.92067 12.048 7.224 10.4533 8.696 9.196C9.49333 8.49067 10.214 7.954 10.858 7.586C11.502 7.18733 12.284 6.88067 13.204 6.666C13.5413 6.574 13.9093 6.528 14.308 6.528C14.7067 6.49733 15.0133 6.482 15.228 6.482C15.8413 6.482 16.4547 6.60466 17.068 6.85C17.6813 7.09533 18.2027 7.402 18.632 7.77C19.0613 8.10733 19.276 8.42933 19.276 8.736C19.276 8.95067 19.2607 9.11933 19.23 9.242C19.1993 9.334 19.0613 9.31867 18.816 9.196H18.356L18.816 10.53C18.9387 10.7753 19.046 11.1127 19.138 11.542C19.23 11.9407 19.276 12.3087 19.276 12.646C19.276 12.922 19.23 13.3667 19.138 13.98C19.046 14.5627 18.9233 15.1913 18.77 15.866C18.6167 16.5407 18.4633 17.1693 18.31 17.752C18.1567 18.3347 18.0187 18.764 17.896 19.04C17.804 19.224 17.7427 19.408 17.712 19.592C17.712 19.7453 17.712 19.8833 17.712 20.006C17.5893 20.2207 17.39 20.6347 17.114 21.248C16.8687 21.8613 16.6847 22.2907 16.562 22.536C16.4393 22.6587 16.332 22.766 16.24 22.858C16.1787 22.95 16.2093 23.0573 16.332 23.18C16.332 23.2413 16.2553 23.4407 16.102 23.778C15.9487 24.0847 15.78 24.376 15.596 24.652C15.4427 24.928 15.32 25.066 15.228 25.066C15.228 25.066 15.182 25.0813 15.09 25.112C15.0287 25.112 14.998 25.158 14.998 25.25C14.998 25.3727 14.7987 25.6947 14.4 26.216C14.0013 26.7067 13.526 27.228 12.974 27.78C12.6673 28.0867 12.238 28.424 11.686 28.792C11.1647 29.1293 10.6433 29.4207 10.122 29.666C9.60067 29.9113 9.18667 30.034 8.88 30.034ZM8.742 27.136C9.07933 27.136 9.40133 27.09 9.708 26.998C10.0147 26.8753 10.2753 26.7067 10.49 26.492C11.042 26.124 11.686 25.526 12.422 24.698C13.158 23.8393 13.6947 23.0113 14.032 22.214C14.3693 21.754 14.63 21.2787 14.814 20.788C15.0287 20.2667 15.3507 19.3927 15.78 18.166C16.0253 17.8287 16.194 17.4147 16.286 16.924C16.378 16.4333 16.424 16.0193 16.424 15.682C16.424 15.3447 16.424 14.8847 16.424 14.302C16.4547 13.7193 16.5313 13.2287 16.654 12.83C16.654 12.0327 16.6387 11.5113 16.608 11.266C16.5773 10.99 16.4547 10.7293 16.24 10.484C16.1173 10.392 15.9487 10.3 15.734 10.208C15.55 10.116 15.3507 10.07 15.136 10.07C14.9213 10.07 14.5227 10.1927 13.94 10.438C13.3573 10.6527 12.9433 10.8367 12.698 10.99C12.4833 11.1127 12.238 11.128 11.962 11.036C11.7167 10.944 11.594 10.8213 11.594 10.668C11.594 10.2387 11.318 10.208 10.766 10.576C10.214 10.9133 9.60067 11.496 8.926 12.324C8.374 12.876 7.89867 13.4433 7.5 14.026C7.132 14.578 6.948 14.9153 6.948 15.038C6.948 15.1607 6.902 15.314 6.81 15.498C6.718 15.682 6.626 15.8967 6.534 16.142C6.38067 16.3567 6.19667 16.7093 5.982 17.2C5.76733 17.6907 5.55267 18.1813 5.338 18.672C5.154 19.132 5.03133 19.4847 4.97 19.73C4.97 19.8527 4.97 20.19 4.97 20.742C4.97 21.2633 4.97 21.754 4.97 22.214C4.97 22.7353 4.98533 23.18 5.016 23.548C5.07733 23.916 5.154 24.238 5.246 24.514C5.338 24.7593 5.46067 25.0353 5.614 25.342C5.73667 25.5567 5.92067 25.8173 6.166 26.124C6.442 26.4 6.626 26.5993 6.718 26.722C7.05533 27.0287 7.33133 27.2127 7.546 27.274C7.76067 27.3047 8.15933 27.2587 8.742 27.136ZM27.887 30.264C27.1203 30.264 26.369 30.1873 25.633 30.034C24.9277 29.85 24.3603 29.62 23.931 29.344C23.5017 29.0373 23.3023 28.7 23.333 28.332C23.3637 27.8413 23.471 27.5807 23.655 27.55C23.839 27.4887 24.2683 27.504 24.943 27.596C25.9857 27.8107 27.105 27.826 28.301 27.642C29.497 27.458 30.6163 27.136 31.659 26.676C32.7017 26.216 33.5143 25.6947 34.097 25.112C34.925 24.3147 35.293 23.5173 35.201 22.72C35.1397 21.9227 34.6643 21.2327 33.775 20.65C33.3763 20.374 32.8243 20.1133 32.119 19.868C31.4137 19.6227 30.7083 19.4387 30.003 19.316C29.3283 19.1627 28.7763 19.1013 28.347 19.132C28.071 19.1627 27.841 19.1627 27.657 19.132C27.5037 19.1013 27.2277 18.9787 26.829 18.764C26.645 18.5493 26.4763 18.3193 26.323 18.074C26.1697 17.798 26.0623 17.5987 26.001 17.476C25.9703 17.3227 26.047 17.1693 26.231 17.016C26.4457 16.8627 26.8903 16.602 27.565 16.234C28.2397 15.8353 29.2823 15.2527 30.693 14.486C31.981 13.7807 32.993 13.2133 33.729 12.784C34.4957 12.324 35.0937 11.956 35.523 11.68C35.983 11.3733 36.351 11.0973 36.627 10.852C37.179 10.116 37.455 9.64067 37.455 9.426C37.455 9.21133 37.0563 9.02733 36.259 8.874C35.4923 8.81267 34.7563 8.76667 34.051 8.736C33.3457 8.70533 32.993 8.75133 32.993 8.874C32.993 8.874 32.9777 8.874 32.947 8.874C32.947 8.874 32.901 8.874 32.809 8.874C32.6557 8.81267 32.3183 8.828 31.797 8.92C31.2757 9.012 30.7697 9.11933 30.279 9.242C29.819 9.36467 29.5737 9.472 29.543 9.564C29.5123 9.62533 29.3283 9.73267 28.991 9.886C28.6843 10.0087 28.3623 10.116 28.025 10.208C27.7183 10.3 27.519 10.346 27.427 10.346C27.2737 10.2847 27.0897 10.1313 26.875 9.886C26.691 9.61 26.5377 9.334 26.415 9.058C26.2923 8.75133 26.2617 8.52133 26.323 8.368C26.3843 8.24533 26.5683 8.092 26.875 7.908C27.2123 7.69333 27.5957 7.47867 28.025 7.264C28.4543 7.01866 28.8377 6.81933 29.175 6.666C29.6043 6.54333 30.2023 6.45133 30.969 6.39C31.7663 6.32867 32.5637 6.298 33.361 6.298C34.1583 6.26733 34.741 6.26733 35.109 6.298C36.5197 6.45133 37.6083 6.81933 38.375 7.402C39.1417 7.98467 39.617 8.76667 39.801 9.748C39.893 10.1773 39.9237 10.53 39.893 10.806C39.8623 11.082 39.7243 11.3733 39.479 11.68C39.2337 11.956 38.8043 12.37 38.191 12.922C37.4243 13.4127 36.7957 13.8267 36.305 14.164C35.8143 14.5013 35.0783 14.9307 34.097 15.452C33.8823 15.6053 33.591 15.8047 33.223 16.05C32.855 16.2953 32.5177 16.5253 32.211 16.74C31.9043 16.924 31.751 17.0467 31.751 17.108C31.751 17.108 31.8123 17.154 31.935 17.246C32.0577 17.3073 32.211 17.3993 32.395 17.522C32.579 17.6447 32.7477 17.7827 32.901 17.936C33.7903 18.2427 34.603 18.7333 35.339 19.408C36.075 20.0827 36.5963 20.6347 36.903 21.064C37.3323 22.0147 37.501 22.9347 37.409 23.824C37.3477 24.7133 37.041 25.5567 36.489 26.354C35.937 27.1207 35.1243 27.826 34.051 28.47C33.1923 28.9607 32.1957 29.3747 31.061 29.712C29.9263 30.0187 28.8683 30.2027 27.887 30.264ZM44.456 28.608C43.8733 28.8227 43.3826 28.93 42.984 28.93C42.616 28.8993 42.202 28.7153 41.742 28.378C41.1593 27.826 40.96 27.274 41.144 26.722C41.3586 26.1393 41.8646 25.572 42.662 25.02C43.214 24.6827 43.6126 24.4987 43.858 24.468C44.134 24.4373 44.548 24.5447 45.1 24.79C46.02 25.3727 46.4186 26.0167 46.296 26.722C46.204 27.4273 45.5906 28.056 44.456 28.608ZM67.5677 33.024C67.3224 33.024 67.0464 32.8247 66.7397 32.426C66.4331 32.0273 66.2951 31.644 66.3257 31.276C66.3564 30.7853 66.4944 30.08 66.7397 29.16C66.9851 28.24 67.2611 27.3047 67.5677 26.354C67.8744 25.4033 68.1504 24.652 68.3957 24.1C68.5184 23.6093 68.6257 23.18 68.7177 22.812C68.8404 22.4133 68.9171 22.1527 68.9477 22.03C69.0397 21.9073 69.1777 21.5853 69.3617 21.064C69.5764 20.5427 69.7451 20.0367 69.8677 19.546C69.9291 19.3007 70.0517 18.8407 70.2357 18.166C70.4504 17.4607 70.6957 16.648 70.9717 15.728C71.2784 14.808 71.5697 13.9033 71.8457 13.014C72.1524 12.1247 72.4131 11.3427 72.6277 10.668C72.8424 9.99333 72.9804 9.54867 73.0417 9.334C73.2871 8.966 73.4711 8.61333 73.5937 8.276C73.7164 7.93867 73.7931 7.70867 73.8237 7.586C74.0077 7.46333 74.1151 7.31 74.1457 7.126C74.1764 6.91133 74.1917 6.74267 74.1917 6.62C74.1917 6.46667 74.2377 6.344 74.3297 6.252C74.4524 6.16 74.5137 6.05267 74.5137 5.93C74.6364 5.838 74.7131 5.7 74.7437 5.516C74.7744 5.30133 74.8664 5.11733 75.0197 4.964L75.2497 4.182L77.9637 4.136C77.9024 4.504 77.8104 4.964 77.6877 5.516C77.5651 6.03733 77.2737 6.74267 76.8137 7.632C76.6604 8.24533 76.4764 8.79733 76.2617 9.288C76.0777 9.77867 76.0011 10.1007 76.0317 10.254C75.9704 10.3153 75.8324 10.622 75.6177 11.174C75.4337 11.726 75.2037 12.4007 74.9277 13.198C74.6824 13.9953 74.4217 14.7927 74.1457 15.59C73.9004 16.3873 73.6704 17.0927 73.4557 17.706C73.2717 18.2887 73.1491 18.6567 73.0877 18.81C72.8424 19.3007 72.5664 20.0213 72.2597 20.972C71.9531 21.9227 71.4931 23.2107 70.8797 24.836C70.6344 25.3267 70.3277 26.0627 69.9597 27.044C69.6224 28.0253 69.3464 28.9147 69.1317 29.712C68.7944 30.908 68.5491 31.736 68.3957 32.196C68.2731 32.6867 68.1657 32.9473 68.0737 32.978C67.9817 33.0393 67.8131 33.0547 67.5677 33.024ZM67.9357 5.608C67.0771 5.63867 66.4331 5.59267 66.0037 5.47C65.6051 5.34733 65.4671 5.04067 65.5897 4.55C65.6817 4.182 65.8811 3.906 66.1877 3.722C66.4944 3.538 66.9391 3.4 67.5217 3.308C67.8591 3.24666 68.2884 3.17 68.8097 3.078C69.3617 2.986 69.8831 2.894 70.3737 2.802C71.3857 2.67933 72.2137 2.572 72.8577 2.48C73.5324 2.388 74.2224 2.31133 74.9277 2.25C75.6331 2.18867 76.5224 2.12733 77.5957 2.066C78.4851 2.00467 79.2364 1.95866 79.8497 1.928C80.4937 1.86667 80.8157 1.836 80.8157 1.836C80.9077 1.836 81.2297 1.86667 81.7817 1.928C82.3337 1.98933 82.9317 2.066 83.5757 2.158C84.2197 2.25 84.6951 2.35733 85.0017 2.48C85.7071 2.63333 86.2131 2.848 86.5197 3.124C86.8571 3.4 87.0871 3.79867 87.2097 4.32C87.3017 4.688 87.3017 4.918 87.2097 5.01C87.1177 5.07133 86.9491 5.16333 86.7037 5.286C85.9984 5.50067 85.4771 5.608 85.1397 5.608C84.8024 5.608 84.4191 5.53133 83.9897 5.378C83.8364 5.22466 83.6524 5.08666 83.4377 4.964C83.2537 4.84133 82.9164 4.74933 82.4257 4.688C81.9657 4.596 81.2297 4.51933 80.2177 4.458C79.3591 4.55 78.6077 4.596 77.9637 4.596C77.3197 4.596 76.9977 4.67267 76.9977 4.826L74.2837 4.964L72.0297 5.194C71.7231 5.22467 71.2937 5.27067 70.7417 5.332C70.1897 5.36266 69.6531 5.40867 69.1317 5.47C68.6104 5.50067 68.2117 5.54667 67.9357 5.608ZM86.4497 30.862C85.9897 30.862 85.407 30.8313 84.7017 30.77C84.027 30.7087 83.4443 30.2793 82.9537 29.482C82.647 28.9607 82.417 28.3627 82.2637 27.688C82.141 27.0133 82.141 26.538 82.2637 26.262C82.693 23.9007 83.0303 22.2753 83.2757 21.386C83.521 20.4967 83.659 19.9907 83.6897 19.868C83.751 19.7453 83.8737 19.454 84.0577 18.994C84.2723 18.5033 84.395 18.1967 84.4257 18.074C84.579 17.5833 84.625 17.0313 84.5637 16.418C84.533 16.1727 84.5483 15.958 84.6097 15.774C84.7017 15.5593 84.8397 15.3753 85.0237 15.222C85.545 14.8233 85.959 14.302 86.2657 13.658C86.3577 13.4433 86.5263 13.0753 86.7717 12.554C87.0477 12.002 87.3237 11.4653 87.5997 10.944C87.9063 10.392 88.1363 10.0087 88.2897 9.794C88.7803 9.18067 89.225 8.53667 89.6237 7.862C90.053 7.15667 90.5743 6.54333 91.1877 6.022C91.5863 5.34733 92.0923 4.734 92.7057 4.182C93.319 3.59933 93.9323 3.06266 94.5457 2.572C95.159 2.08133 95.6497 1.652 96.0177 1.284C96.171 1.13067 96.585 0.992665 97.2597 0.869999C97.965 0.716665 98.5323 0.578665 98.9617 0.455998C99.1457 0.363998 99.4983 0.440664 100.02 0.685998C100.541 0.900666 100.909 1.146 101.124 1.422C101.522 2.09666 101.752 2.64866 101.814 3.078C101.906 3.50733 101.844 4.01333 101.63 4.596C101.446 5.148 101.078 6.00666 100.526 7.172C99.9123 8.39867 99.0383 9.564 97.9037 10.668C96.7997 11.7413 95.665 12.6767 94.4997 13.474C93.917 13.9953 93.3037 14.4707 92.6597 14.9C92.0463 15.3293 91.4177 15.7127 90.7737 16.05C90.375 16.2647 89.961 16.464 89.5317 16.648C89.133 16.832 88.719 17.0007 88.2897 17.154C88.075 17.2153 87.8757 17.338 87.6917 17.522C87.5077 17.6753 87.3543 17.9053 87.2317 18.212C87.0477 18.6413 86.9403 19.0093 86.9097 19.316C86.9097 19.592 86.8177 19.822 86.6337 20.006C86.5417 20.098 86.4037 20.466 86.2197 21.11C86.0663 21.7233 85.8823 22.4593 85.6677 23.318C85.4837 24.146 85.3303 24.928 85.2077 25.664C85.085 26.3693 85.039 26.8447 85.0697 27.09C85.1003 27.2433 85.131 27.412 85.1617 27.596C85.223 27.7493 85.361 27.872 85.5757 27.964C86.0357 27.872 86.4037 27.7187 86.6797 27.504C86.9557 27.2587 87.2623 26.9367 87.5997 26.538C87.9677 26.078 88.305 25.5873 88.6117 25.066C88.949 24.5447 89.225 24.008 89.4397 23.456C89.5623 23.1187 89.6543 22.766 89.7157 22.398C89.777 21.9993 89.8843 21.6467 90.0377 21.34C90.0377 20.6347 90.0223 20.1133 89.9917 19.776C89.9917 19.408 89.961 19.1167 89.8997 18.902C89.869 18.6567 89.7923 18.3807 89.6697 18.074C89.915 17.9207 90.053 17.798 90.0837 17.706C90.145 17.614 90.283 17.5987 90.4977 17.66C90.8963 17.752 91.2643 17.9053 91.6017 18.12C91.9697 18.3347 92.3223 18.6107 92.6597 18.948C92.7823 19.0707 92.859 19.1933 92.8897 19.316C92.9203 19.4387 92.905 19.5767 92.8437 19.73C92.813 20.098 92.767 20.466 92.7057 20.834C92.675 21.1713 92.6597 21.5087 92.6597 21.846C92.445 22.2447 92.307 22.674 92.2457 23.134C92.1843 23.5633 92.077 23.9927 91.9237 24.422C91.7397 24.8207 91.5557 25.2193 91.3717 25.618C91.1877 26.0167 90.973 26.3847 90.7277 26.722C90.3597 27.3967 89.9303 27.9947 89.4397 28.516C88.9797 29.0373 88.489 29.5127 87.9677 29.942L86.4497 30.862ZM88.5657 13.888C88.9337 13.9493 89.1943 13.9647 89.3477 13.934C89.5317 13.8727 89.7157 13.7193 89.8997 13.474C91.341 12.5233 92.6597 11.588 93.8557 10.668C95.0517 9.71733 96.0483 8.81267 96.8457 7.954C97.6737 7.06466 98.2103 6.28267 98.4557 5.608C98.609 5.27067 98.7777 4.94867 98.9617 4.642C99.1763 4.33533 99.3143 3.98267 99.3757 3.584L99.1917 2.296C98.333 2.69467 97.643 3.06267 97.1217 3.4C96.631 3.73733 95.987 4.30466 95.1897 5.102C94.883 5.40867 94.423 5.93 93.8097 6.666C93.227 7.37133 92.583 8.16866 91.8777 9.058C91.1723 9.94733 90.513 10.8213 89.8997 11.68C89.317 12.5387 88.8723 13.2747 88.5657 13.888ZM97.733 29.528C97.4876 29.2827 97.3036 28.976 97.181 28.608C97.089 28.24 97.0583 27.872 97.089 27.504C97.1196 27.136 97.1963 26.8293 97.319 26.584C97.319 26.3387 97.3496 26.1547 97.411 26.032C97.503 25.8787 97.5336 25.7407 97.503 25.618C97.4723 25.4953 97.503 25.2807 97.595 24.974C97.687 24.6673 97.779 24.376 97.871 24.1C98.0856 23.6093 98.3156 23.0267 98.561 22.352C98.8063 21.6467 99.0363 20.9567 99.251 20.282C99.4656 19.6073 99.6496 19.0247 99.803 18.534C99.9563 18.0433 100.048 17.7367 100.079 17.614C100.079 17.246 100.324 17.0467 100.815 17.016C101.183 16.8933 101.459 16.8933 101.643 17.016C101.827 17.108 102.072 17.3993 102.379 17.89C102.624 18.1353 102.716 18.5033 102.655 18.994C102.594 19.4847 102.394 20.098 102.057 20.834C101.934 21.0793 101.781 21.432 101.597 21.892C101.444 22.352 101.336 22.766 101.275 23.134C101.152 23.3793 100.999 23.732 100.815 24.192C100.662 24.6213 100.524 25.0353 100.401 25.434C100.34 25.5873 100.278 25.8173 100.217 26.124C100.156 26.4 100.079 26.7067 99.987 27.044C99.895 27.3507 99.7723 27.6267 99.619 27.872C99.343 29.1293 99.0823 29.8653 98.837 30.08C98.6223 30.2947 98.2543 30.1107 97.733 29.528ZM102.195 10.852C102.042 10.6987 101.904 10.484 101.781 10.208C101.658 9.90133 101.582 9.62533 101.551 9.38C101.52 9.104 101.551 8.966 101.643 8.966C101.888 8.93533 102.18 8.67467 102.517 8.184C102.854 7.69333 102.992 7.264 102.931 6.896C102.931 6.77333 102.977 6.666 103.069 6.574C103.161 6.45133 103.268 6.37467 103.391 6.344C103.759 6.09867 104.112 6.068 104.449 6.252C104.817 6.40533 105.154 6.72733 105.461 7.218C105.737 7.80067 105.814 8.29133 105.691 8.69C105.568 9.058 105.231 9.57933 104.679 10.254C104.219 10.8673 103.79 11.2047 103.391 11.266C103.023 11.3273 102.624 11.1893 102.195 10.852ZM116.801 30.908C116.586 31.0307 116.295 30.9847 115.927 30.77C115.59 30.5553 115.252 30.2333 114.915 29.804C114.7 29.436 114.547 29.0373 114.455 28.608C114.394 28.1787 114.363 27.5807 114.363 26.814C114.394 26.2007 114.363 25.802 114.271 25.618C114.21 25.434 114.041 25.4647 113.765 25.71C113.489 25.9247 113.014 26.3693 112.339 27.044C111.572 27.8107 110.836 28.4087 110.131 28.838C109.456 29.2673 108.904 29.4667 108.475 29.436C108.26 29.436 108.015 29.3287 107.739 29.114C107.494 28.8687 107.264 28.5773 107.049 28.24C106.834 27.872 106.65 27.504 106.497 27.136C106.313 26.4613 106.282 25.6027 106.405 24.56C106.558 23.4867 106.804 22.3673 107.141 21.202C107.478 20.0367 107.862 18.9327 108.291 17.89C108.751 16.8473 109.211 16.004 109.671 15.36C110.162 14.716 110.591 14.394 110.959 14.394C111.204 14.394 111.419 14.5167 111.603 14.762C111.818 15.0073 112.032 15.3907 112.247 15.912C112.37 16.1267 112.416 16.3107 112.385 16.464C112.385 16.6173 112.262 16.8013 112.017 17.016C111.741 17.384 111.419 17.936 111.051 18.672C110.714 19.408 110.376 20.2053 110.039 21.064C109.732 21.9227 109.456 22.7507 109.211 23.548C108.966 24.3453 108.797 25.0047 108.705 25.526C108.613 26.0167 108.628 26.262 108.751 26.262C109.18 26.262 109.686 26.0933 110.269 25.756C110.882 25.388 111.465 24.9433 112.017 24.422C112.661 23.778 113.228 23.0727 113.719 22.306C114.24 21.5393 114.762 20.7267 115.283 19.868C115.682 19.2547 116.096 18.58 116.525 17.844C116.985 17.108 117.276 16.5867 117.399 16.28C117.828 15.4827 118.15 14.946 118.365 14.67C118.58 14.3633 118.84 14.164 119.147 14.072C119.3 14.072 119.438 14.072 119.561 14.072C119.714 14.072 119.791 14.072 119.791 14.072C119.975 14.1027 120.19 14.2407 120.435 14.486C120.68 14.6087 120.818 14.7313 120.849 14.854C120.88 14.946 120.895 15.0687 120.895 15.222C120.772 15.5287 120.573 15.9887 120.297 16.602C120.052 17.1847 119.868 17.614 119.745 17.89C119.162 19.2087 118.58 20.512 117.997 21.8C117.445 23.0573 117.046 24.3453 116.801 25.664C116.74 26.0933 116.724 26.5993 116.755 27.182C116.816 27.734 116.908 28.1327 117.031 28.378C117.123 28.562 117.23 28.7767 117.353 29.022C117.506 29.2367 117.675 29.4207 117.859 29.574C118.135 29.758 118.181 29.9573 117.997 30.172C117.844 30.3867 117.629 30.5707 117.353 30.724C117.077 30.8467 116.893 30.908 116.801 30.908ZM116.203 11.818C115.252 11.9407 114.455 11.6647 113.811 10.99C113.167 10.3153 112.676 9.31867 112.339 8C112.278 7.75467 112.247 7.54 112.247 7.356C112.278 7.14133 112.339 6.95733 112.431 6.804C112.492 6.68133 112.615 6.58933 112.799 6.528C112.983 6.436 113.136 6.42067 113.259 6.482C113.688 6.63533 113.995 6.83467 114.179 7.08C114.394 7.29467 114.532 7.57067 114.593 7.908C114.654 8.06133 114.685 8.21467 114.685 8.368C114.716 8.52133 114.731 8.58267 114.731 8.552C114.884 9.04267 115.084 9.38 115.329 9.564C115.574 9.748 115.942 9.73267 116.433 9.518C116.954 9.30333 117.46 9.058 117.951 8.782C118.472 8.506 118.932 8.16867 119.331 7.77C119.668 7.43267 119.99 7.126 120.297 6.85C120.634 6.574 120.956 6.28267 121.263 5.976L121.309 5.93C121.432 5.838 121.585 5.80733 121.769 5.838C121.953 5.86867 122.06 5.91467 122.091 5.976C122.306 6.19067 122.413 6.40533 122.413 6.62C122.413 6.83467 122.413 7.06467 122.413 7.31L122.367 7.402C122.428 7.586 122.275 7.93867 121.907 8.46C121.57 8.98133 121.156 9.426 120.665 9.794C120.236 10.1313 119.776 10.438 119.285 10.714C118.794 10.99 118.288 11.2507 117.767 11.496C117.552 11.6187 117.322 11.6953 117.077 11.726C116.862 11.726 116.571 11.7567 116.203 11.818ZM3.728 75.77C3.51333 75.6473 3.28333 75.5247 3.038 75.402C2.82333 75.2793 2.60867 75.1567 2.394 75.034C2.21 74.9113 2.04133 74.7887 1.888 74.666C1.244 74.0833 0.814667 73.4547 0.6 72.78C0.416 72.0747 0.354667 71.4 0.416 70.756C0.477333 70.112 0.569334 69.56 0.692 69.1C0.814667 68.6093 0.876 68.272 0.876 68.088C0.845334 67.8427 0.891334 67.6127 1.014 67.398C1.13667 67.1527 1.25933 66.9073 1.382 66.662C1.934 65.5887 2.44 64.6687 2.9 63.902C3.39067 63.1047 4.096 62.1847 5.016 61.142C5.2 60.9887 5.36867 60.8507 5.522 60.728C5.706 60.5747 5.89 60.4673 6.074 60.406L7.132 61.188C7.25467 61.3107 7.33133 61.464 7.362 61.648C7.39267 61.8013 7.362 62.016 7.27 62.292C7.20867 62.5067 7.132 62.7213 7.04 62.936C6.97867 63.12 6.88667 63.2887 6.764 63.442C6.24267 63.9327 5.82867 64.4847 5.522 65.098C5.21533 65.6807 4.89333 66.2787 4.556 66.892C4.556 67.168 4.44867 67.398 4.234 67.582C4.01933 67.7353 3.89667 67.9653 3.866 68.272C3.866 68.4867 3.83533 68.7013 3.774 68.916C3.71267 69.1307 3.65133 69.3607 3.59 69.606C3.37533 70.0967 3.28333 70.572 3.314 71.032C3.34467 71.492 3.36 71.9673 3.36 72.458C3.60533 72.5807 3.82 72.6573 4.004 72.688C4.188 72.688 4.43333 72.5347 4.74 72.228C5.35333 71.7067 5.78267 71.2467 6.028 70.848C6.304 70.4493 6.51867 70.0507 6.672 69.652C6.82533 69.2533 7.04 68.7933 7.316 68.272C7.62267 67.7507 7.88333 67.0913 8.098 66.294C8.31267 65.4967 8.466 64.7453 8.558 64.04C8.65 63.304 8.65 62.8133 8.558 62.568C8.52733 62.4147 8.54267 62.2307 8.604 62.016C8.66533 61.8013 8.57333 61.5867 8.328 61.372C8.45067 61.2493 8.512 61.0193 8.512 60.682C8.512 60.3447 8.48133 59.992 8.42 59.624C8.35867 59.256 8.26667 58.9953 8.144 58.842C8.08267 57.6153 8.03667 56.588 8.006 55.76C8.006 54.9013 8.02133 54.1653 8.052 53.552C8.11333 52.908 8.19 52.31 8.282 51.758C8.31267 51.666 8.49667 51.3593 8.834 50.838C9.202 50.286 9.53933 49.8567 9.846 49.55C10.3673 49.09 11.0727 48.7373 11.962 48.492C12.882 48.216 13.664 48.1087 14.308 48.17C14.2773 48.2007 14.4613 48.216 14.86 48.216C15.2893 48.216 15.7647 48.2007 16.286 48.17C16.8073 48.1393 17.1907 48.1087 17.436 48.078C17.6813 48.0167 17.9267 47.9553 18.172 47.894C18.4173 47.8327 18.8313 47.6333 19.414 47.296C19.6593 47.1427 19.8587 47.0967 20.012 47.158L21.254 48.216C21.2233 49.0747 21.0087 49.7187 20.61 50.148C20.2113 50.5467 19.4447 50.8073 18.31 50.93C18.126 50.93 17.9267 50.93 17.712 50.93C17.4973 50.8993 17.2827 50.9147 17.068 50.976C16.884 51.0373 16.7153 51.0373 16.562 50.976C16.4393 50.9147 16.2553 50.884 16.01 50.884C15.6727 50.884 15.32 50.93 14.952 51.022C14.584 51.0833 14.2007 51.068 13.802 50.976C12.698 51.2827 11.8393 51.6967 11.226 52.218C10.6127 52.7393 10.306 53.598 10.306 54.794C10.4287 55.9287 10.582 56.9407 10.766 57.83C10.9807 58.7193 11.088 59.7007 11.088 60.774C11.1493 61.05 11.226 61.28 11.318 61.464C11.41 61.648 11.364 61.8473 11.18 62.062C11.3333 62.7673 11.41 63.4573 11.41 64.132C11.41 64.776 11.318 65.2667 11.134 65.604C11.0727 65.8187 11.0267 66.2173 10.996 66.8C10.996 67.352 10.8427 67.9347 10.536 68.548C9.83067 69.9893 9.11 71.2773 8.374 72.412C7.638 73.516 6.70267 74.4513 5.568 75.218C5.35333 75.3407 5.09267 75.4327 4.786 75.494C4.51 75.5553 4.15733 75.6473 3.728 75.77ZM15.2564 74.528C15.0111 74.2827 14.8271 73.976 14.7044 73.608C14.6124 73.24 14.5817 72.872 14.6124 72.504C14.6431 72.136 14.7197 71.8293 14.8424 71.584C14.8424 71.3387 14.8731 71.1547 14.9344 71.032C15.0264 70.8787 15.0571 70.7407 15.0264 70.618C14.9957 70.4953 15.0264 70.2807 15.1184 69.974C15.2104 69.6673 15.3024 69.376 15.3944 69.1C15.6091 68.6093 15.8391 68.0267 16.0844 67.352C16.3297 66.6467 16.5597 65.9567 16.7744 65.282C16.9891 64.6073 17.1731 64.0247 17.3264 63.534C17.4797 63.0433 17.5717 62.7367 17.6024 62.614C17.6024 62.246 17.8477 62.0467 18.3384 62.016C18.7064 61.8933 18.9824 61.8933 19.1664 62.016C19.3504 62.108 19.5957 62.3993 19.9024 62.89C20.1477 63.1353 20.2397 63.5033 20.1784 63.994C20.1171 64.4847 19.9177 65.098 19.5804 65.834C19.4577 66.0793 19.3044 66.432 19.1204 66.892C18.9671 67.352 18.8597 67.766 18.7984 68.134C18.6757 68.3793 18.5224 68.732 18.3384 69.192C18.1851 69.6213 18.0471 70.0353 17.9244 70.434C17.8631 70.5873 17.8017 70.8173 17.7404 71.124C17.6791 71.4 17.6024 71.7067 17.5104 72.044C17.4184 72.3507 17.2957 72.6267 17.1424 72.872C16.8664 74.1293 16.6057 74.8653 16.3604 75.08C16.1457 75.2947 15.7777 75.1107 15.2564 74.528ZM19.7184 55.852C19.5651 55.6987 19.4271 55.484 19.3044 55.208C19.1817 54.9013 19.1051 54.6253 19.0744 54.38C19.0437 54.104 19.0744 53.966 19.1664 53.966C19.4117 53.9353 19.7031 53.6747 20.0404 53.184C20.3777 52.6933 20.5157 52.264 20.4544 51.896C20.4544 51.7733 20.5004 51.666 20.5924 51.574C20.6844 51.4513 20.7917 51.3747 20.9144 51.344C21.2824 51.0987 21.6351 51.068 21.9724 51.252C22.3404 51.4053 22.6777 51.7273 22.9844 52.218C23.2604 52.8007 23.3371 53.2913 23.2144 53.69C23.0917 54.058 22.7544 54.5793 22.2024 55.254C21.7424 55.8673 21.3131 56.2047 20.9144 56.266C20.5464 56.3273 20.1477 56.1893 19.7184 55.852ZM18.8225 89.754C18.1478 89.754 17.5038 89.6313 16.8905 89.386C16.2465 89.1407 15.6485 88.742 15.0965 88.19C14.8205 87.5153 14.6211 87.0707 14.4985 86.856C14.3451 86.672 14.0691 86.396 13.6705 86.028C13.6705 85.8747 13.7318 85.5833 13.8545 85.154C13.9771 84.7553 14.1611 84.4027 14.4065 84.096C15.0505 83.3293 15.8325 82.6393 16.7525 82.026C17.6725 81.4433 18.7458 80.9373 19.9725 80.508C20.1258 80.4467 20.2791 80.37 20.4325 80.278C20.6165 80.2167 20.7851 80.186 20.9385 80.186C21.0918 80.186 21.1838 80.094 21.2145 79.91C21.2758 79.726 21.4138 79.7107 21.6285 79.864C21.7818 79.8027 21.9045 79.726 21.9965 79.634C22.0885 79.542 22.2418 79.5267 22.4565 79.588C22.4565 79.588 22.6251 79.542 22.9625 79.45C23.3305 79.358 23.7445 79.2353 24.2045 79.082C24.6645 78.9593 25.0631 78.8367 25.4005 78.714C25.7685 78.622 25.9525 78.576 25.9525 78.576C26.0138 77.748 26.0291 76.8893 25.9985 76C25.9985 75.1107 25.7531 74.4513 25.2625 74.022C24.9558 73.6847 24.7105 73.3013 24.5265 72.872C24.3731 72.4427 24.1738 71.9827 23.9285 71.492C23.9898 71.216 24.0971 70.986 24.2505 70.802C24.4038 70.618 24.6185 70.4647 24.8945 70.342C25.4771 70.066 26.1825 69.6367 27.0105 69.054C27.8691 68.4407 28.7431 67.72 29.6325 66.892C30.5218 66.064 31.3038 65.1747 31.9785 64.224C32.4078 63.6107 32.5611 63.028 32.4385 62.476C32.3465 61.924 31.8098 61.5867 30.8285 61.464C30.2151 61.464 29.5251 61.6787 28.7585 62.108C27.9918 62.5067 27.1945 63.0587 26.3665 63.764C25.8758 63.948 25.5231 63.902 25.3085 63.626C25.0938 63.3193 24.9251 62.982 24.8025 62.614C24.8638 62.2767 24.9865 61.9853 25.1705 61.74C25.3545 61.464 25.5538 61.2033 25.7685 60.958C26.0138 60.7127 26.2285 60.452 26.4125 60.176C26.6578 60.0533 26.8725 59.9307 27.0565 59.808C27.2405 59.6547 27.4398 59.5167 27.6545 59.394C27.8385 59.2713 28.0225 59.1793 28.2065 59.118C28.4211 59.026 28.6358 58.98 28.8505 58.98C29.0345 58.98 29.2185 58.9493 29.4025 58.888C29.5865 58.796 29.7858 58.75 30.0005 58.75C31.4418 58.8113 32.5765 59.3633 33.4045 60.406C34.2325 61.4487 34.6005 62.476 34.5085 63.488C34.4471 64.5 33.9258 65.8187 32.9445 67.444C32.6685 67.904 32.2085 68.3947 31.5645 68.916C30.9511 69.4373 30.2918 69.9433 29.5865 70.434C28.9118 70.9247 28.3138 71.354 27.7925 71.722C27.2711 72.0593 26.9645 72.274 26.8725 72.366C27.1485 72.7033 27.4398 73.2707 27.7465 74.068C28.0531 74.8347 28.2985 75.6167 28.4825 76.414C28.6971 77.242 28.7278 77.886 28.5745 78.346C28.8811 78.4073 29.2645 78.3767 29.7245 78.254C30.2151 78.162 30.5985 78.116 30.8745 78.116C31.1505 78.392 31.4265 78.6527 31.7025 78.898C31.9785 79.1433 32.1165 79.404 32.1165 79.68C32.1778 79.864 32.1318 80.0327 31.9785 80.186C31.8558 80.3393 31.7178 80.4313 31.5645 80.462C31.1658 80.5233 30.6598 80.5387 30.0465 80.508C29.4331 80.4773 28.8351 80.5847 28.2525 80.83C27.8231 81.474 27.4551 82.1793 27.1485 82.946C26.8418 83.7433 26.4431 84.556 25.9525 85.384C25.4618 86.2427 24.6951 87.1167 23.6525 88.006C23.2845 88.3127 22.9011 88.5887 22.5025 88.834C22.1038 89.11 21.7818 89.248 21.5365 89.248C21.0458 89.4013 20.5705 89.524 20.1105 89.616C19.6811 89.708 19.2518 89.754 18.8225 89.754ZM16.8445 87.408C16.8445 87.4693 17.0745 87.4847 17.5345 87.454C17.9638 87.454 18.4851 87.3773 19.0985 87.224C19.7425 87.1013 20.3098 86.902 20.8005 86.626C21.4138 86.258 21.9351 85.8133 22.3645 85.292C22.7938 84.8013 23.2078 84.2647 23.6065 83.682C23.7598 83.4367 23.9131 83.1607 24.0665 82.854C24.2198 82.578 24.3425 82.2867 24.4345 81.98C24.2198 81.7347 23.8671 81.75 23.3765 82.026C22.8858 82.302 22.3031 82.5627 21.6285 82.808C20.9231 83.0533 20.0645 83.4213 19.0525 83.912C18.0711 84.4333 17.3198 85.0007 16.7985 85.614C16.6451 85.8287 16.4765 86.028 16.2925 86.212C16.1085 86.396 15.9091 86.5647 15.6945 86.718C15.8478 86.9327 16.0165 87.1013 16.2005 87.224C16.3845 87.3467 16.5991 87.408 16.8445 87.408ZM47.1326 75.494C46.9486 75.4327 46.7646 75.3867 46.5806 75.356C46.3966 75.2947 46.2126 75.2333 46.0286 75.172C45.8753 75.1107 45.6913 75.0647 45.4766 75.034C45.1699 74.6047 45.0473 74.0833 45.1086 73.47C45.1699 72.826 45.3079 72.1667 45.5226 71.492C45.7679 70.8173 45.9979 70.158 46.2126 69.514C46.4579 68.87 46.5959 68.318 46.6266 67.858C46.5959 67.7353 46.5499 67.7047 46.4886 67.766C46.4273 67.7967 46.3966 67.8427 46.3966 67.904C46.1819 68.1493 45.8753 68.318 45.4766 68.41C45.0779 68.502 44.7099 68.5787 44.3726 68.64C43.7899 68.732 43.2073 68.8393 42.6246 68.962C42.0419 69.0847 41.4746 69.2227 40.9226 69.376C40.8306 69.3147 40.7233 69.238 40.6006 69.146C40.5086 69.054 40.4166 68.9773 40.3246 68.916C40.1099 68.916 39.9259 69.1153 39.7726 69.514C39.6193 69.9127 39.4813 70.4033 39.3586 70.986C39.2359 71.538 39.1133 72.0747 38.9906 72.596C38.8986 73.0867 38.8066 73.4393 38.7146 73.654C38.2239 73.7153 37.8713 73.7307 37.6566 73.7C37.4726 73.6693 37.1199 73.5773 36.5986 73.424C36.3533 73.0867 36.2153 72.7647 36.1846 72.458C36.1846 72.1513 36.2306 71.814 36.3226 71.446C36.4759 70.7407 36.5986 70.1733 36.6906 69.744C36.8133 69.3147 37.0126 68.7627 37.2886 68.088C37.4419 67.7507 37.5799 67.4287 37.7026 67.122C37.8559 66.7847 37.9326 66.4167 37.9326 66.018C38.1779 65.7113 38.3466 65.374 38.4386 65.006C38.5306 64.638 38.6379 64.27 38.7606 63.902C39.2513 62.6447 39.6346 61.6787 39.9106 61.004C40.2173 60.2987 40.4319 59.7467 40.5546 59.348C40.6773 58.9493 40.7539 58.5813 40.7846 58.244C40.8153 57.8147 41.0759 57.6 41.5666 57.6C41.8733 57.6 42.1953 57.7227 42.5326 57.968C42.8699 58.1827 43.1306 58.4587 43.3146 58.796C43.4986 59.1333 43.5139 59.486 43.3606 59.854C43.2686 60.0993 43.1153 60.498 42.9006 61.05C42.7166 61.5713 42.5019 62.154 42.2566 62.798C42.0419 63.4113 41.8273 63.994 41.6126 64.546C41.4286 65.0673 41.2753 65.4507 41.1526 65.696C41.1219 65.8187 41.0606 65.926 40.9686 66.018C40.8766 66.0793 40.8306 66.1867 40.8306 66.34C41.0453 66.4933 41.3979 66.5547 41.8886 66.524C42.4099 66.4627 42.7779 66.3707 42.9926 66.248C43.4526 66.248 43.8973 66.248 44.3266 66.248C44.7866 66.248 45.2466 66.248 45.7066 66.248C46.1666 66.524 46.5193 66.938 46.7646 67.49C46.9793 66.9073 47.2706 66.1407 47.6386 65.19C48.0066 64.2087 48.3593 63.2427 48.6966 62.292C49.0339 61.3413 49.2333 60.6207 49.2946 60.13C49.3559 59.854 49.4786 59.6087 49.6626 59.394C49.8466 59.1793 50.0459 59.0107 50.2606 58.888C50.6899 59.1027 51.1039 59.2867 51.5026 59.44C51.9319 59.5627 52.2079 59.9153 52.3306 60.498C52.2999 60.774 52.2386 61.05 52.1466 61.326C52.0546 61.5713 51.9626 61.8167 51.8706 62.062C51.5639 62.9513 51.1806 63.9327 50.7206 65.006C50.2606 66.0487 49.8313 67.122 49.4326 68.226C49.0646 69.2993 48.8039 70.3113 48.6506 71.262C48.6506 71.354 48.5739 71.6607 48.4206 72.182C48.2979 72.7033 48.1599 73.2093 48.0066 73.7C47.8839 74.1907 47.8073 74.4513 47.7766 74.482C47.7766 74.6967 47.7153 74.896 47.5926 75.08C47.4699 75.2333 47.3166 75.3713 47.1326 75.494ZM62.4675 74.39C61.8235 74.942 61.0722 75.264 60.2135 75.356C59.3855 75.448 58.5728 75.3253 57.7755 74.988C56.9782 74.62 56.3188 74.068 55.7975 73.332C55.2762 72.6573 54.9388 71.8907 54.7855 71.032C54.6322 70.1427 54.6168 68.9927 54.7395 67.582C54.8315 66.386 55.2148 65.19 55.8895 63.994C56.5642 62.7673 57.3768 61.6787 58.3275 60.728C59.3088 59.7773 60.2748 59.118 61.2255 58.75C61.6855 58.4433 62.0688 58.3053 62.3755 58.336C62.7128 58.336 63.2188 58.3667 63.8935 58.428C64.5988 58.52 65.1202 58.658 65.4575 58.842C65.8255 59.026 66.1168 59.2713 66.3315 59.578C66.7915 60.038 67.0982 60.498 67.2515 60.958C67.4048 61.3873 67.4815 61.8167 67.4815 62.246C67.3588 62.9207 66.8988 63.7487 66.1015 64.73C65.3348 65.6807 64.3228 66.4627 63.0655 67.076C62.3908 67.2907 61.6548 67.3827 60.8575 67.352C60.0602 67.3213 59.4008 67.122 58.8795 66.754C58.2968 66.5087 57.9135 66.5547 57.7295 66.892C57.5455 67.1987 57.3768 67.9653 57.2235 69.192C57.1008 70.3573 57.1928 71.216 57.4995 71.768C57.8062 72.2893 58.2202 72.596 58.7415 72.688C59.3548 72.8107 59.8302 72.9027 60.1675 72.964C60.5355 72.9947 60.9802 72.8567 61.5015 72.55C61.9922 72.2433 62.2988 72.0747 62.4215 72.044C62.5442 71.9827 62.6362 71.9213 62.6975 71.86C62.7895 71.768 62.9888 71.5687 63.2955 71.262C63.5102 71.0473 63.6788 70.894 63.8015 70.802C63.9242 70.6793 64.0622 70.618 64.2155 70.618C64.3688 70.618 64.5068 70.6947 64.6295 70.848C64.7522 70.9707 64.8748 71.0627 64.9975 71.124C65.3042 71.124 65.3655 71.308 65.1815 71.676C65.0282 72.044 64.7062 72.4887 64.2155 73.01C63.7248 73.5007 63.1422 73.9607 62.4675 74.39ZM62.4215 64.638C62.7588 64.4847 63.1115 64.27 63.4795 63.994C63.8475 63.6873 64.1542 63.3653 64.3995 63.028C64.6755 62.66 64.8135 62.3533 64.8135 62.108C64.8135 61.6787 64.6142 61.326 64.2155 61.05C63.8168 60.7433 63.2188 60.6973 62.4215 60.912C62.0842 61.004 61.7008 61.234 61.2715 61.602C60.8422 61.9393 60.4282 62.3227 60.0295 62.752C59.6615 63.1813 59.3548 63.5647 59.1095 63.902C58.8948 64.2393 58.8182 64.4387 58.8795 64.5C58.9715 64.6533 59.2322 64.776 59.6615 64.868C60.0908 64.9293 60.5662 64.9447 61.0875 64.914C61.6395 64.8833 62.0842 64.7913 62.4215 64.638ZM75.9545 74.804C75.5558 74.988 75.0958 75.0647 74.5745 75.034C74.0531 75.0033 73.3478 74.8347 72.4585 74.528C72.3971 74.528 72.2591 74.4667 72.0445 74.344C71.8605 74.2213 71.6611 74.068 71.4465 73.884C71.2625 73.6693 71.1091 73.4393 70.9865 73.194C70.4958 72.4887 70.2965 71.446 70.3885 70.066C70.4805 68.686 70.9098 67.03 71.6765 65.098C71.8911 64.638 72.2131 64.0553 72.6425 63.35C73.1025 62.6447 73.5471 62.0007 73.9765 61.418C74.4365 60.8047 74.7585 60.452 74.9425 60.36C74.9425 60.36 75.1111 60.2987 75.4485 60.176C75.7858 60.0533 76.2151 59.854 76.7365 59.578C76.8898 59.5167 77.0585 59.4553 77.2425 59.394C77.4571 59.3327 77.6718 59.2867 77.8865 59.256C78.1011 59.2253 78.2851 59.2253 78.4385 59.256C79.0518 59.2867 79.6805 59.5167 80.3245 59.946C80.9991 60.3447 81.5511 60.82 81.9805 61.372C82.4098 61.8933 82.5478 62.3533 82.3945 62.752C82.3945 62.8133 82.3025 62.936 82.1185 63.12C81.9651 63.2733 81.7811 63.442 81.5665 63.626C81.3825 63.7793 81.2291 63.9327 81.1065 64.086C80.9531 64.27 80.7385 64.3467 80.4625 64.316C80.2171 64.2853 79.9871 64.1627 79.7725 63.948C79.5885 63.7027 79.4811 63.396 79.4505 63.028C79.3891 62.7827 79.1591 62.5527 78.7605 62.338C78.3925 62.1233 78.2085 62.016 78.2085 62.016C77.9631 62.016 77.6105 62.246 77.1505 62.706C76.7211 63.1353 76.2918 63.6567 75.8625 64.27C75.3105 64.822 74.8351 65.4813 74.4365 66.248C74.0378 66.984 73.7158 67.6893 73.4705 68.364C73.2558 69.008 73.1025 69.468 73.0105 69.744C72.8878 70.0507 72.8725 70.48 72.9645 71.032C73.0565 71.584 73.1638 71.9213 73.2865 72.044C73.4091 72.1053 73.7158 72.1207 74.2065 72.09C74.7278 72.0593 75.3411 71.998 76.0465 71.906C76.7518 71.7833 77.4418 71.6453 78.1165 71.492C78.7911 71.3387 79.3431 71.17 79.7725 70.986C80.3551 70.618 80.8611 70.4033 81.2905 70.342C81.7198 70.2807 82.0418 70.2807 82.2565 70.342C82.5938 70.4647 82.7931 70.6333 82.8545 70.848C82.9158 71.0627 82.8391 71.308 82.6245 71.584C82.4098 71.8293 82.0418 72.09 81.5205 72.366C81.0298 72.6113 80.5851 72.8873 80.1865 73.194C79.8185 73.47 79.6345 73.6847 79.6345 73.838C79.5118 73.838 79.3738 73.884 79.2205 73.976C79.0978 74.0373 78.9905 74.0527 78.8985 74.022C78.8371 74.022 78.5918 74.068 78.1625 74.16C77.7331 74.252 77.2885 74.3593 76.8285 74.482C76.3991 74.6047 76.1078 74.712 75.9545 74.804ZM95.8373 86.304C95.7146 86.304 95.5613 86.304 95.3773 86.304C95.1933 86.3347 95.0246 86.212 94.8713 85.936C94.7486 85.7827 94.6719 85.5527 94.6413 85.246C94.6413 84.9393 94.7179 84.3873 94.8713 83.59C95.0246 83.0687 95.1473 82.5473 95.2393 82.026C95.3313 81.5353 95.3773 81.1673 95.3773 80.922C95.3773 80.7993 95.4079 80.554 95.4693 80.186C95.5613 79.8487 95.6073 79.6033 95.6073 79.45C95.7606 79.2047 95.8833 78.8673 95.9753 78.438C96.0673 78.0087 96.1133 77.6253 96.1133 77.288C96.1133 76.92 96.2973 76.5827 96.6653 76.276C96.6653 76.0307 96.7113 75.724 96.8033 75.356C96.9259 74.988 96.9873 74.7427 96.9873 74.62C97.0793 74.1907 97.2786 73.4393 97.5853 72.366C97.9226 71.262 98.3213 70.02 98.7812 68.64C99.2719 67.26 99.7473 65.9107 100.207 64.592C100.667 63.2733 101.081 62.154 101.449 61.234C101.817 60.3753 102.063 59.6393 102.185 59.026C102.339 58.382 102.415 57.9067 102.415 57.6C102.415 57.4773 102.446 57.3853 102.507 57.324C102.569 57.232 102.707 57.0633 102.921 56.818C103.228 56.5113 103.489 56.4193 103.703 56.542C103.949 56.6647 104.24 56.8487 104.577 57.094C104.823 57.4927 104.991 57.83 105.083 58.106C105.206 58.382 105.206 58.8573 105.083 59.532C105.083 59.992 105.007 60.3907 104.853 60.728C104.7 61.0653 104.562 61.326 104.439 61.51C104.317 61.6633 104.286 61.7247 104.347 61.694C105.605 61.1113 106.709 60.8047 107.659 60.774C108.641 60.7127 109.453 60.8813 110.097 61.28C110.772 61.648 111.278 62.1693 111.615 62.844C111.953 63.5187 112.121 64.3007 112.121 65.19C112.121 65.558 112.045 66.0027 111.891 66.524C111.738 67.0147 111.539 67.4747 111.293 67.904C111.079 68.3027 110.879 68.594 110.695 68.778C110.573 68.778 110.45 68.8853 110.327 69.1C110.205 69.284 110.082 69.4987 109.959 69.744C109.714 70.0507 109.315 70.4033 108.763 70.802C108.242 71.17 107.721 71.4767 107.199 71.722C106.678 71.9367 106.295 71.998 106.049 71.906C106.049 71.906 106.003 71.9213 105.911 71.952C105.85 71.952 105.819 72.0287 105.819 72.182C105.819 72.2433 105.574 72.3813 105.083 72.596C104.593 72.78 104.025 72.964 103.381 73.148C102.737 73.3013 102.17 73.378 101.679 73.378C101.035 73.378 100.575 73.2553 100.299 73.01C100.238 73.0713 100.161 73.1633 100.069 73.286C100.008 73.4087 99.9773 73.516 99.9773 73.608C99.9773 73.792 99.9006 74.1447 99.7473 74.666C99.6246 75.1567 99.4713 75.632 99.2873 76.092C99.1033 76.552 98.9346 76.782 98.7812 76.782C98.7812 76.782 98.7506 76.828 98.6893 76.92C98.6279 77.012 98.6586 77.1347 98.7812 77.288C98.7812 77.288 98.7659 77.4567 98.7353 77.794C98.7353 78.162 98.6586 78.4687 98.5053 78.714C98.5053 78.9593 98.4593 79.3273 98.3673 79.818C98.2753 80.3087 98.1679 80.6767 98.0453 80.922C98.0453 81.29 97.9839 81.6427 97.8613 81.98C97.7693 82.348 97.6619 82.532 97.5393 82.532C97.4166 82.5627 97.3399 82.7467 97.3093 83.084C97.2786 83.452 97.2633 83.7127 97.2633 83.866C97.2326 84.6327 97.0793 85.2307 96.8033 85.66C96.5273 86.0893 96.2053 86.304 95.8373 86.304ZM101.403 70.94C101.649 70.94 102.155 70.8327 102.921 70.618C103.688 70.4033 104.47 70.1427 105.267 69.836C106.095 69.4987 106.709 69.1613 107.107 68.824C107.905 68.1187 108.518 67.3213 108.947 66.432C109.407 65.512 109.377 64.638 108.855 63.81C108.61 63.3807 108.165 63.212 107.521 63.304C106.877 63.3653 106.172 63.6107 105.405 64.04C104.639 64.4693 103.918 65.006 103.243 65.65C102.875 66.0487 102.538 66.5393 102.231 67.122C101.925 67.7047 101.664 68.2873 101.449 68.87C101.265 69.4527 101.158 69.9433 101.127 70.342C101.097 70.7407 101.189 70.94 101.403 70.94ZM119.846 74.252C119.202 74.3747 118.788 74.4207 118.604 74.39C118.451 74.3287 118.205 74.1447 117.868 73.838C117.377 73.5927 116.963 73.286 116.626 72.918C116.319 72.55 116.089 72.1667 115.936 71.768C115.813 71.3387 115.767 70.986 115.798 70.71C115.89 69.6367 116.151 68.4867 116.58 67.26C117.009 66.0333 117.531 64.8527 118.144 63.718C118.757 62.5833 119.417 61.6173 120.122 60.82C120.858 59.992 121.563 59.4553 122.238 59.21C122.851 58.9647 123.434 58.8727 123.986 58.934C124.538 58.9953 124.937 59.2867 125.182 59.808C125.642 60.6973 125.535 61.2647 124.86 61.51C124.768 61.51 124.661 61.556 124.538 61.648C124.415 61.7093 124.354 61.8013 124.354 61.924C124.477 61.9853 124.814 62.0007 125.366 61.97C125.918 61.9087 126.47 61.8167 127.022 61.694C127.605 61.5407 127.988 61.3873 128.172 61.234C128.356 61.142 128.494 61.096 128.586 61.096C128.678 61.096 128.908 61.1267 129.276 61.188C129.797 61.3413 130.058 61.5253 130.058 61.74C130.058 61.8627 130.104 61.9853 130.196 62.108C130.288 62.2 130.395 62.246 130.518 62.246C130.733 62.2767 130.702 62.4147 130.426 62.66C130.181 62.9053 129.751 63.2427 129.138 63.672C128.555 64.04 128.187 64.2853 128.034 64.408C127.911 64.5 127.896 64.7147 127.988 65.052C128.233 65.6347 128.249 66.3093 128.034 67.076C127.819 67.8427 127.436 68.6247 126.884 69.422C126.332 70.2193 125.657 70.9707 124.86 71.676C124.093 72.3507 123.265 72.9333 122.376 73.424C121.517 73.884 120.674 74.16 119.846 74.252ZM119.064 72.228C119.187 72.228 119.401 72.1667 119.708 72.044C120.015 71.8907 120.26 71.768 120.444 71.676C120.567 71.5533 120.72 71.4153 120.904 71.262C121.119 71.078 121.287 70.9707 121.41 70.94C121.533 70.94 121.686 70.894 121.87 70.802C122.054 70.6793 122.315 70.4493 122.652 70.112C122.989 69.744 123.434 69.2073 123.986 68.502C124.599 67.8273 125.075 67.214 125.412 66.662C125.749 66.0793 125.841 65.5427 125.688 65.052C125.657 64.9293 125.565 64.8527 125.412 64.822C125.289 64.7913 125.121 64.7147 124.906 64.592C124.599 64.592 124.308 64.5153 124.032 64.362C123.787 64.178 123.495 63.948 123.158 63.672L122.422 62.752L121.64 63.534C121.149 64.0247 120.628 64.7607 120.076 65.742C119.555 66.6927 119.11 67.674 118.742 68.686C118.374 69.6673 118.159 70.4493 118.098 71.032C118.067 71.492 118.144 71.7987 118.328 71.952C118.512 72.1053 118.757 72.1973 119.064 72.228ZM136.063 74.942C135.388 74.942 134.882 74.9113 134.545 74.85C134.207 74.7887 133.947 74.6967 133.763 74.574C133.579 74.4513 133.364 74.2827 133.119 74.068C132.996 73.8227 132.843 73.562 132.659 73.286C132.475 73.01 132.321 72.8107 132.199 72.688C132.076 72.228 132.015 71.63 132.015 70.894C132.045 70.158 132.137 69.3607 132.291 68.502C132.475 67.6433 132.72 66.846 133.027 66.11C133.149 65.8647 133.257 65.6193 133.349 65.374C133.441 65.1287 133.487 65.006 133.487 65.006C133.487 64.8527 133.671 64.4847 134.039 63.902C134.437 63.3193 134.867 62.706 135.327 62.062C135.817 61.418 136.216 60.958 136.523 60.682C136.737 60.4367 137.059 60.176 137.489 59.9C137.949 59.624 138.347 59.4247 138.685 59.302C139.022 59.1793 139.359 59.072 139.697 58.98C140.065 58.888 140.479 58.842 140.939 58.842C141.368 58.842 141.767 58.934 142.135 59.118C142.503 59.302 142.855 59.624 143.193 60.084C143.745 60.636 144.051 61.188 144.113 61.74C144.205 62.2613 144.189 62.798 144.067 63.35C143.913 63.9633 143.714 64.4387 143.469 64.776C143.223 65.0827 142.947 65.2207 142.641 65.19C142.334 65.1593 141.981 64.9293 141.583 64.5C141.46 64.2547 141.399 64.0553 141.399 63.902C141.399 63.718 141.46 63.4573 141.583 63.12C141.705 62.6907 141.705 62.246 141.583 61.786C141.46 61.326 141.261 61.096 140.985 61.096C140.586 61.096 140.141 61.28 139.651 61.648C139.191 61.9853 138.715 62.4147 138.225 62.936C138.01 63.1813 137.703 63.5647 137.305 64.086C136.937 64.5767 136.569 65.1287 136.201 65.742C135.833 66.3247 135.526 66.892 135.281 67.444C134.943 68.456 134.667 69.2687 134.453 69.882C134.269 70.4953 134.177 70.802 134.177 70.802C134.177 70.9247 134.207 71.0473 134.269 71.17C134.361 71.262 134.407 71.3693 134.407 71.492C134.407 71.86 134.621 72.1513 135.051 72.366C135.388 72.5807 135.787 72.7033 136.247 72.734C136.707 72.734 137.274 72.5807 137.949 72.274C138.439 72.0287 138.899 71.7067 139.329 71.308C139.789 70.9093 140.264 70.5567 140.755 70.25C141.092 70.0353 141.353 69.8513 141.537 69.698C141.751 69.5447 141.859 69.5293 141.859 69.652C141.859 69.7747 141.905 69.836 141.997 69.836C142.089 69.836 142.196 69.7747 142.319 69.652C142.503 69.4067 142.702 69.2533 142.917 69.192C143.131 69.1 143.315 69.0693 143.469 69.1C143.653 69.1 143.745 69.146 143.745 69.238C143.683 69.514 143.745 69.744 143.929 69.928C143.929 70.0507 143.883 70.2193 143.791 70.434C143.729 70.618 143.637 70.7713 143.515 70.894C143.361 71.1087 143.131 71.354 142.825 71.63C142.549 71.906 142.288 72.1513 142.043 72.366C141.797 72.55 141.675 72.642 141.675 72.642C141.552 72.6113 141.429 72.642 141.307 72.734C141.215 72.826 141.107 72.9333 140.985 73.056C140.739 73.2707 140.509 73.4393 140.295 73.562C140.08 73.654 139.911 73.7 139.789 73.7C139.574 73.8227 139.405 73.8993 139.283 73.93C139.191 73.9607 139.145 74.0373 139.145 74.16C138.838 74.4667 138.455 74.6813 137.995 74.804C137.565 74.896 136.921 74.942 136.063 74.942ZM149.522 73.746C149.184 73.5313 148.878 73.2553 148.602 72.918C148.326 72.55 148.188 72.09 148.188 71.538C148.188 71.2313 148.249 70.71 148.372 69.974C148.494 69.238 148.663 68.41 148.878 67.49C149.092 66.57 149.307 65.7113 149.522 64.914C149.828 64.362 150.089 63.81 150.304 63.258C150.518 62.706 150.626 62.3687 150.626 62.246C150.687 61.878 150.764 61.4487 150.856 60.958C150.978 60.4673 151.101 60.0227 151.224 59.624C151.346 59.2253 151.438 58.9953 151.5 58.934C151.653 58.7807 151.837 58.6887 152.052 58.658C152.266 58.5967 152.481 58.6273 152.696 58.75C152.941 58.842 153.125 59.0413 153.248 59.348C153.585 59.716 153.754 60.1607 153.754 60.682C153.754 61.1727 153.585 61.9087 153.248 62.89C152.972 63.5033 152.696 64.224 152.42 65.052C152.144 65.88 151.898 66.6467 151.684 67.352C151.5 68.0267 151.392 68.4867 151.362 68.732L150.442 69.008C150.963 68.5173 151.454 68.0113 151.914 67.49C152.374 66.938 152.711 66.5087 152.926 66.202C153.447 65.4967 153.892 64.914 154.26 64.454C154.658 63.9633 155.164 63.3807 155.778 62.706C156.391 62.0007 156.989 61.5713 157.572 61.418C158.185 61.234 158.66 61.142 158.998 61.142C159.672 61.2647 160.209 61.6173 160.608 62.2C161.037 62.752 161.313 63.58 161.436 64.684C161.436 65.1133 161.39 65.6193 161.298 66.202C161.236 66.7847 161.206 67.076 161.206 67.076C161.206 67.076 161.451 66.754 161.942 66.11C162.463 65.466 163.153 64.7607 164.012 63.994C164.594 63.5647 165.162 63.3193 165.714 63.258C166.266 63.166 166.756 63.35 167.186 63.81C167.983 64.2393 168.504 64.8987 168.75 65.788C168.995 66.6467 169.056 67.7507 168.934 69.1C168.842 69.8973 168.826 70.4953 168.888 70.894C168.949 71.262 169.041 71.63 169.164 71.998C169.409 72.1207 169.455 72.3813 169.302 72.78C169.148 73.148 168.964 73.332 168.75 73.332C168.443 73.332 168.09 73.2707 167.692 73.148C167.324 73.0253 166.986 72.826 166.68 72.55C166.404 72.2433 166.266 71.8293 166.266 71.308V68.456C166.266 67.7813 166.235 67.2293 166.174 66.8C166.143 66.3707 166.066 66.11 165.944 66.018C165.606 65.834 165.116 66.0333 164.472 66.616C163.828 67.1987 163.138 67.9807 162.402 68.962C161.666 69.9433 160.976 70.9553 160.332 71.998C159.749 72.9487 159.381 73.5007 159.228 73.654C159.105 73.7767 158.875 73.7307 158.538 73.516C157.863 73.3013 157.434 73.01 157.25 72.642C157.096 72.2433 157.081 71.7987 157.204 71.308C157.357 70.7867 157.541 70.0813 157.756 69.192C158.001 68.3027 158.231 67.444 158.446 66.616C158.66 65.7573 158.798 65.144 158.86 64.776C158.737 64.5307 158.522 64.454 158.216 64.546C157.94 64.6073 157.648 64.7453 157.342 64.96C156.974 65.2053 156.529 65.6653 156.008 66.34C155.486 67.0147 154.95 67.7967 154.398 68.686C154.03 69.2687 153.646 69.8513 153.248 70.434C152.849 70.986 152.481 71.4767 152.144 71.906C151.806 72.3353 151.515 72.6573 151.27 72.872C150.84 73.5467 150.549 73.9147 150.396 73.976C150.242 74.0373 149.951 73.9607 149.522 73.746ZM176.32 74.896C175.124 74.4053 174.342 73.7307 173.974 72.872C173.637 71.9827 173.575 70.618 173.79 68.778C173.851 67.8273 173.882 67.1987 173.882 66.892C173.882 66.5853 173.713 66.2787 173.376 65.972C173.284 65.8493 173.115 65.6807 172.87 65.466C172.655 65.2513 172.563 65.0673 172.594 64.914C172.563 64.6993 172.579 64.4693 172.64 64.224C172.701 63.948 172.793 63.81 172.916 63.81C173.039 63.81 173.161 63.7793 173.284 63.718C173.437 63.6567 173.575 63.6567 173.698 63.718C173.821 63.718 173.959 63.7333 174.112 63.764C174.265 63.7947 174.342 63.8713 174.342 63.994C174.465 64.2087 174.664 64.2393 174.94 64.086C175.216 63.902 175.507 63.5033 175.814 62.89C176.121 62.3993 176.519 61.9087 177.01 61.418C177.531 60.9273 178.037 60.4827 178.528 60.084C179.049 59.6547 179.479 59.348 179.816 59.164C179.969 59.1027 180.199 59.026 180.506 58.934C180.813 58.842 181.135 58.7653 181.472 58.704C181.84 58.6427 182.147 58.6273 182.392 58.658C182.944 58.6887 183.404 58.842 183.772 59.118C184.171 59.394 184.539 59.716 184.876 60.084C185.275 60.36 185.52 60.728 185.612 61.188C185.735 61.648 185.765 62.1387 185.704 62.66C185.643 63.1813 185.505 63.6567 185.29 64.086C185.198 64.3927 184.937 64.7607 184.508 65.19C184.079 65.6193 183.588 66.0333 183.036 66.432C182.484 66.8307 181.978 67.122 181.518 67.306C181.119 67.398 180.598 67.4747 179.954 67.536C179.341 67.5973 178.758 67.628 178.206 67.628C177.685 67.5973 177.332 67.536 177.148 67.444C176.933 67.3213 176.765 67.49 176.642 67.95C176.519 68.41 176.427 69.0693 176.366 69.928C176.305 70.6027 176.305 71.0933 176.366 71.4C176.427 71.7067 176.489 71.9213 176.55 72.044C176.765 72.2587 177.056 72.5347 177.424 72.872C177.823 73.1787 178.375 73.2247 179.08 73.01C179.663 72.8567 180.23 72.458 180.782 71.814C181.365 71.17 181.901 70.6487 182.392 70.25C182.515 70.0353 182.714 69.9127 182.99 69.882C183.297 69.8207 183.619 69.836 183.956 69.928C184.293 70.1427 184.431 70.4033 184.37 70.71C184.339 70.986 184.186 71.4153 183.91 71.998C183.818 72.2127 183.603 72.4887 183.266 72.826C182.959 73.1327 182.607 73.4547 182.208 73.792C181.84 74.0987 181.503 74.344 181.196 74.528C180.276 75.0187 179.417 75.2793 178.62 75.31C177.823 75.31 177.056 75.172 176.32 74.896ZM179.034 65.558C179.709 65.4047 180.245 65.2973 180.644 65.236C181.043 65.1747 181.426 65.006 181.794 64.73C182.162 64.4233 182.622 63.856 183.174 63.028C183.297 62.6907 183.327 62.3533 183.266 62.016C183.235 61.6787 183.159 61.4487 183.036 61.326C182.76 61.0193 182.423 60.9273 182.024 61.05C181.656 61.142 181.303 61.3107 180.966 61.556C180.751 61.648 180.429 61.878 180 62.246C179.601 62.5833 179.203 62.982 178.804 63.442C178.405 63.8713 178.083 64.27 177.838 64.638C177.593 65.006 177.531 65.2207 177.654 65.282C177.593 65.4047 177.761 65.4813 178.16 65.512C178.589 65.5427 178.881 65.558 179.034 65.558Z" fill="#002D6E"/>
</svg>
