<svg width="86" height="101" viewBox="0 0 86 101" fill="none" xmlns="http://www.w3.org/2000/svg">
<path d="M62.6528 59.4659C55.2866 68.5983 60.5467 80.8744 72.0555 81.0035C74.9327 81.0358 77.8222 80.0453 80.1151 78.0267C80.1384 78.0071 80.161 77.9867 80.1837 77.9654C83.6382 74.8868 85.2315 70.2327 85.283 65.6448C85.4134 54.0175 72.5371 38.1446 72.5371 38.1446C72.5371 38.1446 72.7438 46.956 62.6536 59.4659L62.6528 59.4659Z" fill="#002D6E"/>
<path d="M52.6457 82.7503C56.7493 91.6198 50.015 100.474 40.6901 98.2493C38.3589 97.6931 36.2247 96.308 34.7806 94.2131C34.7657 94.1925 34.7516 94.1714 34.7376 94.1497C32.5694 90.9632 32.224 86.8803 33.1109 83.1631C35.3585 73.7422 48.9743 63.5231 48.9743 63.5231C48.9743 63.5231 47.0241 70.6007 52.6451 82.7502L52.6457 82.7503Z" fill="#002D6E"/>
<path d="M44.4206 44.961C43.2138 61.6155 25.8191 69.2773 13.7213 58.2341C10.6968 55.4732 8.65301 51.6365 8.22819 47.3098C8.22295 47.2666 8.21929 47.2234 8.21639 47.1794C7.61264 40.6216 10.4754 34.2326 14.8777 29.4099C26.0347 17.1875 54.8457 13.181 54.8457 13.181C54.8457 13.181 46.0728 22.1466 44.4197 44.9602L44.4206 44.961Z" fill="#002D6E"/>
</svg>
