<svg width="273" height="93" viewBox="0 0 273 93" fill="none" xmlns="http://www.w3.org/2000/svg">
<path d="M2.94912 34.1033C1.95774 34.0393 1.36612 33.8635 1.17424 33.5756C1.01434 33.2878 0.934392 32.984 0.934392 32.6642C1.09429 32.1845 1.27018 31.7208 1.46206 31.2731C1.68592 30.8254 1.84581 30.3457 1.94175 29.834C2.03769 29.4183 2.13363 29.0345 2.22957 28.6827C2.32551 28.331 2.43744 27.9472 2.56536 27.5315C2.8212 26.764 3.10901 25.8205 3.42881 24.7013C3.78059 23.582 4.14836 22.4627 4.53211 21.3434C4.91587 20.2241 5.25166 19.2967 5.53947 18.5611C5.79531 17.8256 6.00318 17.202 6.16308 16.6903C6.35496 16.1787 6.54684 15.683 6.73871 15.2033C6.93059 14.7236 7.13846 14.1479 7.36232 13.4764C7.52222 13.0606 7.66613 12.6609 7.79405 12.2771C7.92196 11.8614 8.04988 11.4457 8.1778 11.0299C8.3377 10.6142 8.48161 10.2144 8.60953 9.83068C8.76943 9.41495 8.91334 8.99921 9.04126 8.58347C9.39303 7.84794 9.69684 7.14438 9.95268 6.47281C10.2405 5.80124 10.4963 5.0657 10.7202 4.26621C10.8481 3.97839 10.8321 3.77052 10.6722 3.6426C10.5443 3.51468 10.4803 3.24286 10.4803 2.82712C10.4484 2.44336 10.5443 2.17154 10.7682 2.01164C11.024 1.81976 11.3438 1.77179 11.7276 1.86773C12.1753 1.96367 12.7989 2.04362 13.5984 2.10757C14.4298 2.17154 15.1814 2.20352 15.8529 2.20352C16.5565 2.17154 16.9403 2.13956 17.0042 2.10757C17.1641 2.04362 17.6918 1.94768 18.5872 1.81976C19.4826 1.65986 20.5699 1.48397 21.8491 1.29209C23.1283 1.10021 24.4395 0.924324 25.7826 0.764426C27.1578 0.604527 28.373 0.460619 29.4283 0.332699C29.7801 0.268741 30.1159 0.268741 30.4357 0.332699C30.7875 0.39666 31.1233 0.46062 31.4431 0.524578C31.8588 0.588539 32.2745 0.812397 32.6903 1.19615C33.106 1.57991 33.2499 2.04362 33.122 2.58727C32.9941 2.93905 32.7222 3.13093 32.3065 3.16291C31.8908 3.16291 31.3311 3.09895 30.6276 2.97103C30.5636 2.97103 30.4997 3.09895 30.4357 3.35479C30.3717 3.61062 30.2918 3.91443 30.1959 4.26621C30.1319 4.61799 30.02 4.98575 29.8601 5.36951C29.6682 5.59337 29.4443 6.02509 29.1885 6.66469C28.9646 7.30428 28.7248 8.00784 28.4689 8.77535C28.2131 9.54286 28.0052 10.2464 27.8453 10.886C27.6854 11.5256 27.6055 11.9733 27.6055 12.2292C27.1578 12.9327 26.838 13.7002 26.6461 14.5317C26.4862 15.3632 26.2783 16.1467 26.0225 16.8822C25.9905 17.0101 25.8626 17.4578 25.6387 18.2254C25.4469 18.9609 25.207 19.8563 24.9192 20.9117C24.6314 21.967 24.3436 23.0223 24.0557 24.0777C23.7679 25.101 23.5281 25.9804 23.3362 26.716C23.1443 27.4515 23.0484 27.8673 23.0484 27.9632C23.0164 28.6028 22.9365 29.2584 22.8085 29.9299C22.7126 30.6015 22.6486 31.2571 22.6167 31.8967C22.6486 32.0246 22.6646 32.1365 22.6646 32.2325C22.6646 32.2964 22.6007 32.3604 22.4727 32.4244C22.2169 32.6482 21.7852 32.7602 21.1776 32.7602C20.5699 32.7282 20.1862 32.6162 20.0263 32.4244C19.8984 32.1685 19.7864 31.9447 19.6905 31.7528C19.5946 31.5289 19.5626 31.2891 19.5946 31.0332C19.6585 30.1378 19.7705 29.2424 19.9304 28.3469C20.0903 27.4515 20.2342 26.5881 20.3621 25.7566C20.522 24.9251 20.7139 24.1736 20.9377 23.502C21.1616 22.8304 21.3215 22.4627 21.4174 22.3987L22.3288 18.9929C22.6806 18.0335 22.9045 17.282 23.0004 16.7383C23.0963 16.1627 23.1923 15.603 23.2882 15.0594C23.4161 14.5157 23.64 13.8122 23.9598 12.9487C24.2796 12.1492 24.5354 11.3497 24.7273 10.5502C24.9512 9.71875 25.175 8.90327 25.3989 8.10377C25.6227 7.33626 25.8466 6.66469 26.0705 6.08905C26.2943 5.48144 26.4702 4.95377 26.5981 4.50606C26.758 4.05834 26.822 3.67458 26.79 3.35479C26.0865 3.41874 25.4309 3.49869 24.8233 3.59463C24.2476 3.69057 23.64 3.78651 23.0004 3.88245C22.3928 3.94641 21.6413 4.04235 20.7458 4.17027C20.2022 4.23423 19.4826 4.34616 18.5872 4.50606C17.6918 4.63397 16.8603 4.76189 16.0928 4.88981C15.3573 4.98575 14.8935 5.03372 14.7017 5.03372C14.4778 5.0657 14.2859 5.12966 14.126 5.2256C13.9661 5.32154 13.8862 5.44946 13.8862 5.60936C13.4065 6.56875 12.9428 7.54413 12.4951 8.5355C12.0474 9.49489 11.6476 10.4223 11.2958 11.3177C10.976 12.1812 10.7362 12.9487 10.5763 13.6203C10.5123 13.7482 10.3844 14.068 10.1925 14.5797C10.0006 15.0913 9.77679 15.683 9.52095 16.3545C9.26511 17.0261 9.02527 17.6657 8.80141 18.2733C8.57755 18.8809 8.40166 19.3606 8.27374 19.7124C8.1778 20.0322 8.14582 20.1122 8.1778 19.9523C7.69811 21.4873 7.29836 22.7025 6.97856 23.598C6.69074 24.4614 6.4509 25.149 6.25902 25.6607C6.06714 26.1723 5.90724 26.62 5.77932 27.0038C5.6514 27.3876 5.52348 27.8513 5.39557 28.3949C5.20369 28.9066 5.04379 29.4343 4.91587 29.9779C4.78795 30.5216 4.66003 31.0652 4.53211 31.6089C4.50013 31.7688 4.45216 31.9447 4.3882 32.1365C4.35622 32.3284 4.29226 32.7282 4.19633 33.3358C4.06841 33.5916 3.90851 33.7835 3.71663 33.9114C3.55673 34.0713 3.30089 34.1353 2.94912 34.1033ZM31.3228 31.465C31.0669 31.2091 30.875 30.8893 30.7471 30.5056C30.6512 30.1218 30.6192 29.7381 30.6512 29.3543C30.6832 28.9706 30.7631 28.6508 30.891 28.3949C30.891 28.1391 30.923 27.9472 30.987 27.8193C31.0829 27.6594 31.1149 27.5155 31.0829 27.3876C31.0509 27.2596 31.0829 27.0358 31.1789 26.716C31.2748 26.3962 31.3707 26.0924 31.4667 25.8046C31.6905 25.2929 31.9304 24.6853 32.1862 23.9817C32.4421 23.2462 32.6819 22.5266 32.9058 21.8231C33.1296 21.1195 33.3215 20.5119 33.4814 20.0002C33.6413 19.4886 33.7372 19.1688 33.7692 19.0408C33.7692 18.6571 34.0251 18.4492 34.5367 18.4172C34.9205 18.2893 35.2083 18.2893 35.4002 18.4172C35.5921 18.5132 35.8479 18.817 36.1677 19.3287C36.4235 19.5845 36.5195 19.9683 36.4555 20.4799C36.3916 20.9916 36.1837 21.6312 35.8319 22.3987C35.704 22.6546 35.5441 23.0223 35.3522 23.502C35.1923 23.9817 35.0804 24.4134 35.0164 24.7972C34.8885 25.053 34.7286 25.4208 34.5367 25.9005C34.3768 26.3482 34.2329 26.7799 34.105 27.1957C34.041 27.3556 33.9771 27.5954 33.9131 27.9152C33.8492 28.203 33.7692 28.5228 33.6733 28.8746C33.5773 29.1944 33.4494 29.4822 33.2895 29.7381C33.0017 31.0492 32.7299 31.8167 32.474 32.0406C32.2502 32.2645 31.8664 32.0726 31.3228 31.465ZM35.9758 11.9893C35.8159 11.8294 35.672 11.6056 35.5441 11.3177C35.4162 10.9979 35.3362 10.7101 35.3042 10.4543C35.2723 10.1665 35.3042 10.0226 35.4002 10.0226C35.656 9.99058 35.9598 9.71875 36.3116 9.20708C36.6634 8.6954 36.8073 8.24768 36.7433 7.86393C36.7433 7.73601 36.7913 7.62408 36.8872 7.52814C36.9832 7.40022 37.0951 7.32027 37.223 7.28829C37.6068 7.03246 37.9745 7.00047 38.3263 7.19235C38.7101 7.35225 39.0619 7.68804 39.3817 8.19972C39.6695 8.80733 39.7494 9.31901 39.6215 9.73474C39.4936 10.1185 39.1418 10.6622 38.5662 11.3657C38.0865 12.0053 37.6388 12.3571 37.223 12.421C36.8393 12.485 36.4235 12.3411 35.9758 11.9893ZM44.3956 32.7122C44.2997 32.7442 44.0758 32.6962 43.724 32.5683C43.3722 32.4084 42.9885 32.2165 42.5728 31.9926C42.189 31.7368 41.8852 31.497 41.6613 31.2731C41.4055 30.9533 41.1656 30.6335 40.9418 30.3137C40.7499 29.9619 40.654 29.5622 40.654 29.1145C40.4301 28.6348 40.3022 28.1391 40.2702 27.6274C40.2702 27.0837 40.2542 26.5561 40.2222 26.0444C40.1903 25.2449 40.3662 24.4294 40.7499 23.598C41.1337 22.7345 41.4375 22.0949 41.6613 21.6792C41.8212 21.2315 42.141 20.6558 42.6207 19.9523C43.1324 19.2167 43.756 18.4972 44.4915 17.7936C45.2271 17.0901 45.9946 16.5464 46.7941 16.1627C47.3058 15.9068 47.8174 15.699 48.3291 15.5391C48.8728 15.3472 49.4964 15.3792 50.1999 15.635C50.5517 15.7309 50.8075 15.8589 50.9674 16.0188C51.1273 16.1787 51.3032 16.3386 51.4951 16.4985C51.7509 16.3066 51.9588 15.8429 52.1187 15.1073C52.3106 14.3398 52.4225 13.4764 52.4545 12.517C52.5185 11.5256 52.4705 10.5822 52.3106 9.68677C52.1827 8.75936 51.9108 8.02383 51.4951 7.48017C50.7276 6.42484 49.8801 5.73728 48.9527 5.41748C48.0253 5.09768 46.97 5.19362 45.7867 5.7053C45.403 5.5454 45.0512 5.24159 44.7314 4.79387C44.4436 4.34616 44.3636 3.89844 44.4915 3.45072C44.7474 3.22687 45.0672 3.00301 45.4509 2.77915C45.8347 2.55529 46.2184 2.41138 46.6022 2.34742C47.0499 2.25148 47.4976 2.18753 47.9454 2.15555C48.425 2.12357 48.9207 2.25148 49.4324 2.5393C51.0954 3.08296 52.3426 3.85047 53.174 4.84184C54.0375 5.80123 54.6291 6.9685 54.9489 8.34363C55.2687 9.71875 55.4606 11.3017 55.5245 13.0926C55.5885 13.6043 55.6045 14.068 55.5725 14.4837C55.5725 14.8675 55.5245 15.5231 55.4286 16.4505C55.1088 16.8662 54.9809 17.3619 55.0449 17.9375C55.1408 18.4812 55.0768 18.9929 54.853 19.4726C54.821 20.0162 54.6931 20.4639 54.4692 20.8157C54.2454 21.1675 54.1334 21.5033 54.1334 21.8231C53.5578 23.4221 52.7743 24.9891 51.7829 26.5241C50.8235 28.0591 49.7202 29.3863 48.473 30.5056C47.2258 31.6249 45.8667 32.3604 44.3956 32.7122ZM44.1078 29.5942C44.4276 29.7221 44.9073 29.5942 45.5469 29.2104C46.1865 28.7947 46.842 28.251 47.5136 27.5794C48.1852 26.8759 48.7448 26.2043 49.1926 25.5647C49.3525 25.3409 49.5603 24.9731 49.8162 24.4614C50.104 23.9497 50.3598 23.454 50.5837 22.9744C50.8395 22.4947 50.9834 22.1908 51.0154 22.0629C51.3032 21.2634 51.4631 20.5119 51.4951 19.8084C51.5591 19.0728 51.4791 18.5931 51.2553 18.3693C50.9035 17.9535 50.3278 17.8576 49.5283 18.0815C48.7608 18.3053 48.0253 18.6731 47.3217 19.1848C46.8101 19.5685 46.3464 20.0802 45.9306 20.7198C45.5469 21.3274 45.1471 21.887 44.7314 22.3987C44.7634 22.6226 44.6994 22.8145 44.5395 22.9744C44.4116 23.1343 44.2677 23.2942 44.1078 23.454C43.692 24.2535 43.4202 25.0051 43.2923 25.7086C43.1644 26.3802 43.1004 26.7959 43.1004 26.9558C43.1004 27.4675 43.1804 27.9952 43.3403 28.5388C43.5002 29.0825 43.756 29.4343 44.1078 29.5942ZM55.7423 33.1919C55.6463 33.1599 55.5344 33.1439 55.4065 33.1439C55.3106 33.1439 55.2146 33.1439 55.1187 33.1439C54.9908 32.8561 54.7829 32.6162 54.4951 32.4244C54.2073 32.2325 53.9834 32.0086 53.8235 31.7528C53.6316 31.401 53.6156 31.1132 53.7755 30.8893C53.9674 30.6335 54.1913 30.3937 54.4471 30.1698C54.7349 29.914 54.9428 29.6261 55.0707 29.3063C55.2626 29.2104 55.6304 28.9546 56.174 28.5388C56.7177 28.1231 57.3413 27.6274 58.0448 27.0518C58.7484 26.4761 59.4519 25.8845 60.1555 25.2769C60.859 24.6373 61.4827 24.0617 62.0263 23.55C62.57 23.0383 62.9377 22.6705 63.1296 22.4467C63.0976 22.4147 63.0656 22.3827 63.0337 22.3507C63.0017 22.3188 62.9537 22.2868 62.8898 22.2548C62.6979 21.7751 62.3941 21.2474 61.9783 20.6718C61.5626 20.0642 61.1309 19.4726 60.6832 18.8969C60.2674 18.2893 59.9316 17.7617 59.6758 17.3139C59.4839 16.9622 59.324 16.6264 59.1961 16.3066C59.1002 15.9868 58.9722 15.667 58.8123 15.3472C58.8763 15.2193 58.9403 15.0913 59.0042 14.9634C59.1002 14.8355 59.1641 14.7076 59.1961 14.5797C59.8357 14.5477 60.3474 14.6436 60.7311 14.8675C61.1149 15.0913 61.5466 15.3952 62.0263 15.7789C62.1542 15.8749 62.3781 16.1946 62.6979 16.7383C63.0177 17.282 63.3695 17.9056 63.7532 18.6091C64.1689 19.2807 64.5847 19.8883 65.0004 20.432C65.4162 20.9436 65.7839 21.2474 66.1037 21.3434C66.3276 20.7678 66.5354 20.0482 66.7273 19.1848C66.9512 18.3213 67.1431 17.4578 67.303 16.5944C67.4948 15.7309 67.6228 14.9954 67.6867 14.3878C67.8146 14.2279 67.9266 14.1 68.0225 14.004C68.1504 13.8761 68.2783 13.7482 68.4063 13.6203C68.854 13.7482 69.2217 13.9401 69.5096 14.1959C69.7974 14.4198 70.1332 14.6436 70.5169 14.8675C70.5169 16.1467 70.3091 17.4738 69.8933 18.849C69.5096 20.2241 69.1898 21.5193 68.9339 22.7345C68.9339 22.7665 68.9339 22.8145 68.9339 22.8784C68.9339 22.9104 68.9499 22.9424 68.9819 22.9744C69.7174 22.6226 70.4849 22.1429 71.2844 21.5353C72.1159 20.9276 72.9314 20.2881 73.7309 19.6165C74.5624 18.9449 75.2979 18.3693 75.9375 17.8896C76.2573 17.4099 76.657 16.9782 77.1367 16.5944C77.6164 16.1787 78.0162 15.7309 78.336 15.2512C78.4959 15.2512 78.6398 15.2512 78.7677 15.2512C78.8956 15.2512 79.0235 15.2512 79.1515 15.2512C79.3114 15.3792 79.5192 15.5551 79.7751 15.7789C80.0309 16.0028 80.2707 16.2906 80.4946 16.6424C80.4626 16.8662 80.4147 17.0741 80.3507 17.266C80.2867 17.4578 80.1748 17.6337 80.0149 17.7936C79.2154 18.5931 78.368 19.3606 77.4725 20.0962C76.6091 20.7997 75.6337 21.5672 74.5464 22.3987C74.0027 22.8145 73.4431 23.1982 72.8674 23.55C72.3238 23.9018 71.8121 24.3175 71.3324 24.7972C71.908 25.181 72.5636 25.6926 73.2992 26.3322C74.0667 26.9718 74.7862 27.6274 75.4578 28.299C76.1613 28.9706 76.721 29.5942 77.1367 30.1698C77.4565 30.5855 77.5685 30.9693 77.4725 31.3211C77.3766 31.6728 77.1527 31.9447 76.8009 32.1365C76.4811 32.3284 76.1294 32.4244 75.7456 32.4244C75.3619 32.4244 75.0421 32.2964 74.7862 32.0406C74.4344 31.6888 74.0987 31.3211 73.7789 30.9373C73.4591 30.5216 73.1233 30.1378 72.7715 29.786C72.0999 29.1145 71.3964 28.3789 70.6608 27.5794C69.9253 26.7799 69.1898 26.0764 68.4542 25.4688C68.4223 25.4048 68.3743 25.3728 68.3103 25.3728C68.2783 25.3409 68.2304 25.3089 68.1664 25.2769C67.9106 26.0124 67.6387 26.8599 67.3509 27.8193C67.0631 28.7467 66.8552 29.6101 66.7273 30.4096C66.6634 30.8893 66.4875 31.2731 66.1997 31.5609C65.9118 31.8487 65.5441 32.0726 65.0964 32.2325C64.8085 32.0406 64.5367 31.8487 64.2809 31.6569C64.057 31.465 63.8172 31.2571 63.5613 31.0332C63.3695 30.8414 63.3535 30.4256 63.5134 29.786C63.6733 29.1464 63.8971 28.4269 64.1849 27.6274C64.4728 26.8279 64.7126 26.1084 64.9045 25.4688C65.0964 24.8292 65.1443 24.4134 65.0484 24.2216C64.8245 24.4454 64.4248 24.8452 63.8492 25.4208C63.2735 25.9645 62.6339 26.5561 61.9304 27.1957C61.2588 27.8353 60.6352 28.4109 60.0596 28.9226C59.5159 29.4343 59.1481 29.7381 58.9563 29.834C58.6365 30.3137 58.1248 30.9053 57.4212 31.6089C56.7497 32.3124 56.19 32.8401 55.7423 33.1919ZM92.6185 32.9041C92.2987 32.5843 91.9789 32.1525 91.6591 31.6089C91.3393 31.0332 91.0835 30.3777 90.8916 29.6421C90.8277 29.3863 90.7957 29.0345 90.7957 28.5868C90.8277 28.1391 90.8277 27.8193 90.7957 27.6274C90.6998 27.8513 90.5399 28.0911 90.316 28.3469C90.1241 28.5708 89.9322 28.7627 89.7404 28.9226C89.6124 29.0505 89.3246 29.3063 88.8769 29.6901C88.4292 30.0419 87.9815 30.3297 87.5338 30.5536C86.4784 31.2251 85.599 31.5929 84.8954 31.6569C84.2239 31.7208 83.5843 31.369 82.9766 30.6015C82.465 30.1858 82.0972 29.7221 81.8733 29.2104C81.6815 28.6987 81.6815 27.9952 81.8733 27.0997C81.9373 25.9804 82.0972 24.8931 82.353 23.8378C82.6089 22.7505 83.1365 21.3114 83.936 19.5205C84.6076 18.2094 85.1193 17.25 85.4711 16.6424C85.8228 16.0028 86.0467 15.619 86.1426 15.4911C86.6223 15.3312 87.0221 15.3472 87.3419 15.5391C87.6617 15.699 87.8536 16.0028 87.9175 16.4505C88.1094 16.7703 88.0774 17.3139 87.8216 18.0815C87.5977 18.849 87.198 19.7924 86.6223 20.9117C86.1746 21.999 85.7589 23.0863 85.3751 24.1736C85.0234 25.2609 84.8155 26.1883 84.7515 26.9558C84.6876 27.7233 84.8794 28.187 85.3272 28.3469C85.615 28.5068 86.1107 28.4589 86.8142 28.203C87.5497 27.9472 88.3652 27.3076 89.2607 26.2843C90.1881 25.2609 91.0835 23.7099 91.947 21.6312C92.2028 20.9916 92.3947 20.432 92.5226 19.9523C92.6505 19.4406 92.7305 18.8809 92.7624 18.2733C92.6985 17.8896 92.7145 17.5538 92.8104 17.266C92.9383 16.9462 93.1942 16.6743 93.5779 16.4505C93.7058 16.2906 93.8817 16.1467 94.1056 16.0188C94.3295 15.8589 94.4734 15.8589 94.5373 16.0188L95.3048 15.9708C95.4328 15.9388 95.5127 16.0188 95.5447 16.2106C95.6086 16.3705 95.7206 16.5144 95.8805 16.6424C96.2322 16.9302 96.3282 17.5538 96.1683 18.5132C96.0084 19.4726 95.5607 20.8157 94.8251 22.5426C94.2175 23.8538 93.8018 24.8452 93.5779 25.5167C93.3861 26.1883 93.2741 26.8439 93.2421 27.4835C93.2421 28.0591 93.3541 28.6028 93.5779 29.1145C93.8018 29.6261 94.1536 30.0898 94.6333 30.5056C94.985 30.7294 95.1769 30.9853 95.2089 31.2731C95.2729 31.5609 95.2888 31.8967 95.2569 32.2805C95.1929 32.5683 95.001 32.8081 94.6812 33C94.3934 33.1599 94.0576 33.2398 93.6739 33.2398C93.2901 33.2398 92.9383 33.1279 92.6185 32.9041ZM104.665 16.8822C105.176 16.7223 105.8 16.3865 106.535 15.8749C107.271 15.3632 107.99 14.8035 108.694 14.1959C109.398 13.5883 109.925 13.0766 110.277 12.6609C110.597 12.3091 110.885 11.9413 111.14 11.5576C111.428 11.1738 111.732 10.8061 112.052 10.4543C112.564 9.91063 113.043 9.19109 113.491 8.29565C113.939 7.40022 114.163 6.58474 114.163 5.8492C114.163 5.65733 114.067 5.49743 113.875 5.36951C113.715 5.24159 113.555 5.20961 113.395 5.27357C113.139 5.36951 112.883 5.49743 112.627 5.65733C112.372 5.78524 112.148 5.94514 111.956 6.13702C111.54 6.55276 111.076 6.96849 110.565 7.38423C110.053 7.76799 109.589 8.18373 109.174 8.63144C109.142 8.66342 109.11 8.71139 109.078 8.77535C109.078 8.80733 109.062 8.8553 109.03 8.91926C108.742 9.46291 108.422 9.99058 108.07 10.5023C107.751 11.0139 107.415 11.5416 107.063 12.0853C106.583 12.8528 106.168 13.6523 105.816 14.4837C105.496 15.3152 105.112 16.1147 104.665 16.8822ZM105.912 19.8563C106.008 19.8563 106.104 19.8563 106.2 19.8563C106.327 19.8243 106.439 19.7924 106.535 19.7604C106.855 19.7924 107.159 19.8563 107.447 19.9523C107.767 20.0162 108.086 20.0802 108.406 20.1441C108.566 20.432 108.758 20.7518 108.982 21.1035C109.238 21.4233 109.414 21.7431 109.509 22.0629C109.573 22.2868 109.637 22.5266 109.701 22.7825C109.765 23.0063 109.813 23.2462 109.845 23.502C109.781 23.6619 109.765 23.9977 109.797 24.5094C109.861 25.0211 109.813 25.4848 109.653 25.9005C109.461 26.5081 109.286 27.1317 109.126 27.7713C108.966 28.3789 108.71 28.9546 108.358 29.4982C108.134 29.85 107.783 30.3137 107.303 30.8893C106.855 31.465 106.455 31.8647 106.104 32.0886C105.88 32.2165 105.64 32.3124 105.384 32.3764C105.16 32.4084 104.92 32.4883 104.665 32.6162C104.249 32.8401 103.801 32.8081 103.321 32.5203C102.874 32.2325 102.458 32.0886 102.074 32.0886C101.786 32.0886 101.451 31.8647 101.067 31.417C100.715 30.9693 100.411 30.4576 100.155 29.882C99.9315 29.3063 99.8516 28.8107 99.9155 28.3949C99.9475 28.235 99.9155 28.0911 99.8196 27.9632C99.7556 27.8353 99.7237 27.6914 99.7237 27.5315C99.7237 26.8919 99.7397 26.1403 99.7716 25.2769C99.8036 24.4134 99.8836 23.55 100.011 22.6865C100.171 21.8231 100.379 21.1195 100.635 20.5759C100.379 20.416 100.171 20.2081 100.011 19.9523C99.8836 19.6964 99.7397 19.4406 99.5798 19.1848C99.6437 19.0249 99.7077 18.865 99.7716 18.7051C99.8356 18.5452 99.8836 18.4013 99.9155 18.2733C100.139 18.2414 100.347 18.2094 100.539 18.1774C100.763 18.1454 100.987 18.0974 101.211 18.0335C101.754 16.3705 102.426 14.6756 103.225 12.9487C104.057 11.2218 105.048 9.60682 106.2 8.10377C107.351 6.56875 108.678 5.32154 110.181 4.36215C110.565 4.10631 111.029 3.83448 111.572 3.54666C112.148 3.22687 112.675 3.11494 113.155 3.21088C113.251 3.1789 113.347 3.1789 113.443 3.21088C113.571 3.24286 113.667 3.22687 113.731 3.16291C113.795 3.19489 113.859 3.22687 113.923 3.25885C113.987 3.25885 114.051 3.29083 114.115 3.35479C114.274 3.57864 114.642 3.89844 115.218 4.31418C115.825 4.69793 116.337 5.2256 116.753 5.89718C117.073 6.40885 117.073 7.01647 116.753 7.72002C116.465 8.42357 116.225 9.04718 116.033 9.59083C115.873 10.0385 115.634 10.4543 115.314 10.838C115.026 11.1898 114.786 11.5896 114.594 12.0373C114.53 12.2292 114.418 12.3891 114.258 12.517C114.099 12.6129 113.987 12.7728 113.923 12.9967C113.635 13.1246 113.427 13.3165 113.299 13.5723C113.203 13.8281 113.043 14.036 112.819 14.1959C112.596 14.3878 112.388 14.5637 112.196 14.7236C112.036 14.8835 111.86 15.0754 111.668 15.2992C111.348 15.683 110.965 16.0188 110.517 16.3066C110.101 16.5624 109.717 16.8822 109.366 17.266C108.854 17.5218 108.342 17.8576 107.831 18.2733C107.351 18.6891 106.839 18.9769 106.296 19.1368C105.976 19.2327 105.64 19.3606 105.288 19.5205C104.936 19.6485 104.601 19.7924 104.281 19.9523C103.993 20.0802 103.753 20.416 103.561 20.9596C103.401 21.4713 103.257 22.0789 103.13 22.7825C103.002 23.486 102.906 24.1576 102.842 24.7972C102.778 25.4368 102.73 25.9005 102.698 26.1883C102.666 26.5721 102.698 27.1637 102.794 27.9632C102.89 28.7307 103.018 29.2904 103.177 29.6421C103.241 29.77 103.385 29.898 103.609 30.0259C103.833 30.1538 104.009 30.1538 104.137 30.0259C104.233 29.9299 104.393 29.7381 104.617 29.4502C104.872 29.1624 105.112 28.8746 105.336 28.5868C105.592 28.267 105.752 28.0431 105.816 27.9152C106.008 27.5315 106.2 27.0997 106.391 26.62C106.583 26.1403 106.743 25.6926 106.871 25.2769C107.063 24.5733 107.111 23.9657 107.015 23.454C106.951 22.9424 106.823 22.4787 106.631 22.0629C106.439 21.6472 106.264 21.2634 106.104 20.9117C105.944 20.5599 105.88 20.2081 105.912 19.8563ZM111.461 32.8081C111.333 32.7442 111.157 32.6162 110.934 32.4244C110.742 32.2325 110.566 32.0406 110.406 31.8487C110.31 31.7528 110.23 31.6728 110.166 31.6089C110.102 31.5129 110.038 31.449 109.974 31.417C109.974 31.1931 110.022 31.0332 110.118 30.9373C110.246 30.8414 110.374 30.7294 110.502 30.6015C110.63 30.4096 110.838 30.3137 111.125 30.3137C111.413 30.3137 111.637 30.2338 111.797 30.0739C112.373 29.6581 112.964 29.2264 113.572 28.7787C114.18 28.331 114.691 27.8033 115.107 27.1957C115.555 26.5561 116.002 25.8685 116.45 25.133C116.898 24.3975 117.33 23.6779 117.745 22.9744C117.873 22.7505 118.081 22.3507 118.369 21.7751C118.657 21.1995 118.928 20.6398 119.184 20.0962C119.472 19.5205 119.632 19.1208 119.664 18.8969C119.376 18.801 119.104 18.721 118.849 18.6571C118.625 18.5611 118.401 18.4812 118.177 18.4172C117.889 17.9695 117.729 17.7137 117.697 17.6497C117.665 17.5538 117.649 17.25 117.649 16.7383C117.649 16.3545 117.857 16.1147 118.273 16.0188C119.2 15.7949 120.016 15.651 120.719 15.587C121.455 15.5231 122.174 15.3952 122.878 15.2033C123.326 15.0754 123.869 15.0274 124.509 15.0594C125.149 15.0913 125.788 15.2353 126.428 15.4911C126.716 15.619 126.955 15.7789 127.147 15.9708C127.339 16.1627 127.515 16.3865 127.675 16.6424C128.091 17.218 128.299 17.7137 128.299 18.1294C128.331 18.5452 128.315 18.9449 128.251 19.3287C128.187 19.7124 128.235 20.1441 128.394 20.6238C128.171 21.4873 127.947 22.2548 127.723 22.9264C127.499 23.566 127.291 24.1736 127.099 24.7492C126.907 25.2929 126.732 25.8046 126.572 26.2843C126.412 26.764 126.284 27.2436 126.188 27.7233C126.06 28.235 125.9 28.7467 125.708 29.2584C125.516 29.77 125.372 30.2977 125.276 30.8414C125.213 31.2571 125.021 31.5609 124.701 31.7528C124.413 31.9447 124.093 32.1206 123.741 32.2805C123.614 32.3124 123.39 32.2805 123.07 32.1845C122.782 32.0566 122.51 31.8807 122.254 31.6569C122.158 31.3051 122.126 30.9853 122.158 30.6975C122.19 30.4096 122.254 30.1218 122.35 29.834C122.446 29.5782 122.622 29.0025 122.878 28.1071C123.134 27.2117 123.422 26.2043 123.741 25.085C124.061 23.9657 124.365 22.9264 124.653 21.967C124.941 21.0076 125.133 20.336 125.229 19.9523C125.388 19.4406 125.436 19.0568 125.372 18.801C125.34 18.5452 125.292 18.3053 125.229 18.0815C124.557 17.8256 124.093 17.7457 123.837 17.8416C123.614 17.9056 123.326 17.9695 122.974 18.0335C122.814 18.1614 122.686 18.3053 122.59 18.4652C122.494 18.6251 122.43 18.785 122.398 18.9449C122.047 19.8723 121.743 20.6079 121.487 21.1515C121.263 21.6952 121.039 22.1908 120.815 22.6386C120.591 23.0543 120.336 23.518 120.048 24.0297C119.792 24.5414 119.456 25.2449 119.04 26.1403C118.785 26.716 118.465 27.2436 118.081 27.7233C117.729 28.203 117.409 28.7147 117.122 29.2584L116.594 29.9299C116.626 29.9299 116.498 30.0579 116.21 30.3137C115.922 30.5695 115.635 30.8254 115.347 31.0812C115.091 31.3371 114.963 31.465 114.963 31.465L113.476 32.6162C113.316 32.7442 113.044 32.8081 112.66 32.8081C112.277 32.8081 111.877 32.8081 111.461 32.8081ZM148.471 18.6091C148.119 18.4812 147.831 18.3693 147.607 18.2733C147.383 18.1454 147.063 18.1614 146.648 18.3213C146.008 18.5132 145.368 18.8969 144.729 19.4726C144.121 20.0482 143.53 20.7358 142.954 21.5353C142.378 22.3028 141.867 23.1183 141.419 23.9817C140.971 24.8452 140.604 25.6926 140.316 26.5241C140.028 27.3556 139.852 28.0751 139.788 28.6827C139.756 28.9066 139.772 29.1305 139.836 29.3543C139.932 29.5462 140.044 29.7381 140.172 29.9299C140.268 30.0579 140.396 30.1538 140.556 30.2178C140.747 30.2497 140.907 30.2977 141.035 30.3617C141.547 30.4896 142.187 30.3137 142.954 29.834C143.722 29.3543 144.489 28.6667 145.257 27.7713C146.056 26.8439 146.76 25.8365 147.367 24.7492C148.007 23.6619 148.439 22.5746 148.662 21.4873C148.886 20.4 148.822 19.4406 148.471 18.6091ZM137.677 26.4282C137.645 26.2683 137.597 26.1084 137.533 25.9485C137.501 25.7886 137.454 25.6447 137.39 25.5167C136.878 25.5167 136.366 25.5167 135.855 25.5167C135.343 25.5167 134.831 25.5167 134.319 25.5167C134.096 26.1883 133.888 27.0198 133.696 28.0112C133.504 28.9706 133.344 29.914 133.216 30.8414C133.12 31.7368 133.072 32.4084 133.072 32.8561C133.072 33.0799 132.976 33.2398 132.784 33.3358C132.625 33.4317 132.465 33.4637 132.305 33.4317C132.049 33.3997 131.793 33.3358 131.537 33.2398C131.313 33.1439 131.074 33.0959 130.818 33.0959C130.594 32.936 130.45 32.7921 130.386 32.6642C130.322 32.5043 130.226 32.3124 130.098 32.0886C130.386 31.385 130.594 30.5536 130.722 29.5942C130.882 28.6028 131.058 27.7074 131.249 26.9079C131.601 25.4048 132.001 23.9337 132.449 22.4947C132.896 21.0556 133.472 19.6485 134.176 18.2733C134.304 18.0175 134.431 17.7776 134.559 17.5538C134.687 17.3299 134.767 17.0741 134.799 16.7863C134.991 16.6264 135.151 16.3705 135.279 16.0188C135.439 15.635 135.599 15.2832 135.759 14.9634C135.95 14.6117 136.174 14.4198 136.43 14.3878C136.686 14.3878 136.91 14.4677 137.102 14.6276C137.39 14.8515 137.661 15.0913 137.917 15.3472C138.205 15.571 138.413 15.8589 138.541 16.2106C138.381 16.5304 138.141 16.9941 137.821 17.6018C137.533 18.1774 137.214 18.801 136.862 19.4726C136.51 20.1441 136.206 20.7837 135.95 21.3914C135.727 21.999 135.599 22.4947 135.567 22.8784C135.631 22.9104 135.679 22.9424 135.711 22.9744C135.743 22.9744 135.775 22.9903 135.807 23.0223C136.286 23.0223 136.75 23.0223 137.198 23.0223C137.677 23.0223 138.157 23.0223 138.637 23.0223C139.276 21.8711 140.028 20.7038 140.891 19.5205C141.787 18.3053 142.794 17.282 143.913 16.4505C145.065 15.619 146.36 15.2033 147.799 15.2033C148.247 15.2033 148.646 15.3312 148.998 15.587C149.35 15.8429 149.718 16.0667 150.101 16.2586C150.741 16.5784 151.125 16.9462 151.253 17.3619C151.413 17.7457 151.493 18.1614 151.493 18.6091C151.525 19.0249 151.653 19.4566 151.876 19.9043C151.876 20.0002 151.876 20.0962 151.876 20.1921C151.876 20.2561 151.876 20.336 151.876 20.432C151.716 20.7198 151.637 21.0396 151.637 21.3914C151.669 21.7112 151.637 22.031 151.541 22.3507C150.869 24.7492 149.75 26.7799 148.183 28.4429C146.648 30.0739 144.745 31.401 142.474 32.4244C141.963 32.6482 141.387 32.7921 140.747 32.8561C140.236 32.9201 139.724 32.7602 139.212 32.3764C138.701 31.9926 138.269 31.5289 137.917 30.9853C137.629 30.5376 137.422 30.0739 137.294 29.5942C137.198 29.1145 137.214 28.6667 137.342 28.251C137.469 27.8992 137.485 27.6914 137.39 27.6274C137.294 27.5315 137.246 27.4195 137.246 27.2916C137.246 27.1317 137.39 26.8439 137.677 26.4282ZM166.072 32.9041C165.848 33.032 165.544 32.984 165.161 32.7602C164.809 32.5363 164.457 32.2005 164.105 31.7528C163.881 31.369 163.721 30.9533 163.626 30.5056C163.562 30.0579 163.53 29.4343 163.53 28.6348C163.562 27.9952 163.53 27.5794 163.434 27.3876C163.37 27.1957 163.194 27.2277 162.906 27.4835C162.618 27.7074 162.123 28.1711 161.419 28.8746C160.619 29.6741 159.852 30.2977 159.116 30.7454C158.413 31.1931 157.837 31.401 157.389 31.369C157.166 31.369 156.91 31.2571 156.622 31.0332C156.366 30.7774 156.126 30.4736 155.902 30.1218C155.679 29.7381 155.487 29.3543 155.327 28.9706C155.135 28.267 155.103 27.3716 155.231 26.2843C155.391 25.165 155.647 23.9977 155.998 22.7825C156.35 21.5672 156.75 20.416 157.198 19.3287C157.677 18.2414 158.157 17.3619 158.637 16.6903C159.148 16.0188 159.596 15.683 159.98 15.683C160.236 15.683 160.46 15.8109 160.651 16.0667C160.875 16.3226 161.099 16.7223 161.323 17.266C161.451 17.4898 161.499 17.6817 161.467 17.8416C161.467 18.0015 161.339 18.1934 161.083 18.4172C160.795 18.801 160.46 19.3766 160.076 20.1441C159.724 20.9117 159.372 21.7431 159.02 22.6386C158.701 23.534 158.413 24.3975 158.157 25.2289C157.901 26.0604 157.725 26.748 157.629 27.2916C157.533 27.8033 157.549 28.0591 157.677 28.0591C158.125 28.0591 158.653 27.8832 159.26 27.5315C159.9 27.1477 160.508 26.684 161.083 26.1403C161.755 25.4688 162.346 24.7332 162.858 23.9337C163.402 23.1343 163.945 22.2868 164.489 21.3914C164.905 20.7518 165.336 20.0482 165.784 19.2807C166.264 18.5132 166.568 17.9695 166.696 17.6497C167.143 16.8183 167.479 16.2586 167.703 15.9708C167.927 15.651 168.199 15.4431 168.518 15.3472C168.678 15.3472 168.822 15.3472 168.95 15.3472C169.11 15.3472 169.19 15.3472 169.19 15.3472C169.382 15.3792 169.606 15.5231 169.862 15.7789C170.117 15.9068 170.261 16.0348 170.293 16.1627C170.325 16.2586 170.341 16.3865 170.341 16.5464C170.213 16.8662 170.006 17.3459 169.718 17.9855C169.462 18.5931 169.27 19.0408 169.142 19.3287C168.534 20.7038 167.927 22.0629 167.319 23.4061C166.744 24.7172 166.328 26.0604 166.072 27.4355C166.008 27.8832 165.992 28.4109 166.024 29.0185C166.088 29.5942 166.184 30.0099 166.312 30.2657C166.408 30.4576 166.52 30.6815 166.648 30.9373C166.808 31.1612 166.983 31.353 167.175 31.5129C167.463 31.7048 167.511 31.9127 167.319 32.1365C167.159 32.3604 166.935 32.5523 166.648 32.7122C166.36 32.8401 166.168 32.9041 166.072 32.9041ZM165.448 12.9967C164.457 13.1246 163.626 12.8368 162.954 12.1332C162.282 11.4297 161.771 10.3903 161.419 9.0152C161.355 8.75936 161.323 8.5355 161.323 8.34363C161.355 8.11977 161.419 7.92789 161.515 7.76799C161.579 7.64007 161.707 7.54413 161.899 7.48017C162.091 7.38423 162.25 7.36824 162.378 7.4322C162.826 7.5921 163.146 7.79997 163.338 8.05581C163.562 8.27966 163.705 8.56748 163.769 8.91926C163.833 9.07916 163.865 9.23906 163.865 9.39896C163.897 9.55885 163.913 9.62281 163.913 9.59083C164.073 10.1025 164.281 10.4543 164.537 10.6462C164.793 10.838 165.177 10.8221 165.688 10.5982C166.232 10.3743 166.76 10.1185 167.271 9.83068C167.815 9.54286 168.295 9.19109 168.71 8.77535C169.062 8.42357 169.398 8.10378 169.718 7.81596C170.069 7.52814 170.405 7.22433 170.725 6.90454L170.773 6.85657C170.901 6.76063 171.061 6.72865 171.253 6.76063C171.445 6.79261 171.557 6.84058 171.589 6.90454C171.812 7.12839 171.924 7.35225 171.924 7.57611C171.924 7.79997 171.924 8.03982 171.924 8.29565L171.876 8.39159C171.94 8.58347 171.78 8.95124 171.397 9.4949C171.045 10.0386 170.613 10.5023 170.101 10.886C169.654 11.2378 169.174 11.5576 168.662 11.8454C168.151 12.1332 167.623 12.4051 167.079 12.6609C166.856 12.7888 166.616 12.8688 166.36 12.9007C166.136 12.9007 165.832 12.9327 165.448 12.9967ZM189.49 32.7602C189.266 32.6322 189.026 32.5043 188.77 32.3764C188.546 32.2485 188.323 32.1206 188.099 31.9926C187.907 31.8647 187.731 31.7368 187.571 31.6089C186.899 31.0013 186.452 30.3457 186.228 29.6421C186.036 28.9066 185.972 28.203 186.036 27.5315C186.1 26.8599 186.196 26.2843 186.324 25.8046C186.452 25.2929 186.516 24.9411 186.516 24.7492C186.484 24.4934 186.532 24.2535 186.66 24.0297C186.787 23.7738 186.915 23.518 187.043 23.2622C187.619 22.1429 188.147 21.1835 188.626 20.384C189.138 19.5525 189.874 18.5931 190.833 17.5058C191.025 17.3459 191.201 17.202 191.361 17.0741C191.552 16.9142 191.744 16.8023 191.936 16.7383L193.04 17.5538C193.167 17.6817 193.247 17.8416 193.279 18.0335C193.311 18.1934 193.279 18.4172 193.183 18.7051C193.119 18.9289 193.04 19.1528 192.944 19.3766C192.88 19.5685 192.784 19.7444 192.656 19.9043C192.112 20.416 191.68 20.9916 191.361 21.6312C191.041 22.2388 190.705 22.8624 190.353 23.502C190.353 23.7898 190.241 24.0297 190.017 24.2216C189.794 24.3815 189.666 24.6213 189.634 24.9411C189.634 25.165 189.602 25.3888 189.538 25.6127C189.474 25.8365 189.41 26.0764 189.346 26.3322C189.122 26.8439 189.026 27.3396 189.058 27.8193C189.09 28.299 189.106 28.7947 189.106 29.3063C189.362 29.4343 189.586 29.5142 189.778 29.5462C189.969 29.5462 190.225 29.3863 190.545 29.0665C191.185 28.5228 191.632 28.0431 191.888 27.6274C192.176 27.2117 192.4 26.7959 192.56 26.3802C192.72 25.9645 192.944 25.4848 193.231 24.9411C193.551 24.3975 193.823 23.7099 194.047 22.8784C194.271 22.0469 194.431 21.2634 194.527 20.5279C194.623 19.7604 194.623 19.2487 194.527 18.9929C194.495 18.833 194.511 18.6411 194.575 18.4172C194.639 18.1934 194.543 17.9695 194.287 17.7457C194.415 17.6177 194.479 17.3779 194.479 17.0261C194.479 16.6743 194.447 16.3066 194.383 15.9228C194.319 15.5391 194.223 15.2672 194.095 15.1073C194.031 13.8281 193.983 12.7568 193.951 11.8934C193.951 10.9979 193.967 10.2304 193.999 9.59083C194.063 8.91926 194.143 8.29566 194.239 7.72002C194.271 7.62408 194.463 7.30428 194.814 6.76063C195.198 6.18499 195.55 5.73728 195.87 5.41748C196.413 4.93778 197.149 4.57001 198.076 4.31418C199.036 4.02636 199.851 3.91443 200.523 3.97839C200.491 4.01037 200.683 4.02636 201.098 4.02636C201.546 4.02636 202.042 4.01037 202.585 3.97839C203.129 3.94641 203.529 3.91443 203.785 3.88245C204.041 3.81849 204.296 3.75453 204.552 3.69057C204.808 3.62661 205.24 3.41874 205.847 3.06697C206.103 2.90707 206.311 2.8591 206.471 2.92306L207.766 4.02636C207.734 4.92179 207.51 5.59337 207.095 6.04108C206.679 6.45682 205.879 6.72865 204.696 6.85657C204.504 6.85657 204.296 6.85657 204.073 6.85657C203.849 6.82459 203.625 6.84058 203.401 6.90454C203.209 6.96849 203.033 6.96849 202.873 6.90454C202.745 6.84058 202.553 6.8086 202.298 6.8086C201.946 6.8086 201.578 6.85657 201.194 6.9525C200.811 7.01647 200.411 7.00048 199.995 6.90454C198.844 7.22433 197.948 7.65606 197.309 8.19972C196.669 8.74337 196.349 9.6388 196.349 10.886C196.477 12.0693 196.637 13.1246 196.829 14.052C197.053 14.9794 197.165 16.0028 197.165 17.1221C197.229 17.4099 197.309 17.6497 197.405 17.8416C197.501 18.0335 197.453 18.2414 197.261 18.4652C197.421 19.2007 197.501 19.9203 197.501 20.6238C197.501 21.2954 197.405 21.8071 197.213 22.1589C197.149 22.3827 197.101 22.7985 197.069 23.4061C197.069 23.9817 196.909 24.5893 196.589 25.2289C195.854 26.732 195.102 28.0751 194.335 29.2584C193.567 30.4096 192.592 31.385 191.409 32.1845C191.185 32.3124 190.913 32.4084 190.593 32.4723C190.305 32.5363 189.937 32.6322 189.49 32.7602ZM201.512 31.465C201.256 31.2091 201.064 30.8893 200.936 30.5056C200.84 30.1218 200.808 29.7381 200.84 29.3543C200.872 28.9706 200.952 28.6508 201.08 28.3949C201.08 28.1391 201.112 27.9472 201.176 27.8193C201.272 27.6594 201.304 27.5155 201.272 27.3876C201.24 27.2596 201.272 27.0358 201.368 26.716C201.464 26.3962 201.56 26.0924 201.656 25.8046C201.88 25.2929 202.119 24.6853 202.375 23.9817C202.631 23.2462 202.871 22.5266 203.095 21.8231C203.319 21.1195 203.511 20.5119 203.67 20.0002C203.83 19.4886 203.926 19.1688 203.958 19.0408C203.958 18.6571 204.214 18.4492 204.726 18.4172C205.11 18.2893 205.397 18.2893 205.589 18.4172C205.781 18.5132 206.037 18.817 206.357 19.3287C206.613 19.5845 206.708 19.9683 206.645 20.4799C206.581 20.9916 206.373 21.6312 206.021 22.3987C205.893 22.6546 205.733 23.0223 205.541 23.502C205.381 23.9817 205.269 24.4134 205.205 24.7972C205.078 25.053 204.918 25.4208 204.726 25.9005C204.566 26.3482 204.422 26.7799 204.294 27.1957C204.23 27.3556 204.166 27.5954 204.102 27.9152C204.038 28.203 203.958 28.5228 203.862 28.8746C203.766 29.1944 203.638 29.4822 203.479 29.7381C203.191 31.0492 202.919 31.8167 202.663 32.0406C202.439 32.2645 202.055 32.0726 201.512 31.465ZM206.165 11.9893C206.005 11.8294 205.861 11.6056 205.733 11.3177C205.605 10.9979 205.525 10.7101 205.493 10.4543C205.461 10.1665 205.493 10.0226 205.589 10.0226C205.845 9.99058 206.149 9.71875 206.501 9.20708C206.852 8.6954 206.996 8.24768 206.932 7.86393C206.932 7.73601 206.98 7.62408 207.076 7.52814C207.172 7.40022 207.284 7.32027 207.412 7.28829C207.796 7.03246 208.164 7.00047 208.515 7.19235C208.899 7.35225 209.251 7.68804 209.571 8.19972C209.859 8.80733 209.938 9.31901 209.811 9.73474C209.683 10.1185 209.331 10.6622 208.755 11.3657C208.276 12.0053 207.828 12.3571 207.412 12.421C207.028 12.485 206.613 12.3411 206.165 11.9893ZM205.231 47.3429C204.527 47.3429 203.855 47.215 203.216 46.9592C202.544 46.7033 201.921 46.2876 201.345 45.7119C201.057 45.0084 200.849 44.5447 200.721 44.3208C200.562 44.1289 200.274 43.8411 199.858 43.4574C199.858 43.2975 199.922 42.9937 200.05 42.546C200.178 42.1302 200.37 41.7624 200.625 41.4427C201.297 40.6432 202.113 39.9236 203.072 39.284C204.031 38.6764 205.151 38.1487 206.43 37.701C206.59 37.6371 206.75 37.5571 206.909 37.4612C207.101 37.3972 207.277 37.3652 207.437 37.3652C207.597 37.3652 207.693 37.2693 207.725 37.0774C207.789 36.8855 207.933 36.8695 208.157 37.0294C208.317 36.9655 208.445 36.8855 208.54 36.7896C208.636 36.6937 208.796 36.6777 209.02 36.7416C209.02 36.7416 209.196 36.6937 209.548 36.5977C209.932 36.5018 210.363 36.3739 210.843 36.214C211.323 36.086 211.738 35.9581 212.09 35.8302C212.474 35.7343 212.666 35.6863 212.666 35.6863C212.73 34.8228 212.746 33.9274 212.714 33C212.714 32.0726 212.458 31.385 211.946 30.9373C211.626 30.5855 211.371 30.1858 211.179 29.7381C211.019 29.2904 210.811 28.8107 210.555 28.299C210.619 28.0112 210.731 27.7713 210.891 27.5794C211.051 27.3876 211.275 27.2277 211.563 27.0997C212.17 26.8119 212.906 26.3642 213.769 25.7566C214.665 25.117 215.576 24.3655 216.503 23.502C217.431 22.6386 218.246 21.7112 218.95 20.7198C219.398 20.0802 219.557 19.4726 219.43 18.8969C219.334 18.3213 218.774 17.9695 217.751 17.8416C217.111 17.8416 216.391 18.0655 215.592 18.5132C214.792 18.9289 213.961 19.5046 213.098 20.2401C212.586 20.432 212.218 20.384 211.994 20.0962C211.77 19.7764 211.595 19.4246 211.467 19.0408C211.531 18.6891 211.658 18.3853 211.85 18.1294C212.042 17.8416 212.25 17.5698 212.474 17.3139C212.73 17.0581 212.954 16.7863 213.146 16.4985C213.401 16.3705 213.625 16.2426 213.817 16.1147C214.009 15.9548 214.217 15.8109 214.441 15.683C214.633 15.5551 214.824 15.4591 215.016 15.3952C215.24 15.2992 215.464 15.2512 215.688 15.2512C215.88 15.2512 216.072 15.2193 216.264 15.1553C216.455 15.0594 216.663 15.0114 216.887 15.0114C218.39 15.0754 219.573 15.651 220.437 16.7383C221.3 17.8256 221.684 18.8969 221.588 19.9523C221.524 21.0076 220.981 22.3827 219.957 24.0777C219.669 24.5574 219.19 25.069 218.518 25.6127C217.879 26.1563 217.191 26.684 216.455 27.1957C215.752 27.7074 215.128 28.1551 214.585 28.5388C214.041 28.8906 213.721 29.1145 213.625 29.2104C213.913 29.5622 214.217 30.1538 214.537 30.9853C214.856 31.7848 215.112 32.6003 215.304 33.4317C215.528 34.2952 215.56 34.9668 215.4 35.4464C215.72 35.5104 216.12 35.4784 216.599 35.3505C217.111 35.2546 217.511 35.2066 217.799 35.2066C218.086 35.4944 218.374 35.7662 218.662 36.0221C218.95 36.2779 219.094 36.5498 219.094 36.8376C219.158 37.0294 219.11 37.2053 218.95 37.3652C218.822 37.5251 218.678 37.6211 218.518 37.6531C218.102 37.717 217.575 37.733 216.935 37.701C216.296 37.669 215.672 37.781 215.064 38.0368C214.617 38.7084 214.233 39.4439 213.913 40.2434C213.593 41.0749 213.178 41.9223 212.666 42.7858C212.154 43.6812 211.355 44.5927 210.267 45.5201C209.884 45.8399 209.484 46.1277 209.068 46.3835C208.652 46.6713 208.317 46.8152 208.061 46.8152C207.549 46.9751 207.053 47.1031 206.574 47.199C206.126 47.2949 205.678 47.3429 205.231 47.3429ZM203.168 44.8965C203.168 44.9604 203.408 44.9764 203.887 44.9444C204.335 44.9444 204.879 44.8645 205.518 44.7046C206.19 44.5767 206.782 44.3688 207.293 44.081C207.933 43.6972 208.476 43.2335 208.924 42.6899C209.372 42.1782 209.804 41.6185 210.219 41.0109C210.379 40.7551 210.539 40.4673 210.699 40.1475C210.859 39.8597 210.987 39.5558 211.083 39.236C210.859 38.9802 210.491 38.9962 209.98 39.284C209.468 39.5718 208.86 39.8437 208.157 40.0995C207.421 40.3553 206.526 40.7391 205.47 41.2508C204.447 41.7944 203.664 42.3861 203.12 43.0256C202.96 43.2495 202.784 43.4574 202.592 43.6493C202.4 43.8411 202.192 44.017 201.969 44.1769C202.129 44.4008 202.304 44.5767 202.496 44.7046C202.688 44.8325 202.912 44.8965 203.168 44.8965ZM234.753 32.4723C234.561 32.4084 234.369 32.3604 234.177 32.3284C233.985 32.2645 233.793 32.2005 233.602 32.1365C233.442 32.0726 233.25 32.0246 233.026 31.9926C232.706 31.5449 232.578 31.0013 232.642 30.3617C232.706 29.6901 232.85 29.0025 233.074 28.299C233.33 27.5954 233.57 26.9079 233.793 26.2363C234.049 25.5647 234.193 24.9891 234.225 24.5094C234.193 24.3815 234.145 24.3495 234.081 24.4134C234.017 24.4454 233.985 24.4934 233.985 24.5573C233.761 24.8132 233.442 24.9891 233.026 25.085C232.61 25.181 232.226 25.2609 231.875 25.3249C231.267 25.4208 230.659 25.5327 230.052 25.6607C229.444 25.7886 228.853 25.9325 228.277 26.0924C228.181 26.0284 228.069 25.9485 227.941 25.8525C227.845 25.7566 227.749 25.6766 227.653 25.6127C227.429 25.6127 227.238 25.8205 227.078 26.2363C226.918 26.652 226.774 27.1637 226.646 27.7713C226.518 28.3469 226.39 28.9066 226.262 29.4502C226.166 29.9619 226.07 30.3297 225.974 30.5536C225.463 30.6175 225.095 30.6335 224.871 30.6015C224.679 30.5695 224.311 30.4736 223.768 30.3137C223.512 29.9619 223.368 29.6261 223.336 29.3063C223.336 28.9865 223.384 28.6348 223.48 28.251C223.64 27.5155 223.768 26.9239 223.864 26.4761C223.992 26.0284 224.2 25.4528 224.487 24.7492C224.647 24.3975 224.791 24.0617 224.919 23.7419C225.079 23.3901 225.159 23.0063 225.159 22.5906C225.415 22.2708 225.591 21.919 225.687 21.5353C225.783 21.1515 225.894 20.7678 226.022 20.384C226.534 19.0728 226.934 18.0655 227.222 17.3619C227.541 16.6264 227.765 16.0507 227.893 15.635C228.021 15.2193 228.101 14.8355 228.133 14.4837C228.165 14.036 228.437 13.8122 228.949 13.8122C229.268 13.8122 229.604 13.9401 229.956 14.1959C230.308 14.4198 230.579 14.7076 230.771 15.0594C230.963 15.4111 230.979 15.7789 230.819 16.1627C230.723 16.4185 230.563 16.8342 230.34 17.4099C230.148 17.9535 229.924 18.5611 229.668 19.2327C229.444 19.8723 229.22 20.4799 228.996 21.0556C228.805 21.5992 228.645 21.999 228.517 22.2548C228.485 22.3827 228.421 22.4947 228.325 22.5906C228.229 22.6546 228.181 22.7665 228.181 22.9264C228.405 23.0863 228.773 23.1502 229.284 23.1183C229.828 23.0543 230.212 22.9584 230.436 22.8304C230.915 22.8304 231.379 22.8304 231.827 22.8304C232.306 22.8304 232.786 22.8304 233.266 22.8304C233.745 23.1183 234.113 23.55 234.369 24.1256C234.593 23.518 234.897 22.7185 235.28 21.7271C235.664 20.7038 236.032 19.6964 236.384 18.7051C236.736 17.7137 236.943 16.9622 237.007 16.4505C237.071 16.1627 237.199 15.9068 237.391 15.683C237.583 15.4591 237.791 15.2832 238.015 15.1553C238.462 15.3792 238.894 15.571 239.31 15.7309C239.758 15.8589 240.045 16.2266 240.173 16.8342C240.141 17.1221 240.077 17.4099 239.982 17.6977C239.886 17.9535 239.79 18.2094 239.694 18.4652C239.374 19.3926 238.974 20.416 238.494 21.5353C238.015 22.6226 237.567 23.7419 237.151 24.8931C236.768 26.0124 236.496 27.0678 236.336 28.0591C236.336 28.1551 236.256 28.4749 236.096 29.0185C235.968 29.5622 235.824 30.0898 235.664 30.6015C235.536 31.1132 235.456 31.385 235.424 31.417C235.424 31.6409 235.36 31.8487 235.233 32.0406C235.105 32.2005 234.945 32.3444 234.753 32.4723ZM250.744 31.3211C250.073 31.8967 249.289 32.2325 248.394 32.3284C247.53 32.4244 246.683 32.2964 245.851 31.9447C245.02 31.5609 244.332 30.9853 243.789 30.2178C243.245 29.5142 242.893 28.7147 242.733 27.8193C242.574 26.8919 242.558 25.6926 242.685 24.2216C242.781 22.9744 243.181 21.7271 243.885 20.4799C244.588 19.2007 245.436 18.0655 246.427 17.0741C247.45 16.0827 248.458 15.3952 249.449 15.0114C249.929 14.6916 250.329 14.5477 250.648 14.5797C251 14.5797 251.528 14.6117 252.231 14.6756C252.967 14.7716 253.511 14.9155 253.862 15.1073C254.246 15.2992 254.55 15.5551 254.774 15.8749C255.253 16.3545 255.573 16.8342 255.733 17.3139C255.893 17.7617 255.973 18.2094 255.973 18.6571C255.845 19.3606 255.365 20.2241 254.534 21.2474C253.734 22.2388 252.679 23.0543 251.368 23.6939C250.664 23.9178 249.897 24.0137 249.065 23.9817C248.234 23.9497 247.546 23.7419 247.003 23.3581C246.395 23.1023 245.995 23.1502 245.803 23.502C245.612 23.8218 245.436 24.6213 245.276 25.9005C245.148 27.1157 245.244 28.0112 245.564 28.5868C245.883 29.1305 246.315 29.4502 246.859 29.5462C247.498 29.6741 247.994 29.77 248.346 29.834C248.73 29.866 249.193 29.7221 249.737 29.4023C250.249 29.0825 250.568 28.9066 250.696 28.8746C250.824 28.8107 250.92 28.7467 250.984 28.6827C251.08 28.5868 251.288 28.3789 251.608 28.0591C251.832 27.8353 252.008 27.6754 252.135 27.5794C252.263 27.4515 252.407 27.3876 252.567 27.3876C252.727 27.3876 252.871 27.4675 252.999 27.6274C253.127 27.7553 253.255 27.8513 253.383 27.9152C253.702 27.9152 253.766 28.1071 253.575 28.4909C253.415 28.8746 253.079 29.3383 252.567 29.882C252.056 30.3937 251.448 30.8733 250.744 31.3211ZM250.696 21.1515C251.048 20.9916 251.416 20.7678 251.8 20.4799C252.183 20.1601 252.503 19.8243 252.759 19.4726C253.047 19.0888 253.191 18.769 253.191 18.5132C253.191 18.0655 252.983 17.6977 252.567 17.4099C252.151 17.0901 251.528 17.0421 250.696 17.266C250.345 17.3619 249.945 17.6018 249.497 17.9855C249.049 18.3373 248.618 18.737 248.202 19.1848C247.818 19.6325 247.498 20.0322 247.243 20.384C247.019 20.7358 246.939 20.9436 247.003 21.0076C247.099 21.1675 247.37 21.2954 247.818 21.3914C248.266 21.4553 248.762 21.4713 249.305 21.4393C249.881 21.4073 250.345 21.3114 250.696 21.1515ZM264.809 31.7528C264.393 31.9447 263.913 32.0246 263.37 31.9926C262.826 31.9607 262.091 31.7848 261.163 31.465C261.099 31.465 260.955 31.401 260.731 31.2731C260.54 31.1452 260.332 30.9853 260.108 30.7934C259.916 30.5695 259.756 30.3297 259.628 30.0739C259.116 29.3383 258.909 28.251 259.004 26.8119C259.1 25.3728 259.548 23.6459 260.348 21.6312C260.571 21.1515 260.907 20.5439 261.355 19.8084C261.835 19.0728 262.298 18.4013 262.746 17.7936C263.226 17.154 263.562 16.7863 263.753 16.6903C263.753 16.6903 263.929 16.6264 264.281 16.4985C264.633 16.3705 265.081 16.1627 265.624 15.8749C265.784 15.8109 265.96 15.7469 266.152 15.683C266.376 15.619 266.6 15.571 266.824 15.5391C267.047 15.5071 267.239 15.5071 267.399 15.5391C268.039 15.571 268.694 15.8109 269.366 16.2586C270.069 16.6743 270.645 17.17 271.093 17.7457C271.541 18.2893 271.684 18.769 271.525 19.1848C271.525 19.2487 271.429 19.3766 271.237 19.5685C271.077 19.7284 270.885 19.9043 270.661 20.0962C270.469 20.2561 270.309 20.416 270.181 20.5759C270.021 20.7678 269.798 20.8477 269.51 20.8157C269.254 20.7837 269.014 20.6558 268.79 20.432C268.598 20.1761 268.486 19.8563 268.454 19.4726C268.391 19.2167 268.151 18.9769 267.735 18.753C267.351 18.5292 267.159 18.4172 267.159 18.4172C266.903 18.4172 266.536 18.6571 266.056 19.1368C265.608 19.5845 265.161 20.1282 264.713 20.7678C264.137 21.3434 263.642 22.031 263.226 22.8304C262.81 23.598 262.474 24.3335 262.218 25.037C261.995 25.7086 261.835 26.1883 261.739 26.4761C261.611 26.7959 261.595 27.2436 261.691 27.8193C261.787 28.3949 261.899 28.7467 262.027 28.8746C262.154 28.9386 262.474 28.9546 262.986 28.9226C263.53 28.8906 264.169 28.8266 264.905 28.7307C265.64 28.6028 266.36 28.4589 267.063 28.299C267.767 28.1391 268.343 27.9632 268.79 27.7713C269.398 27.3876 269.926 27.1637 270.373 27.0997C270.821 27.0358 271.157 27.0358 271.381 27.0997C271.732 27.2277 271.94 27.4035 272.004 27.6274C272.068 27.8513 271.988 28.1071 271.764 28.3949C271.541 28.6508 271.157 28.9226 270.613 29.2104C270.101 29.4662 269.638 29.7541 269.222 30.0739C268.838 30.3617 268.646 30.5855 268.646 30.7454C268.518 30.7454 268.375 30.7934 268.215 30.8893C268.087 30.9533 267.975 30.9693 267.879 30.9373C267.815 30.9373 267.559 30.9853 267.111 31.0812C266.664 31.1772 266.2 31.2891 265.72 31.417C265.273 31.5449 264.969 31.6569 264.809 31.7528ZM14.4491 88.7452C14.3212 88.7452 14.1613 88.7452 13.9694 88.7452C13.7775 88.7772 13.6016 88.6493 13.4417 88.3614C13.3138 88.2015 13.2338 87.9617 13.2019 87.6419C13.2019 87.3221 13.2818 86.7465 13.4417 85.915C13.6016 85.3713 13.7295 84.8277 13.8255 84.284C13.9214 83.7723 13.9694 83.3886 13.9694 83.1327C13.9694 83.0048 14.0014 82.749 14.0653 82.3652C14.1613 82.0135 14.2092 81.7576 14.2092 81.5977C14.3691 81.3419 14.497 80.9901 14.593 80.5424C14.6889 80.0947 14.7369 79.6949 14.7369 79.3431C14.7369 78.9594 14.9288 78.6076 15.3125 78.2878C15.3125 78.032 15.3605 77.7122 15.4564 77.3284C15.5844 76.9447 15.6483 76.6888 15.6483 76.5609C15.7443 76.1132 15.9521 75.3297 16.2719 74.2104C16.6237 73.0591 17.0394 71.764 17.5191 70.3249C18.0308 68.8858 18.5265 67.4787 19.0062 66.1035C19.4859 64.7284 19.9176 63.5611 20.3014 62.6018C20.6851 61.7063 20.941 60.9388 21.0689 60.2992C21.2288 59.6276 21.3087 59.132 21.3087 58.8122C21.3087 58.6842 21.3407 58.5883 21.4047 58.5243C21.4686 58.4284 21.6125 58.2525 21.8364 57.9967C22.1562 57.6769 22.428 57.5809 22.6519 57.7089C22.9077 57.8368 23.2115 58.0287 23.5633 58.2845C23.8191 58.7002 23.995 59.052 24.091 59.3398C24.2189 59.6276 24.2189 60.1233 24.091 60.8269C24.091 61.3066 24.011 61.7223 23.8511 62.0741C23.6912 62.4259 23.5473 62.6977 23.4194 62.8896C23.2915 63.0495 23.2595 63.1134 23.3234 63.0815C24.6346 62.4738 25.7859 62.154 26.7773 62.1221C27.8006 62.0581 28.6481 62.234 29.3196 62.6497C30.0232 63.0335 30.5509 63.5771 30.9026 64.2807C31.2544 64.9842 31.4303 65.7997 31.4303 66.7271C31.4303 67.1109 31.3504 67.5746 31.1905 68.1183C31.0306 68.6299 30.8227 69.1096 30.5669 69.5573C30.343 69.9731 30.1351 70.2769 29.9433 70.4688C29.8153 70.4688 29.6874 70.5807 29.5595 70.8046C29.4316 70.9964 29.3037 71.2203 29.1757 71.4761C28.9199 71.7959 28.5042 72.1637 27.9285 72.5794C27.3849 72.9632 26.8412 73.283 26.2976 73.5388C25.7539 73.7627 25.3542 73.8266 25.0983 73.7307C25.0983 73.7307 25.0504 73.7467 24.9544 73.7787C24.8905 73.7787 24.8585 73.8586 24.8585 74.0185C24.8585 74.0825 24.6026 74.2264 24.091 74.4502C23.5793 74.6421 22.9877 74.834 22.3161 75.0259C21.6445 75.1858 21.0529 75.2657 20.5412 75.2657C19.8696 75.2657 19.3899 75.1378 19.1021 74.882C19.0382 74.9459 18.9582 75.0419 18.8623 75.1698C18.7983 75.2977 18.7663 75.4096 18.7663 75.5056C18.7663 75.6975 18.6864 76.0652 18.5265 76.6089C18.3986 77.1206 18.2387 77.6162 18.0468 78.0959C17.8549 78.5756 17.679 78.8155 17.5191 78.8155C17.5191 78.8155 17.4871 78.8635 17.4232 78.9594C17.3592 79.0553 17.3912 79.1833 17.5191 79.3431C17.5191 79.3431 17.5031 79.519 17.4712 79.8708C17.4712 80.2546 17.3912 80.5744 17.2313 80.8302C17.2313 81.086 17.1833 81.4698 17.0874 81.9815C16.9915 82.4932 16.8795 82.8769 16.7516 83.1327C16.7516 83.5165 16.6877 83.8843 16.5597 84.236C16.4638 84.6198 16.3519 84.8117 16.2239 84.8117C16.096 84.8437 16.0161 85.0355 15.9841 85.3873C15.9521 85.7711 15.9361 86.0429 15.9361 86.2028C15.9042 87.0023 15.7443 87.6259 15.4564 88.0736C15.1686 88.5213 14.8328 88.7452 14.4491 88.7452ZM20.2534 72.7233C20.5092 72.7233 21.0369 72.6114 21.8364 72.3876C22.6359 72.1637 23.4514 71.8919 24.2828 71.5721C25.1463 71.2203 25.7859 70.8685 26.2016 70.5167C27.0331 69.7812 27.6727 68.9497 28.1204 68.0223C28.6001 67.0629 28.5681 66.1515 28.0245 65.2881C27.7686 64.8403 27.3049 64.6645 26.6334 64.7604C25.9618 64.8243 25.2262 65.0802 24.4268 65.5279C23.6273 65.9756 22.8757 66.5353 22.1722 67.2068C21.7884 67.6226 21.4366 68.1343 21.1168 68.7419C20.797 69.3495 20.5252 69.9571 20.3014 70.5647C20.1095 71.1723 19.9976 71.684 19.9656 72.0997C19.9336 72.5155 20.0295 72.7233 20.2534 72.7233ZM34.7848 76.2731C34.6569 76.0173 34.497 75.8254 34.3051 75.6975C34.1132 75.5376 34.0173 75.3937 34.0173 75.2657C34.0173 75.1378 34.0013 75.0099 33.9693 74.882C33.9693 74.7221 33.9054 74.5782 33.7774 74.4502C33.6175 74.2584 33.6335 73.8266 33.8254 73.1551C34.0173 72.4515 34.3371 71.6041 34.7848 70.6127C35.2325 69.5893 35.7602 68.518 36.3678 67.3987C36.6236 67.1429 36.8795 66.8071 37.1353 66.3914C37.3912 65.9756 37.583 65.7038 37.711 65.5759C37.711 65.448 37.7589 65.336 37.8549 65.2401C37.9508 65.1122 38.0627 65.0482 38.1907 65.0482V64.7604C38.1907 64.6005 38.3346 64.3287 38.6224 63.9449C38.9422 63.5611 39.3259 63.1454 39.7736 62.6977C40.2214 62.218 40.6851 61.7703 41.1648 61.3545C41.6445 60.9068 42.0442 60.587 42.364 60.3952C43.0356 59.9474 43.7231 59.6756 44.4267 59.5797C45.1622 59.4837 45.7858 59.6436 46.2975 60.0594C46.3935 60.1553 46.5534 60.3152 46.7772 60.5391C47.0011 60.7629 47.2569 61.0188 47.5447 61.3066C47.8645 61.5624 48.1843 61.8342 48.5041 62.1221L50.279 63.7051L49.4155 66.1035C48.9998 67.3827 48.8879 68.502 49.0798 69.4614C49.3036 70.4208 49.6234 71.2523 50.0391 71.9558C50.199 72.3076 50.5188 72.6434 50.9985 72.9632C51.5102 73.283 51.9899 73.4749 52.4376 73.5388C52.6935 73.5708 52.9333 73.6667 53.1572 73.8266C53.381 73.9865 53.493 74.2424 53.493 74.5942C53.493 74.914 53.429 75.1698 53.3011 75.3617C53.1732 75.5536 52.9493 75.6815 52.6295 75.7454C51.5742 75.8733 50.5828 75.6175 49.6554 74.9779C48.76 74.3383 47.9285 73.283 47.161 71.8119C47.033 71.62 46.8572 71.2683 46.6333 70.7566C46.4414 70.2129 46.3295 69.8612 46.2975 69.7013C46.1696 69.8612 45.9297 70.165 45.578 70.6127C45.2262 71.0284 44.9544 71.3322 44.7625 71.5241C42.4919 73.8266 40.5252 75.3777 38.8622 76.1772C37.2313 76.9447 35.8721 76.9766 34.7848 76.2731ZM36.5117 73.5868C36.5117 73.8107 36.8475 73.8107 37.5191 73.5868C38.2226 73.331 38.9742 72.8832 39.7736 72.2436C40.861 71.3162 41.9483 70.2929 43.0356 69.1736C44.1549 68.0543 45.0503 67.015 45.7219 66.0556L46.7772 64.3287C46.4574 63.5931 46.1056 63.0974 45.7219 62.8416C45.3701 62.5538 45.0663 62.4099 44.8105 62.4099C44.3947 62.4099 43.7711 62.7936 42.9396 63.5611C42.1401 64.3287 41.2767 65.352 40.3493 66.6312C39.4219 67.9104 38.5424 69.3175 37.711 70.8525C37.3912 71.4921 37.1033 72.1157 36.8475 72.7233C36.6236 73.299 36.5117 73.5868 36.5117 73.5868ZM54.4295 90.4241C54.1736 90.2642 53.8858 90.1843 53.566 90.1843C53.2462 90.1843 52.9584 90.1203 52.7026 89.9924C52.2549 89.7685 51.7432 89.4487 51.1676 89.033C50.6239 88.6173 50.2721 88.1696 50.1122 87.6899C50.0802 87.6259 50.0643 87.546 50.0643 87.45C50.0643 87.3861 50.0483 87.3381 50.0163 87.3061C49.9843 87.2102 49.9203 87.1142 49.8244 87.0183C49.7285 86.9543 49.6645 86.8744 49.6325 86.7784C49.5686 86.5866 49.5366 86.3787 49.5366 86.1548C49.5046 85.963 49.4886 85.7711 49.4886 85.5792C49.4566 85.3873 49.3927 85.1954 49.2967 85.0036C49.4247 84.7797 49.5366 84.5558 49.6325 84.332C49.6965 84.1081 49.7924 83.8843 49.9203 83.6604C50.0802 83.6284 50.2401 83.5965 50.4 83.5645C50.528 83.5645 50.6559 83.5485 50.7838 83.5165C51.1676 83.4845 51.3914 83.7404 51.4554 84.284C51.5513 84.8277 51.6792 85.4193 51.8391 86.0589C51.967 86.5386 52.1749 86.9703 52.4627 87.3541C52.7825 87.7378 53.2942 87.9457 53.9978 87.9777C54.7973 88.0097 55.4848 87.7538 56.0605 87.2102C56.6681 86.6985 57.1797 86.0429 57.5955 85.2434C58.0112 84.4439 58.331 83.6604 58.5549 82.8929C58.6188 82.765 58.6668 82.6371 58.6988 82.5091C58.7308 82.3812 58.7627 82.2533 58.7947 82.1254C58.8587 82.0294 58.9067 81.9175 58.9386 81.7896C58.9386 81.5018 59.0026 81.166 59.1305 80.7822C59.2904 80.4305 59.3863 80.0947 59.4183 79.7749C59.4823 79.1992 59.5782 78.5916 59.7061 77.952C59.8341 77.3124 59.7861 76.7048 59.5622 76.1292C59.5622 76.1292 59.5462 76.0013 59.5143 75.7454C59.4823 75.4896 59.4503 75.2178 59.4183 74.9299C59.3863 74.6421 59.3704 74.4822 59.3704 74.4502C59.1465 74.1624 58.9546 73.8586 58.7947 73.5388C58.6668 73.187 58.4749 72.8673 58.2191 72.5794C58.2191 72.3556 58.2031 72.1477 58.1711 71.9558C58.1711 71.764 58.1711 71.5561 58.1711 71.3322C58.2671 71.2683 58.347 71.1883 58.411 71.0924C58.4749 70.9964 58.5709 70.9325 58.6988 70.9005C59.6582 70.5487 60.5696 70.085 61.433 69.5094C62.2965 68.9018 63.048 68.1982 63.6876 67.3987C64.3272 66.5992 64.7909 65.7038 65.0787 64.7124C65.1747 64.3606 65.2386 64.0089 65.2706 63.6571C65.3026 63.3053 65.2706 62.9535 65.1747 62.6018C64.9188 62.4099 64.647 62.3619 64.3592 62.4578C63.144 62.8096 62.2325 63.2733 61.6249 63.849C61.0493 64.4246 60.5536 65.0642 60.1379 65.7678C59.7221 66.4393 59.1625 67.1269 58.4589 67.8304C58.2351 67.6066 58.0112 67.5106 57.7874 67.5426C57.5955 67.5426 57.3876 67.4627 57.1638 67.3028C57.0678 67.2068 56.9559 67.0789 56.828 66.919C56.732 66.7271 56.6041 66.4713 56.4442 66.1515C56.732 65.8317 56.9239 65.4799 57.0198 65.0962C57.1478 64.6804 57.3237 64.3287 57.5475 64.0408C58.0592 63.4332 58.5229 62.8736 58.9386 62.3619C59.3544 61.8502 59.914 61.3705 60.6176 60.9228C61.3531 60.4431 62.1206 60.0913 62.9201 59.8675C63.7516 59.6436 64.5671 59.6117 65.3666 59.7716C66.166 59.9314 66.8536 60.3952 67.4292 61.1627C68.0049 61.8662 68.2927 62.6817 68.2927 63.6091C68.3247 64.5046 68.1648 65.416 67.813 66.3434C67.4612 67.2708 66.9815 68.1343 66.3739 68.9337C65.7343 69.7652 65.0148 70.4368 64.2153 70.9485C63.4478 71.4601 62.6483 72.0358 61.8168 72.6754C62.0407 73.5388 62.2645 74.4183 62.4884 75.3137C62.7122 76.1772 62.7922 77.0726 62.7282 78C62.6323 79.1193 62.4884 80.2066 62.2965 81.2619C62.1366 82.3173 61.8808 83.3086 61.529 84.236C61.1772 85.1954 60.7135 86.0909 60.1379 86.9223C59.5622 87.7538 58.8107 88.5213 57.8833 89.2249C57.3716 89.6406 56.796 89.9284 56.1564 90.0883C55.5488 90.2482 54.9731 90.3602 54.4295 90.4241ZM75.2288 76.1772C74.5572 76.3051 74.1255 76.353 73.9336 76.3211C73.7737 76.2571 73.5179 76.0652 73.1661 75.7454C72.6544 75.4896 72.2227 75.1698 71.8709 74.786C71.5511 74.4023 71.3113 74.0025 71.1514 73.5868C71.0235 73.1391 70.9755 72.7713 71.0075 72.4835C71.1034 71.3642 71.3752 70.165 71.823 68.8858C72.2707 67.6066 72.8143 66.3754 73.4539 65.1921C74.0935 64.0089 74.7811 63.0015 75.5166 62.17C76.2841 61.3066 77.0197 60.7469 77.7232 60.4911C78.3628 60.2353 78.9704 60.1393 79.5461 60.2033C80.1217 60.2672 80.5374 60.571 80.7933 61.1147C81.273 62.0421 81.161 62.6337 80.4575 62.8896C80.3616 62.8896 80.2496 62.9375 80.1217 63.0335C79.9938 63.0974 79.9298 63.1934 79.9298 63.3213C80.0577 63.3853 80.4095 63.4013 80.9852 63.3693C81.5608 63.3053 82.1364 63.2094 82.7121 63.0815C83.3197 62.9216 83.7194 62.7617 83.9113 62.6018C84.1032 62.5058 84.2471 62.4578 84.343 62.4578C84.439 62.4578 84.6788 62.4898 85.0626 62.5538C85.6062 62.7137 85.8781 62.9056 85.8781 63.1294C85.8781 63.2573 85.926 63.3853 86.022 63.5132C86.1179 63.6091 86.2298 63.6571 86.3578 63.6571C86.5816 63.6891 86.5496 63.833 86.2618 64.0888C86.006 64.3447 85.5583 64.6964 84.9187 65.1441C84.311 65.5279 83.9273 65.7837 83.7674 65.9117C83.6395 66.0076 83.6235 66.2315 83.7194 66.5832C83.9753 67.1908 83.9913 67.8944 83.7674 68.6939C83.5435 69.4934 83.1438 70.3089 82.5682 71.1403C81.9925 71.9718 81.289 72.7553 80.4575 73.4909C79.658 74.1944 78.7945 74.802 77.8671 75.3137C76.9717 75.7934 76.0923 76.0812 75.2288 76.1772ZM74.4133 74.0665C74.5412 74.0665 74.7651 74.0025 75.0849 73.8746C75.4047 73.7147 75.6605 73.5868 75.8524 73.4909C75.9803 73.3629 76.1402 73.219 76.3321 73.0591C76.556 72.8673 76.7319 72.7553 76.8598 72.7233C76.9877 72.7233 77.1476 72.6754 77.3395 72.5794C77.5313 72.4515 77.8032 72.2117 78.1549 71.8599C78.5067 71.4761 78.9704 70.9165 79.5461 70.181C80.1857 69.4774 80.6813 68.8378 81.0331 68.2622C81.3849 67.6546 81.4808 67.0949 81.3209 66.5832C81.289 66.4553 81.193 66.3754 81.0331 66.3434C80.9052 66.3114 80.7293 66.2315 80.5055 66.1035C80.1857 66.1035 79.8819 66.0236 79.594 65.8637C79.3382 65.6718 79.0344 65.432 78.6826 65.1441L77.9151 64.1848L77.0996 65.0002C76.5879 65.5119 76.0443 66.2794 75.4687 67.3028C74.925 68.2942 74.4613 69.3175 74.0775 70.3728C73.6938 71.3962 73.4699 72.2117 73.406 72.8193C73.374 73.299 73.4539 73.6188 73.6458 73.7787C73.8377 73.9386 74.0935 74.0345 74.4133 74.0665ZM106.147 76.7528C106.051 76.6888 105.843 76.5929 105.523 76.465C105.236 76.3051 105.06 76.2091 104.996 76.1772C104.772 75.9853 104.644 75.7454 104.612 75.4576C104.58 75.1698 104.564 74.85 104.564 74.4982C104.596 74.1464 104.564 73.7787 104.468 73.3949C104.564 72.9472 104.66 72.4355 104.756 71.8599C104.852 71.2843 105.012 70.8205 105.236 70.4688C105.364 69.9251 105.555 69.2855 105.811 68.55C106.099 67.7825 106.355 67.031 106.579 66.2954C106.835 65.5279 106.995 64.8723 107.059 64.3287C106.547 64.6485 106.099 65.0002 105.715 65.384C105.332 65.7678 105.012 66.1515 104.756 66.5353C104.628 66.7271 104.484 66.887 104.324 67.015C104.164 67.1109 104.004 67.2388 103.845 67.3987C103.461 67.8145 103.093 68.2462 102.741 68.6939C102.389 69.1416 102.038 69.6053 101.686 70.085C101.11 70.8845 100.455 71.62 99.7192 72.2916C98.9836 72.9632 98.2801 73.6348 97.6085 74.3063C97.3527 74.5942 97.0648 74.786 96.745 74.882C96.4572 74.9459 96.1694 74.914 95.8816 74.786C95.4978 74.6261 95.178 74.4343 94.9222 74.2104C94.6983 73.9865 94.4585 73.6667 94.2027 73.251C94.1707 72.6114 94.2666 71.8759 94.4905 71.0444C94.7463 70.2129 95.0341 69.3655 95.3539 68.502C95.7057 67.6386 96.0095 66.8391 96.2654 66.1035C96.5212 65.336 96.6491 64.7284 96.6491 64.2807C96.6171 64.2487 96.5692 64.2327 96.5052 64.2327C96.4732 64.2327 96.4253 64.2647 96.3613 64.3287C94.9862 65.5119 93.8029 66.7591 92.8115 68.0703C91.8521 69.3815 90.8608 70.9485 89.8374 72.7713C89.5816 73.251 89.3257 73.8586 89.0699 74.5942C88.8461 75.2977 88.5103 75.8254 88.0626 76.1772C88.0306 76.1772 87.9986 76.1772 87.9666 76.1772C87.9666 76.1452 87.9506 76.1292 87.9186 76.1292C87.8867 76.0652 87.8387 76.0652 87.7747 76.1292C87.7108 76.1931 87.6148 76.2411 87.4869 76.2731C87.327 76.2731 87.1671 76.1931 87.0072 76.0332C86.7834 75.8094 86.5435 75.5855 86.2877 75.3617C86.0638 75.1378 85.9039 74.866 85.808 74.5462C85.8719 74.2904 85.9519 74.0665 86.0478 73.8746C86.1438 73.6508 86.3197 73.3949 86.5755 73.1071C86.6714 72.7873 86.7994 72.4995 86.9592 72.2436C87.1511 71.9878 87.311 71.7 87.4389 71.3802C87.7587 70.5487 88.2704 69.5893 88.974 68.502C89.6775 67.4147 90.493 66.3434 91.4204 65.2881C92.3478 64.2327 93.3072 63.3053 94.2986 62.5058C95.29 61.7063 96.2174 61.1627 97.0808 60.8749C97.1128 60.8749 97.1288 60.8749 97.1288 60.8749C97.1608 60.8749 97.1928 60.8749 97.2247 60.8749C97.5445 60.9708 97.8324 61.0827 98.0882 61.2106C98.344 61.3066 98.6159 61.4185 98.9037 61.5464C99.0316 61.7063 99.1755 61.9142 99.3354 62.17C99.4953 62.3939 99.6072 62.6337 99.6712 62.8896C99.7991 63.2733 99.7831 63.817 99.6232 64.5205C99.4633 65.2241 99.2714 65.9277 99.0476 66.6312C98.8237 67.3348 98.6319 67.8944 98.472 68.3101C98.44 68.4381 98.328 68.7099 98.1362 69.1256C97.9443 69.5414 97.8324 69.8612 97.8004 70.085C97.8004 70.117 97.8004 70.149 97.8004 70.181C97.8004 70.2129 97.8164 70.2449 97.8483 70.2769C98.36 69.7972 98.8557 69.3015 99.3354 68.7898C99.8471 68.2782 100.311 67.7665 100.727 67.2548C101.718 66.1035 102.725 64.9363 103.749 63.753C104.804 62.5378 105.987 61.5464 107.298 60.7789C107.618 60.619 107.986 60.651 108.402 60.8749C108.849 61.0987 109.185 61.3386 109.409 61.5944C109.761 61.8822 109.953 62.266 109.985 62.7457C110.049 63.3853 109.969 64.2647 109.745 65.384C109.521 66.4713 109.233 67.5586 108.881 68.6459C108.562 69.7332 108.258 70.5967 107.97 71.2363C107.906 71.3962 107.858 71.5241 107.826 71.62C107.794 71.716 107.762 71.8599 107.73 72.0518C107.698 72.2756 107.634 72.4995 107.538 72.7233C107.474 72.9472 107.41 73.1551 107.346 73.3469C107.25 73.7627 107.234 74.1784 107.298 74.5942C107.394 75.0099 107.458 75.4256 107.49 75.8414C107.49 75.8733 107.442 75.9213 107.346 75.9853C107.154 76.1132 106.963 76.2411 106.771 76.369C106.611 76.465 106.435 76.5929 106.243 76.7528C106.211 76.7528 106.195 76.7528 106.195 76.7528C106.195 76.7528 106.179 76.7528 106.147 76.7528ZM119.035 92.3429C118.332 92.3429 117.66 92.215 117.02 91.9592C116.349 91.7033 115.725 91.2876 115.15 90.7119C114.862 90.0084 114.654 89.5447 114.526 89.3208C114.366 89.1289 114.078 88.8411 113.663 88.4574C113.663 88.2975 113.727 87.9937 113.854 87.546C113.982 87.1302 114.174 86.7624 114.43 86.4427C115.102 85.6432 115.917 84.9236 116.877 84.284C117.836 83.6764 118.955 83.1487 120.234 82.701C120.394 82.6371 120.554 82.5571 120.714 82.4612C120.906 82.3972 121.082 82.3652 121.242 82.3652C121.402 82.3652 121.498 82.2693 121.53 82.0774C121.594 81.8855 121.737 81.8695 121.961 82.0294C122.121 81.9655 122.249 81.8855 122.345 81.7896C122.441 81.6937 122.601 81.6777 122.825 81.7416C122.825 81.7416 123.001 81.6937 123.352 81.5977C123.736 81.5018 124.168 81.3739 124.648 81.214C125.127 81.086 125.543 80.9581 125.895 80.8302C126.279 80.7343 126.47 80.6863 126.47 80.6863C126.534 79.8228 126.55 78.9274 126.518 78C126.518 77.0726 126.263 76.385 125.751 75.9373C125.431 75.5855 125.175 75.1858 124.983 74.7381C124.824 74.2904 124.616 73.8107 124.36 73.299C124.424 73.0112 124.536 72.7713 124.696 72.5794C124.855 72.3876 125.079 72.2277 125.367 72.0997C125.975 71.8119 126.71 71.3642 127.574 70.7566C128.469 70.117 129.381 69.3655 130.308 68.502C131.235 67.6386 132.051 66.7112 132.754 65.7198C133.202 65.0802 133.362 64.4726 133.234 63.8969C133.138 63.3213 132.579 62.9695 131.555 62.8416C130.916 62.8416 130.196 63.0655 129.397 63.5132C128.597 63.9289 127.766 64.5046 126.902 65.2401C126.391 65.432 126.023 65.384 125.799 65.0962C125.575 64.7764 125.399 64.4246 125.271 64.0408C125.335 63.6891 125.463 63.3853 125.655 63.1294C125.847 62.8416 126.055 62.5698 126.279 62.3139C126.534 62.0581 126.758 61.7863 126.95 61.4985C127.206 61.3705 127.43 61.2426 127.622 61.1147C127.814 60.9548 128.021 60.8109 128.245 60.683C128.437 60.5551 128.629 60.4591 128.821 60.3952C129.045 60.2992 129.269 60.2512 129.493 60.2512C129.684 60.2512 129.876 60.2193 130.068 60.1553C130.26 60.0594 130.468 60.0114 130.692 60.0114C132.195 60.0754 133.378 60.651 134.242 61.7383C135.105 62.8256 135.489 63.8969 135.393 64.9523C135.329 66.0076 134.785 67.3827 133.762 69.0777C133.474 69.5574 132.994 70.069 132.323 70.6127C131.683 71.1563 130.996 71.684 130.26 72.1957C129.557 72.7074 128.933 73.1551 128.389 73.5388C127.846 73.8906 127.526 74.1145 127.43 74.2104C127.718 74.5622 128.021 75.1538 128.341 75.9853C128.661 76.7848 128.917 77.6003 129.109 78.4317C129.333 79.2952 129.365 79.9668 129.205 80.4464C129.525 80.5104 129.924 80.4784 130.404 80.3505C130.916 80.2546 131.315 80.2066 131.603 80.2066C131.891 80.4944 132.179 80.7662 132.467 81.0221C132.754 81.2779 132.898 81.5498 132.898 81.8376C132.962 82.0294 132.914 82.2053 132.754 82.3652C132.627 82.5251 132.483 82.6211 132.323 82.6531C131.907 82.717 131.379 82.733 130.74 82.701C130.1 82.669 129.477 82.781 128.869 83.0368C128.421 83.7084 128.037 84.4439 127.718 85.2434C127.398 86.0749 126.982 86.9223 126.47 87.7858C125.959 88.6812 125.159 89.5927 124.072 90.5201C123.688 90.8399 123.288 91.1277 122.873 91.3835C122.457 91.6713 122.121 91.8152 121.865 91.8152C121.354 91.9751 120.858 92.1031 120.378 92.199C119.931 92.2949 119.483 92.3429 119.035 92.3429ZM116.972 89.8965C116.972 89.9604 117.212 89.9764 117.692 89.9444C118.14 89.9444 118.683 89.8645 119.323 89.7046C119.995 89.5767 120.586 89.3688 121.098 89.081C121.737 88.6972 122.281 88.2335 122.729 87.6899C123.177 87.1782 123.608 86.6185 124.024 86.0109C124.184 85.7551 124.344 85.4673 124.504 85.1475C124.664 84.8597 124.792 84.5558 124.887 84.236C124.664 83.9802 124.296 83.9962 123.784 84.284C123.272 84.5718 122.665 84.8437 121.961 85.0995C121.226 85.3553 120.33 85.7391 119.275 86.2508C118.252 86.7944 117.468 87.3861 116.925 88.0256C116.765 88.2495 116.589 88.4574 116.397 88.6493C116.205 88.8411 115.997 89.017 115.773 89.1769C115.933 89.4008 116.109 89.5767 116.301 89.7046C116.493 89.8325 116.717 89.8965 116.972 89.8965ZM175.381 80.3025C175.349 80.4944 175.158 80.5424 174.806 80.4464C174.486 80.3825 174.198 80.1586 173.942 79.7749C173.687 79.1673 173.559 78.6076 173.559 78.0959C173.559 77.5843 173.575 76.8167 173.607 75.7934C173.798 74.6741 174.054 73.219 174.374 71.4282C174.726 69.6053 175.126 67.5746 175.573 65.336C176.053 63.0655 176.565 60.699 177.108 58.2365C177.492 56.9573 177.796 55.7901 178.02 54.7347C178.276 53.6474 178.468 52.768 178.595 52.0964C178.723 51.4248 178.787 51.0891 178.787 51.0891C178.787 50.9931 178.691 51.0411 178.499 51.233C178.34 51.3929 178.18 51.5847 178.02 51.8086C177.86 52.0325 177.796 52.2083 177.828 52.3363C177.828 52.3363 177.716 52.4962 177.492 52.816C177.268 53.1358 176.98 53.5675 176.629 54.1111C176.309 54.4309 175.925 55.0705 175.477 56.0299C175.03 56.9893 174.534 57.8847 173.99 58.7162C173.479 59.6756 172.935 60.715 172.359 61.8342C171.784 62.9216 171.272 63.833 170.824 64.5685C170.537 64.9842 170.249 65.4639 169.961 66.0076C169.673 66.5513 169.497 66.903 169.433 67.0629C169.305 67.4147 169.081 67.8464 168.762 68.3581C168.442 68.8378 168.09 69.3175 167.706 69.7972C167.514 70.085 167.323 70.3888 167.131 70.7086C166.939 70.9964 166.779 71.2523 166.651 71.4761C166.555 71.668 166.507 71.764 166.507 71.764C166.507 71.8599 166.347 72.1477 166.027 72.6274C165.74 73.1071 165.372 73.6348 164.924 74.2104C164.508 74.786 164.109 75.2817 163.725 75.6975C162.606 76.8807 161.71 77.5843 161.039 77.8081C160.367 78 159.615 77.7122 158.784 76.9447C158.368 76.433 158.064 75.8574 157.873 75.2178C157.681 74.5462 157.601 73.7307 157.633 72.7713C157.665 71.7799 157.777 70.5487 157.968 69.0777C158.192 67.9584 158.4 66.8391 158.592 65.7198C158.784 64.5685 158.96 63.4972 159.12 62.5058C159.312 61.4825 159.472 60.619 159.599 59.9155C159.759 59.2119 159.887 58.7482 159.983 58.5243C160.047 57.8847 160.031 57.533 159.935 57.469C159.839 57.4051 159.647 57.5969 159.36 58.0446C159.232 58.2685 158.896 58.8281 158.352 59.7236C157.809 60.587 157.169 61.6584 156.433 62.9375C155.73 64.2167 155.026 65.6079 154.323 67.1109C153.012 69.5414 151.924 71.5561 151.061 73.1551C150.229 74.7221 149.558 75.9693 149.046 76.8967C148.566 77.8241 148.215 78.5117 147.991 78.9594C147.767 79.4071 147.607 79.7109 147.511 79.8708C147.415 80.0307 147.335 80.1426 147.271 80.2066C146.983 80.2066 146.68 80.0787 146.36 79.8228C146.072 79.599 145.768 79.3272 145.448 79.0074C145.352 78.7835 145.305 78.5596 145.305 78.3358C145.336 78.1119 145.448 77.7921 145.64 77.3764C145.832 76.9287 146.12 76.2571 146.504 75.3617C146.919 74.5302 147.303 73.8107 147.655 73.203C148.007 72.5634 148.279 72.1797 148.471 72.0518C148.63 71.7959 148.774 71.5401 148.902 71.2843C149.03 71.0284 149.11 70.7246 149.142 70.3728C149.302 70.181 149.542 69.7972 149.862 69.2216C150.213 68.6139 150.565 67.9584 150.917 67.2548C151.173 66.8391 151.493 66.2954 151.876 65.6238C152.292 64.9523 152.724 64.2167 153.172 63.4172C153.619 62.5858 154.019 61.8023 154.371 61.0667C155.842 58.5403 157.089 56.4137 158.112 54.6868C159.136 52.9279 159.903 51.8086 160.415 51.3289C160.575 51.169 160.735 50.9451 160.895 50.6573C161.087 50.3695 161.182 50.1137 161.182 49.8898C161.182 49.2182 161.31 48.6106 161.566 48.067C161.854 47.4913 162.142 47.2355 162.43 47.2995C162.749 47.2995 163.037 47.3314 163.293 47.3954C163.549 47.4594 163.821 47.6672 164.109 48.019C164.364 48.4028 164.588 48.7865 164.78 49.1703C164.972 49.554 164.956 50.3215 164.732 51.4728C164.732 51.9205 164.684 52.4322 164.588 53.0078C164.492 53.5515 164.396 54.0632 164.3 54.5429C164.237 54.9906 164.189 55.3424 164.157 55.5982C163.741 56.8454 163.357 58.2525 163.005 59.8195C162.654 61.3545 162.334 62.9216 162.046 64.5205C161.758 66.0875 161.518 67.5586 161.326 68.9337C161.134 70.2769 161.007 71.3962 160.943 72.2916C160.911 73.1551 160.943 73.6508 161.039 73.7787C161.262 73.9066 161.454 73.9226 161.614 73.8266C161.774 73.7307 162.046 73.315 162.43 72.5794C162.654 72.1957 162.957 71.732 163.341 71.1883C163.757 70.6127 164.157 70.085 164.54 69.6053C164.796 69.1576 165.196 68.486 165.74 67.5906C166.283 66.6952 166.971 65.5439 167.802 64.1368C168.666 62.7297 169.689 61.0188 170.872 59.004C172.088 56.9573 173.463 54.5908 174.998 51.9045C175.733 50.7852 176.421 49.6979 177.06 48.6426C177.732 47.5553 178.276 46.8517 178.691 46.5319C179.139 46.1162 179.603 46.0203 180.082 46.2441C180.562 46.436 180.978 46.8517 181.33 47.4913C181.713 48.1309 181.921 48.9304 181.953 49.8898C181.985 50.3375 181.921 51.0571 181.761 52.0484C181.633 53.0398 181.426 54.1751 181.138 55.4543C180.85 56.7015 180.482 57.9967 180.035 59.3398C179.939 59.8835 179.779 60.571 179.555 61.4025C179.363 62.202 179.139 63.0335 178.883 63.8969C178.627 64.7604 178.372 65.5759 178.116 66.3434C177.956 67.3987 177.764 68.4381 177.54 69.4614C177.348 70.4848 177.284 71.1723 177.348 71.5241C177.06 72.0358 176.869 72.7713 176.773 73.7307C176.677 74.6901 176.629 75.6815 176.629 76.7048C176.501 77.952 176.405 78.8315 176.341 79.3431C176.277 79.8548 176.165 80.0947 176.005 80.0627C175.589 79.9348 175.381 80.0147 175.381 80.3025ZM186.305 77.2805C185.89 77.2805 185.554 77.2005 185.298 77.0406C185.074 76.8807 184.786 76.6569 184.435 76.369C183.827 75.7294 183.395 75.1218 183.139 74.5462C182.884 73.9386 182.804 73.3629 182.9 72.8193C182.996 72.5634 183.027 72.3236 182.996 72.0997C182.996 71.8439 182.996 71.716 182.996 71.716C182.836 71.5561 182.788 71.4601 182.852 71.4282C182.916 71.3642 182.98 71.2683 183.043 71.1403C183.235 71.1403 183.299 70.9645 183.235 70.6127C183.171 70.3568 183.299 69.7972 183.619 68.9337C183.939 68.0703 184.339 67.2548 184.818 66.4873C185.01 66.1675 185.298 65.7518 185.682 65.2401C186.066 64.6964 186.481 64.1688 186.929 63.6571C187.409 63.1134 187.84 62.6817 188.224 62.3619C189.024 61.6903 189.727 61.1946 190.335 60.8749C190.942 60.5551 191.598 60.3152 192.302 60.1553C193.005 59.9954 193.485 59.9155 193.741 59.9155C194.029 59.9155 194.412 60.1713 194.892 60.683C195.628 61.0028 196.155 61.3865 196.475 61.8342C196.827 62.282 197.051 62.9375 197.147 63.801C197.242 64.7604 197.163 65.8637 196.907 67.1109C196.683 68.3261 195.931 69.8452 194.652 71.668C193.853 72.8193 193.117 73.6827 192.446 74.2584C191.774 74.802 190.974 75.3457 190.047 75.8893C189.375 76.3371 188.768 76.6728 188.224 76.8967C187.681 77.0886 187.041 77.2165 186.305 77.2805ZM190.91 72.1957C191.678 71.3322 192.286 70.5167 192.733 69.7492C193.213 68.9817 193.661 68.0063 194.076 66.8231C194.204 66.4713 194.284 66.0396 194.316 65.5279C194.348 64.9842 194.332 64.4886 194.268 64.0408C194.236 63.5611 194.124 63.2893 193.933 63.2254C193.549 63.0015 193.085 62.9375 192.541 63.0335C191.998 63.0974 191.406 63.4013 190.767 63.9449C189.775 64.7764 188.912 65.8157 188.176 67.0629C187.441 68.2782 186.721 69.6693 186.018 71.2363C185.538 72.3876 185.426 73.315 185.682 74.0185C185.97 74.6901 186.561 74.9299 187.457 74.7381C188.384 74.5142 189.535 73.6667 190.91 72.1957ZM202.833 78.1919C202.225 77.936 201.65 77.6003 201.106 77.1845C200.562 76.7368 200.21 76.369 200.051 76.0812C200.051 75.7934 200.099 75.6015 200.194 75.5056C200.29 75.3777 200.562 75.3297 201.01 75.3617C201.49 75.3617 202.257 75.4256 203.313 75.5536C203.696 75.5536 204.176 75.5216 204.752 75.4576C205.327 75.3937 205.855 75.2977 206.335 75.1698C206.846 75.0419 207.134 74.882 207.198 74.6901C207.358 74.6901 207.39 74.6421 207.294 74.5462C207.198 74.4183 207.086 74.2904 206.958 74.1624C206.83 74.1624 206.686 74.1145 206.526 74.0185C206.367 73.8906 206.223 73.8266 206.095 73.8266C206.095 73.6667 205.935 73.4909 205.615 73.299C205.327 73.0751 205.023 72.8992 204.704 72.7713C204 72.1957 203.392 71.684 202.881 71.2363C202.369 70.7566 202.177 70.4368 202.305 70.2769C202.305 70.149 202.305 70.085 202.305 70.085C202.305 70.053 202.305 70.037 202.305 70.037C202.081 70.037 201.825 69.7172 201.538 69.0777C201.282 68.4381 201.154 67.8624 201.154 67.3507C201.154 66.967 201.266 66.4873 201.49 65.9117C201.714 65.304 202.017 64.6804 202.401 64.0408C202.785 63.4013 203.185 62.8736 203.6 62.4578C204.176 61.9142 204.896 61.3386 205.759 60.7309C206.622 60.0913 207.47 59.5317 208.301 59.052C209.165 58.5403 209.884 58.2045 210.46 58.0446C211.036 57.8208 211.563 57.7089 212.043 57.7089C212.555 57.7089 213.002 57.8208 213.386 58.0446C213.706 58.2045 213.994 58.4444 214.25 58.7642C214.537 59.052 214.777 59.3558 214.969 59.6756C215.193 59.9634 215.337 60.2193 215.401 60.4431C215.401 60.8269 215.369 61.2586 215.305 61.7383C215.241 62.186 215.145 62.5858 215.017 62.9375C214.921 63.2893 214.761 63.4652 214.537 63.4652C214.537 63.4652 214.489 63.4812 214.393 63.5132C214.33 63.5132 214.298 63.5931 214.298 63.753C214.298 64.0728 214.058 64.4406 213.578 64.8563C212.97 65.2721 212.443 65.5279 211.995 65.6238C211.547 65.6878 211.275 65.5119 211.18 65.0962C211.084 64.9683 211.02 64.8563 210.988 64.7604C210.956 64.6645 210.876 64.6165 210.748 64.6165C210.748 64.6165 210.7 64.5685 210.604 64.4726C210.508 64.3766 210.46 64.2167 210.46 63.9929C210.46 63.865 210.508 63.753 210.604 63.6571C210.7 63.5292 210.748 63.4652 210.748 63.4652C210.908 63.4652 211.116 63.2893 211.371 62.9375C211.627 62.5538 211.851 62.154 212.043 61.7383C212.267 61.2906 212.379 60.9868 212.379 60.8269C212.379 60.635 212.347 60.5231 212.283 60.4911C212.251 60.4591 212.107 60.4431 211.851 60.4431C211.403 60.635 210.86 60.8908 210.22 61.2106C209.581 61.5304 208.973 61.8502 208.397 62.17C207.854 62.4578 207.454 62.7297 207.198 62.9855C207.07 63.2094 206.99 63.3533 206.958 63.4172C206.926 63.4492 206.846 63.4652 206.718 63.4652C206.718 63.3373 206.606 63.4013 206.383 63.6571C206.191 63.8809 205.935 64.2007 205.615 64.6165C205.327 65.0322 205.039 65.448 204.752 65.8637C204.496 66.2474 204.304 66.5353 204.176 66.7271C204.112 66.7911 204.032 66.983 203.936 67.3028C203.872 67.5906 203.84 67.8624 203.84 68.1183C203.712 68.502 203.728 68.7738 203.888 68.9337C204.048 69.0617 204.4 69.3495 204.943 69.7972C206.063 70.6287 206.942 71.3162 207.582 71.8599C208.221 72.4035 208.701 72.8513 209.021 73.203C209.341 73.5548 209.533 73.8746 209.597 74.1624C210.172 75.1218 210.348 75.8574 210.124 76.369C209.9 76.8807 209.357 77.3284 208.493 77.7122C208.173 77.8721 207.646 78 206.91 78.0959C206.175 78.1919 205.423 78.2398 204.656 78.2398C203.888 78.2718 203.281 78.2558 202.833 78.1919ZM220.333 76.6089C220.077 76.6728 219.741 76.7048 219.326 76.7048C218.91 76.6728 218.542 76.6249 218.222 76.5609C217.935 76.465 217.791 76.369 217.791 76.2731C217.791 76.1132 217.711 76.0332 217.551 76.0332C217.551 76.0332 217.471 75.9693 217.311 75.8414C217.183 75.7134 216.975 75.5855 216.687 75.4576C216.4 75.0099 216.256 74.5302 216.256 74.0185C216.256 73.4749 216.4 72.6274 216.687 71.4761C216.783 70.6766 217.087 69.7492 217.599 68.6939C218.142 67.6066 218.798 66.5033 219.566 65.384C220.333 64.2647 221.133 63.2573 221.964 62.3619C222.828 61.4665 223.611 60.8109 224.315 60.3952C224.762 59.9474 225.306 59.7076 225.946 59.6756C226.585 59.6436 227.193 59.7875 227.768 60.1073C228.088 60.2672 228.408 60.5231 228.728 60.8749C229.048 61.2266 229.351 61.6104 229.639 62.0261C229.927 62.4419 230.167 62.8576 230.359 63.2733C230.455 63.6251 230.503 63.9449 230.503 64.2327C230.535 64.4886 230.535 64.8084 230.503 65.1921C230.503 65.5759 230.455 66.1515 230.359 66.919C230.199 67.4947 230.055 68.1982 229.927 69.0297C229.831 69.8612 229.783 70.5807 229.783 71.1883C229.719 71.7959 229.783 72.2277 229.975 72.4835C230.199 72.7393 230.519 72.7553 230.934 72.5315C231.318 72.3396 231.686 72.2596 232.038 72.2916C232.389 72.2916 232.661 72.3876 232.853 72.5794C233.077 72.7713 233.189 73.0591 233.189 73.4429C233.189 73.8266 232.997 74.2264 232.613 74.6421C232.262 75.0259 231.814 75.3617 231.27 75.6495C230.758 75.9053 230.263 76.0332 229.783 76.0332C229.431 76.0332 229.096 75.8254 228.776 75.4096C228.456 74.9619 228.168 74.4343 227.912 73.8266C227.688 73.187 227.481 72.5794 227.289 72.0038L227.001 70.9005L224.938 72.8673C224.522 73.315 224.107 73.7307 223.691 74.1145C223.307 74.4662 223.067 74.7221 222.971 74.882C222.812 75.1698 222.508 75.4576 222.06 75.7454C221.644 76.0332 221.069 76.3211 220.333 76.6089ZM220.477 73.7787C221.021 73.4589 221.644 72.9952 222.348 72.3876C223.051 71.748 223.739 71.0604 224.411 70.3249C225.082 69.5573 225.642 68.8538 226.089 68.2142C226.633 67.4787 227.049 66.7911 227.337 66.1515C227.624 65.5119 227.832 64.9043 227.96 64.3287C227.832 63.9769 227.624 63.6091 227.337 63.2254C227.049 62.8096 226.793 62.5858 226.569 62.5538C225.866 62.5538 225.114 63.0015 224.315 63.8969C223.547 64.7604 222.796 65.7038 222.06 66.7271C221.932 66.887 221.756 67.1429 221.532 67.4947C221.308 67.8464 221.085 68.1822 220.861 68.502C220.669 68.7898 220.541 68.9817 220.477 69.0777C220.381 69.2056 220.189 69.5733 219.901 70.181C219.646 70.7566 219.39 71.3482 219.134 71.9558C218.878 72.5315 218.75 72.9152 218.75 73.1071C218.75 73.299 218.766 73.5068 218.798 73.7307C218.862 73.9546 219.022 74.0985 219.278 74.1624C219.534 74.2264 219.933 74.0985 220.477 73.7787ZM236.421 75.6495C236.293 75.6495 236.133 75.6175 235.941 75.5536C235.781 75.4576 235.701 75.4096 235.701 75.4096C235.701 75.2817 235.653 75.1218 235.557 74.9299C235.493 74.7381 235.461 74.5782 235.461 74.4502C235.237 74.3223 235.109 74.1944 235.077 74.0665C235.045 73.9066 235.093 73.6508 235.221 73.299C235.413 72.9792 235.669 72.4675 235.989 71.764C236.309 71.0284 236.644 70.2449 236.996 69.4134C237.348 68.55 237.684 67.7025 238.004 66.8711C238.323 66.0396 238.595 65.336 238.819 64.7604C239.043 64.1528 239.171 63.785 239.203 63.6571C239.203 63.5292 239.251 63.3693 239.347 63.1774C239.443 62.9855 239.555 62.8256 239.682 62.6977C239.938 62.4738 240.21 62.4578 240.498 62.6497C240.786 62.8096 241.026 63.0974 241.218 63.5132C241.441 63.8969 241.553 64.3287 241.553 64.8084C241.553 65.0322 241.393 65.6079 241.074 66.5353C240.754 67.4307 240.322 68.502 239.778 69.7492C239.267 70.9964 238.691 72.2596 238.052 73.5388C237.572 74.4662 237.268 75.0579 237.14 75.3137C237.012 75.5376 236.772 75.6495 236.421 75.6495ZM243.472 57.469C243.088 57.469 242.673 57.3251 242.225 57.0373C241.809 56.7175 241.441 56.3337 241.122 55.886C240.834 55.4063 240.69 54.9266 240.69 54.4469C240.69 54.287 240.786 54.0632 240.978 53.7754C241.17 53.4875 241.361 53.1997 241.553 52.9119C241.745 52.6241 241.841 52.4482 241.841 52.3842C242.097 52.3842 242.289 52.4002 242.417 52.4322C242.577 52.4322 242.769 52.4962 242.992 52.6241C243.344 53.4236 243.776 54.0792 244.288 54.5908C244.831 55.1025 245.103 55.5342 245.103 55.886C245.103 56.5896 245.039 57.0373 244.911 57.2292C244.783 57.3891 244.304 57.469 243.472 57.469ZM249.493 76.8967C248.79 76.8967 248.262 76.8647 247.91 76.8008C247.559 76.7368 247.287 76.6409 247.095 76.5129C246.903 76.385 246.679 76.2091 246.423 75.9853C246.295 75.7294 246.136 75.4576 245.944 75.1698C245.752 74.882 245.592 74.6741 245.464 74.5462C245.336 74.0665 245.272 73.4429 245.272 72.6754C245.304 71.9079 245.4 71.0764 245.56 70.181C245.752 69.2855 246.008 68.454 246.327 67.6865C246.455 67.4307 246.567 67.1749 246.663 66.919C246.759 66.6632 246.807 66.5353 246.807 66.5353C246.807 66.3754 246.999 65.9916 247.383 65.384C247.798 64.7764 248.246 64.1368 248.726 63.4652C249.238 62.7936 249.653 62.3139 249.973 62.0261C250.197 61.7703 250.533 61.4985 250.98 61.2106C251.46 60.9228 251.876 60.715 252.228 60.587C252.579 60.4591 252.931 60.3472 253.283 60.2512C253.667 60.1553 254.098 60.1073 254.578 60.1073C255.026 60.1073 255.442 60.2033 255.825 60.3952C256.209 60.587 256.577 60.9228 256.929 61.4025C257.504 61.9782 257.824 62.5538 257.888 63.1294C257.984 63.6731 257.968 64.2327 257.84 64.8084C257.68 65.448 257.472 65.9436 257.216 66.2954C256.961 66.6152 256.673 66.7591 256.353 66.7271C256.033 66.6952 255.665 66.4553 255.25 66.0076C255.122 65.7518 255.058 65.5439 255.058 65.384C255.058 65.1921 255.122 64.9203 255.25 64.5685C255.378 64.1208 255.378 63.6571 255.25 63.1774C255.122 62.6977 254.914 62.4578 254.626 62.4578C254.21 62.4578 253.747 62.6497 253.235 63.0335C252.755 63.3853 252.26 63.833 251.748 64.3766C251.524 64.6325 251.204 65.0322 250.789 65.5759C250.405 66.0875 250.021 66.6632 249.637 67.3028C249.254 67.9104 248.934 68.502 248.678 69.0777C248.326 70.133 248.038 70.9804 247.814 71.62C247.623 72.2596 247.527 72.5794 247.527 72.5794C247.527 72.7074 247.559 72.8353 247.623 72.9632C247.719 73.0591 247.766 73.1711 247.766 73.299C247.766 73.6827 247.99 73.9865 248.438 74.2104C248.79 74.4343 249.206 74.5622 249.685 74.5942C250.165 74.5942 250.757 74.4343 251.46 74.1145C251.972 73.8586 252.452 73.5228 252.899 73.1071C253.379 72.6914 253.875 72.3236 254.386 72.0038C254.738 71.7799 255.01 71.5881 255.202 71.4282C255.426 71.2683 255.538 71.2523 255.538 71.3802C255.538 71.5081 255.586 71.5721 255.681 71.5721C255.777 71.5721 255.889 71.5081 256.017 71.3802C256.209 71.1244 256.417 70.9645 256.641 70.9005C256.865 70.8046 257.057 70.7726 257.216 70.8046C257.408 70.8046 257.504 70.8525 257.504 70.9485C257.44 71.2363 257.504 71.4761 257.696 71.668C257.696 71.7959 257.648 71.9718 257.552 72.1957C257.488 72.3876 257.392 72.5475 257.264 72.6754C257.105 72.8992 256.865 73.1551 256.545 73.4429C256.257 73.7307 255.985 73.9865 255.729 74.2104C255.474 74.4023 255.346 74.4982 255.346 74.4982C255.218 74.4662 255.09 74.4982 254.962 74.5942C254.866 74.6901 254.754 74.802 254.626 74.9299C254.37 75.1538 254.13 75.3297 253.907 75.4576C253.683 75.5536 253.507 75.6015 253.379 75.6015C253.155 75.7294 252.979 75.8094 252.851 75.8414C252.755 75.8733 252.707 75.9533 252.707 76.0812C252.388 76.401 251.988 76.6249 251.508 76.7528C251.06 76.8487 250.389 76.8967 249.493 76.8967Z" fill="#002D6E"/>
</svg>
