<svg width="434" height="71" viewBox="0 0 434 71" fill="none" xmlns="http://www.w3.org/2000/svg">
<path d="M26.6261 59.034C26.4114 59.034 26.0741 58.942 25.6141 58.758C25.1848 58.5433 24.7248 58.298 24.2341 58.022C23.7434 57.7153 23.3448 57.424 23.0381 57.148C22.3634 56.504 21.7961 55.722 21.3361 54.802C20.8761 53.882 20.5541 52.9007 20.3701 51.858C20.1861 50.7847 20.1708 49.7573 20.3241 48.776C20.6614 46.8133 21.3974 44.8813 22.5321 42.98C23.6668 41.048 24.9701 39.4533 26.4421 38.196C27.2394 37.4907 27.9601 36.954 28.6041 36.586C29.2481 36.1873 30.0301 35.8807 30.9501 35.666C31.2874 35.574 31.6554 35.528 32.0541 35.528C32.4528 35.4973 32.7594 35.482 32.9741 35.482C33.5874 35.482 34.2008 35.6047 34.8141 35.85C35.4274 36.0953 35.9488 36.402 36.3781 36.77C36.8074 37.1073 37.0221 37.4293 37.0221 37.736C37.0221 37.9507 37.0068 38.1193 36.9761 38.242C36.9454 38.334 36.8074 38.3187 36.5621 38.196H36.1021L36.5621 39.53C36.6848 39.7753 36.7921 40.1127 36.8841 40.542C36.9761 40.9407 37.0221 41.3087 37.0221 41.646C37.0221 41.922 36.9761 42.3667 36.8841 42.98C36.7921 43.5627 36.6694 44.1913 36.5161 44.866C36.3628 45.5407 36.2094 46.1693 36.0561 46.752C35.9028 47.3347 35.7648 47.764 35.6421 48.04C35.5501 48.224 35.4888 48.408 35.4581 48.592C35.4581 48.7453 35.4581 48.8833 35.4581 49.006C35.3354 49.2207 35.1361 49.6347 34.8601 50.248C34.6148 50.8613 34.4308 51.2907 34.3081 51.536C34.1854 51.6587 34.0781 51.766 33.9861 51.858C33.9248 51.95 33.9554 52.0573 34.0781 52.18C34.0781 52.2413 34.0014 52.4407 33.8481 52.778C33.6948 53.0847 33.5261 53.376 33.3421 53.652C33.1888 53.928 33.0661 54.066 32.9741 54.066C32.9741 54.066 32.9281 54.0813 32.8361 54.112C32.7748 54.112 32.7441 54.158 32.7441 54.25C32.7441 54.3727 32.5448 54.6947 32.1461 55.216C31.7474 55.7067 31.2721 56.228 30.7201 56.78C30.4134 57.0867 29.9841 57.424 29.4321 57.792C28.9108 58.1293 28.3894 58.4207 27.8681 58.666C27.3468 58.9113 26.9328 59.034 26.6261 59.034ZM26.4881 56.136C26.8254 56.136 27.1474 56.09 27.4541 55.998C27.7608 55.8753 28.0214 55.7067 28.2361 55.492C28.7881 55.124 29.4321 54.526 30.1681 53.698C30.9041 52.8393 31.4408 52.0113 31.7781 51.214C32.1154 50.754 32.3761 50.2787 32.5601 49.788C32.7748 49.2667 33.0968 48.3927 33.5261 47.166C33.7714 46.8287 33.9401 46.4147 34.0321 45.924C34.1241 45.4333 34.1701 45.0193 34.1701 44.682C34.1701 44.3447 34.1701 43.8847 34.1701 43.302C34.2008 42.7193 34.2774 42.2287 34.4001 41.83C34.4001 41.0327 34.3848 40.5113 34.3541 40.266C34.3234 39.99 34.2008 39.7293 33.9861 39.484C33.8634 39.392 33.6948 39.3 33.4801 39.208C33.2961 39.116 33.0968 39.07 32.8821 39.07C32.6674 39.07 32.2688 39.1927 31.6861 39.438C31.1034 39.6527 30.6894 39.8367 30.4441 39.99C30.2294 40.1127 29.9841 40.128 29.7081 40.036C29.4628 39.944 29.3401 39.8213 29.3401 39.668C29.3401 39.2387 29.0641 39.208 28.5121 39.576C27.9601 39.9133 27.3468 40.496 26.6721 41.324C26.1201 41.876 25.6448 42.4433 25.2461 43.026C24.8781 43.578 24.6941 43.9153 24.6941 44.038C24.6941 44.1607 24.6481 44.314 24.5561 44.498C24.4641 44.682 24.3721 44.8967 24.2801 45.142C24.1268 45.3567 23.9428 45.7093 23.7281 46.2C23.5134 46.6907 23.2988 47.1813 23.0841 47.672C22.9001 48.132 22.7774 48.4847 22.7161 48.73C22.7161 48.8527 22.7161 49.19 22.7161 49.742C22.7161 50.2633 22.7161 50.754 22.7161 51.214C22.7161 51.7353 22.7314 52.18 22.7621 52.548C22.8234 52.916 22.9001 53.238 22.9921 53.514C23.0841 53.7593 23.2068 54.0353 23.3601 54.342C23.4828 54.5567 23.6668 54.8173 23.9121 55.124C24.1881 55.4 24.3721 55.5993 24.4641 55.722C24.8014 56.0287 25.0774 56.2127 25.2921 56.274C25.5068 56.3047 25.9054 56.2587 26.4881 56.136ZM49.0371 59.678C48.8224 59.402 48.7151 59.08 48.7151 58.712C48.7151 58.344 48.8531 57.5927 49.1291 56.458C49.2824 55.6607 49.4664 54.802 49.6811 53.882C49.8957 52.9313 50.0644 52.18 50.1871 51.628C50.4324 51.0453 50.6164 50.5087 50.7391 50.018C50.8924 49.5273 50.9691 49.282 50.9691 49.282C50.9691 49.282 50.7697 49.2973 50.3711 49.328C49.9724 49.3587 49.4971 49.4967 48.9451 49.742C47.4117 50.11 46.2157 50.2173 45.3571 50.064C44.5291 49.9107 43.8697 49.42 43.3791 48.592C43.2257 48.4387 43.0877 48.178 42.9651 47.81C42.8731 47.4113 42.8271 47.028 42.8271 46.66C42.8271 46.292 42.9037 46.0313 43.0571 45.878C43.2411 45.4793 43.4251 45.0807 43.6091 44.682C43.8237 44.2833 43.9924 43.9307 44.1151 43.624C44.2684 43.3173 44.3451 43.1333 44.3451 43.072C44.3451 42.98 44.3757 42.888 44.4371 42.796C44.5291 42.6733 44.5751 42.5507 44.5751 42.428C44.6977 42.152 44.9891 41.646 45.4491 40.91C45.9397 40.1433 46.4764 39.3153 47.0591 38.426C47.6724 37.5367 48.2397 36.724 48.7611 35.988C49.3131 35.252 49.7117 34.7767 49.9571 34.562C50.2024 34.4393 50.4631 34.3473 50.7391 34.286C51.0151 34.194 51.1991 34.2093 51.2911 34.332C51.3831 34.4853 51.4751 34.7153 51.5671 35.022C51.6591 35.3287 51.7204 35.6047 51.7511 35.85C51.8124 36.0953 51.7971 36.218 51.7051 36.218C51.7051 36.218 51.6591 36.2333 51.5671 36.264C51.5057 36.264 51.4751 36.3253 51.4751 36.448C51.4751 36.5707 51.3217 36.8313 51.0151 37.23C50.7084 37.6287 50.3711 38.0427 50.0031 38.472C49.5737 39.0547 49.1751 39.622 48.8071 40.174C48.4391 40.6953 48.0864 41.2167 47.7491 41.738C47.4117 42.2593 47.0744 42.7807 46.7371 43.302C46.4304 43.8233 46.1237 44.36 45.8171 44.912C45.4797 45.9547 45.2804 46.614 45.2191 46.89C45.1884 47.166 45.2344 47.3653 45.3571 47.488C45.5411 47.58 45.9244 47.6107 46.5071 47.58C47.1204 47.5187 47.9637 47.3347 49.0371 47.028C49.6197 46.9053 50.1564 46.798 50.6471 46.706C51.1684 46.5833 51.5364 46.4607 51.7511 46.338C51.9964 46.338 52.2111 46.292 52.3951 46.2C52.6097 46.108 52.7171 46.0007 52.7171 45.878C52.7171 45.7553 52.8091 45.4947 52.9931 45.096C53.2077 44.6973 53.3764 44.3293 53.4991 43.992C53.7444 43.532 54.0357 42.9187 54.3731 42.152C54.7411 41.3547 55.1091 40.6647 55.4771 40.082C56.2437 38.3647 56.7191 37.2607 56.9031 36.77C57.1177 36.2487 57.2864 35.988 57.4091 35.988C57.5317 35.988 57.7004 36.0493 57.9151 36.172C58.1297 36.264 58.2984 36.4327 58.4211 36.678C58.6357 36.8927 58.7737 37.1073 58.8351 37.322C58.8964 37.506 58.8044 37.8127 58.5591 38.242C58.4977 38.61 58.4057 38.932 58.2831 39.208C58.1911 39.4533 58.0377 39.76 57.8231 40.128C57.6391 40.496 57.3631 41.0327 56.9951 41.738C56.6271 42.474 56.1977 43.348 55.7071 44.36C55.2471 45.372 54.7871 46.4147 54.3271 47.488C53.8671 48.5613 53.4377 49.5733 53.0391 50.524C52.6711 51.444 52.3951 52.18 52.2111 52.732C51.7817 53.9587 51.4597 54.9247 51.2451 55.63C51.0304 56.3047 50.9077 56.8413 50.8771 57.24C50.8771 57.608 50.9537 57.9453 51.1071 58.252C51.1684 58.804 51.0457 59.2793 50.7391 59.678C50.4324 60.046 50.0951 60.2453 49.7271 60.276C49.3897 60.3373 49.1597 60.138 49.0371 59.678ZM62.2021 57.608C61.6194 57.8227 61.1287 57.93 60.7301 57.93C60.3621 57.8993 59.9481 57.7153 59.4881 57.378C58.9054 56.826 58.7061 56.274 58.8901 55.722C59.1047 55.1393 59.6107 54.572 60.4081 54.02C60.9601 53.6827 61.3587 53.4987 61.6041 53.468C61.8801 53.4373 62.2941 53.5447 62.8461 53.79C63.7661 54.3727 64.1647 55.0167 64.0421 55.722C63.9501 56.4273 63.3367 57.056 62.2021 57.608ZM85.3138 62.024C85.0685 62.024 84.7925 61.8247 84.4858 61.426C84.1792 61.0273 84.0412 60.644 84.0718 60.276C84.1025 59.7853 84.2405 59.08 84.4858 58.16C84.7312 57.24 85.0072 56.3047 85.3138 55.354C85.6205 54.4033 85.8965 53.652 86.1418 53.1C86.2645 52.6093 86.3718 52.18 86.4638 51.812C86.5865 51.4133 86.6632 51.1527 86.6938 51.03C86.7858 50.9073 86.9238 50.5853 87.1078 50.064C87.3225 49.5427 87.4912 49.0367 87.6138 48.546C87.6752 48.3007 87.7978 47.8407 87.9818 47.166C88.1965 46.4607 88.4418 45.648 88.7178 44.728C89.0245 43.808 89.3158 42.9033 89.5918 42.014C89.8985 41.1247 90.1592 40.3427 90.3738 39.668C90.5885 38.9933 90.7265 38.5487 90.7878 38.334C91.0332 37.966 91.2172 37.6133 91.3398 37.276C91.4625 36.9387 91.5392 36.7087 91.5698 36.586C91.7538 36.4633 91.8612 36.31 91.8918 36.126C91.9225 35.9113 91.9378 35.7427 91.9378 35.62C91.9378 35.4667 91.9838 35.344 92.0758 35.252C92.1985 35.16 92.2598 35.0527 92.2598 34.93C92.3825 34.838 92.4592 34.7 92.4898 34.516C92.5205 34.3013 92.6125 34.1173 92.7658 33.964L92.9958 33.182L95.7098 33.136C95.6485 33.504 95.5565 33.964 95.4338 34.516C95.3112 35.0373 95.0198 35.7427 94.5598 36.632C94.4065 37.2453 94.2225 37.7973 94.0078 38.288C93.8238 38.7787 93.7472 39.1007 93.7778 39.254C93.7165 39.3153 93.5785 39.622 93.3638 40.174C93.1798 40.726 92.9498 41.4007 92.6738 42.198C92.4285 42.9953 92.1678 43.7927 91.8918 44.59C91.6465 45.3873 91.4165 46.0927 91.2018 46.706C91.0178 47.2887 90.8952 47.6567 90.8338 47.81C90.5885 48.3007 90.3125 49.0213 90.0058 49.972C89.6992 50.9227 89.2392 52.2107 88.6258 53.836C88.3805 54.3267 88.0738 55.0627 87.7058 56.044C87.3685 57.0253 87.0925 57.9147 86.8778 58.712C86.5405 59.908 86.2952 60.736 86.1418 61.196C86.0192 61.6867 85.9118 61.9473 85.8198 61.978C85.7278 62.0393 85.5592 62.0547 85.3138 62.024ZM85.6818 34.608C84.8232 34.6387 84.1792 34.5927 83.7498 34.47C83.3512 34.3473 83.2132 34.0407 83.3358 33.55C83.4278 33.182 83.6272 32.906 83.9338 32.722C84.2405 32.538 84.6852 32.4 85.2678 32.308C85.6052 32.2467 86.0345 32.17 86.5558 32.078C87.1078 31.986 87.6292 31.894 88.1198 31.802C89.1318 31.6793 89.9598 31.572 90.6038 31.48C91.2785 31.388 91.9685 31.3113 92.6738 31.25C93.3792 31.1887 94.2685 31.1273 95.3418 31.066C96.2312 31.0047 96.9825 30.9587 97.5958 30.928C98.2398 30.8667 98.5618 30.836 98.5618 30.836C98.6538 30.836 98.9758 30.8667 99.5278 30.928C100.08 30.9893 100.678 31.066 101.322 31.158C101.966 31.25 102.441 31.3573 102.748 31.48C103.453 31.6333 103.959 31.848 104.266 32.124C104.603 32.4 104.833 32.7987 104.956 33.32C105.048 33.688 105.048 33.918 104.956 34.01C104.864 34.0713 104.695 34.1633 104.45 34.286C103.744 34.5007 103.223 34.608 102.886 34.608C102.548 34.608 102.165 34.5313 101.736 34.378C101.582 34.2247 101.398 34.0867 101.184 33.964C101 33.8413 100.662 33.7493 100.172 33.688C99.7118 33.596 98.9758 33.5193 97.9638 33.458C97.1052 33.55 96.3538 33.596 95.7098 33.596C95.0658 33.596 94.7438 33.6727 94.7438 33.826L92.0298 33.964L89.7758 34.194C89.4692 34.2247 89.0398 34.2707 88.4878 34.332C87.9358 34.3627 87.3992 34.4087 86.8778 34.47C86.3565 34.5007 85.9578 34.5467 85.6818 34.608ZM107.504 59.908C107.197 59.6013 106.891 59.1873 106.584 58.666C106.277 58.114 106.032 57.4853 105.848 56.78C105.787 56.5347 105.756 56.1973 105.756 55.768C105.787 55.3387 105.787 55.032 105.756 54.848C105.664 55.0627 105.511 55.2927 105.296 55.538C105.112 55.7527 104.928 55.9367 104.744 56.09C104.621 56.2127 104.345 56.458 103.916 56.826C103.487 57.1633 103.057 57.4393 102.628 57.654C101.616 58.298 100.773 58.6507 100.098 58.712C99.4542 58.7733 98.8408 58.436 98.2582 57.7C97.7675 57.3013 97.4148 56.8567 97.2002 56.366C97.0162 55.8753 97.0162 55.2007 97.2002 54.342C97.2615 53.2687 97.4148 52.226 97.6602 51.214C97.9055 50.1713 98.4115 48.7913 99.1782 47.074C99.8222 45.8167 100.313 44.8967 100.65 44.314C100.987 43.7007 101.202 43.3327 101.294 43.21C101.754 43.0567 102.137 43.072 102.444 43.256C102.751 43.4093 102.935 43.7007 102.996 44.13C103.18 44.4367 103.149 44.958 102.904 45.694C102.689 46.43 102.306 47.3347 101.754 48.408C101.325 49.4507 100.926 50.4933 100.558 51.536C100.221 52.5787 100.021 53.468 99.9602 54.204C99.8988 54.94 100.083 55.3847 100.512 55.538C100.788 55.6913 101.263 55.6453 101.938 55.4C102.643 55.1547 103.425 54.5413 104.284 53.56C105.173 52.5787 106.032 51.0913 106.86 49.098C107.105 48.4847 107.289 47.948 107.412 47.488C107.535 46.9973 107.611 46.4607 107.642 45.878C107.581 45.51 107.596 45.188 107.688 44.912C107.811 44.6053 108.056 44.3447 108.424 44.13C108.547 43.9767 108.715 43.8387 108.93 43.716C109.145 43.5627 109.283 43.5627 109.344 43.716L110.08 43.67C110.203 43.6393 110.279 43.716 110.31 43.9C110.371 44.0533 110.479 44.1913 110.632 44.314C110.969 44.59 111.061 45.188 110.908 46.108C110.755 47.028 110.325 48.316 109.62 49.972C109.037 51.2293 108.639 52.18 108.424 52.824C108.24 53.468 108.133 54.0967 108.102 54.71C108.102 55.262 108.209 55.7833 108.424 56.274C108.639 56.7647 108.976 57.2093 109.436 57.608C109.773 57.8227 109.957 58.068 109.988 58.344C110.049 58.62 110.065 58.942 110.034 59.31C109.973 59.586 109.789 59.816 109.482 60C109.206 60.1533 108.884 60.23 108.516 60.23C108.148 60.23 107.811 60.1227 107.504 59.908ZM129.506 58.252C128.862 58.3747 128.448 58.4207 128.264 58.39C128.111 58.3287 127.866 58.1447 127.528 57.838C127.038 57.5927 126.624 57.286 126.286 56.918C125.98 56.55 125.75 56.1667 125.596 55.768C125.474 55.3387 125.428 54.986 125.458 54.71C125.55 53.6367 125.811 52.4867 126.24 51.26C126.67 50.0333 127.191 48.8527 127.804 47.718C128.418 46.5833 129.077 45.6173 129.782 44.82C130.518 43.992 131.224 43.4553 131.898 43.21C132.512 42.9647 133.094 42.8727 133.646 42.934C134.198 42.9953 134.597 43.2867 134.842 43.808C135.302 44.6973 135.195 45.2647 134.52 45.51C134.428 45.51 134.321 45.556 134.198 45.648C134.076 45.7093 134.014 45.8013 134.014 45.924C134.137 45.9853 134.474 46.0007 135.026 45.97C135.578 45.9087 136.13 45.8167 136.682 45.694C137.265 45.5407 137.648 45.3873 137.832 45.234C138.016 45.142 138.154 45.096 138.246 45.096C138.338 45.096 138.568 45.1267 138.936 45.188C139.458 45.3413 139.718 45.5253 139.718 45.74C139.718 45.8627 139.764 45.9853 139.856 46.108C139.948 46.2 140.056 46.246 140.178 46.246C140.393 46.2767 140.362 46.4147 140.086 46.66C139.841 46.9053 139.412 47.2427 138.798 47.672C138.216 48.04 137.848 48.2853 137.694 48.408C137.572 48.5 137.556 48.7147 137.648 49.052C137.894 49.6347 137.909 50.3093 137.694 51.076C137.48 51.8427 137.096 52.6247 136.544 53.422C135.992 54.2193 135.318 54.9707 134.52 55.676C133.754 56.3507 132.926 56.9333 132.036 57.424C131.178 57.884 130.334 58.16 129.506 58.252ZM128.724 56.228C128.847 56.228 129.062 56.1667 129.368 56.044C129.675 55.8907 129.92 55.768 130.104 55.676C130.227 55.5533 130.38 55.4153 130.564 55.262C130.779 55.078 130.948 54.9707 131.07 54.94C131.193 54.94 131.346 54.894 131.53 54.802C131.714 54.6793 131.975 54.4493 132.312 54.112C132.65 53.744 133.094 53.2073 133.646 52.502C134.26 51.8273 134.735 51.214 135.072 50.662C135.41 50.0793 135.502 49.5427 135.348 49.052C135.318 48.9293 135.226 48.8527 135.072 48.822C134.95 48.7913 134.781 48.7147 134.566 48.592C134.26 48.592 133.968 48.5153 133.692 48.362C133.447 48.178 133.156 47.948 132.818 47.672L132.082 46.752L131.3 47.534C130.81 48.0247 130.288 48.7607 129.736 49.742C129.215 50.6927 128.77 51.674 128.402 52.686C128.034 53.6673 127.82 54.4493 127.758 55.032C127.728 55.492 127.804 55.7987 127.988 55.952C128.172 56.1053 128.418 56.1973 128.724 56.228ZM142.365 57.746C142.028 57.5313 141.721 57.2553 141.445 56.918C141.169 56.55 141.031 56.09 141.031 55.538C141.031 55.2313 141.092 54.71 141.215 53.974C141.338 53.238 141.506 52.41 141.721 51.49C141.936 50.57 142.15 49.7113 142.365 48.914C142.672 48.362 142.932 47.81 143.147 47.258C143.362 46.706 143.469 46.3687 143.469 46.246C143.53 45.878 143.607 45.4487 143.699 44.958C143.822 44.4673 143.944 44.0227 144.067 43.624C144.19 43.2253 144.282 42.9953 144.343 42.934C144.496 42.7807 144.68 42.6887 144.895 42.658C145.11 42.5967 145.324 42.6273 145.539 42.75C145.784 42.842 145.968 43.0413 146.091 43.348C146.428 43.716 146.597 44.1607 146.597 44.682C146.597 45.1727 146.428 45.9087 146.091 46.89C145.815 47.5033 145.539 48.224 145.263 49.052C144.987 49.88 144.742 50.6467 144.527 51.352C144.343 52.0267 144.236 52.4867 144.205 52.732L143.285 53.008C143.806 52.5173 144.297 52.0113 144.757 51.49C145.217 50.938 145.554 50.5087 145.769 50.202C146.29 49.4967 146.735 48.914 147.103 48.454C147.502 47.9633 148.008 47.3807 148.621 46.706C149.234 46.0007 149.832 45.5713 150.415 45.418C151.028 45.234 151.504 45.142 151.841 45.142C152.516 45.2647 153.052 45.6173 153.451 46.2C153.88 46.752 154.156 47.58 154.279 48.684C154.279 49.1133 154.233 49.6193 154.141 50.202C154.08 50.7847 154.049 51.076 154.049 51.076C154.049 51.076 154.294 50.754 154.785 50.11C155.306 49.466 155.996 48.7607 156.855 47.994C157.438 47.5647 158.005 47.3193 158.557 47.258C159.109 47.166 159.6 47.35 160.029 47.81C160.826 48.2393 161.348 48.8987 161.593 49.788C161.838 50.6467 161.9 51.7507 161.777 53.1C161.685 53.8973 161.67 54.4953 161.731 54.894C161.792 55.262 161.884 55.63 162.007 55.998C162.252 56.1207 162.298 56.3813 162.145 56.78C161.992 57.148 161.808 57.332 161.593 57.332C161.286 57.332 160.934 57.2707 160.535 57.148C160.167 57.0253 159.83 56.826 159.523 56.55C159.247 56.2433 159.109 55.8293 159.109 55.308V52.456C159.109 51.7813 159.078 51.2293 159.017 50.8C158.986 50.3707 158.91 50.11 158.787 50.018C158.45 49.834 157.959 50.0333 157.315 50.616C156.671 51.1987 155.981 51.9807 155.245 52.962C154.509 53.9433 153.819 54.9553 153.175 55.998C152.592 56.9487 152.224 57.5007 152.071 57.654C151.948 57.7767 151.718 57.7307 151.381 57.516C150.706 57.3013 150.277 57.01 150.093 56.642C149.94 56.2433 149.924 55.7987 150.047 55.308C150.2 54.7867 150.384 54.0813 150.599 53.192C150.844 52.3027 151.074 51.444 151.289 50.616C151.504 49.7573 151.642 49.144 151.703 48.776C151.58 48.5307 151.366 48.454 151.059 48.546C150.783 48.6073 150.492 48.7453 150.185 48.96C149.817 49.2053 149.372 49.6653 148.851 50.34C148.33 51.0147 147.793 51.7967 147.241 52.686C146.873 53.2687 146.49 53.8513 146.091 54.434C145.692 54.986 145.324 55.4767 144.987 55.906C144.65 56.3353 144.358 56.6573 144.113 56.872C143.684 57.5467 143.392 57.9147 143.239 57.976C143.086 58.0373 142.794 57.9607 142.365 57.746ZM164.481 68.05C164.113 68.2953 163.73 68.28 163.331 68.004C162.963 67.728 162.687 67.314 162.503 66.762C162.319 66.21 162.335 65.6273 162.549 65.014C162.611 64.83 162.703 64.5233 162.825 64.094C162.948 63.6953 163.025 63.3427 163.055 63.036C163.086 62.8213 163.178 62.4533 163.331 61.932C163.485 61.4413 163.653 60.9507 163.837 60.46C164.052 59.9693 164.221 59.6167 164.343 59.402C164.527 59.0953 164.65 58.7427 164.711 58.344C164.803 57.9453 164.849 57.6387 164.849 57.424C164.911 57.2093 164.987 56.964 165.079 56.688C165.202 56.412 165.325 56.1973 165.447 56.044C165.509 55.7987 165.601 55.538 165.723 55.262C165.846 54.9553 165.984 54.6947 166.137 54.48C166.199 54.2653 166.245 54.0047 166.275 53.698C166.337 53.3913 166.429 53.2227 166.551 53.192C166.582 53.0693 166.597 52.9467 166.597 52.824C166.628 52.7013 166.689 52.5327 166.781 52.318C166.843 51.9807 166.981 51.49 167.195 50.846C167.41 50.202 167.671 49.4967 167.977 48.73C168.315 47.8407 168.468 46.9973 168.437 46.2C168.437 45.372 168.207 44.866 167.747 44.682C167.502 44.5593 167.349 44.3907 167.287 44.176C167.226 43.9307 167.257 43.6853 167.379 43.44C167.502 43.1947 167.686 43.026 167.931 42.934C168.207 42.8113 168.499 42.7653 168.805 42.796C169.143 42.8267 169.434 42.888 169.679 42.98C169.925 43.0413 170.032 43.1027 170.001 43.164C170.001 43.3173 170.078 43.4093 170.231 43.44C170.293 43.348 170.415 43.4553 170.599 43.762C170.814 44.038 171.013 44.36 171.197 44.728C171.381 45.096 171.473 45.3567 171.473 45.51C171.412 45.6327 171.381 45.7093 171.381 45.74C171.381 45.74 171.443 45.74 171.565 45.74C171.565 45.74 171.734 45.6633 172.071 45.51C172.409 45.326 172.761 45.1267 173.129 44.912C173.528 44.6667 173.789 44.4827 173.911 44.36C173.911 44.36 173.988 44.3293 174.141 44.268C174.325 44.176 174.479 44.0687 174.601 43.946C175.215 43.7007 175.874 43.6547 176.579 43.808C177.315 43.9613 177.898 44.2373 178.327 44.636C178.941 45.4027 179.247 46.1387 179.247 46.844C179.278 47.5493 179.079 48.4387 178.649 49.512C178.588 49.6653 178.45 49.926 178.235 50.294C178.051 50.6313 177.867 50.9533 177.683 51.26C177.499 51.536 177.407 51.674 177.407 51.674C176.702 52.778 175.874 53.698 174.923 54.434C173.973 55.17 173.007 55.814 172.025 56.366C171.719 56.5807 171.397 56.7493 171.059 56.872C170.753 56.964 170.477 57.0253 170.231 57.056C169.986 57.056 169.817 57.0253 169.725 56.964C169.388 56.7187 169.081 56.1973 168.805 55.4C168.652 55.7987 168.499 56.1973 168.345 56.596C168.223 56.964 168.146 57.2093 168.115 57.332C168.085 57.5467 168.054 57.7307 168.023 57.884C167.993 58.0067 167.916 58.114 167.793 58.206C167.793 58.206 167.778 58.2673 167.747 58.39C167.717 58.5127 167.609 58.6967 167.425 58.942C167.119 59.8313 166.843 60.598 166.597 61.242C166.352 61.9167 166.153 62.484 165.999 62.944C165.846 63.4347 165.723 63.864 165.631 64.232C165.57 65.06 165.401 65.8727 165.125 66.67C164.849 67.498 164.635 67.958 164.481 68.05ZM169.955 54.94C170.078 54.8787 170.339 54.71 170.737 54.434C171.167 54.1273 171.642 53.7747 172.163 53.376C172.685 52.9467 173.16 52.548 173.589 52.18C174.049 51.812 174.356 51.536 174.509 51.352C174.755 51.076 174.985 50.7847 175.199 50.478C175.414 50.1407 175.583 49.7727 175.705 49.374C175.797 49.1287 175.905 48.8527 176.027 48.546C176.15 48.2393 176.257 47.948 176.349 47.672C176.472 47.4267 176.518 47.1813 176.487 46.936C176.487 46.66 176.395 46.43 176.211 46.246C176.089 46.2153 175.721 46.3073 175.107 46.522C174.494 46.706 173.819 47.028 173.083 47.488C172.347 47.9173 171.703 48.4847 171.151 49.19C170.507 50.018 170.032 50.8767 169.725 51.766C169.449 52.6553 169.327 53.4067 169.357 54.02C169.419 54.6333 169.618 54.94 169.955 54.94ZM193.366 60.046C193.059 60.1993 192.707 60.1073 192.308 59.77C191.909 59.4327 191.633 59.1567 191.48 58.942C191.204 58.574 191.005 58.068 190.882 57.424C190.759 56.78 190.698 56.2433 190.698 55.814C190.698 55.0167 190.637 54.5567 190.514 54.434C190.422 54.3113 190.223 54.4187 189.916 54.756C189.64 55.0627 189.226 55.492 188.674 56.044C188.429 56.2893 188.03 56.6113 187.478 57.01C186.926 57.4087 186.359 57.746 185.776 58.022C185.193 58.298 184.703 58.436 184.304 58.436C184.028 58.4053 183.752 58.252 183.476 57.976C183.2 57.7 182.955 57.3933 182.74 57.056C182.556 56.688 182.418 56.3813 182.326 56.136C182.173 55.676 182.157 54.9247 182.28 53.882C182.433 52.8087 182.679 51.628 183.016 50.34C183.384 49.0213 183.798 47.764 184.258 46.568C184.749 45.3413 185.239 44.3447 185.73 43.578C186.251 42.7807 186.757 42.382 187.248 42.382C187.585 42.382 187.846 42.5813 188.03 42.98C188.245 43.348 188.413 43.6547 188.536 43.9C188.689 44.2067 188.735 44.406 188.674 44.498C188.643 44.59 188.521 44.7587 188.306 45.004C188.061 45.3107 187.769 45.832 187.432 46.568C187.095 47.2733 186.742 48.0553 186.374 48.914C186.037 49.742 185.73 50.5393 185.454 51.306C185.178 52.0727 184.979 52.6553 184.856 53.054C184.795 53.2993 184.703 53.6367 184.58 54.066C184.488 54.4953 184.457 54.8327 184.488 55.078C184.488 55.1087 184.503 55.1853 184.534 55.308C184.565 55.4 184.687 55.446 184.902 55.446C185.577 55.446 186.251 55.17 186.926 54.618C187.631 54.0353 188.321 53.284 188.996 52.364C189.701 51.444 190.361 50.478 190.974 49.466C191.587 48.454 192.155 47.488 192.676 46.568C193.228 45.648 193.703 44.8967 194.102 44.314C194.501 43.7007 194.823 43.3787 195.068 43.348C195.283 43.3173 195.528 43.348 195.804 43.44C196.111 43.5013 196.371 43.6087 196.586 43.762C196.801 43.9153 196.893 44.13 196.862 44.406C196.494 45.5407 196.049 46.6753 195.528 47.81C195.007 48.914 194.516 50.0333 194.056 51.168C193.627 52.3027 193.32 53.468 193.136 54.664C193.013 55.4 193.059 56.1207 193.274 56.826C193.519 57.5313 193.903 58.16 194.424 58.712C194.731 59.0187 194.7 59.31 194.332 59.586C193.964 59.862 193.642 60.0153 193.366 60.046ZM216.296 58.804C216.204 58.7427 216.004 58.6507 215.698 58.528C215.422 58.3747 215.253 58.2827 215.192 58.252C214.977 58.068 214.854 57.838 214.824 57.562C214.793 57.286 214.778 56.9793 214.778 56.642C214.808 56.3047 214.778 55.952 214.686 55.584C214.778 55.1547 214.87 54.664 214.962 54.112C215.054 53.56 215.207 53.1153 215.422 52.778C215.544 52.2567 215.728 51.6433 215.974 50.938C216.25 50.202 216.495 49.4813 216.71 48.776C216.955 48.04 217.108 47.4113 217.17 46.89C216.679 47.1967 216.25 47.534 215.882 47.902C215.514 48.27 215.207 48.638 214.962 49.006C214.839 49.19 214.701 49.3433 214.548 49.466C214.394 49.558 214.241 49.6807 214.088 49.834C213.72 50.2327 213.367 50.6467 213.03 51.076C212.692 51.5053 212.355 51.95 212.018 52.41C211.466 53.1767 210.837 53.882 210.132 54.526C209.426 55.17 208.752 55.814 208.108 56.458C207.862 56.734 207.586 56.918 207.28 57.01C207.004 57.0713 206.728 57.0407 206.452 56.918C206.084 56.7647 205.777 56.5807 205.532 56.366C205.317 56.1513 205.087 55.8447 204.842 55.446C204.811 54.8327 204.903 54.1273 205.118 53.33C205.363 52.5327 205.639 51.72 205.946 50.892C206.283 50.064 206.574 49.2973 206.82 48.592C207.065 47.856 207.188 47.2733 207.188 46.844C207.157 46.8133 207.111 46.798 207.05 46.798C207.019 46.798 206.973 46.8287 206.912 46.89C205.593 48.0247 204.458 49.2207 203.508 50.478C202.588 51.7353 201.637 53.238 200.656 54.986C200.41 55.446 200.165 56.0287 199.92 56.734C199.705 57.4087 199.383 57.9147 198.954 58.252C198.923 58.252 198.892 58.252 198.862 58.252C198.862 58.2213 198.846 58.206 198.816 58.206C198.785 58.1447 198.739 58.1447 198.678 58.206C198.616 58.2673 198.524 58.3133 198.402 58.344C198.248 58.344 198.095 58.2673 197.942 58.114C197.727 57.8993 197.497 57.6847 197.252 57.47C197.037 57.2553 196.884 56.9947 196.792 56.688C196.853 56.4427 196.93 56.228 197.022 56.044C197.114 55.8293 197.282 55.584 197.528 55.308C197.62 55.0013 197.742 54.7253 197.896 54.48C198.08 54.2347 198.233 53.9587 198.356 53.652C198.662 52.8547 199.153 51.9347 199.828 50.892C200.502 49.8493 201.284 48.822 202.174 47.81C203.063 46.798 203.983 45.9087 204.934 45.142C205.884 44.3753 206.774 43.854 207.602 43.578C207.632 43.578 207.648 43.578 207.648 43.578C207.678 43.578 207.709 43.578 207.74 43.578C208.046 43.67 208.322 43.7773 208.568 43.9C208.813 43.992 209.074 44.0993 209.35 44.222C209.472 44.3753 209.61 44.5747 209.764 44.82C209.917 45.0347 210.024 45.2647 210.086 45.51C210.208 45.878 210.193 46.3993 210.04 47.074C209.886 47.7487 209.702 48.4233 209.488 49.098C209.273 49.7727 209.089 50.3093 208.936 50.708C208.905 50.8307 208.798 51.0913 208.614 51.49C208.43 51.8887 208.322 52.1953 208.292 52.41C208.292 52.4407 208.292 52.4713 208.292 52.502C208.292 52.5327 208.307 52.5633 208.338 52.594C208.828 52.134 209.304 51.6587 209.764 51.168C210.254 50.6773 210.699 50.1867 211.098 49.696C212.048 48.592 213.014 47.4727 213.996 46.338C215.008 45.1727 216.142 44.222 217.4 43.486C217.706 43.3327 218.059 43.3633 218.458 43.578C218.887 43.7927 219.209 44.0227 219.424 44.268C219.761 44.544 219.945 44.912 219.976 45.372C220.037 45.9853 219.96 46.8287 219.746 47.902C219.531 48.9447 219.255 49.9873 218.918 51.03C218.611 52.0727 218.32 52.9007 218.044 53.514C217.982 53.6673 217.936 53.79 217.906 53.882C217.875 53.974 217.844 54.112 217.814 54.296C217.783 54.5107 217.722 54.7253 217.63 54.94C217.568 55.1547 217.507 55.354 217.446 55.538C217.354 55.9367 217.338 56.3353 217.4 56.734C217.492 57.1327 217.553 57.5313 217.584 57.93C217.584 57.9607 217.538 58.0067 217.446 58.068C217.262 58.1907 217.078 58.3133 216.894 58.436C216.74 58.528 216.572 58.6507 216.388 58.804C216.357 58.804 216.342 58.804 216.342 58.804C216.342 58.804 216.326 58.804 216.296 58.804ZM221.056 69.154C220.32 69.3687 219.507 69.3993 218.618 69.246C217.759 69.1233 217.008 68.8627 216.364 68.464C215.689 68.0653 215.306 67.6207 215.214 67.13C215.183 66.946 215.245 66.7467 215.398 66.532C215.521 66.3173 215.689 66.164 215.904 66.072C216.088 66.0107 216.257 66.072 216.41 66.256C216.655 66.4093 217.1 66.5933 217.744 66.808C218.388 67.0533 219.109 67.0993 219.906 66.946C220.611 66.7927 221.301 66.3787 221.976 65.704C222.681 65.0293 223.249 64.4007 223.678 63.818C223.923 63.45 224.337 62.7907 224.92 61.84C225.503 60.8893 226.101 59.8467 226.714 58.712C227.358 57.5467 227.895 56.4733 228.324 55.492C228.416 55.2467 228.523 54.9553 228.646 54.618C228.769 54.2807 228.922 54.0047 229.106 53.79C229.29 53.422 229.443 53.0847 229.566 52.778C229.719 52.4407 229.811 52.2107 229.842 52.088C229.873 51.9347 230.011 51.628 230.256 51.168C230.501 50.708 230.731 50.248 230.946 49.788C231.099 49.328 231.329 48.6533 231.636 47.764C231.943 46.8747 232.249 46.154 232.556 45.602C232.924 44.8967 233.215 44.3293 233.43 43.9C233.675 43.44 233.936 43.164 234.212 43.072C234.488 42.8573 234.672 42.75 234.764 42.75C234.887 42.75 235.117 42.842 235.454 43.026C235.822 43.394 236.052 43.762 236.144 44.13C236.236 44.4673 236.19 44.8967 236.006 45.418C235.853 45.9087 235.546 46.5833 235.086 47.442C234.841 48.178 234.565 48.8527 234.258 49.466C233.982 50.0487 233.767 50.432 233.614 50.616C233.461 50.984 233.277 51.398 233.062 51.858C232.878 52.2873 232.709 52.686 232.556 53.054C232.004 54.2807 231.529 55.2773 231.13 56.044C230.731 56.8107 230.379 57.516 230.072 58.16C229.765 58.804 229.443 59.5553 229.106 60.414C228.401 61.5487 227.711 62.622 227.036 63.634C226.392 64.6767 225.702 65.6427 224.966 66.532C224.659 66.808 224.276 67.13 223.816 67.498C223.356 67.866 222.881 68.2033 222.39 68.51C221.93 68.8167 221.485 69.0313 221.056 69.154ZM227.266 58.114C226.806 58.0527 226.346 57.7767 225.886 57.286C225.457 56.7953 225.119 56.274 224.874 55.722C224.629 55.17 224.537 54.7713 224.598 54.526C224.598 54.3727 224.598 54.25 224.598 54.158C224.598 54.066 224.598 54.02 224.598 54.02C224.414 54.02 224.245 53.79 224.092 53.33C223.969 52.87 223.877 52.272 223.816 51.536C223.755 50.8 223.709 50.018 223.678 49.19C223.678 48.362 223.709 47.58 223.77 46.844C223.893 46.3227 223.954 45.7553 223.954 45.142C223.954 44.498 223.969 43.992 224 43.624C223.969 43.1333 224.015 42.8113 224.138 42.658C224.261 42.474 224.383 42.336 224.506 42.244C225.365 41.876 225.932 42.106 226.208 42.934C226.515 43.7313 226.591 45.234 226.438 47.442C226.377 48.6687 226.377 49.8953 226.438 51.122C226.499 52.3487 226.668 53.422 226.944 54.342C227.251 55.262 227.665 55.8907 228.186 56.228C228.401 56.3507 228.508 56.5193 228.508 56.734C228.508 56.9487 228.447 57.1787 228.324 57.424C228.201 57.6387 228.033 57.8227 227.818 57.976C227.634 58.0987 227.45 58.1447 227.266 58.114ZM242.254 59.678C241.518 59.9847 240.782 59.954 240.046 59.586C239.831 59.494 239.555 59.356 239.218 59.172C238.911 58.988 238.681 58.7427 238.528 58.436C238.344 58.0987 238.144 57.7767 237.93 57.47C237.715 57.1633 237.485 56.826 237.24 56.458C237.24 56.55 237.209 56.458 237.148 56.182C237.117 55.906 237.071 55.5993 237.01 55.262C236.948 54.894 236.918 54.6793 236.918 54.618C236.979 53.8207 237.071 53.0387 237.194 52.272C237.347 51.5053 237.592 50.7847 237.93 50.11C238.451 49.0673 239.018 48.1013 239.632 47.212C240.276 46.3227 240.981 45.51 241.748 44.774C241.87 44.6207 241.993 44.498 242.116 44.406C242.238 44.314 242.407 44.2527 242.622 44.222C243.143 43.762 243.649 43.44 244.14 43.256C244.63 43.072 245.152 42.9493 245.704 42.888C245.796 42.8267 245.949 42.7807 246.164 42.75C246.409 42.6887 246.562 42.658 246.624 42.658C247.176 42.7807 247.62 42.888 247.958 42.98C248.295 43.072 248.617 43.21 248.924 43.394C249.261 43.5473 249.644 43.854 250.074 44.314C250.472 44.774 250.718 45.2493 250.81 45.74C250.932 46.2 251.009 46.9973 251.04 48.132C251.07 48.776 250.764 49.3127 250.12 49.742C250.089 49.6807 250.043 49.6347 249.982 49.604C249.951 49.5427 249.905 49.4967 249.844 49.466C249.721 49.4047 249.583 49.374 249.43 49.374C249.307 49.3433 249.184 49.2667 249.062 49.144C248.908 48.9907 248.77 48.8067 248.648 48.592C248.525 48.3773 248.372 48.1627 248.188 47.948C248.372 47.488 248.51 47.028 248.602 46.568C248.724 46.108 248.801 45.8473 248.832 45.786C248.801 45.5407 248.694 45.372 248.51 45.28C248.356 45.188 248.157 45.1727 247.912 45.234C247.881 45.2647 247.85 45.2953 247.82 45.326C247.789 45.3567 247.743 45.3873 247.682 45.418C247.252 45.418 246.838 45.4947 246.44 45.648C246.041 45.7707 245.673 45.9853 245.336 46.292C244.968 46.4147 244.492 46.7367 243.91 47.258C243.358 47.7487 242.79 48.27 242.208 48.822C241.656 49.374 241.226 49.788 240.92 50.064C241.441 49.9413 242.07 49.8187 242.806 49.696C243.572 49.5427 244.155 49.42 244.554 49.328C244.86 49.236 245.121 49.2053 245.336 49.236C245.581 49.236 245.811 49.2973 246.026 49.42C246.394 49.6347 246.685 49.9873 246.9 50.478C247.114 50.8153 247.191 51.0453 247.13 51.168C247.068 51.2907 246.869 51.536 246.532 51.904C246.409 51.904 246.271 51.9193 246.118 51.95C245.964 51.95 245.842 51.9347 245.75 51.904C245.443 51.9347 245.136 51.9653 244.83 51.996C244.554 52.0267 244.262 52.0727 243.956 52.134C243.434 52.134 242.898 52.134 242.346 52.134C241.824 52.134 241.288 52.134 240.736 52.134C240.429 52.3487 240.26 52.64 240.23 53.008C240.199 53.3453 240.107 53.652 239.954 53.928C239.923 54.4187 239.923 54.894 239.954 55.354C239.984 55.814 240.138 56.2587 240.414 56.688C240.628 56.78 240.966 56.826 241.426 56.826C241.916 56.826 242.284 56.78 242.53 56.688C242.898 56.5653 243.327 56.3813 243.818 56.136C244.339 55.86 244.83 55.584 245.29 55.308C245.78 55.0013 246.148 54.756 246.394 54.572C246.639 54.4187 246.854 54.2653 247.038 54.112C247.252 53.928 247.467 53.7287 247.682 53.514C247.896 53.5753 248.05 53.5907 248.142 53.56C248.264 53.5293 248.356 53.514 248.418 53.514C248.602 53.698 248.801 53.8973 249.016 54.112C249.23 54.3267 249.445 54.5107 249.66 54.664C249.721 55.1547 249.675 55.584 249.522 55.952C249.399 56.2893 249.138 56.5653 248.74 56.78C248.249 57.056 247.774 57.3473 247.314 57.654C246.854 57.9607 246.363 58.206 245.842 58.39C245.535 58.4513 245.259 58.574 245.014 58.758C244.768 58.9113 244.508 59.0493 244.232 59.172C244.017 59.264 243.695 59.3407 243.266 59.402C242.836 59.4633 242.499 59.5553 242.254 59.678ZM254.994 58.712C254.595 58.344 254.227 58.0373 253.89 57.792C253.583 57.516 253.322 57.194 253.108 56.826C252.924 56.4273 252.786 55.8753 252.694 55.17C252.663 54.618 252.694 54.0967 252.786 53.606C252.878 53.1153 253.016 52.64 253.2 52.18C253.476 51.5053 253.767 50.846 254.074 50.202C254.38 49.558 254.687 48.8987 254.994 48.224C255.392 47.2733 255.822 46.4453 256.282 45.74C256.742 45.004 257.186 44.636 257.616 44.636C258.137 44.6667 258.505 44.8507 258.72 45.188C258.965 45.4947 259.287 45.9087 259.686 46.43C259.624 46.7367 259.517 47.0433 259.364 47.35C259.21 47.626 259.026 47.8867 258.812 48.132C258.413 48.5307 258.076 48.9753 257.8 49.466C257.524 49.9567 257.309 50.4627 257.156 50.984C256.941 51.444 256.726 51.904 256.512 52.364C256.297 52.7933 256.098 53.238 255.914 53.698C255.362 54.71 255.162 55.3233 255.316 55.538C255.469 55.7527 255.822 55.676 256.374 55.308C256.956 54.94 257.57 54.4033 258.214 53.698C258.766 53.1153 259.195 52.6707 259.502 52.364C259.808 52.0573 260.1 51.72 260.376 51.352C260.468 51.26 260.682 50.984 261.02 50.524C261.388 50.0333 261.756 49.5273 262.124 49.006C262.522 48.454 262.814 48.0707 262.998 47.856C263.243 47.5493 263.458 47.2427 263.642 46.936C263.826 46.5987 263.979 46.2613 264.102 45.924C264.163 45.6173 264.286 45.418 264.47 45.326C264.684 45.2033 264.945 45.1727 265.252 45.234C265.558 45.418 265.865 45.6327 266.172 45.878C266.478 46.0927 266.739 46.4607 266.954 46.982C267.107 47.2887 267.046 47.764 266.77 48.408C266.524 49.052 266.233 49.696 265.896 50.34C265.62 50.892 265.405 51.4593 265.252 52.042C265.129 52.6247 264.991 53.2227 264.838 53.836C264.746 54.2653 264.838 54.756 265.114 55.308C265.727 55.0627 266.187 54.7867 266.494 54.48C266.831 54.1427 267.138 53.79 267.414 53.422C267.72 53.054 268.119 52.7167 268.61 52.41C268.763 52.042 268.993 51.7507 269.3 51.536C269.637 51.2907 269.867 50.9687 269.99 50.57L271.784 48.454C272.029 48.178 272.244 47.8407 272.428 47.442C272.642 47.0127 272.857 46.66 273.072 46.384C273.317 46.0773 273.578 45.97 273.854 46.062C274.804 46.3993 275.433 47.0433 275.74 47.994C275.74 48.3927 275.571 49.052 275.234 49.972C274.927 50.8613 274.697 51.7507 274.544 52.64C274.452 53.1613 274.39 53.698 274.36 54.25C274.36 54.7713 274.436 55.308 274.59 55.86C274.835 56.044 275.142 56.09 275.51 55.998C275.908 55.8753 276.261 55.814 276.568 55.814C276.813 56.1207 276.92 56.504 276.89 56.964C276.859 57.424 276.813 57.7613 276.752 57.976C276.476 58.1293 276.2 58.2673 275.924 58.39C275.648 58.482 275.341 58.5127 275.004 58.482C274.544 58.39 274.222 58.2827 274.038 58.16C273.854 58.0373 273.685 57.884 273.532 57.7C273.409 57.4853 273.194 57.2553 272.888 57.01C272.397 56.5807 272.06 56.0287 271.876 55.354C271.722 54.6793 271.615 53.9893 271.554 53.284C271.431 53.2533 271.232 53.376 270.956 53.652C270.68 53.928 270.358 54.296 269.99 54.756C269.622 55.1853 269.208 55.6607 268.748 56.182C268.318 56.6727 267.843 57.148 267.322 57.608C266.984 57.9147 266.616 58.16 266.218 58.344C265.819 58.4973 265.328 58.5127 264.746 58.39C264.378 58.1753 264.056 57.884 263.78 57.516C263.534 57.1173 263.228 56.7953 262.86 56.55C262.737 56.2127 262.614 55.906 262.492 55.63C262.4 55.3233 262.323 55.0167 262.262 54.71C262.2 54.434 262.154 54.158 262.124 53.882C262.093 53.5753 262.154 53.2993 262.308 53.054C262.124 52.9927 261.924 53.1153 261.71 53.422C261.495 53.698 261.25 54.0353 260.974 54.434C260.698 54.802 260.36 55.1393 259.962 55.446C259.471 55.8447 259.057 56.2127 258.72 56.55C258.382 56.8873 258.045 57.2247 257.708 57.562C257.37 57.8993 256.956 58.2827 256.466 58.712H254.994ZM293.314 59.724C292.578 59.9693 291.95 59.8467 291.428 59.356C291.275 59.2333 291.106 59.1107 290.922 58.988C290.738 58.8653 290.616 58.712 290.554 58.528C290.554 58.4973 290.585 58.298 290.646 57.93C290.738 57.5313 290.83 57.148 290.922 56.78C291.045 56.3813 291.122 56.1667 291.152 56.136C291.674 55.0627 292.072 54.0047 292.348 52.962C292.624 51.8887 292.854 50.8 293.038 49.696C293.161 49.052 293.299 48.3007 293.452 47.442C293.636 46.5833 293.79 45.832 293.912 45.188C294.066 44.544 294.142 44.222 294.142 44.222C294.204 44.0687 294.265 43.9153 294.326 43.762C294.388 43.6087 294.434 43.4553 294.464 43.302C294.924 42.9647 295.522 42.6273 296.258 42.29C296.994 41.922 297.654 41.8147 298.236 41.968C298.328 41.876 298.497 41.8453 298.742 41.876C299.018 41.876 299.279 41.876 299.524 41.876C299.8 41.876 299.984 41.83 300.076 41.738C300.26 41.7993 300.598 41.83 301.088 41.83C301.61 41.83 302.131 41.83 302.652 41.83C303.204 41.83 303.603 41.8453 303.848 41.876C304.278 42.1213 304.554 42.3207 304.676 42.474C304.799 42.6273 305.014 42.9187 305.32 43.348C305.29 43.6853 305.182 43.946 304.998 44.13C304.814 44.2833 304.554 44.3753 304.216 44.406C303.91 44.406 303.634 44.406 303.388 44.406C303.174 44.3753 302.913 44.3753 302.606 44.406C302.146 44.406 301.564 44.4213 300.858 44.452C300.184 44.4827 299.509 44.5287 298.834 44.59C298.16 44.6207 297.592 44.682 297.132 44.774C297.102 45.1113 297.071 45.464 297.04 45.832C297.01 46.1693 296.918 46.5067 296.764 46.844C296.672 47.1813 296.55 47.672 296.396 48.316C296.243 48.9293 296.074 49.5427 295.89 50.156C295.737 50.7387 295.584 51.168 295.43 51.444C295.277 51.6587 295.185 51.904 295.154 52.18C295.124 52.4253 295.062 52.6707 294.97 52.916C294.848 53.2533 294.71 53.7593 294.556 54.434C294.434 55.1087 294.296 55.814 294.142 56.55C294.02 57.286 293.882 57.9607 293.728 58.574C293.606 59.1567 293.468 59.54 293.314 59.724ZM302.205 70.258C301.99 70.166 301.76 70.0127 301.515 69.798C301.27 69.5833 301.07 69.338 300.917 69.062C300.764 68.8167 300.687 68.602 300.687 68.418C300.687 68.234 300.764 67.7433 300.917 66.946C301.07 66.1793 301.27 65.2287 301.515 64.094C301.791 62.99 302.082 61.8553 302.389 60.69C302.726 59.5553 303.064 58.5433 303.401 57.654C303.462 57.5007 303.662 56.9947 303.999 56.136C304.367 55.2467 304.72 54.1733 305.057 52.916C305.302 52.1187 305.624 51.214 306.023 50.202C306.422 49.19 306.836 48.178 307.265 47.166C307.694 46.1233 308.047 45.2033 308.323 44.406C308.599 43.6087 308.829 42.9647 309.013 42.474C309.228 41.9527 309.35 41.6307 309.381 41.508C309.442 41.324 309.534 41.1707 309.657 41.048C309.81 40.8947 309.964 40.772 310.117 40.68C310.27 40.5573 310.393 40.4807 310.485 40.45C311.037 40.2967 311.512 40.5267 311.911 41.14C312.064 41.416 312.095 41.738 312.003 42.106C311.911 42.474 311.742 42.934 311.497 43.486L311.175 44.406L312.831 44.038C313.107 44.038 313.444 44.0533 313.843 44.084C314.272 44.084 314.686 44.084 315.085 44.084C315.484 44.084 315.775 44.1147 315.959 44.176C316.695 44.2067 317.201 44.3447 317.477 44.59C317.784 44.8353 318.044 45.1573 318.259 45.556C318.412 45.7093 318.596 45.924 318.811 46.2C319.026 46.4453 319.148 46.6907 319.179 46.936C319.302 47.4573 319.302 48.0247 319.179 48.638C319.087 49.2207 318.903 49.8033 318.627 50.386C318.382 50.9687 318.044 51.5053 317.615 51.996C317.216 52.456 316.787 52.8393 316.327 53.146C316.02 53.2687 315.744 53.4067 315.499 53.56C315.254 53.6827 315.131 53.744 315.131 53.744C315.1 53.8973 314.763 54.1427 314.119 54.48C313.475 54.7867 312.739 55.078 311.911 55.354C311.083 55.63 310.362 55.814 309.749 55.906C309.534 55.9367 309.228 55.9673 308.829 55.998C308.43 56.0287 308.124 55.9827 307.909 55.86C307.572 55.7987 307.342 55.768 307.219 55.768C307.096 55.768 307.035 55.8293 307.035 55.952C307.004 56.0133 306.79 56.6573 306.391 57.884C305.992 59.1107 305.578 60.5367 305.149 62.162C304.566 63.9407 304.091 65.3513 303.723 66.394C303.355 67.4673 303.064 68.2647 302.849 68.786C302.665 69.3073 302.527 69.66 302.435 69.844C302.343 70.0587 302.266 70.1967 302.205 70.258ZM307.955 53.284C308.047 53.468 308.338 53.5293 308.829 53.468C309.35 53.376 309.964 53.192 310.669 52.916C311.405 52.6093 312.126 52.272 312.831 51.904C313.536 51.5053 314.119 51.1067 314.579 50.708C315.254 49.9413 315.806 49.236 316.235 48.592C316.664 47.9173 316.726 47.4727 316.419 47.258C316.082 46.7673 315.453 46.5373 314.533 46.568C313.613 46.5987 312.478 46.982 311.129 47.718C310.608 47.902 310.209 48.1473 309.933 48.454C309.688 48.73 309.473 49.0827 309.289 49.512C309.105 49.9413 308.875 50.4627 308.599 51.076C308.323 51.7507 308.139 52.2567 308.047 52.594C307.955 52.9313 307.924 53.1613 307.955 53.284ZM324.788 59.31C324.389 59.31 324.067 59.2333 323.822 59.08C323.607 58.9267 323.331 58.712 322.994 58.436C322.411 57.8227 321.997 57.24 321.752 56.688C321.506 56.1053 321.43 55.5533 321.522 55.032C321.614 54.7867 321.644 54.5567 321.614 54.342C321.614 54.0967 321.614 53.974 321.614 53.974C321.46 53.8207 321.414 53.7287 321.476 53.698C321.537 53.6367 321.598 53.5447 321.66 53.422C321.844 53.422 321.905 53.2533 321.844 52.916C321.782 52.6707 321.905 52.134 322.212 51.306C322.518 50.478 322.902 49.696 323.362 48.96C323.546 48.6533 323.822 48.2547 324.19 47.764C324.558 47.2427 324.956 46.7367 325.386 46.246C325.846 45.7247 326.26 45.3107 326.628 45.004C327.394 44.36 328.069 43.8847 328.652 43.578C329.234 43.2713 329.863 43.0413 330.538 42.888C331.212 42.7347 331.672 42.658 331.918 42.658C332.194 42.658 332.562 42.9033 333.022 43.394C333.727 43.7007 334.233 44.0687 334.54 44.498C334.877 44.9273 335.092 45.556 335.184 46.384C335.276 47.304 335.199 48.362 334.954 49.558C334.739 50.7233 334.018 52.18 332.792 53.928C332.025 55.032 331.32 55.86 330.676 56.412C330.032 56.9333 329.265 57.4547 328.376 57.976C327.732 58.4053 327.149 58.7273 326.628 58.942C326.106 59.126 325.493 59.2487 324.788 59.31ZM329.204 54.434C329.94 53.606 330.522 52.824 330.952 52.088C331.412 51.352 331.841 50.4167 332.24 49.282C332.362 48.9447 332.439 48.5307 332.47 48.04C332.5 47.5187 332.485 47.0433 332.424 46.614C332.393 46.154 332.286 45.8933 332.102 45.832C331.734 45.6173 331.289 45.556 330.768 45.648C330.246 45.7093 329.679 46.0007 329.066 46.522C328.115 47.3193 327.287 48.316 326.582 49.512C325.876 50.6773 325.186 52.0113 324.512 53.514C324.052 54.618 323.944 55.5073 324.19 56.182C324.466 56.826 325.033 57.056 325.892 56.872C326.781 56.6573 327.885 55.8447 329.204 54.434ZM338.818 58.712C338.419 58.344 338.051 58.0373 337.714 57.792C337.407 57.516 337.147 57.194 336.932 56.826C336.748 56.4273 336.61 55.8753 336.518 55.17C336.487 54.618 336.518 54.0967 336.61 53.606C336.702 53.1153 336.84 52.64 337.024 52.18C337.3 51.5053 337.591 50.846 337.898 50.202C338.205 49.558 338.511 48.8987 338.818 48.224C339.217 47.2733 339.646 46.4453 340.106 45.74C340.566 45.004 341.011 44.636 341.44 44.636C341.961 44.6667 342.329 44.8507 342.544 45.188C342.789 45.4947 343.111 45.9087 343.51 46.43C343.449 46.7367 343.341 47.0433 343.188 47.35C343.035 47.626 342.851 47.8867 342.636 48.132C342.237 48.5307 341.9 48.9753 341.624 49.466C341.348 49.9567 341.133 50.4627 340.98 50.984C340.765 51.444 340.551 51.904 340.336 52.364C340.121 52.7933 339.922 53.238 339.738 53.698C339.186 54.71 338.987 55.3233 339.14 55.538C339.293 55.7527 339.646 55.676 340.198 55.308C340.781 54.94 341.394 54.4033 342.038 53.698C342.59 53.1153 343.019 52.6707 343.326 52.364C343.633 52.0573 343.924 51.72 344.2 51.352C344.292 51.26 344.507 50.984 344.844 50.524C345.212 50.0333 345.58 49.5273 345.948 49.006C346.347 48.454 346.638 48.0707 346.822 47.856C347.067 47.5493 347.282 47.2427 347.466 46.936C347.65 46.5987 347.803 46.2613 347.926 45.924C347.987 45.6173 348.11 45.418 348.294 45.326C348.509 45.2033 348.769 45.1727 349.076 45.234C349.383 45.418 349.689 45.6327 349.996 45.878C350.303 46.0927 350.563 46.4607 350.778 46.982C350.931 47.2887 350.87 47.764 350.594 48.408C350.349 49.052 350.057 49.696 349.72 50.34C349.444 50.892 349.229 51.4593 349.076 52.042C348.953 52.6247 348.815 53.2227 348.662 53.836C348.57 54.2653 348.662 54.756 348.938 55.308C349.551 55.0627 350.011 54.7867 350.318 54.48C350.655 54.1427 350.962 53.79 351.238 53.422C351.545 53.054 351.943 52.7167 352.434 52.41C352.587 52.042 352.817 51.7507 353.124 51.536C353.461 51.2907 353.691 50.9687 353.814 50.57L355.608 48.454C355.853 48.178 356.068 47.8407 356.252 47.442C356.467 47.0127 356.681 46.66 356.896 46.384C357.141 46.0773 357.402 45.97 357.678 46.062C358.629 46.3993 359.257 47.0433 359.564 47.994C359.564 48.3927 359.395 49.052 359.058 49.972C358.751 50.8613 358.521 51.7507 358.368 52.64C358.276 53.1613 358.215 53.698 358.184 54.25C358.184 54.7713 358.261 55.308 358.414 55.86C358.659 56.044 358.966 56.09 359.334 55.998C359.733 55.8753 360.085 55.814 360.392 55.814C360.637 56.1207 360.745 56.504 360.714 56.964C360.683 57.424 360.637 57.7613 360.576 57.976C360.3 58.1293 360.024 58.2673 359.748 58.39C359.472 58.482 359.165 58.5127 358.828 58.482C358.368 58.39 358.046 58.2827 357.862 58.16C357.678 58.0373 357.509 57.884 357.356 57.7C357.233 57.4853 357.019 57.2553 356.712 57.01C356.221 56.5807 355.884 56.0287 355.7 55.354C355.547 54.6793 355.439 53.9893 355.378 53.284C355.255 53.2533 355.056 53.376 354.78 53.652C354.504 53.928 354.182 54.296 353.814 54.756C353.446 55.1853 353.032 55.6607 352.572 56.182C352.143 56.6727 351.667 57.148 351.146 57.608C350.809 57.9147 350.441 58.16 350.042 58.344C349.643 58.4973 349.153 58.5127 348.57 58.39C348.202 58.1753 347.88 57.884 347.604 57.516C347.359 57.1173 347.052 56.7953 346.684 56.55C346.561 56.2127 346.439 55.906 346.316 55.63C346.224 55.3233 346.147 55.0167 346.086 54.71C346.025 54.434 345.979 54.158 345.948 53.882C345.917 53.5753 345.979 53.2993 346.132 53.054C345.948 52.9927 345.749 53.1153 345.534 53.422C345.319 53.698 345.074 54.0353 344.798 54.434C344.522 54.802 344.185 55.1393 343.786 55.446C343.295 55.8447 342.881 56.2127 342.544 56.55C342.207 56.8873 341.869 57.2247 341.532 57.562C341.195 57.8993 340.781 58.2827 340.29 58.712H338.818ZM364.526 58.528C364.281 58.2827 364.097 57.976 363.974 57.608C363.882 57.24 363.851 56.872 363.882 56.504C363.913 56.136 363.989 55.8293 364.112 55.584C364.112 55.3387 364.143 55.1547 364.204 55.032C364.296 54.8787 364.327 54.7407 364.296 54.618C364.265 54.4953 364.296 54.2807 364.388 53.974C364.48 53.6673 364.572 53.376 364.664 53.1C364.879 52.6093 365.109 52.0267 365.354 51.352C365.599 50.6467 365.829 49.9567 366.044 49.282C366.259 48.6073 366.443 48.0247 366.596 47.534C366.749 47.0433 366.841 46.7367 366.872 46.614C366.872 46.246 367.117 46.0467 367.608 46.016C367.976 45.8933 368.252 45.8933 368.436 46.016C368.62 46.108 368.865 46.3993 369.172 46.89C369.417 47.1353 369.509 47.5033 369.448 47.994C369.387 48.4847 369.187 49.098 368.85 49.834C368.727 50.0793 368.574 50.432 368.39 50.892C368.237 51.352 368.129 51.766 368.068 52.134C367.945 52.3793 367.792 52.732 367.608 53.192C367.455 53.6213 367.317 54.0353 367.194 54.434C367.133 54.5873 367.071 54.8173 367.01 55.124C366.949 55.4 366.872 55.7067 366.78 56.044C366.688 56.3507 366.565 56.6267 366.412 56.872C366.136 58.1293 365.875 58.8653 365.63 59.08C365.415 59.2947 365.047 59.1107 364.526 58.528ZM368.988 39.852C368.835 39.6987 368.697 39.484 368.574 39.208C368.451 38.9013 368.375 38.6253 368.344 38.38C368.313 38.104 368.344 37.966 368.436 37.966C368.681 37.9353 368.973 37.6747 369.31 37.184C369.647 36.6933 369.785 36.264 369.724 35.896C369.724 35.7733 369.77 35.666 369.862 35.574C369.954 35.4513 370.061 35.3747 370.184 35.344C370.552 35.0987 370.905 35.068 371.242 35.252C371.61 35.4053 371.947 35.7273 372.254 36.218C372.53 36.8007 372.607 37.2913 372.484 37.69C372.361 38.058 372.024 38.5793 371.472 39.254C371.012 39.8673 370.583 40.2047 370.184 40.266C369.816 40.3273 369.417 40.1893 368.988 39.852Z" fill="white"/>
<path d="M424.046 69.5653C412.723 44.2465 398.813 20.7367 381.118 3.55836C378.191 0.716873 380.662 15.3738 380.285 17.6648C379.907 19.9689 378.8 13.7459 378.309 11.6197C377.882 9.76752 375.624 3.13445 378.806 2.06959C385.956 -0.323147 394.824 9.17051 400.648 13.1867" stroke="white" stroke-width="2" stroke-linecap="round"/>
</svg>
