<svg width="320" height="45" viewBox="0 0 320 45" fill="none" xmlns="http://www.w3.org/2000/svg">
<path d="M6.88 30.034C6.66533 30.034 6.328 29.942 5.868 29.758C5.43867 29.5433 4.97867 29.298 4.488 29.022C3.99733 28.7153 3.59867 28.424 3.292 28.148C2.61733 27.504 2.05 26.722 1.59 25.802C1.13 24.882 0.808 23.9007 0.624 22.858C0.44 21.7847 0.424667 20.7573 0.578 19.776C0.915334 17.8133 1.65133 15.8813 2.786 13.98C3.92067 12.048 5.224 10.4533 6.696 9.196C7.49333 8.49067 8.214 7.954 8.858 7.586C9.502 7.18733 10.284 6.88067 11.204 6.666C11.5413 6.574 11.9093 6.528 12.308 6.528C12.7067 6.49733 13.0133 6.482 13.228 6.482C13.8413 6.482 14.4547 6.60466 15.068 6.85C15.6813 7.09533 16.2027 7.402 16.632 7.77C17.0613 8.10733 17.276 8.42933 17.276 8.736C17.276 8.95067 17.2607 9.11933 17.23 9.242C17.1993 9.334 17.0613 9.31867 16.816 9.196H16.356L16.816 10.53C16.9387 10.7753 17.046 11.1127 17.138 11.542C17.23 11.9407 17.276 12.3087 17.276 12.646C17.276 12.922 17.23 13.3667 17.138 13.98C17.046 14.5627 16.9233 15.1913 16.77 15.866C16.6167 16.5407 16.4633 17.1693 16.31 17.752C16.1567 18.3347 16.0187 18.764 15.896 19.04C15.804 19.224 15.7427 19.408 15.712 19.592C15.712 19.7453 15.712 19.8833 15.712 20.006C15.5893 20.2207 15.39 20.6347 15.114 21.248C14.8687 21.8613 14.6847 22.2907 14.562 22.536C14.4393 22.6587 14.332 22.766 14.24 22.858C14.1787 22.95 14.2093 23.0573 14.332 23.18C14.332 23.2413 14.2553 23.4407 14.102 23.778C13.9487 24.0847 13.78 24.376 13.596 24.652C13.4427 24.928 13.32 25.066 13.228 25.066C13.228 25.066 13.182 25.0813 13.09 25.112C13.0287 25.112 12.998 25.158 12.998 25.25C12.998 25.3727 12.7987 25.6947 12.4 26.216C12.0013 26.7067 11.526 27.228 10.974 27.78C10.6673 28.0867 10.238 28.424 9.686 28.792C9.16467 29.1293 8.64333 29.4207 8.122 29.666C7.60067 29.9113 7.18667 30.034 6.88 30.034ZM6.742 27.136C7.07933 27.136 7.40133 27.09 7.708 26.998C8.01467 26.8753 8.27533 26.7067 8.49 26.492C9.042 26.124 9.686 25.526 10.422 24.698C11.158 23.8393 11.6947 23.0113 12.032 22.214C12.3693 21.754 12.63 21.2787 12.814 20.788C13.0287 20.2667 13.3507 19.3927 13.78 18.166C14.0253 17.8287 14.194 17.4147 14.286 16.924C14.378 16.4333 14.424 16.0193 14.424 15.682C14.424 15.3447 14.424 14.8847 14.424 14.302C14.4547 13.7193 14.5313 13.2287 14.654 12.83C14.654 12.0327 14.6387 11.5113 14.608 11.266C14.5773 10.99 14.4547 10.7293 14.24 10.484C14.1173 10.392 13.9487 10.3 13.734 10.208C13.55 10.116 13.3507 10.07 13.136 10.07C12.9213 10.07 12.5227 10.1927 11.94 10.438C11.3573 10.6527 10.9433 10.8367 10.698 10.99C10.4833 11.1127 10.238 11.128 9.962 11.036C9.71667 10.944 9.594 10.8213 9.594 10.668C9.594 10.2387 9.318 10.208 8.766 10.576C8.214 10.9133 7.60067 11.496 6.926 12.324C6.374 12.876 5.89867 13.4433 5.5 14.026C5.132 14.578 4.948 14.9153 4.948 15.038C4.948 15.1607 4.902 15.314 4.81 15.498C4.718 15.682 4.626 15.8967 4.534 16.142C4.38067 16.3567 4.19667 16.7093 3.982 17.2C3.76733 17.6907 3.55267 18.1813 3.338 18.672C3.154 19.132 3.03133 19.4847 2.97 19.73C2.97 19.8527 2.97 20.19 2.97 20.742C2.97 21.2633 2.97 21.754 2.97 22.214C2.97 22.7353 2.98533 23.18 3.016 23.548C3.07733 23.916 3.154 24.238 3.246 24.514C3.338 24.7593 3.46067 25.0353 3.614 25.342C3.73667 25.5567 3.92067 25.8173 4.166 26.124C4.442 26.4 4.626 26.5993 4.718 26.722C5.05533 27.0287 5.33133 27.2127 5.546 27.274C5.76067 27.3047 6.15933 27.2587 6.742 27.136ZM25.887 30.264C25.1203 30.264 24.369 30.1873 23.633 30.034C22.9277 29.85 22.3603 29.62 21.931 29.344C21.5017 29.0373 21.3023 28.7 21.333 28.332C21.3637 27.8413 21.471 27.5807 21.655 27.55C21.839 27.4887 22.2683 27.504 22.943 27.596C23.9857 27.8107 25.105 27.826 26.301 27.642C27.497 27.458 28.6163 27.136 29.659 26.676C30.7017 26.216 31.5143 25.6947 32.097 25.112C32.925 24.3147 33.293 23.5173 33.201 22.72C33.1397 21.9227 32.6643 21.2327 31.775 20.65C31.3763 20.374 30.8243 20.1133 30.119 19.868C29.4137 19.6227 28.7083 19.4387 28.003 19.316C27.3283 19.1627 26.7763 19.1013 26.347 19.132C26.071 19.1627 25.841 19.1627 25.657 19.132C25.5037 19.1013 25.2277 18.9787 24.829 18.764C24.645 18.5493 24.4763 18.3193 24.323 18.074C24.1697 17.798 24.0623 17.5987 24.001 17.476C23.9703 17.3227 24.047 17.1693 24.231 17.016C24.4457 16.8627 24.8903 16.602 25.565 16.234C26.2397 15.8353 27.2823 15.2527 28.693 14.486C29.981 13.7807 30.993 13.2133 31.729 12.784C32.4957 12.324 33.0937 11.956 33.523 11.68C33.983 11.3733 34.351 11.0973 34.627 10.852C35.179 10.116 35.455 9.64067 35.455 9.426C35.455 9.21133 35.0563 9.02733 34.259 8.874C33.4923 8.81267 32.7563 8.76667 32.051 8.736C31.3457 8.70533 30.993 8.75133 30.993 8.874C30.993 8.874 30.9777 8.874 30.947 8.874C30.947 8.874 30.901 8.874 30.809 8.874C30.6557 8.81267 30.3183 8.828 29.797 8.92C29.2757 9.012 28.7697 9.11933 28.279 9.242C27.819 9.36467 27.5737 9.472 27.543 9.564C27.5123 9.62533 27.3283 9.73267 26.991 9.886C26.6843 10.0087 26.3623 10.116 26.025 10.208C25.7183 10.3 25.519 10.346 25.427 10.346C25.2737 10.2847 25.0897 10.1313 24.875 9.886C24.691 9.61 24.5377 9.334 24.415 9.058C24.2923 8.75133 24.2617 8.52133 24.323 8.368C24.3843 8.24533 24.5683 8.092 24.875 7.908C25.2123 7.69333 25.5957 7.47867 26.025 7.264C26.4543 7.01866 26.8377 6.81933 27.175 6.666C27.6043 6.54333 28.2023 6.45133 28.969 6.39C29.7663 6.32867 30.5637 6.298 31.361 6.298C32.1583 6.26733 32.741 6.26733 33.109 6.298C34.5197 6.45133 35.6083 6.81933 36.375 7.402C37.1417 7.98467 37.617 8.76667 37.801 9.748C37.893 10.1773 37.9237 10.53 37.893 10.806C37.8623 11.082 37.7243 11.3733 37.479 11.68C37.2337 11.956 36.8043 12.37 36.191 12.922C35.4243 13.4127 34.7957 13.8267 34.305 14.164C33.8143 14.5013 33.0783 14.9307 32.097 15.452C31.8823 15.6053 31.591 15.8047 31.223 16.05C30.855 16.2953 30.5177 16.5253 30.211 16.74C29.9043 16.924 29.751 17.0467 29.751 17.108C29.751 17.108 29.8123 17.154 29.935 17.246C30.0577 17.3073 30.211 17.3993 30.395 17.522C30.579 17.6447 30.7477 17.7827 30.901 17.936C31.7903 18.2427 32.603 18.7333 33.339 19.408C34.075 20.0827 34.5963 20.6347 34.903 21.064C35.3323 22.0147 35.501 22.9347 35.409 23.824C35.3477 24.7133 35.041 25.5567 34.489 26.354C33.937 27.1207 33.1243 27.826 32.051 28.47C31.1923 28.9607 30.1957 29.3747 29.061 29.712C27.9263 30.0187 26.8683 30.2027 25.887 30.264ZM42.456 28.608C41.8733 28.8227 41.3826 28.93 40.984 28.93C40.616 28.8993 40.202 28.7153 39.742 28.378C39.1593 27.826 38.96 27.274 39.144 26.722C39.3586 26.1393 39.8646 25.572 40.662 25.02C41.214 24.6827 41.6126 24.4987 41.858 24.468C42.134 24.4373 42.548 24.5447 43.1 24.79C44.02 25.3727 44.4186 26.0167 44.296 26.722C44.204 27.4273 43.5906 28.056 42.456 28.608ZM65.5677 33.024C65.3224 33.024 65.0464 32.8247 64.7397 32.426C64.4331 32.0273 64.2951 31.644 64.3257 31.276C64.3564 30.7853 64.4944 30.08 64.7397 29.16C64.9851 28.24 65.2611 27.3047 65.5677 26.354C65.8744 25.4033 66.1504 24.652 66.3957 24.1C66.5184 23.6093 66.6257 23.18 66.7177 22.812C66.8404 22.4133 66.9171 22.1527 66.9477 22.03C67.0397 21.9073 67.1777 21.5853 67.3617 21.064C67.5764 20.5427 67.7451 20.0367 67.8677 19.546C67.9291 19.3007 68.0517 18.8407 68.2357 18.166C68.4504 17.4607 68.6957 16.648 68.9717 15.728C69.2784 14.808 69.5697 13.9033 69.8457 13.014C70.1524 12.1247 70.4131 11.3427 70.6277 10.668C70.8424 9.99333 70.9804 9.54867 71.0417 9.334C71.2871 8.966 71.4711 8.61333 71.5937 8.276C71.7164 7.93867 71.7931 7.70867 71.8237 7.586C72.0077 7.46333 72.1151 7.31 72.1457 7.126C72.1764 6.91133 72.1917 6.74267 72.1917 6.62C72.1917 6.46667 72.2377 6.344 72.3297 6.252C72.4524 6.16 72.5137 6.05267 72.5137 5.93C72.6364 5.838 72.7131 5.7 72.7437 5.516C72.7744 5.30133 72.8664 5.11733 73.0197 4.964L73.2497 4.182L75.9637 4.136C75.9024 4.504 75.8104 4.964 75.6877 5.516C75.5651 6.03733 75.2737 6.74267 74.8137 7.632C74.6604 8.24533 74.4764 8.79733 74.2617 9.288C74.0777 9.77867 74.0011 10.1007 74.0317 10.254C73.9704 10.3153 73.8324 10.622 73.6177 11.174C73.4337 11.726 73.2037 12.4007 72.9277 13.198C72.6824 13.9953 72.4217 14.7927 72.1457 15.59C71.9004 16.3873 71.6704 17.0927 71.4557 17.706C71.2717 18.2887 71.1491 18.6567 71.0877 18.81C70.8424 19.3007 70.5664 20.0213 70.2597 20.972C69.9531 21.9227 69.4931 23.2107 68.8797 24.836C68.6344 25.3267 68.3277 26.0627 67.9597 27.044C67.6224 28.0253 67.3464 28.9147 67.1317 29.712C66.7944 30.908 66.5491 31.736 66.3957 32.196C66.2731 32.6867 66.1657 32.9473 66.0737 32.978C65.9817 33.0393 65.8131 33.0547 65.5677 33.024ZM65.9357 5.608C65.0771 5.63867 64.4331 5.59267 64.0037 5.47C63.6051 5.34733 63.4671 5.04067 63.5897 4.55C63.6817 4.182 63.8811 3.906 64.1877 3.722C64.4944 3.538 64.9391 3.4 65.5217 3.308C65.8591 3.24666 66.2884 3.17 66.8097 3.078C67.3617 2.986 67.8831 2.894 68.3737 2.802C69.3857 2.67933 70.2137 2.572 70.8577 2.48C71.5324 2.388 72.2224 2.31133 72.9277 2.25C73.6331 2.18867 74.5224 2.12733 75.5957 2.066C76.4851 2.00467 77.2364 1.95866 77.8497 1.928C78.4937 1.86667 78.8157 1.836 78.8157 1.836C78.9077 1.836 79.2297 1.86667 79.7817 1.928C80.3337 1.98933 80.9317 2.066 81.5757 2.158C82.2197 2.25 82.6951 2.35733 83.0017 2.48C83.7071 2.63333 84.2131 2.848 84.5197 3.124C84.8571 3.4 85.0871 3.79867 85.2097 4.32C85.3017 4.688 85.3017 4.918 85.2097 5.01C85.1177 5.07133 84.9491 5.16333 84.7037 5.286C83.9984 5.50067 83.4771 5.608 83.1397 5.608C82.8024 5.608 82.4191 5.53133 81.9897 5.378C81.8364 5.22466 81.6524 5.08666 81.4377 4.964C81.2537 4.84133 80.9164 4.74933 80.4257 4.688C79.9657 4.596 79.2297 4.51933 78.2177 4.458C77.3591 4.55 76.6077 4.596 75.9637 4.596C75.3197 4.596 74.9977 4.67267 74.9977 4.826L72.2837 4.964L70.0297 5.194C69.7231 5.22467 69.2937 5.27067 68.7417 5.332C68.1897 5.36266 67.6531 5.40867 67.1317 5.47C66.6104 5.50067 66.2117 5.54667 65.9357 5.608ZM84.4497 30.862C83.9897 30.862 83.407 30.8313 82.7017 30.77C82.027 30.7087 81.4443 30.2793 80.9537 29.482C80.647 28.9607 80.417 28.3627 80.2637 27.688C80.141 27.0133 80.141 26.538 80.2637 26.262C80.693 23.9007 81.0303 22.2753 81.2757 21.386C81.521 20.4967 81.659 19.9907 81.6897 19.868C81.751 19.7453 81.8737 19.454 82.0577 18.994C82.2723 18.5033 82.395 18.1967 82.4257 18.074C82.579 17.5833 82.625 17.0313 82.5637 16.418C82.533 16.1727 82.5483 15.958 82.6097 15.774C82.7017 15.5593 82.8397 15.3753 83.0237 15.222C83.545 14.8233 83.959 14.302 84.2657 13.658C84.3577 13.4433 84.5263 13.0753 84.7717 12.554C85.0477 12.002 85.3237 11.4653 85.5997 10.944C85.9063 10.392 86.1363 10.0087 86.2897 9.794C86.7803 9.18067 87.225 8.53667 87.6237 7.862C88.053 7.15667 88.5743 6.54333 89.1877 6.022C89.5863 5.34733 90.0923 4.734 90.7057 4.182C91.319 3.59933 91.9323 3.06266 92.5457 2.572C93.159 2.08133 93.6497 1.652 94.0177 1.284C94.171 1.13067 94.585 0.992665 95.2597 0.869999C95.965 0.716665 96.5323 0.578665 96.9617 0.455998C97.1457 0.363998 97.4983 0.440664 98.0197 0.685998C98.541 0.900666 98.909 1.146 99.1237 1.422C99.5223 2.09666 99.7523 2.64866 99.8137 3.078C99.9057 3.50733 99.8443 4.01333 99.6297 4.596C99.4457 5.148 99.0777 6.00666 98.5257 7.172C97.9123 8.39867 97.0383 9.564 95.9037 10.668C94.7997 11.7413 93.665 12.6767 92.4997 13.474C91.917 13.9953 91.3037 14.4707 90.6597 14.9C90.0463 15.3293 89.4177 15.7127 88.7737 16.05C88.375 16.2647 87.961 16.464 87.5317 16.648C87.133 16.832 86.719 17.0007 86.2897 17.154C86.075 17.2153 85.8757 17.338 85.6917 17.522C85.5077 17.6753 85.3543 17.9053 85.2317 18.212C85.0477 18.6413 84.9403 19.0093 84.9097 19.316C84.9097 19.592 84.8177 19.822 84.6337 20.006C84.5417 20.098 84.4037 20.466 84.2197 21.11C84.0663 21.7233 83.8823 22.4593 83.6677 23.318C83.4837 24.146 83.3303 24.928 83.2077 25.664C83.085 26.3693 83.039 26.8447 83.0697 27.09C83.1003 27.2433 83.131 27.412 83.1617 27.596C83.223 27.7493 83.361 27.872 83.5757 27.964C84.0357 27.872 84.4037 27.7187 84.6797 27.504C84.9557 27.2587 85.2623 26.9367 85.5997 26.538C85.9677 26.078 86.305 25.5873 86.6117 25.066C86.949 24.5447 87.225 24.008 87.4397 23.456C87.5623 23.1187 87.6543 22.766 87.7157 22.398C87.777 21.9993 87.8843 21.6467 88.0377 21.34C88.0377 20.6347 88.0223 20.1133 87.9917 19.776C87.9917 19.408 87.961 19.1167 87.8997 18.902C87.869 18.6567 87.7923 18.3807 87.6697 18.074C87.915 17.9207 88.053 17.798 88.0837 17.706C88.145 17.614 88.283 17.5987 88.4977 17.66C88.8963 17.752 89.2643 17.9053 89.6017 18.12C89.9697 18.3347 90.3223 18.6107 90.6597 18.948C90.7823 19.0707 90.859 19.1933 90.8897 19.316C90.9203 19.4387 90.905 19.5767 90.8437 19.73C90.813 20.098 90.767 20.466 90.7057 20.834C90.675 21.1713 90.6597 21.5087 90.6597 21.846C90.445 22.2447 90.307 22.674 90.2457 23.134C90.1843 23.5633 90.077 23.9927 89.9237 24.422C89.7397 24.8207 89.5557 25.2193 89.3717 25.618C89.1877 26.0167 88.973 26.3847 88.7277 26.722C88.3597 27.3967 87.9303 27.9947 87.4397 28.516C86.9797 29.0373 86.489 29.5127 85.9677 29.942L84.4497 30.862ZM86.5657 13.888C86.9337 13.9493 87.1943 13.9647 87.3477 13.934C87.5317 13.8727 87.7157 13.7193 87.8997 13.474C89.341 12.5233 90.6597 11.588 91.8557 10.668C93.0517 9.71733 94.0483 8.81267 94.8457 7.954C95.6737 7.06466 96.2103 6.28267 96.4557 5.608C96.609 5.27067 96.7777 4.94867 96.9617 4.642C97.1763 4.33533 97.3143 3.98267 97.3757 3.584L97.1917 2.296C96.333 2.69467 95.643 3.06267 95.1217 3.4C94.631 3.73733 93.987 4.30466 93.1897 5.102C92.883 5.40867 92.423 5.93 91.8097 6.666C91.227 7.37133 90.583 8.16866 89.8777 9.058C89.1723 9.94733 88.513 10.8213 87.8997 11.68C87.317 12.5387 86.8723 13.2747 86.5657 13.888ZM95.733 29.528C95.4876 29.2827 95.3036 28.976 95.181 28.608C95.089 28.24 95.0583 27.872 95.089 27.504C95.1196 27.136 95.1963 26.8293 95.319 26.584C95.319 26.3387 95.3496 26.1547 95.411 26.032C95.503 25.8787 95.5336 25.7407 95.503 25.618C95.4723 25.4953 95.503 25.2807 95.595 24.974C95.687 24.6673 95.779 24.376 95.871 24.1C96.0856 23.6093 96.3156 23.0267 96.561 22.352C96.8063 21.6467 97.0363 20.9567 97.251 20.282C97.4656 19.6073 97.6496 19.0247 97.803 18.534C97.9563 18.0433 98.0483 17.7367 98.079 17.614C98.079 17.246 98.3243 17.0467 98.815 17.016C99.183 16.8933 99.459 16.8933 99.643 17.016C99.827 17.108 100.072 17.3993 100.379 17.89C100.624 18.1353 100.716 18.5033 100.655 18.994C100.594 19.4847 100.394 20.098 100.057 20.834C99.9343 21.0793 99.781 21.432 99.597 21.892C99.4436 22.352 99.3363 22.766 99.275 23.134C99.1523 23.3793 98.999 23.732 98.815 24.192C98.6616 24.6213 98.5236 25.0353 98.401 25.434C98.3396 25.5873 98.2783 25.8173 98.217 26.124C98.1556 26.4 98.079 26.7067 97.987 27.044C97.895 27.3507 97.7723 27.6267 97.619 27.872C97.343 29.1293 97.0823 29.8653 96.837 30.08C96.6223 30.2947 96.2543 30.1107 95.733 29.528ZM100.195 10.852C100.042 10.6987 99.9036 10.484 99.781 10.208C99.6583 9.90133 99.5816 9.62533 99.551 9.38C99.5203 9.104 99.551 8.966 99.643 8.966C99.8883 8.93533 100.18 8.67467 100.517 8.184C100.854 7.69333 100.992 7.264 100.931 6.896C100.931 6.77333 100.977 6.666 101.069 6.574C101.161 6.45133 101.268 6.37467 101.391 6.344C101.759 6.09867 102.112 6.068 102.449 6.252C102.817 6.40533 103.154 6.72733 103.461 7.218C103.737 7.80067 103.814 8.29133 103.691 8.69C103.568 9.058 103.231 9.57933 102.679 10.254C102.219 10.8673 101.79 11.2047 101.391 11.266C101.023 11.3273 100.624 11.1893 100.195 10.852ZM114.801 30.908C114.586 31.0307 114.295 30.9847 113.927 30.77C113.59 30.5553 113.252 30.2333 112.915 29.804C112.7 29.436 112.547 29.0373 112.455 28.608C112.394 28.1787 112.363 27.5807 112.363 26.814C112.394 26.2007 112.363 25.802 112.271 25.618C112.21 25.434 112.041 25.4647 111.765 25.71C111.489 25.9247 111.014 26.3693 110.339 27.044C109.572 27.8107 108.836 28.4087 108.131 28.838C107.456 29.2673 106.904 29.4667 106.475 29.436C106.26 29.436 106.015 29.3287 105.739 29.114C105.494 28.8687 105.264 28.5773 105.049 28.24C104.834 27.872 104.65 27.504 104.497 27.136C104.313 26.4613 104.282 25.6027 104.405 24.56C104.558 23.4867 104.804 22.3673 105.141 21.202C105.478 20.0367 105.862 18.9327 106.291 17.89C106.751 16.8473 107.211 16.004 107.671 15.36C108.162 14.716 108.591 14.394 108.959 14.394C109.204 14.394 109.419 14.5167 109.603 14.762C109.818 15.0073 110.032 15.3907 110.247 15.912C110.37 16.1267 110.416 16.3107 110.385 16.464C110.385 16.6173 110.262 16.8013 110.017 17.016C109.741 17.384 109.419 17.936 109.051 18.672C108.714 19.408 108.376 20.2053 108.039 21.064C107.732 21.9227 107.456 22.7507 107.211 23.548C106.966 24.3453 106.797 25.0047 106.705 25.526C106.613 26.0167 106.628 26.262 106.751 26.262C107.18 26.262 107.686 26.0933 108.269 25.756C108.882 25.388 109.465 24.9433 110.017 24.422C110.661 23.778 111.228 23.0727 111.719 22.306C112.24 21.5393 112.762 20.7267 113.283 19.868C113.682 19.2547 114.096 18.58 114.525 17.844C114.985 17.108 115.276 16.5867 115.399 16.28C115.828 15.4827 116.15 14.946 116.365 14.67C116.58 14.3633 116.84 14.164 117.147 14.072C117.3 14.072 117.438 14.072 117.561 14.072C117.714 14.072 117.791 14.072 117.791 14.072C117.975 14.1027 118.19 14.2407 118.435 14.486C118.68 14.6087 118.818 14.7313 118.849 14.854C118.88 14.946 118.895 15.0687 118.895 15.222C118.772 15.5287 118.573 15.9887 118.297 16.602C118.052 17.1847 117.868 17.614 117.745 17.89C117.162 19.2087 116.58 20.512 115.997 21.8C115.445 23.0573 115.046 24.3453 114.801 25.664C114.74 26.0933 114.724 26.5993 114.755 27.182C114.816 27.734 114.908 28.1327 115.031 28.378C115.123 28.562 115.23 28.7767 115.353 29.022C115.506 29.2367 115.675 29.4207 115.859 29.574C116.135 29.758 116.181 29.9573 115.997 30.172C115.844 30.3867 115.629 30.5707 115.353 30.724C115.077 30.8467 114.893 30.908 114.801 30.908ZM114.203 11.818C113.252 11.9407 112.455 11.6647 111.811 10.99C111.167 10.3153 110.676 9.31867 110.339 8C110.278 7.75467 110.247 7.54 110.247 7.356C110.278 7.14133 110.339 6.95733 110.431 6.804C110.492 6.68133 110.615 6.58933 110.799 6.528C110.983 6.436 111.136 6.42067 111.259 6.482C111.688 6.63533 111.995 6.83467 112.179 7.08C112.394 7.29467 112.532 7.57067 112.593 7.908C112.654 8.06133 112.685 8.21467 112.685 8.368C112.716 8.52133 112.731 8.58267 112.731 8.552C112.884 9.04267 113.084 9.38 113.329 9.564C113.574 9.748 113.942 9.73267 114.433 9.518C114.954 9.30333 115.46 9.058 115.951 8.782C116.472 8.506 116.932 8.16867 117.331 7.77C117.668 7.43267 117.99 7.126 118.297 6.85C118.634 6.574 118.956 6.28267 119.263 5.976L119.309 5.93C119.432 5.838 119.585 5.80733 119.769 5.838C119.953 5.86867 120.06 5.91467 120.091 5.976C120.306 6.19067 120.413 6.40533 120.413 6.62C120.413 6.83467 120.413 7.06467 120.413 7.31L120.367 7.402C120.428 7.586 120.275 7.93867 119.907 8.46C119.57 8.98133 119.156 9.426 118.665 9.794C118.236 10.1313 117.776 10.438 117.285 10.714C116.794 10.99 116.288 11.2507 115.767 11.496C115.552 11.6187 115.322 11.6953 115.077 11.726C114.862 11.726 114.571 11.7567 114.203 11.818ZM137.257 30.77C137.043 30.6473 136.813 30.5247 136.567 30.402C136.353 30.2793 136.138 30.1567 135.923 30.034C135.739 29.9113 135.571 29.7887 135.417 29.666C134.773 29.0833 134.344 28.4547 134.129 27.78C133.945 27.0747 133.884 26.4 133.945 25.756C134.007 25.112 134.099 24.56 134.221 24.1C134.344 23.6093 134.405 23.272 134.405 23.088C134.375 22.8427 134.421 22.6127 134.543 22.398C134.666 22.1527 134.789 21.9073 134.911 21.662C135.463 20.5887 135.969 19.6687 136.429 18.902C136.92 18.1047 137.625 17.1847 138.545 16.142C138.729 15.9887 138.898 15.8507 139.051 15.728C139.235 15.5747 139.419 15.4673 139.603 15.406L140.661 16.188C140.784 16.3107 140.861 16.464 140.891 16.648C140.922 16.8013 140.891 17.016 140.799 17.292C140.738 17.5067 140.661 17.7213 140.569 17.936C140.508 18.12 140.416 18.2887 140.293 18.442C139.772 18.9327 139.358 19.4847 139.051 20.098C138.745 20.6807 138.423 21.2787 138.085 21.892C138.085 22.168 137.978 22.398 137.763 22.582C137.549 22.7353 137.426 22.9653 137.395 23.272C137.395 23.4867 137.365 23.7013 137.303 23.916C137.242 24.1307 137.181 24.3607 137.119 24.606C136.905 25.0967 136.813 25.572 136.843 26.032C136.874 26.492 136.889 26.9673 136.889 27.458C137.135 27.5807 137.349 27.6573 137.533 27.688C137.717 27.688 137.963 27.5347 138.269 27.228C138.883 26.7067 139.312 26.2467 139.557 25.848C139.833 25.4493 140.048 25.0507 140.201 24.652C140.355 24.2533 140.569 23.7933 140.845 23.272C141.152 22.7507 141.413 22.0913 141.627 21.294C141.842 20.4967 141.995 19.7453 142.087 19.04C142.179 18.304 142.179 17.8133 142.087 17.568C142.057 17.4147 142.072 17.2307 142.133 17.016C142.195 16.8013 142.103 16.5867 141.857 16.372C141.98 16.2493 142.041 16.0193 142.041 15.682C142.041 15.3447 142.011 14.992 141.949 14.624C141.888 14.256 141.796 13.9953 141.673 13.842C141.612 12.6153 141.566 11.588 141.535 10.76C141.535 9.90133 141.551 9.16533 141.581 8.552C141.643 7.908 141.719 7.31 141.811 6.758C141.842 6.666 142.026 6.35933 142.363 5.838C142.731 5.286 143.069 4.85667 143.375 4.55C143.897 4.09 144.602 3.73733 145.491 3.492C146.411 3.216 147.193 3.10866 147.837 3.17C147.807 3.20067 147.991 3.216 148.389 3.216C148.819 3.216 149.294 3.20067 149.815 3.17C150.337 3.13933 150.72 3.10867 150.965 3.078C151.211 3.01667 151.456 2.95533 151.701 2.894C151.947 2.83267 152.361 2.63333 152.943 2.296C153.189 2.14267 153.388 2.09667 153.541 2.158L154.783 3.216C154.753 4.07467 154.538 4.71867 154.139 5.148C153.741 5.54667 152.974 5.80733 151.839 5.93C151.655 5.93 151.456 5.93 151.241 5.93C151.027 5.89933 150.812 5.91467 150.597 5.976C150.413 6.03733 150.245 6.03733 150.091 5.976C149.969 5.91467 149.785 5.884 149.539 5.884C149.202 5.884 148.849 5.93 148.481 6.022C148.113 6.08333 147.73 6.068 147.331 5.976C146.227 6.28267 145.369 6.69667 144.755 7.218C144.142 7.73933 143.835 8.598 143.835 9.794C143.958 10.9287 144.111 11.9407 144.295 12.83C144.51 13.7193 144.617 14.7007 144.617 15.774C144.679 16.05 144.755 16.28 144.847 16.464C144.939 16.648 144.893 16.8473 144.709 17.062C144.863 17.7673 144.939 18.4573 144.939 19.132C144.939 19.776 144.847 20.2667 144.663 20.604C144.602 20.8187 144.556 21.2173 144.525 21.8C144.525 22.352 144.372 22.9347 144.065 23.548C143.36 24.9893 142.639 26.2773 141.903 27.412C141.167 28.516 140.232 29.4513 139.097 30.218C138.883 30.3407 138.622 30.4327 138.315 30.494C138.039 30.5553 137.687 30.6473 137.257 30.77ZM148.786 29.528C148.54 29.2827 148.356 28.976 148.234 28.608C148.142 28.24 148.111 27.872 148.142 27.504C148.172 27.136 148.249 26.8293 148.372 26.584C148.372 26.3387 148.402 26.1547 148.464 26.032C148.556 25.8787 148.586 25.7407 148.556 25.618C148.525 25.4953 148.556 25.2807 148.648 24.974C148.74 24.6673 148.832 24.376 148.924 24.1C149.138 23.6093 149.368 23.0267 149.614 22.352C149.859 21.6467 150.089 20.9567 150.304 20.282C150.518 19.6073 150.702 19.0247 150.856 18.534C151.009 18.0433 151.101 17.7367 151.132 17.614C151.132 17.246 151.377 17.0467 151.868 17.016C152.236 16.8933 152.512 16.8933 152.696 17.016C152.88 17.108 153.125 17.3993 153.432 17.89C153.677 18.1353 153.769 18.5033 153.708 18.994C153.646 19.4847 153.447 20.098 153.11 20.834C152.987 21.0793 152.834 21.432 152.65 21.892C152.496 22.352 152.389 22.766 152.328 23.134C152.205 23.3793 152.052 23.732 151.868 24.192C151.714 24.6213 151.576 25.0353 151.454 25.434C151.392 25.5873 151.331 25.8173 151.27 26.124C151.208 26.4 151.132 26.7067 151.04 27.044C150.948 27.3507 150.825 27.6267 150.672 27.872C150.396 29.1293 150.135 29.8653 149.89 30.08C149.675 30.2947 149.307 30.1107 148.786 29.528ZM153.248 10.852C153.094 10.6987 152.956 10.484 152.834 10.208C152.711 9.90133 152.634 9.62533 152.604 9.38C152.573 9.104 152.604 8.966 152.696 8.966C152.941 8.93533 153.232 8.67467 153.57 8.184C153.907 7.69333 154.045 7.264 153.984 6.896C153.984 6.77333 154.03 6.666 154.122 6.574C154.214 6.45133 154.321 6.37467 154.444 6.344C154.812 6.09867 155.164 6.068 155.502 6.252C155.87 6.40533 156.207 6.72733 156.514 7.218C156.79 7.80067 156.866 8.29133 156.744 8.69C156.621 9.058 156.284 9.57933 155.732 10.254C155.272 10.8673 154.842 11.2047 154.444 11.266C154.076 11.3273 153.677 11.1893 153.248 10.852ZM152.352 44.754C151.677 44.754 151.033 44.6313 150.42 44.386C149.776 44.1407 149.178 43.742 148.626 43.19C148.35 42.5153 148.15 42.0707 148.028 41.856C147.874 41.672 147.598 41.396 147.2 41.028C147.2 40.8747 147.261 40.5833 147.384 40.154C147.506 39.7553 147.69 39.4027 147.936 39.096C148.58 38.3293 149.362 37.6393 150.282 37.026C151.202 36.4433 152.275 35.9373 153.502 35.508C153.655 35.4467 153.808 35.37 153.962 35.278C154.146 35.2167 154.314 35.186 154.468 35.186C154.621 35.186 154.713 35.094 154.744 34.91C154.805 34.726 154.943 34.7107 155.158 34.864C155.311 34.8027 155.434 34.726 155.526 34.634C155.618 34.542 155.771 34.5267 155.986 34.588C155.986 34.588 156.154 34.542 156.492 34.45C156.86 34.358 157.274 34.2353 157.734 34.082C158.194 33.9593 158.592 33.8367 158.93 33.714C159.298 33.622 159.482 33.576 159.482 33.576C159.543 32.748 159.558 31.8893 159.528 31C159.528 30.1107 159.282 29.4513 158.792 29.022C158.485 28.6847 158.24 28.3013 158.056 27.872C157.902 27.4427 157.703 26.9827 157.458 26.492C157.519 26.216 157.626 25.986 157.78 25.802C157.933 25.618 158.148 25.4647 158.424 25.342C159.006 25.066 159.712 24.6367 160.54 24.054C161.398 23.4407 162.272 22.72 163.162 21.892C164.051 21.064 164.833 20.1747 165.508 19.224C165.937 18.6107 166.09 18.028 165.968 17.476C165.876 16.924 165.339 16.5867 164.358 16.464C163.744 16.464 163.054 16.6787 162.288 17.108C161.521 17.5067 160.724 18.0587 159.896 18.764C159.405 18.948 159.052 18.902 158.838 18.626C158.623 18.3193 158.454 17.982 158.332 17.614C158.393 17.2767 158.516 16.9853 158.7 16.74C158.884 16.464 159.083 16.2033 159.298 15.958C159.543 15.7127 159.758 15.452 159.942 15.176C160.187 15.0533 160.402 14.9307 160.586 14.808C160.77 14.6547 160.969 14.5167 161.184 14.394C161.368 14.2713 161.552 14.1793 161.736 14.118C161.95 14.026 162.165 13.98 162.38 13.98C162.564 13.98 162.748 13.9493 162.932 13.888C163.116 13.796 163.315 13.75 163.53 13.75C164.971 13.8113 166.106 14.3633 166.934 15.406C167.762 16.4487 168.13 17.476 168.038 18.488C167.976 19.5 167.455 20.8187 166.474 22.444C166.198 22.904 165.738 23.3947 165.094 23.916C164.48 24.4373 163.821 24.9433 163.116 25.434C162.441 25.9247 161.843 26.354 161.322 26.722C160.8 27.0593 160.494 27.274 160.402 27.366C160.678 27.7033 160.969 28.2707 161.276 29.068C161.582 29.8347 161.828 30.6167 162.012 31.414C162.226 32.242 162.257 32.886 162.104 33.346C162.41 33.4073 162.794 33.3767 163.254 33.254C163.744 33.162 164.128 33.116 164.404 33.116C164.68 33.392 164.956 33.6527 165.232 33.898C165.508 34.1433 165.646 34.404 165.646 34.68C165.707 34.864 165.661 35.0327 165.508 35.186C165.385 35.3393 165.247 35.4313 165.094 35.462C164.695 35.5233 164.189 35.5387 163.576 35.508C162.962 35.4773 162.364 35.5847 161.782 35.83C161.352 36.474 160.984 37.1793 160.678 37.946C160.371 38.7433 159.972 39.556 159.482 40.384C158.991 41.2427 158.224 42.1167 157.182 43.006C156.814 43.3127 156.43 43.5887 156.032 43.834C155.633 44.11 155.311 44.248 155.066 44.248C154.575 44.4013 154.1 44.524 153.64 44.616C153.21 44.708 152.781 44.754 152.352 44.754ZM150.374 42.408C150.374 42.4693 150.604 42.4847 151.064 42.454C151.493 42.454 152.014 42.3773 152.628 42.224C153.272 42.1013 153.839 41.902 154.33 41.626C154.943 41.258 155.464 40.8133 155.894 40.292C156.323 39.8013 156.737 39.2647 157.136 38.682C157.289 38.4367 157.442 38.1607 157.596 37.854C157.749 37.578 157.872 37.2867 157.964 36.98C157.749 36.7347 157.396 36.75 156.906 37.026C156.415 37.302 155.832 37.5627 155.158 37.808C154.452 38.0533 153.594 38.4213 152.582 38.912C151.6 39.4333 150.849 40.0007 150.328 40.614C150.174 40.8287 150.006 41.028 149.822 41.212C149.638 41.396 149.438 41.5647 149.224 41.718C149.377 41.9327 149.546 42.1013 149.73 42.224C149.914 42.3467 150.128 42.408 150.374 42.408ZM180.662 30.494C180.478 30.4327 180.294 30.3867 180.11 30.356C179.926 30.2947 179.742 30.2333 179.558 30.172C179.405 30.1107 179.221 30.0647 179.006 30.034C178.699 29.6047 178.577 29.0833 178.638 28.47C178.699 27.826 178.837 27.1667 179.052 26.492C179.297 25.8173 179.527 25.158 179.742 24.514C179.987 23.87 180.125 23.318 180.156 22.858C180.125 22.7353 180.079 22.7047 180.018 22.766C179.957 22.7967 179.926 22.8427 179.926 22.904C179.711 23.1493 179.405 23.318 179.006 23.41C178.607 23.502 178.239 23.5787 177.902 23.64C177.319 23.732 176.737 23.8393 176.154 23.962C175.571 24.0847 175.004 24.2227 174.452 24.376C174.36 24.3147 174.253 24.238 174.13 24.146C174.038 24.054 173.946 23.9773 173.854 23.916C173.639 23.916 173.455 24.1153 173.302 24.514C173.149 24.9127 173.011 25.4033 172.888 25.986C172.765 26.538 172.643 27.0747 172.52 27.596C172.428 28.0867 172.336 28.4393 172.244 28.654C171.753 28.7153 171.401 28.7307 171.186 28.7C171.002 28.6693 170.649 28.5773 170.128 28.424C169.883 28.0867 169.745 27.7647 169.714 27.458C169.714 27.1513 169.76 26.814 169.852 26.446C170.005 25.7407 170.128 25.1733 170.22 24.744C170.343 24.3147 170.542 23.7627 170.818 23.088C170.971 22.7507 171.109 22.4287 171.232 22.122C171.385 21.7847 171.462 21.4167 171.462 21.018C171.707 20.7113 171.876 20.374 171.968 20.006C172.06 19.638 172.167 19.27 172.29 18.902C172.781 17.6447 173.164 16.6787 173.44 16.004C173.747 15.2987 173.961 14.7467 174.084 14.348C174.207 13.9493 174.283 13.5813 174.314 13.244C174.345 12.8147 174.605 12.6 175.096 12.6C175.403 12.6 175.725 12.7227 176.062 12.968C176.399 13.1827 176.66 13.4587 176.844 13.796C177.028 14.1333 177.043 14.486 176.89 14.854C176.798 15.0993 176.645 15.498 176.43 16.05C176.246 16.5713 176.031 17.154 175.786 17.798C175.571 18.4113 175.357 18.994 175.142 19.546C174.958 20.0673 174.805 20.4507 174.682 20.696C174.651 20.8187 174.59 20.926 174.498 21.018C174.406 21.0793 174.36 21.1867 174.36 21.34C174.575 21.4933 174.927 21.5547 175.418 21.524C175.939 21.4627 176.307 21.3707 176.522 21.248C176.982 21.248 177.427 21.248 177.856 21.248C178.316 21.248 178.776 21.248 179.236 21.248C179.696 21.524 180.049 21.938 180.294 22.49C180.509 21.9073 180.8 21.1407 181.168 20.19C181.536 19.2087 181.889 18.2427 182.226 17.292C182.563 16.3413 182.763 15.6207 182.824 15.13C182.885 14.854 183.008 14.6087 183.192 14.394C183.376 14.1793 183.575 14.0107 183.79 13.888C184.219 14.1027 184.633 14.2867 185.032 14.44C185.461 14.5627 185.737 14.9153 185.86 15.498C185.829 15.774 185.768 16.05 185.676 16.326C185.584 16.5713 185.492 16.8167 185.4 17.062C185.093 17.9513 184.71 18.9327 184.25 20.006C183.79 21.0487 183.361 22.122 182.962 23.226C182.594 24.2993 182.333 25.3113 182.18 26.262C182.18 26.354 182.103 26.6607 181.95 27.182C181.827 27.7033 181.689 28.2093 181.536 28.7C181.413 29.1907 181.337 29.4513 181.306 29.482C181.306 29.6967 181.245 29.896 181.122 30.08C180.999 30.2333 180.846 30.3713 180.662 30.494ZM195.997 29.39C195.353 29.942 194.601 30.264 193.743 30.356C192.915 30.448 192.102 30.3253 191.305 29.988C190.507 29.62 189.848 29.068 189.327 28.332C188.805 27.6573 188.468 26.8907 188.315 26.032C188.161 25.1427 188.146 23.9927 188.269 22.582C188.361 21.386 188.744 20.19 189.419 18.994C190.093 17.7673 190.906 16.6787 191.857 15.728C192.838 14.7773 193.804 14.118 194.755 13.75C195.215 13.4433 195.598 13.3053 195.905 13.336C196.242 13.336 196.748 13.3667 197.423 13.428C198.128 13.52 198.649 13.658 198.987 13.842C199.355 14.026 199.646 14.2713 199.861 14.578C200.321 15.038 200.627 15.498 200.781 15.958C200.934 16.3873 201.011 16.8167 201.011 17.246C200.888 17.9207 200.428 18.7487 199.631 19.73C198.864 20.6807 197.852 21.4627 196.595 22.076C195.92 22.2907 195.184 22.3827 194.387 22.352C193.589 22.3213 192.93 22.122 192.409 21.754C191.826 21.5087 191.443 21.5547 191.259 21.892C191.075 22.1987 190.906 22.9653 190.753 24.192C190.63 25.3573 190.722 26.216 191.029 26.768C191.335 27.2893 191.749 27.596 192.271 27.688C192.884 27.8107 193.359 27.9027 193.697 27.964C194.065 27.9947 194.509 27.8567 195.031 27.55C195.521 27.2433 195.828 27.0747 195.951 27.044C196.073 26.9827 196.165 26.9213 196.227 26.86C196.319 26.768 196.518 26.5687 196.825 26.262C197.039 26.0473 197.208 25.894 197.331 25.802C197.453 25.6793 197.591 25.618 197.745 25.618C197.898 25.618 198.036 25.6947 198.159 25.848C198.281 25.9707 198.404 26.0627 198.527 26.124C198.833 26.124 198.895 26.308 198.711 26.676C198.557 27.044 198.235 27.4887 197.745 28.01C197.254 28.5007 196.671 28.9607 195.997 29.39ZM195.951 19.638C196.288 19.4847 196.641 19.27 197.009 18.994C197.377 18.6873 197.683 18.3653 197.929 18.028C198.205 17.66 198.343 17.3533 198.343 17.108C198.343 16.6787 198.143 16.326 197.745 16.05C197.346 15.7433 196.748 15.6973 195.951 15.912C195.613 16.004 195.23 16.234 194.801 16.602C194.371 16.9393 193.957 17.3227 193.559 17.752C193.191 18.1813 192.884 18.5647 192.639 18.902C192.424 19.2393 192.347 19.4387 192.409 19.5C192.501 19.6533 192.761 19.776 193.191 19.868C193.62 19.9293 194.095 19.9447 194.617 19.914C195.169 19.8833 195.613 19.7913 195.951 19.638ZM209.484 29.804C209.085 29.988 208.625 30.0647 208.104 30.034C207.582 30.0033 206.877 29.8347 205.988 29.528C205.926 29.528 205.788 29.4667 205.574 29.344C205.39 29.2213 205.19 29.068 204.976 28.884C204.792 28.6693 204.638 28.4393 204.516 28.194C204.025 27.4887 203.826 26.446 203.918 25.066C204.01 23.686 204.439 22.03 205.206 20.098C205.42 19.638 205.742 19.0553 206.172 18.35C206.632 17.6447 207.076 17.0007 207.506 16.418C207.966 15.8047 208.288 15.452 208.472 15.36C208.472 15.36 208.64 15.2987 208.978 15.176C209.315 15.0533 209.744 14.854 210.266 14.578C210.419 14.5167 210.588 14.4553 210.772 14.394C210.986 14.3327 211.201 14.2867 211.416 14.256C211.63 14.2253 211.814 14.2253 211.968 14.256C212.581 14.2867 213.21 14.5167 213.854 14.946C214.528 15.3447 215.08 15.82 215.51 16.372C215.939 16.8933 216.077 17.3533 215.924 17.752C215.924 17.8133 215.832 17.936 215.648 18.12C215.494 18.2733 215.31 18.442 215.096 18.626C214.912 18.7793 214.758 18.9327 214.636 19.086C214.482 19.27 214.268 19.3467 213.992 19.316C213.746 19.2853 213.516 19.1627 213.302 18.948C213.118 18.7027 213.01 18.396 212.98 18.028C212.918 17.7827 212.688 17.5527 212.29 17.338C211.922 17.1233 211.738 17.016 211.738 17.016C211.492 17.016 211.14 17.246 210.68 17.706C210.25 18.1353 209.821 18.6567 209.392 19.27C208.84 19.822 208.364 20.4813 207.966 21.248C207.567 21.984 207.245 22.6893 207 23.364C206.785 24.008 206.632 24.468 206.54 24.744C206.417 25.0507 206.402 25.48 206.494 26.032C206.586 26.584 206.693 26.9213 206.816 27.044C206.938 27.1053 207.245 27.1207 207.736 27.09C208.257 27.0593 208.87 26.998 209.576 26.906C210.281 26.7833 210.971 26.6453 211.646 26.492C212.32 26.3387 212.872 26.17 213.302 25.986C213.884 25.618 214.39 25.4033 214.82 25.342C215.249 25.2807 215.571 25.2807 215.786 25.342C216.123 25.4647 216.322 25.6333 216.384 25.848C216.445 26.0627 216.368 26.308 216.154 26.584C215.939 26.8293 215.571 27.09 215.05 27.366C214.559 27.6113 214.114 27.8873 213.716 28.194C213.348 28.47 213.164 28.6847 213.164 28.838C213.041 28.838 212.903 28.884 212.75 28.976C212.627 29.0373 212.52 29.0527 212.428 29.022C212.366 29.022 212.121 29.068 211.692 29.16C211.262 29.252 210.818 29.3593 210.358 29.482C209.928 29.6047 209.637 29.712 209.484 29.804ZM229.367 41.304C229.244 41.304 229.091 41.304 228.907 41.304C228.723 41.3347 228.554 41.212 228.401 40.936C228.278 40.7827 228.201 40.5527 228.171 40.246C228.171 39.9393 228.247 39.3873 228.401 38.59C228.554 38.0687 228.677 37.5473 228.769 37.026C228.861 36.5353 228.907 36.1673 228.907 35.922C228.907 35.7993 228.937 35.554 228.999 35.186C229.091 34.8487 229.137 34.6033 229.137 34.45C229.29 34.2047 229.413 33.8673 229.505 33.438C229.597 33.0087 229.643 32.6253 229.643 32.288C229.643 31.92 229.827 31.5827 230.195 31.276C230.195 31.0307 230.241 30.724 230.333 30.356C230.455 29.988 230.517 29.7427 230.517 29.62C230.609 29.1907 230.808 28.4393 231.115 27.366C231.452 26.262 231.851 25.02 232.311 23.64C232.801 22.26 233.277 20.9107 233.737 19.592C234.197 18.2733 234.611 17.154 234.979 16.234C235.347 15.3753 235.592 14.6393 235.715 14.026C235.868 13.382 235.945 12.9067 235.945 12.6C235.945 12.4773 235.975 12.3853 236.037 12.324C236.098 12.232 236.236 12.0633 236.451 11.818C236.757 11.5113 237.018 11.4193 237.233 11.542C237.478 11.6647 237.769 11.8487 238.107 12.094C238.352 12.4927 238.521 12.83 238.613 13.106C238.735 13.382 238.735 13.8573 238.613 14.532C238.613 14.992 238.536 15.3907 238.383 15.728C238.229 16.0653 238.091 16.326 237.969 16.51C237.846 16.6633 237.815 16.7247 237.877 16.694C239.134 16.1113 240.238 15.8047 241.189 15.774C242.17 15.7127 242.983 15.8813 243.627 16.28C244.301 16.648 244.807 17.1693 245.145 17.844C245.482 18.5187 245.651 19.3007 245.651 20.19C245.651 20.558 245.574 21.0027 245.421 21.524C245.267 22.0147 245.068 22.4747 244.823 22.904C244.608 23.3027 244.409 23.594 244.225 23.778C244.102 23.778 243.979 23.8853 243.857 24.1C243.734 24.284 243.611 24.4987 243.489 24.744C243.243 25.0507 242.845 25.4033 242.293 25.802C241.771 26.17 241.25 26.4767 240.729 26.722C240.207 26.9367 239.824 26.998 239.579 26.906C239.579 26.906 239.533 26.9213 239.441 26.952C239.379 26.952 239.349 27.0287 239.349 27.182C239.349 27.2433 239.103 27.3813 238.613 27.596C238.122 27.78 237.555 27.964 236.911 28.148C236.267 28.3013 235.699 28.378 235.209 28.378C234.565 28.378 234.105 28.2553 233.829 28.01C233.767 28.0713 233.691 28.1633 233.599 28.286C233.537 28.4087 233.507 28.516 233.507 28.608C233.507 28.792 233.43 29.1447 233.277 29.666C233.154 30.1567 233.001 30.632 232.817 31.092C232.633 31.552 232.464 31.782 232.311 31.782C232.311 31.782 232.28 31.828 232.219 31.92C232.157 32.012 232.188 32.1347 232.311 32.288C232.311 32.288 232.295 32.4567 232.265 32.794C232.265 33.162 232.188 33.4687 232.035 33.714C232.035 33.9593 231.989 34.3273 231.897 34.818C231.805 35.3087 231.697 35.6767 231.575 35.922C231.575 36.29 231.513 36.6427 231.391 36.98C231.299 37.348 231.191 37.532 231.069 37.532C230.946 37.5627 230.869 37.7467 230.839 38.084C230.808 38.452 230.793 38.7127 230.793 38.866C230.762 39.6327 230.609 40.2307 230.333 40.66C230.057 41.0893 229.735 41.304 229.367 41.304ZM234.933 25.94C235.178 25.94 235.684 25.8327 236.451 25.618C237.217 25.4033 237.999 25.1427 238.797 24.836C239.625 24.4987 240.238 24.1613 240.637 23.824C241.434 23.1187 242.047 22.3213 242.477 21.432C242.937 20.512 242.906 19.638 242.385 18.81C242.139 18.3807 241.695 18.212 241.051 18.304C240.407 18.3653 239.701 18.6107 238.935 19.04C238.168 19.4693 237.447 20.006 236.773 20.65C236.405 21.0487 236.067 21.5393 235.761 22.122C235.454 22.7047 235.193 23.2873 234.979 23.87C234.795 24.4527 234.687 24.9433 234.657 25.342C234.626 25.7407 234.718 25.94 234.933 25.94ZM253.375 29.252C252.731 29.3747 252.317 29.4207 252.133 29.39C251.98 29.3287 251.735 29.1447 251.397 28.838C250.907 28.5927 250.493 28.286 250.155 27.918C249.849 27.55 249.619 27.1667 249.465 26.768C249.343 26.3387 249.297 25.986 249.327 25.71C249.419 24.6367 249.68 23.4867 250.109 22.26C250.539 21.0333 251.06 19.8527 251.673 18.718C252.287 17.5833 252.946 16.6173 253.651 15.82C254.387 14.992 255.093 14.4553 255.767 14.21C256.381 13.9647 256.963 13.8727 257.515 13.934C258.067 13.9953 258.466 14.2867 258.711 14.808C259.171 15.6973 259.064 16.2647 258.389 16.51C258.297 16.51 258.19 16.556 258.067 16.648C257.945 16.7093 257.883 16.8013 257.883 16.924C258.006 16.9853 258.343 17.0007 258.895 16.97C259.447 16.9087 259.999 16.8167 260.551 16.694C261.134 16.5407 261.517 16.3873 261.701 16.234C261.885 16.142 262.023 16.096 262.115 16.096C262.207 16.096 262.437 16.1267 262.805 16.188C263.327 16.3413 263.587 16.5253 263.587 16.74C263.587 16.8627 263.633 16.9853 263.725 17.108C263.817 17.2 263.925 17.246 264.047 17.246C264.262 17.2767 264.231 17.4147 263.955 17.66C263.71 17.9053 263.281 18.2427 262.667 18.672C262.085 19.04 261.717 19.2853 261.563 19.408C261.441 19.5 261.425 19.7147 261.517 20.052C261.763 20.6347 261.778 21.3093 261.563 22.076C261.349 22.8427 260.965 23.6247 260.413 24.422C259.861 25.2193 259.187 25.9707 258.389 26.676C257.623 27.3507 256.795 27.9333 255.905 28.424C255.047 28.884 254.203 29.16 253.375 29.252ZM252.593 27.228C252.716 27.228 252.931 27.1667 253.237 27.044C253.544 26.8907 253.789 26.768 253.973 26.676C254.096 26.5533 254.249 26.4153 254.433 26.262C254.648 26.078 254.817 25.9707 254.939 25.94C255.062 25.94 255.215 25.894 255.399 25.802C255.583 25.6793 255.844 25.4493 256.181 25.112C256.519 24.744 256.963 24.2073 257.515 23.502C258.129 22.8273 258.604 22.214 258.941 21.662C259.279 21.0793 259.371 20.5427 259.217 20.052C259.187 19.9293 259.095 19.8527 258.941 19.822C258.819 19.7913 258.65 19.7147 258.435 19.592C258.129 19.592 257.837 19.5153 257.561 19.362C257.316 19.178 257.025 18.948 256.687 18.672L255.951 17.752L255.169 18.534C254.679 19.0247 254.157 19.7607 253.605 20.742C253.084 21.6927 252.639 22.674 252.271 23.686C251.903 24.6673 251.689 25.4493 251.627 26.032C251.597 26.492 251.673 26.7987 251.857 26.952C252.041 27.1053 252.287 27.1973 252.593 27.228ZM269.592 29.942C268.917 29.942 268.411 29.9113 268.074 29.85C267.737 29.7887 267.476 29.6967 267.292 29.574C267.108 29.4513 266.893 29.2827 266.648 29.068C266.525 28.8227 266.372 28.562 266.188 28.286C266.004 28.01 265.851 27.8107 265.728 27.688C265.605 27.228 265.544 26.63 265.544 25.894C265.575 25.158 265.667 24.3607 265.82 23.502C266.004 22.6433 266.249 21.846 266.556 21.11C266.679 20.8647 266.786 20.6193 266.878 20.374C266.97 20.1287 267.016 20.006 267.016 20.006C267.016 19.8527 267.2 19.4847 267.568 18.902C267.967 18.3193 268.396 17.706 268.856 17.062C269.347 16.418 269.745 15.958 270.052 15.682C270.267 15.4367 270.589 15.176 271.018 14.9C271.478 14.624 271.877 14.4247 272.214 14.302C272.551 14.1793 272.889 14.072 273.226 13.98C273.594 13.888 274.008 13.842 274.468 13.842C274.897 13.842 275.296 13.934 275.664 14.118C276.032 14.302 276.385 14.624 276.722 15.084C277.274 15.636 277.581 16.188 277.642 16.74C277.734 17.2613 277.719 17.798 277.596 18.35C277.443 18.9633 277.243 19.4387 276.998 19.776C276.753 20.0827 276.477 20.2207 276.17 20.19C275.863 20.1593 275.511 19.9293 275.112 19.5C274.989 19.2547 274.928 19.0553 274.928 18.902C274.928 18.718 274.989 18.4573 275.112 18.12C275.235 17.6907 275.235 17.246 275.112 16.786C274.989 16.326 274.79 16.096 274.514 16.096C274.115 16.096 273.671 16.28 273.18 16.648C272.72 16.9853 272.245 17.4147 271.754 17.936C271.539 18.1813 271.233 18.5647 270.834 19.086C270.466 19.5767 270.098 20.1287 269.73 20.742C269.362 21.3247 269.055 21.892 268.81 22.444C268.473 23.456 268.197 24.2687 267.982 24.882C267.798 25.4953 267.706 25.802 267.706 25.802C267.706 25.9247 267.737 26.0473 267.798 26.17C267.89 26.262 267.936 26.3693 267.936 26.492C267.936 26.86 268.151 27.1513 268.58 27.366C268.917 27.5807 269.316 27.7033 269.776 27.734C270.236 27.734 270.803 27.5807 271.478 27.274C271.969 27.0287 272.429 26.7067 272.858 26.308C273.318 25.9093 273.793 25.5567 274.284 25.25C274.621 25.0353 274.882 24.8513 275.066 24.698C275.281 24.5447 275.388 24.5293 275.388 24.652C275.388 24.7747 275.434 24.836 275.526 24.836C275.618 24.836 275.725 24.7747 275.848 24.652C276.032 24.4067 276.231 24.2533 276.446 24.192C276.661 24.1 276.845 24.0693 276.998 24.1C277.182 24.1 277.274 24.146 277.274 24.238C277.213 24.514 277.274 24.744 277.458 24.928C277.458 25.0507 277.412 25.2193 277.32 25.434C277.259 25.618 277.167 25.7713 277.044 25.894C276.891 26.1087 276.661 26.354 276.354 26.63C276.078 26.906 275.817 27.1513 275.572 27.366C275.327 27.55 275.204 27.642 275.204 27.642C275.081 27.6113 274.959 27.642 274.836 27.734C274.744 27.826 274.637 27.9333 274.514 28.056C274.269 28.2707 274.039 28.4393 273.824 28.562C273.609 28.654 273.441 28.7 273.318 28.7C273.103 28.8227 272.935 28.8993 272.812 28.93C272.72 28.9607 272.674 29.0373 272.674 29.16C272.367 29.4667 271.984 29.6813 271.524 29.804C271.095 29.896 270.451 29.942 269.592 29.942ZM283.051 28.746C282.714 28.5313 282.407 28.2553 282.131 27.918C281.855 27.55 281.717 27.09 281.717 26.538C281.717 26.2313 281.778 25.71 281.901 24.974C282.024 24.238 282.192 23.41 282.407 22.49C282.622 21.57 282.836 20.7113 283.051 19.914C283.358 19.362 283.618 18.81 283.833 18.258C284.048 17.706 284.155 17.3687 284.155 17.246C284.216 16.878 284.293 16.4487 284.385 15.958C284.508 15.4673 284.63 15.0227 284.753 14.624C284.876 14.2253 284.968 13.9953 285.029 13.934C285.182 13.7807 285.366 13.6887 285.581 13.658C285.796 13.5967 286.01 13.6273 286.225 13.75C286.47 13.842 286.654 14.0413 286.777 14.348C287.114 14.716 287.283 15.1607 287.283 15.682C287.283 16.1727 287.114 16.9087 286.777 17.89C286.501 18.5033 286.225 19.224 285.949 20.052C285.673 20.88 285.428 21.6467 285.213 22.352C285.029 23.0267 284.922 23.4867 284.891 23.732L283.971 24.008C284.492 23.5173 284.983 23.0113 285.443 22.49C285.903 21.938 286.24 21.5087 286.455 21.202C286.976 20.4967 287.421 19.914 287.789 19.454C288.188 18.9633 288.694 18.3807 289.307 17.706C289.92 17.0007 290.518 16.5713 291.101 16.418C291.714 16.234 292.19 16.142 292.527 16.142C293.202 16.2647 293.738 16.6173 294.137 17.2C294.566 17.752 294.842 18.58 294.965 19.684C294.965 20.1133 294.919 20.6193 294.827 21.202C294.766 21.7847 294.735 22.076 294.735 22.076C294.735 22.076 294.98 21.754 295.471 21.11C295.992 20.466 296.682 19.7607 297.541 18.994C298.124 18.5647 298.691 18.3193 299.243 18.258C299.795 18.166 300.286 18.35 300.715 18.81C301.512 19.2393 302.034 19.8987 302.279 20.788C302.524 21.6467 302.586 22.7507 302.463 24.1C302.371 24.8973 302.356 25.4953 302.417 25.894C302.478 26.262 302.57 26.63 302.693 26.998C302.938 27.1207 302.984 27.3813 302.831 27.78C302.678 28.148 302.494 28.332 302.279 28.332C301.972 28.332 301.62 28.2707 301.221 28.148C300.853 28.0253 300.516 27.826 300.209 27.55C299.933 27.2433 299.795 26.8293 299.795 26.308V23.456C299.795 22.7813 299.764 22.2293 299.703 21.8C299.672 21.3707 299.596 21.11 299.473 21.018C299.136 20.834 298.645 21.0333 298.001 21.616C297.357 22.1987 296.667 22.9807 295.931 23.962C295.195 24.9433 294.505 25.9553 293.861 26.998C293.278 27.9487 292.91 28.5007 292.757 28.654C292.634 28.7767 292.404 28.7307 292.067 28.516C291.392 28.3013 290.963 28.01 290.779 27.642C290.626 27.2433 290.61 26.7987 290.733 26.308C290.886 25.7867 291.07 25.0813 291.285 24.192C291.53 23.3027 291.76 22.444 291.975 21.616C292.19 20.7573 292.328 20.144 292.389 19.776C292.266 19.5307 292.052 19.454 291.745 19.546C291.469 19.6073 291.178 19.7453 290.871 19.96C290.503 20.2053 290.058 20.6653 289.537 21.34C289.016 22.0147 288.479 22.7967 287.927 23.686C287.559 24.2687 287.176 24.8513 286.777 25.434C286.378 25.986 286.01 26.4767 285.673 26.906C285.336 27.3353 285.044 27.6573 284.799 27.872C284.37 28.5467 284.078 28.9147 283.925 28.976C283.772 29.0373 283.48 28.9607 283.051 28.746ZM309.849 29.896C308.653 29.4053 307.871 28.7307 307.503 27.872C307.166 26.9827 307.105 25.618 307.319 23.778C307.381 22.8273 307.411 22.1987 307.411 21.892C307.411 21.5853 307.243 21.2787 306.905 20.972C306.813 20.8493 306.645 20.6807 306.399 20.466C306.185 20.2513 306.093 20.0673 306.123 19.914C306.093 19.6993 306.108 19.4693 306.169 19.224C306.231 18.948 306.323 18.81 306.445 18.81C306.568 18.81 306.691 18.7793 306.813 18.718C306.967 18.6567 307.105 18.6567 307.227 18.718C307.35 18.718 307.488 18.7333 307.641 18.764C307.795 18.7947 307.871 18.8713 307.871 18.994C307.994 19.2087 308.193 19.2393 308.469 19.086C308.745 18.902 309.037 18.5033 309.343 17.89C309.65 17.3993 310.049 16.9087 310.539 16.418C311.061 15.9273 311.567 15.4827 312.057 15.084C312.579 14.6547 313.008 14.348 313.345 14.164C313.499 14.1027 313.729 14.026 314.035 13.934C314.342 13.842 314.664 13.7653 315.001 13.704C315.369 13.6427 315.676 13.6273 315.921 13.658C316.473 13.6887 316.933 13.842 317.301 14.118C317.7 14.394 318.068 14.716 318.405 15.084C318.804 15.36 319.049 15.728 319.141 16.188C319.264 16.648 319.295 17.1387 319.233 17.66C319.172 18.1813 319.034 18.6567 318.819 19.086C318.727 19.3927 318.467 19.7607 318.037 20.19C317.608 20.6193 317.117 21.0333 316.565 21.432C316.013 21.8307 315.507 22.122 315.047 22.306C314.649 22.398 314.127 22.4747 313.483 22.536C312.87 22.5973 312.287 22.628 311.735 22.628C311.214 22.5973 310.861 22.536 310.677 22.444C310.463 22.3213 310.294 22.49 310.171 22.95C310.049 23.41 309.957 24.0693 309.895 24.928C309.834 25.6027 309.834 26.0933 309.895 26.4C309.957 26.7067 310.018 26.9213 310.079 27.044C310.294 27.2587 310.585 27.5347 310.953 27.872C311.352 28.1787 311.904 28.2247 312.609 28.01C313.192 27.8567 313.759 27.458 314.311 26.814C314.894 26.17 315.431 25.6487 315.921 25.25C316.044 25.0353 316.243 24.9127 316.519 24.882C316.826 24.8207 317.148 24.836 317.485 24.928C317.823 25.1427 317.961 25.4033 317.899 25.71C317.869 25.986 317.715 26.4153 317.439 26.998C317.347 27.2127 317.133 27.4887 316.795 27.826C316.489 28.1327 316.136 28.4547 315.737 28.792C315.369 29.0987 315.032 29.344 314.725 29.528C313.805 30.0187 312.947 30.2793 312.149 30.31C311.352 30.31 310.585 30.172 309.849 29.896ZM312.563 20.558C313.238 20.4047 313.775 20.2973 314.173 20.236C314.572 20.1747 314.955 20.006 315.323 19.73C315.691 19.4233 316.151 18.856 316.703 18.028C316.826 17.6907 316.857 17.3533 316.795 17.016C316.765 16.6787 316.688 16.4487 316.565 16.326C316.289 16.0193 315.952 15.9273 315.553 16.05C315.185 16.142 314.833 16.3107 314.495 16.556C314.281 16.648 313.959 16.878 313.529 17.246C313.131 17.5833 312.732 17.982 312.333 18.442C311.935 18.8713 311.613 19.27 311.367 19.638C311.122 20.006 311.061 20.2207 311.183 20.282C311.122 20.4047 311.291 20.4813 311.689 20.512C312.119 20.5427 312.41 20.558 312.563 20.558Z" fill="white"/>
</svg>
