<svg width="96" height="99" viewBox="0 0 96 99" fill="none" xmlns="http://www.w3.org/2000/svg">
<g clip-path="url(#clip0_5534_7991)">
<path d="M61.4977 74.2305L58.793 71.9609L61.0625 69.2562L63.7673 71.5257L61.4977 74.2305Z" fill="black"/>
<path d="M46.1361 70.5606L43.4313 68.2911L40.7266 66.0215L42.9961 63.3167L45.2657 60.6119L47.5353 57.9072L49.8049 55.2024L52.5096 57.472L50.2401 60.1767L47.9705 62.8815L45.7009 65.5863L48.4057 67.8559L51.1105 70.1254L48.8409 72.8302L46.1361 70.5606Z" fill="black"/>
<path d="M53.8141 72.3965L51.1094 70.127L53.3789 67.4222L55.6485 64.7174L57.9181 62.0126L60.1877 59.3079L62.8924 61.5774L60.6229 64.2822L58.3533 66.987L56.0837 69.6918L58.7885 71.9613L56.5189 74.6661L53.8141 72.3965Z" fill="black"/>
<path d="M25.8978 39.752L23.1931 37.4825L20.4883 35.2129L22.7579 32.5081L25.0274 29.8033L27.297 27.0986L30.0018 29.3681L27.7322 32.0729L25.4626 34.7777L28.1674 37.0473L30.8722 39.3168L28.6026 42.0216L25.8978 39.752Z" fill="black"/>
<path d="M32.7048 31.6387L30 29.3691L32.2696 26.6644L34.9743 28.9339L32.7048 31.6387Z" fill="black"/>
<path d="M34.9766 28.9336L37.2461 26.2288L39.5157 23.524L42.2205 25.7936L39.9509 28.4984L37.6813 31.2032L34.9766 28.9336Z" fill="black"/>
<path d="M63.7656 71.5273L66.0352 68.8226L68.3048 66.1178L70.5743 63.413L72.8439 60.7082L75.1135 58.0035L77.3831 55.2987L79.6526 52.5939L82.3574 54.8635L80.0878 57.5683L77.8183 60.2731L75.5487 62.9778L73.2791 65.6826L71.0095 68.3874L68.74 71.0921L66.4704 73.7969L63.7656 71.5273Z" fill="black"/>
<path d="M42.2188 25.793L44.4883 23.0882L46.7579 20.3834L49.4627 22.653L47.1931 25.3578L44.9235 28.0625L42.2188 25.793Z" fill="black"/>
<path d="M49.4648 22.6523L51.7344 19.9476L54.004 17.2428L56.7088 19.5124L54.4392 22.2171L52.1696 24.9219L49.4648 22.6523Z" fill="black"/>
<path d="M76.9492 50.3242L79.2188 47.6194L81.4884 44.9147L83.7579 42.2099L86.4627 44.4795L84.1931 47.1842L81.9236 49.889L79.654 52.5938L76.9492 50.3242Z" fill="black"/>
<path d="M35.7535 66.4583L33.0487 64.1888L30.7791 66.8935L28.5095 69.5983L26.24 72.3031L23.9704 75.0079L21.2656 72.7383L23.5352 70.0335L25.8048 67.3287L28.0743 64.624L30.3439 61.9192L32.6135 59.2144L34.8831 56.5096L37.1526 53.8049L39.4222 51.1001L41.6918 48.3953L44.3966 50.6649L42.127 53.3697L39.8574 56.0744L37.5878 58.7792L35.3183 61.484L38.023 63.7536L40.7278 66.0231L38.4582 68.7279L35.7535 66.4583Z" fill="black"/>
<path d="M13.154 65.9297L15.4236 63.225L17.6931 60.5202L19.9627 57.8154L22.2323 55.1106L24.5019 52.4059L26.7714 49.7011L29.041 46.9963L31.3106 44.2915L33.5802 41.5868L30.8754 39.3172L33.145 36.6124L35.8497 38.882L38.1193 36.1772L40.8241 38.4468L38.5545 41.1516L36.2849 43.8563L34.0154 46.5611L31.7458 49.2659L29.4762 51.9707L27.2066 54.6754L24.9371 57.3802L22.6675 60.085L20.3979 62.7898L18.1283 65.4945L15.8588 68.1993L13.154 65.9297Z" fill="black"/>
<path d="M16.2907 73.1739L13.5859 70.9043L15.8555 68.1995L18.5603 70.4691L21.2651 72.7387L18.9955 75.4434L16.2907 73.1739Z" fill="black"/>
<path d="M81.05 39.9398L83.3196 37.2351L85.5891 34.5303L82.8844 32.2607L80.1796 29.9911L77.4748 27.7216L74.77 25.452L72.0653 23.1824L69.3605 20.9128L66.6557 18.6433L63.951 16.3737L61.6814 19.0785L59.4118 21.7832L56.707 19.5137L58.9766 16.8089L61.2462 14.1041L63.5158 11.3994L66.2205 13.6689L68.9253 15.9385L71.6301 18.2081L74.3348 20.4776L77.0396 22.7472L79.7444 25.0168L82.4492 27.2864L85.1539 29.5559L87.8587 31.8255L90.5635 34.0951L88.2939 36.7999L86.0243 39.5046L83.7548 42.2094L81.05 39.9398Z" fill="black"/>
<path d="M61.0625 69.2569L58.7929 71.9617L56.0881 69.6921L58.3577 66.9874L60.6273 64.2826L62.8969 61.5778L60.1921 59.3083L57.9225 62.013L55.6529 64.7178L53.3834 67.4226L51.1138 70.1273L48.409 67.8578L45.7042 65.5882L47.9738 62.8834L50.2434 60.1786L52.513 57.4739L49.8082 55.2043L47.5386 57.9091L45.269 60.6138L42.9995 63.3186L40.7299 66.0234L38.0251 63.7538L35.3203 61.4842L37.5899 58.7795L39.8595 56.0747L42.1291 53.3699L44.3986 50.6652L41.6939 48.3956L39.4243 51.1004L37.1547 53.8051L34.8852 56.5099L32.6156 59.2147L30.346 61.9194L28.0764 64.6242L25.8069 67.329L23.5373 70.0338L21.2677 72.7385L18.5629 70.469L15.8582 68.1994L18.1277 65.4946L20.3973 62.7898L22.6669 60.0851L24.9365 57.3803L27.206 54.6755L29.4756 51.9707L31.7452 49.266L34.0148 46.5612L36.2843 43.8564L38.5539 41.1517L40.8235 38.4469L38.1187 36.1773L35.8491 38.8821L33.1444 36.6125L30.8748 39.3173L28.17 37.0477L25.4652 34.7781L27.7348 32.0734L30.0044 29.3686L32.7092 31.6382L34.9787 28.9334L37.6835 31.203L39.9531 28.4982L42.2227 25.7934L44.9274 28.063L47.197 25.3582L49.4666 22.6534L52.1713 24.923L54.4409 22.2182L56.7105 19.5135L59.4153 21.783L61.6848 19.0783L63.9544 16.3735L66.6592 18.6431L69.364 20.9126L72.0687 23.1822L74.7735 25.4518L77.4783 27.7214L80.1831 29.9909L82.8878 32.2605L85.5926 34.5301L83.323 37.2349L81.0535 39.9396L83.7582 42.2092L81.4887 44.914L79.2191 47.6188L76.9495 50.3235L79.6543 52.5931L77.3847 55.2979L75.1151 58.0027L72.8456 60.7074L70.576 63.4122L68.3064 66.117L66.0368 68.8217L63.7673 71.5265L61.0625 69.2569Z" fill="#ff6400"/>
</g>
<defs>
<clipPath id="clip0_5534_7991">
<rect width="60.025" height="77.6783" fill="#ff6400" transform="matrix(0.766044 0.642788 0.642788 -0.766044 0.0625 59.5566)"/>
</clipPath>
</defs>
</svg>
