<svg width="167" height="88" viewBox="0 0 167 88" fill="none" xmlns="http://www.w3.org/2000/svg">
<path d="M9.31346 34.1107C9.05763 34.1107 8.76981 33.9028 8.45001 33.4871C8.13021 33.0713 7.98631 32.6716 8.01829 32.2878C8.05027 31.7761 8.19417 31.0406 8.45001 30.0812C8.70585 29.1218 8.99367 28.1464 9.31346 27.1551C9.63326 26.1637 9.92108 25.3802 10.1769 24.8046C10.3048 24.2929 10.4168 23.8452 10.5127 23.4614C10.6406 23.0457 10.7206 22.7738 10.7526 22.6459C10.8485 22.518 10.9924 22.1822 11.1843 21.6386C11.4081 21.0949 11.584 20.5672 11.7119 20.0556C11.7759 19.7997 11.9038 19.32 12.0957 18.6165C12.3196 17.8809 12.5754 17.0335 12.8632 16.0741C13.183 15.1147 13.4868 14.1713 13.7746 13.2439C14.0944 12.3165 14.3663 11.501 14.5901 10.7974C14.814 10.0939 14.9579 9.63018 15.0218 9.40632C15.2777 9.02256 15.4696 8.65479 15.5975 8.30302C15.7254 7.95124 15.8054 7.71139 15.8373 7.58347C16.0292 7.45555 16.1411 7.29565 16.1731 7.10377C16.2051 6.87992 16.2211 6.70403 16.2211 6.57611C16.2211 6.41621 16.2691 6.28829 16.365 6.19235C16.4929 6.09641 16.5569 5.98449 16.5569 5.85657C16.6848 5.76063 16.7647 5.61672 16.7967 5.42484C16.8287 5.20098 16.9246 5.0091 17.0845 4.8492L17.3244 4.03372L20.1546 3.98575C20.0906 4.36951 19.9947 4.8492 19.8668 5.42484C19.7389 5.9685 19.4351 6.70403 18.9554 7.63144C18.7955 8.27104 18.6036 8.84667 18.3797 9.35835C18.1878 9.87002 18.1079 10.2058 18.1399 10.3657C18.0759 10.4297 17.932 10.7495 17.7081 11.3251C17.5163 11.9007 17.2764 12.6043 16.9886 13.4358C16.7328 14.2672 16.4609 15.0987 16.1731 15.9302C15.9173 16.7617 15.6774 17.4972 15.4536 18.1368C15.2617 18.7444 15.1338 19.1282 15.0698 19.2881C14.814 19.7997 14.5262 20.5513 14.2064 21.5426C13.8866 22.534 13.4069 23.8771 12.7673 25.5721C12.5114 26.0837 12.1916 26.8513 11.8079 27.8746C11.4561 28.898 11.1683 29.8254 10.9444 30.6569C10.5927 31.9041 10.3368 32.7675 10.1769 33.2472C10.049 33.7589 9.93707 34.0307 9.84113 34.0627C9.74519 34.1267 9.5693 34.1426 9.31346 34.1107ZM9.69722 5.52078C8.80179 5.55276 8.13021 5.50479 7.6825 5.37687C7.26676 5.24895 7.12285 4.92915 7.25077 4.41748C7.34671 4.03372 7.55458 3.7459 7.87438 3.55402C8.19417 3.36215 8.65788 3.21824 9.2655 3.1223C9.61727 3.05834 10.065 2.97839 10.6086 2.88245C11.1843 2.78651 11.7279 2.69057 12.2396 2.59463C13.2949 2.46671 14.1584 2.35479 14.83 2.25885C15.5335 2.16291 16.2531 2.08296 16.9886 2.019C17.7241 1.95504 18.6515 1.89108 19.7708 1.82712C20.6983 1.76316 21.4818 1.71519 22.1213 1.68321C22.7929 1.61925 23.1287 1.58727 23.1287 1.58727C23.2247 1.58727 23.5604 1.61925 24.1361 1.68321C24.7117 1.74717 25.3353 1.82712 26.0069 1.92306C26.6785 2.019 27.1741 2.13093 27.4939 2.25885C28.2295 2.41875 28.7571 2.6426 29.0769 2.93042C29.4287 3.21824 29.6686 3.63398 29.7965 4.17763C29.8924 4.56139 29.8924 4.80124 29.7965 4.89718C29.7005 4.96113 29.5247 5.05707 29.2688 5.18499C28.5333 5.40885 27.9896 5.52078 27.6379 5.52078C27.2861 5.52078 26.8863 5.44083 26.4386 5.28093C26.2787 5.12103 26.0868 4.97712 25.863 4.8492C25.6711 4.72128 25.3193 4.62535 24.8076 4.56139C24.3279 4.46545 23.5604 4.3855 22.5051 4.32154C21.6097 4.41748 20.8262 4.46545 20.1546 4.46545C19.483 4.46545 19.1472 4.5454 19.1472 4.7053L16.317 4.8492L13.9665 5.08905C13.6467 5.12103 13.199 5.169 12.6234 5.23296C12.0477 5.26494 11.4881 5.31291 10.9444 5.37687C10.4008 5.40885 9.98504 5.45682 9.69722 5.52078ZM29.0039 31.8561C28.5242 31.8561 27.9166 31.8241 27.181 31.7602C26.4775 31.6962 25.8698 31.2485 25.3582 30.417C25.0384 29.8733 24.7985 29.2497 24.6386 28.5462C24.5107 27.8426 24.5107 27.3469 24.6386 27.0591C25.0863 24.5967 25.4381 22.9018 25.694 21.9744C25.9498 21.0469 26.0937 20.5193 26.1257 20.3914C26.1896 20.2634 26.3176 19.9596 26.5094 19.4799C26.7333 18.9683 26.8612 18.6485 26.8932 18.5205C27.0531 18.0089 27.1011 17.4332 27.0371 16.7936C27.0051 16.5378 27.0211 16.3139 27.0851 16.1221C27.181 15.8982 27.3249 15.7063 27.5168 15.5464C28.0605 15.1307 28.4922 14.587 28.812 13.9155C28.9079 13.6916 29.0838 13.3078 29.3396 12.7642C29.6275 12.1886 29.9153 11.6289 30.2031 11.0853C30.5229 10.5096 30.7627 10.1099 30.9226 9.88601C31.4343 9.24642 31.898 8.57484 32.3138 7.87129C32.7615 7.13576 33.3051 6.49616 33.9447 5.9525C34.3605 5.24895 34.8881 4.60936 35.5277 4.03372C36.1673 3.42611 36.8069 2.86646 37.4465 2.35479C38.0861 1.84311 38.5978 1.39539 38.9815 1.01164C39.1414 0.851738 39.5732 0.707829 40.2767 0.57991C41.0123 0.420012 41.6039 0.276103 42.0516 0.148184C42.2435 0.0522436 42.6112 0.132193 43.1549 0.388031C43.6986 0.61189 44.0823 0.867729 44.3062 1.15555C44.7219 1.8591 44.9618 2.43473 45.0257 2.88245C45.1216 3.33017 45.0577 3.85783 44.8338 4.46545C44.642 5.04108 44.2582 5.93652 43.6826 7.15175C43.043 8.43094 42.1315 9.64617 40.9483 10.7974C39.797 11.9167 38.6138 12.8921 37.3985 13.7236C36.7909 14.2672 36.1513 14.7629 35.4798 15.2106C34.8402 15.6584 34.1846 16.0581 33.513 16.4099C33.0973 16.6337 32.6655 16.8416 32.2178 17.0335C31.8021 17.2254 31.3704 17.4013 30.9226 17.5611C30.6988 17.6251 30.4909 17.753 30.299 17.9449C30.1072 18.1048 29.9473 18.3447 29.8193 18.6644C29.6275 19.1122 29.5155 19.4959 29.4836 19.8157C29.4836 20.1035 29.3876 20.3434 29.1957 20.5353C29.0998 20.6312 28.9559 21.015 28.764 21.6865C28.6041 22.3261 28.4122 23.0936 28.1884 23.9891C27.9965 24.8525 27.8366 25.668 27.7087 26.4355C27.5808 27.1711 27.5328 27.6667 27.5648 27.9226C27.5968 28.0825 27.6287 28.2584 27.6607 28.4502C27.7247 28.6101 27.8686 28.7381 28.0924 28.834C28.5721 28.7381 28.9559 28.5782 29.2437 28.3543C29.5315 28.0985 29.8513 27.7627 30.2031 27.3469C30.5869 26.8673 30.9386 26.3556 31.2584 25.8119C31.6102 25.2683 31.898 24.7086 32.1219 24.133C32.2498 23.7812 32.3457 23.4134 32.4097 23.0297C32.4737 22.6139 32.5856 22.2462 32.7455 21.9264C32.7455 21.1908 32.7295 20.6472 32.6975 20.2954C32.6975 19.9117 32.6655 19.6079 32.6016 19.384C32.5696 19.1282 32.4897 18.8403 32.3617 18.5205C32.6176 18.3606 32.7615 18.2327 32.7935 18.1368C32.8574 18.0408 33.0013 18.0249 33.2252 18.0888C33.6409 18.1848 34.0247 18.3447 34.3765 18.5685C34.7602 18.7924 35.128 19.0802 35.4798 19.432C35.6077 19.5599 35.6876 19.6878 35.7196 19.8157C35.7516 19.9436 35.7356 20.0875 35.6716 20.2474C35.6397 20.6312 35.5917 21.015 35.5277 21.3987C35.4957 21.7505 35.4798 22.1023 35.4798 22.454C35.2559 22.8698 35.112 23.3175 35.048 23.7972C34.9841 24.2449 34.8721 24.6926 34.7122 25.1403C34.5204 25.5561 34.3285 25.9718 34.1366 26.3876C33.9447 26.8033 33.7209 27.187 33.465 27.5388C33.0813 28.2424 32.6336 28.866 32.1219 29.4096C31.6422 29.9533 31.1305 30.449 30.5869 30.8967L29.0039 31.8561ZM31.2105 14.1553C31.5942 14.2193 31.866 14.2353 32.0259 14.2033C32.2178 14.1393 32.4097 13.9794 32.6016 13.7236C34.1046 12.7322 35.4798 11.7568 36.727 10.7974C37.9742 9.80606 39.0135 8.86266 39.845 7.96723C40.7084 7.03982 41.2681 6.22433 41.5239 5.52078C41.6838 5.169 41.8597 4.83322 42.0516 4.51342C42.2755 4.19362 42.4194 3.82585 42.4833 3.41012L42.2914 2.06697C41.396 2.48271 40.6765 2.86646 40.1328 3.21824C39.6211 3.57001 38.9496 4.16164 38.1181 4.99311C37.7983 5.31291 37.3186 5.85657 36.679 6.62408C36.0714 7.35961 35.3998 8.19109 34.6643 9.1185C33.9287 10.0459 33.2412 10.9573 32.6016 11.8528C31.994 12.7482 31.5303 13.5157 31.2105 14.1553ZM40.7703 30.465C40.5144 30.2091 40.3226 29.8893 40.1946 29.5056C40.0987 29.1218 40.0667 28.7381 40.0987 28.3543C40.1307 27.9706 40.2106 27.6508 40.3386 27.3949C40.3386 27.1391 40.3705 26.9472 40.4345 26.8193C40.5304 26.6594 40.5624 26.5155 40.5304 26.3876C40.4985 26.2596 40.5304 26.0358 40.6264 25.716C40.7223 25.3962 40.8183 25.0924 40.9142 24.8046C41.138 24.2929 41.3779 23.6853 41.6337 22.9817C41.8896 22.2462 42.1294 21.5266 42.3533 20.8231C42.5771 20.1195 42.769 19.5119 42.9289 19.0002C43.0888 18.4886 43.1848 18.1688 43.2167 18.0408C43.2167 17.6571 43.4726 17.4492 43.9842 17.4172C44.368 17.2893 44.6558 17.2893 44.8477 17.4172C45.0396 17.5132 45.2954 17.817 45.6152 18.3287C45.871 18.5845 45.967 18.9683 45.903 19.4799C45.8391 19.9916 45.6312 20.6312 45.2794 21.3987C45.1515 21.6546 44.9916 22.0223 44.7997 22.502C44.6398 22.9817 44.5279 23.4134 44.4639 23.7972C44.336 24.053 44.1761 24.4208 43.9842 24.9005C43.8243 25.3482 43.6804 25.7799 43.5525 26.1957C43.4886 26.3556 43.4246 26.5954 43.3606 26.9152C43.2967 27.203 43.2167 27.5228 43.1208 27.8746C43.0249 28.1944 42.8969 28.4822 42.737 28.7381C42.4492 30.0492 42.1774 30.8167 41.9216 31.0406C41.6977 31.2645 41.3139 31.0726 40.7703 30.465ZM45.4233 10.9893C45.2634 10.8294 45.1195 10.6056 44.9916 10.3177C44.8637 9.99794 44.7837 9.71012 44.7518 9.45429C44.7198 9.16647 44.7518 9.02256 44.8477 9.02256C45.1035 8.99058 45.4073 8.71875 45.7591 8.20708C46.1109 7.6954 46.2548 7.24768 46.1908 6.86393C46.1908 6.73601 46.2388 6.62408 46.3348 6.52814C46.4307 6.40022 46.5426 6.32027 46.6705 6.28829C47.0543 6.03246 47.4221 6.00047 47.7738 6.19235C48.1576 6.35225 48.5094 6.68804 48.8292 7.19972C49.117 7.80733 49.1969 8.31901 49.069 8.73474C48.9411 9.1185 48.5893 9.66215 48.0137 10.3657C47.534 11.0053 47.0863 11.3571 46.6705 11.421C46.2868 11.485 45.871 11.3411 45.4233 10.9893ZM60.6548 31.9041C60.4309 32.032 60.1271 31.984 59.7434 31.7602C59.3916 31.5363 59.0398 31.2005 58.688 30.7528C58.4642 30.369 58.3043 29.9533 58.2084 29.5056C58.1444 29.0579 58.1124 28.4343 58.1124 27.6348C58.1444 26.9952 58.1124 26.5794 58.0165 26.3876C57.9525 26.1957 57.7766 26.2277 57.4888 26.4835C57.201 26.7074 56.7053 27.1711 56.0018 27.8746C55.2023 28.6741 54.4347 29.2977 53.6992 29.7454C52.9957 30.1931 52.42 30.401 51.9723 30.369C51.7484 30.369 51.4926 30.2571 51.2048 30.0332C50.949 29.7774 50.7091 29.4736 50.4852 29.1218C50.2614 28.7381 50.0695 28.3543 49.9096 27.9706C49.7177 27.267 49.6858 26.3716 49.8137 25.2843C49.9736 24.165 50.2294 22.9977 50.5812 21.7825C50.933 20.5672 51.3327 19.416 51.7804 18.3287C52.2601 17.2414 52.7398 16.3619 53.2195 15.6903C53.7312 15.0188 54.1789 14.683 54.5627 14.683C54.8185 14.683 55.0424 14.8109 55.2342 15.0667C55.4581 15.3226 55.682 15.7223 55.9058 16.266C56.0337 16.4898 56.0817 16.6817 56.0497 16.8416C56.0497 17.0015 55.9218 17.1934 55.666 17.4172C55.3781 17.801 55.0424 18.3766 54.6586 19.1441C54.3068 19.9117 53.955 20.7431 53.6033 21.6386C53.2835 22.534 52.9957 23.3975 52.7398 24.2289C52.484 25.0604 52.3081 25.748 52.2122 26.2916C52.1162 26.8033 52.1322 27.0591 52.2601 27.0591C52.7078 27.0591 53.2355 26.8832 53.8431 26.5315C54.4827 26.1477 55.0903 25.684 55.666 25.1403C56.3375 24.4688 56.9292 23.7332 57.4408 22.9337C57.9845 22.1343 58.5282 21.2868 59.0718 20.3914C59.4875 19.7518 59.9193 19.0482 60.367 18.2807C60.8467 17.5132 61.1505 16.9695 61.2784 16.6497C61.7261 15.8183 62.0619 15.2586 62.2858 14.9708C62.5096 14.651 62.7815 14.4431 63.1013 14.3472C63.2612 14.3472 63.4051 14.3472 63.533 14.3472C63.6929 14.3472 63.7728 14.3472 63.7728 14.3472C63.9647 14.3792 64.1886 14.5231 64.4444 14.7789C64.7002 14.9068 64.8441 15.0348 64.8761 15.1627C64.9081 15.2586 64.9241 15.3865 64.9241 15.5464C64.7962 15.8662 64.5883 16.3459 64.3005 16.9855C64.0447 17.5931 63.8528 18.0408 63.7249 18.3287C63.1172 19.7038 62.5096 21.0629 61.902 22.4061C61.3264 23.7172 60.9106 25.0604 60.6548 26.4355C60.5908 26.8832 60.5749 27.4109 60.6068 28.0185C60.6708 28.5942 60.7667 29.0099 60.8947 29.2657C60.9906 29.4576 61.1025 29.6815 61.2304 29.9373C61.3903 30.1612 61.5662 30.353 61.7581 30.5129C62.0459 30.7048 62.0939 30.9127 61.902 31.1365C61.7421 31.3604 61.5183 31.5523 61.2304 31.7122C60.9426 31.8401 60.7507 31.9041 60.6548 31.9041ZM60.0312 11.9967C59.0398 12.1246 58.2084 11.8368 57.5368 11.1332C56.8652 10.4297 56.3535 9.39033 56.0018 8.0152C55.9378 7.75936 55.9058 7.5355 55.9058 7.34363C55.9378 7.11977 56.0018 6.92789 56.0977 6.76799C56.1617 6.64007 56.2896 6.54413 56.4814 6.48017C56.6733 6.38423 56.8332 6.36824 56.9611 6.4322C57.4089 6.5921 57.7287 6.79997 57.9205 7.05581C58.1444 7.27966 58.2883 7.56748 58.3523 7.91926C58.4162 8.07916 58.4482 8.23906 58.4482 8.39896C58.4802 8.55885 58.4962 8.62281 58.4962 8.59083C58.6561 9.10251 58.8639 9.45429 59.1198 9.64617C59.3756 9.83804 59.7594 9.82205 60.271 9.5982C60.8147 9.37434 61.3424 9.1185 61.854 8.83068C62.3977 8.54286 62.8774 8.19109 63.2931 7.77535C63.6449 7.42357 63.9807 7.10378 64.3005 6.81596C64.6523 6.52814 64.9881 6.22433 65.3079 5.90454L65.3558 5.85657C65.4837 5.76063 65.6436 5.72865 65.8355 5.76063C66.0274 5.79261 66.1393 5.84058 66.1713 5.90454C66.3952 6.12839 66.5071 6.35225 66.5071 6.57611C66.5071 6.79997 66.5071 7.03982 66.5071 7.29565L66.4591 7.39159C66.5231 7.58347 66.3632 7.95124 65.9794 8.4949C65.6277 9.03855 65.1959 9.50226 64.6842 9.88601C64.2365 10.2378 63.7568 10.5576 63.2452 10.8454C62.7335 11.1332 62.2058 11.4051 61.6622 11.6609C61.4383 11.7888 61.1985 11.8688 60.9426 11.9007C60.7188 11.9007 60.415 11.9327 60.0312 11.9967ZM84.0726 31.7602C83.8487 31.6322 83.6089 31.5043 83.353 31.3764C83.1292 31.2485 82.9053 31.1206 82.6815 30.9926C82.4896 30.8647 82.3137 30.7368 82.1538 30.6089C81.4822 30.0013 81.0345 29.3457 80.8107 28.6421C80.6188 27.9066 80.5548 27.203 80.6188 26.5315C80.6827 25.8599 80.7787 25.2843 80.9066 24.8046C81.0345 24.2929 81.0985 23.9411 81.0985 23.7492C81.0665 23.4934 81.1145 23.2535 81.2424 23.0297C81.3703 22.7738 81.4982 22.518 81.6261 22.2622C82.2018 21.1429 82.7294 20.1835 83.2091 19.384C83.7208 18.5525 84.4563 17.5931 85.4157 16.5058C85.6076 16.3459 85.7835 16.202 85.9434 16.0741C86.1353 15.9142 86.3272 15.8023 86.519 15.7383L87.6223 16.5538C87.7503 16.6817 87.8302 16.8416 87.8622 17.0335C87.8942 17.1934 87.8622 17.4172 87.7662 17.7051C87.7023 17.9289 87.6223 18.1528 87.5264 18.3766C87.4624 18.5685 87.3665 18.7444 87.2386 18.9043C86.6949 19.416 86.2632 19.9916 85.9434 20.6312C85.6236 21.2388 85.2878 21.8624 84.936 22.502C84.936 22.7898 84.8241 23.0297 84.6003 23.2216C84.3764 23.3815 84.2485 23.6213 84.2165 23.9411C84.2165 24.165 84.1845 24.3888 84.1206 24.6127C84.0566 24.8365 83.9926 25.0764 83.9287 25.3322C83.7048 25.8439 83.6089 26.3396 83.6409 26.8193C83.6728 27.299 83.6888 27.7947 83.6888 28.3063C83.9447 28.4343 84.1685 28.5142 84.3604 28.5462C84.5523 28.5462 84.8081 28.3863 85.1279 28.0665C85.7675 27.5228 86.2152 27.0431 86.4711 26.6274C86.7589 26.2117 86.9827 25.7959 87.1426 25.3802C87.3025 24.9645 87.5264 24.4848 87.8142 23.9411C88.134 23.3975 88.4058 22.7099 88.6297 21.8784C88.8536 21.0469 89.0135 20.2634 89.1094 19.5279C89.2053 18.7604 89.2053 18.2487 89.1094 17.9929C89.0774 17.833 89.0934 17.6411 89.1574 17.4172C89.2213 17.1934 89.1254 16.9695 88.8695 16.7457C88.9975 16.6177 89.0614 16.3779 89.0614 16.0261C89.0614 15.6743 89.0294 15.3066 88.9655 14.9228C88.9015 14.5391 88.8056 14.2672 88.6777 14.1073C88.6137 12.8281 88.5657 11.7568 88.5338 10.8934C88.5338 9.99794 88.5498 9.23043 88.5817 8.59083C88.6457 7.91926 88.7256 7.29566 88.8216 6.72002C88.8536 6.62408 89.0454 6.30428 89.3972 5.76063C89.781 5.18499 90.1327 4.73728 90.4525 4.41748C90.9962 3.93778 91.7317 3.57001 92.6591 3.31418C93.6185 3.02636 94.434 2.91443 95.1056 2.97839C95.0736 3.01037 95.2655 3.02636 95.6812 3.02636C96.1289 3.02636 96.6246 3.01037 97.1683 2.97839C97.7119 2.94641 98.1117 2.91443 98.3675 2.88245C98.6234 2.81849 98.8792 2.75453 99.135 2.69057C99.3909 2.62661 99.8226 2.41874 100.43 2.06697C100.686 1.90707 100.894 1.8591 101.054 1.92306L102.349 3.02636C102.317 3.92179 102.093 4.59337 101.677 5.04108C101.262 5.45682 100.462 5.72865 99.279 5.85657C99.0871 5.85657 98.8792 5.85657 98.6553 5.85657C98.4315 5.82459 98.2076 5.84058 97.9838 5.90454C97.7919 5.96849 97.616 5.96849 97.4561 5.90454C97.3282 5.84058 97.1363 5.8086 96.8805 5.8086C96.5287 5.8086 96.1609 5.85657 95.7772 5.9525C95.3934 6.01647 94.9937 6.00048 94.5779 5.90454C93.4267 6.22433 92.5312 6.65606 91.8916 7.19972C91.252 7.74337 90.9322 8.6388 90.9322 9.88601C91.0602 11.0693 91.2201 12.1246 91.4119 13.052C91.6358 13.9794 91.7477 15.0028 91.7477 16.1221C91.8117 16.4099 91.8916 16.6497 91.9876 16.8416C92.0835 17.0335 92.0355 17.2414 91.8437 17.4652C92.0036 18.2007 92.0835 18.9203 92.0835 19.6238C92.0835 20.2954 91.9876 20.8071 91.7957 21.1589C91.7317 21.3827 91.6838 21.7985 91.6518 22.4061C91.6518 22.9817 91.4919 23.5893 91.1721 24.2289C90.4366 25.732 89.685 27.0751 88.9175 28.2584C88.15 29.4096 87.1746 30.385 85.9914 31.1845C85.7675 31.3124 85.4957 31.4084 85.1759 31.4723C84.8881 31.5363 84.5203 31.6322 84.0726 31.7602ZM96.0946 30.465C95.8388 30.2091 95.6469 29.8893 95.519 29.5056C95.423 29.1218 95.391 28.7381 95.423 28.3543C95.455 27.9706 95.5349 27.6508 95.6629 27.3949C95.6629 27.1391 95.6948 26.9472 95.7588 26.8193C95.8547 26.6594 95.8867 26.5155 95.8547 26.3876C95.8228 26.2596 95.8547 26.0358 95.9507 25.716C96.0466 25.3962 96.1426 25.0924 96.2385 24.8046C96.4624 24.2929 96.7022 23.6853 96.958 22.9817C97.2139 22.2462 97.4537 21.5266 97.6776 20.8231C97.9014 20.1195 98.0933 19.5119 98.2532 19.0002C98.4131 18.4886 98.5091 18.1688 98.541 18.0408C98.541 17.6571 98.7969 17.4492 99.3086 17.4172C99.6923 17.2893 99.9801 17.2893 100.172 17.4172C100.364 17.5132 100.62 17.817 100.94 18.3287C101.195 18.5845 101.291 18.9683 101.227 19.4799C101.163 19.9916 100.956 20.6312 100.604 21.3987C100.476 21.6546 100.316 22.0223 100.124 22.502C99.9641 22.9817 99.8522 23.4134 99.7883 23.7972C99.6603 24.053 99.5004 24.4208 99.3086 24.9005C99.1487 25.3482 99.0047 25.7799 98.8768 26.1957C98.8129 26.3556 98.7489 26.5954 98.685 26.9152C98.621 27.203 98.541 27.5228 98.4451 27.8746C98.3492 28.1944 98.2212 28.4822 98.0613 28.7381C97.7735 30.0492 97.5017 30.8167 97.2459 31.0406C97.022 31.2645 96.6382 31.0726 96.0946 30.465ZM100.748 10.9893C100.588 10.8294 100.444 10.6056 100.316 10.3177C100.188 9.99794 100.108 9.71012 100.076 9.45429C100.044 9.16647 100.076 9.02256 100.172 9.02256C100.428 8.99058 100.732 8.71875 101.083 8.20708C101.435 7.6954 101.579 7.24768 101.515 6.86393C101.515 6.73601 101.563 6.62408 101.659 6.52814C101.755 6.40022 101.867 6.32027 101.995 6.28829C102.379 6.03246 102.746 6.00047 103.098 6.19235C103.482 6.35225 103.834 6.68804 104.153 7.19972C104.441 7.80733 104.521 8.31901 104.393 8.73474C104.265 9.1185 103.914 9.66215 103.338 10.3657C102.858 11.0053 102.411 11.3571 101.995 11.421C101.611 11.485 101.195 11.3411 100.748 10.9893ZM99.8134 46.3429C99.1098 46.3429 98.4382 46.215 97.7986 45.9592C97.1271 45.7033 96.5035 45.2876 95.9278 44.7119C95.64 44.0084 95.4321 43.5447 95.3042 43.3208C95.1443 43.1289 94.8565 42.8411 94.4408 42.4574C94.4408 42.2975 94.5047 41.9937 94.6326 41.546C94.7606 41.1302 94.9524 40.7624 95.2083 40.4427C95.8799 39.6432 96.6953 38.9236 97.6547 38.284C98.6141 37.6764 99.7334 37.1487 101.013 36.701C101.173 36.6371 101.332 36.5571 101.492 36.4612C101.684 36.3972 101.86 36.3652 102.02 36.3652C102.18 36.3652 102.276 36.2693 102.308 36.0774C102.372 35.8855 102.516 35.8695 102.74 36.0294C102.899 35.9655 103.027 35.8855 103.123 35.7896C103.219 35.6937 103.379 35.6777 103.603 35.7416C103.603 35.7416 103.779 35.6937 104.131 35.5977C104.514 35.5018 104.946 35.3739 105.426 35.214C105.906 35.086 106.321 34.9581 106.673 34.8302C107.057 34.7343 107.249 34.6863 107.249 34.6863C107.313 33.8228 107.329 32.9274 107.297 32C107.297 31.0726 107.041 30.385 106.529 29.9373C106.209 29.5855 105.953 29.1858 105.762 28.7381C105.602 28.2904 105.394 27.8107 105.138 27.299C105.202 27.0112 105.314 26.7713 105.474 26.5794C105.634 26.3876 105.858 26.2277 106.145 26.0997C106.753 25.8119 107.488 25.3642 108.352 24.7566C109.247 24.117 110.159 23.3655 111.086 22.502C112.014 21.6386 112.829 20.7112 113.533 19.7198C113.98 19.0802 114.14 18.4726 114.012 17.8969C113.916 17.3213 113.357 16.9695 112.333 16.8416C111.694 16.8416 110.974 17.0655 110.175 17.5132C109.375 17.9289 108.544 18.5046 107.68 19.2401C107.169 19.432 106.801 19.384 106.577 19.0962C106.353 18.7764 106.177 18.4246 106.049 18.0408C106.113 17.6891 106.241 17.3853 106.433 17.1294C106.625 16.8416 106.833 16.5698 107.057 16.3139C107.313 16.0581 107.536 15.7863 107.728 15.4985C107.984 15.3705 108.208 15.2426 108.4 15.1147C108.592 14.9548 108.8 14.8109 109.024 14.683C109.215 14.5551 109.407 14.4591 109.599 14.3952C109.823 14.2992 110.047 14.2512 110.271 14.2512C110.463 14.2512 110.654 14.2193 110.846 14.1553C111.038 14.0594 111.246 14.0114 111.47 14.0114C112.973 14.0754 114.156 14.651 115.02 15.7383C115.883 16.8256 116.267 17.8969 116.171 18.9523C116.107 20.0076 115.563 21.3827 114.54 23.0777C114.252 23.5574 113.773 24.069 113.101 24.6127C112.461 25.1563 111.774 25.684 111.038 26.1957C110.335 26.7074 109.711 27.1551 109.167 27.5388C108.624 27.8906 108.304 28.1145 108.208 28.2104C108.496 28.5622 108.8 29.1538 109.119 29.9853C109.439 30.7848 109.695 31.6003 109.887 32.4317C110.111 33.2952 110.143 33.9668 109.983 34.4464C110.303 34.5104 110.702 34.4784 111.182 34.3505C111.694 34.2546 112.094 34.2066 112.381 34.2066C112.669 34.4944 112.957 34.7662 113.245 35.0221C113.533 35.2779 113.677 35.5498 113.677 35.8376C113.741 36.0294 113.693 36.2053 113.533 36.3652C113.405 36.5251 113.261 36.6211 113.101 36.6531C112.685 36.717 112.158 36.733 111.518 36.701C110.878 36.669 110.255 36.781 109.647 37.0368C109.199 37.7084 108.816 38.4439 108.496 39.2434C108.176 40.0749 107.76 40.9223 107.249 41.7858C106.737 42.6812 105.937 43.5927 104.85 44.5201C104.466 44.8399 104.067 45.1277 103.651 45.3835C103.235 45.6713 102.899 45.8152 102.644 45.8152C102.132 45.9751 101.636 46.1031 101.157 46.199C100.709 46.2949 100.261 46.3429 99.8134 46.3429ZM97.7507 43.8965C97.7507 43.9604 97.9905 43.9764 98.4702 43.9444C98.9179 43.9444 99.4616 43.8645 100.101 43.7046C100.773 43.5767 101.364 43.3688 101.876 43.081C102.516 42.6972 103.059 42.2335 103.507 41.6899C103.955 41.1782 104.386 40.6185 104.802 40.0109C104.962 39.7551 105.122 39.4673 105.282 39.1475C105.442 38.8597 105.57 38.5558 105.666 38.236C105.442 37.9802 105.074 37.9962 104.562 38.284C104.051 38.5718 103.443 38.8437 102.74 39.0995C102.004 39.3553 101.109 39.7391 100.053 40.2508C99.0299 40.7944 98.2464 41.3861 97.7027 42.0256C97.5428 42.2495 97.3669 42.4574 97.175 42.6493C96.9832 42.8411 96.7753 43.017 96.5514 43.1769C96.7113 43.4008 96.8872 43.5767 97.0791 43.7046C97.271 43.8325 97.4948 43.8965 97.7507 43.8965ZM129.336 31.4723C129.144 31.4084 128.952 31.3604 128.76 31.3284C128.568 31.2645 128.376 31.2005 128.184 31.1365C128.024 31.0726 127.833 31.0246 127.609 30.9926C127.289 30.5449 127.161 30.0013 127.225 29.3617C127.289 28.6901 127.433 28.0025 127.657 27.299C127.913 26.5954 128.152 25.9079 128.376 25.2363C128.632 24.5647 128.776 23.9891 128.808 23.5094C128.776 23.3815 128.728 23.3495 128.664 23.4134C128.6 23.4454 128.568 23.4934 128.568 23.5573C128.344 23.8132 128.024 23.9891 127.609 24.085C127.193 24.181 126.809 24.2609 126.457 24.3249C125.85 24.4208 125.242 24.5327 124.635 24.6607C124.027 24.7886 123.435 24.9325 122.86 25.0924C122.764 25.0284 122.652 24.9485 122.524 24.8525C122.428 24.7566 122.332 24.6766 122.236 24.6127C122.012 24.6127 121.82 24.8205 121.661 25.2363C121.501 25.652 121.357 26.1637 121.229 26.7713C121.101 27.3469 120.973 27.9066 120.845 28.4502C120.749 28.9619 120.653 29.3297 120.557 29.5536C120.046 29.6175 119.678 29.6335 119.454 29.6015C119.262 29.5695 118.894 29.4736 118.351 29.3137C118.095 28.9619 117.951 28.6261 117.919 28.3063C117.919 27.9865 117.967 27.6348 118.063 27.251C118.223 26.5155 118.351 25.9239 118.447 25.4761C118.574 25.0284 118.782 24.4528 119.07 23.7492C119.23 23.3975 119.374 23.0617 119.502 22.7419C119.662 22.3901 119.742 22.0063 119.742 21.5906C119.998 21.2708 120.173 20.919 120.269 20.5353C120.365 20.1515 120.477 19.7678 120.605 19.384C121.117 18.0728 121.517 17.0655 121.804 16.3619C122.124 15.6264 122.348 15.0507 122.476 14.635C122.604 14.2193 122.684 13.8355 122.716 13.4837C122.748 13.036 123.02 12.8122 123.531 12.8122C123.851 12.8122 124.187 12.9401 124.539 13.1959C124.89 13.4198 125.162 13.7076 125.354 14.0594C125.546 14.4111 125.562 14.7789 125.402 15.1627C125.306 15.4185 125.146 15.8342 124.922 16.4099C124.731 16.9535 124.507 17.5611 124.251 18.2327C124.027 18.8723 123.803 19.4799 123.579 20.0556C123.387 20.5992 123.228 20.999 123.1 21.2548C123.068 21.3827 123.004 21.4947 122.908 21.5906C122.812 21.6546 122.764 21.7665 122.764 21.9264C122.988 22.0863 123.355 22.1502 123.867 22.1183C124.411 22.0543 124.795 21.9584 125.018 21.8304C125.498 21.8304 125.962 21.8304 126.41 21.8304C126.889 21.8304 127.369 21.8304 127.849 21.8304C128.328 22.1183 128.696 22.55 128.952 23.1256C129.176 22.518 129.48 21.7185 129.863 20.7271C130.247 19.7038 130.615 18.6964 130.967 17.7051C131.318 16.7137 131.526 15.9622 131.59 15.4505C131.654 15.1627 131.782 14.9068 131.974 14.683C132.166 14.4591 132.374 14.2832 132.598 14.1553C133.045 14.3792 133.477 14.571 133.893 14.7309C134.34 14.8589 134.628 15.2266 134.756 15.8342C134.724 16.1221 134.66 16.4099 134.564 16.6977C134.468 16.9535 134.372 17.2094 134.277 17.4652C133.957 18.3926 133.557 19.416 133.077 20.5353C132.598 21.6226 132.15 22.7419 131.734 23.8931C131.35 25.0124 131.079 26.0678 130.919 27.0591C130.919 27.1551 130.839 27.4749 130.679 28.0185C130.551 28.5622 130.407 29.0898 130.247 29.6015C130.119 30.1132 130.039 30.385 130.007 30.417C130.007 30.6409 129.943 30.8487 129.815 31.0406C129.687 31.2005 129.528 31.3444 129.336 31.4723ZM145.327 30.3211C144.656 30.8967 143.872 31.2325 142.977 31.3284C142.113 31.4244 141.266 31.2964 140.434 30.9447C139.603 30.5609 138.915 29.9853 138.372 29.2178C137.828 28.5142 137.476 27.7147 137.316 26.8193C137.156 25.8919 137.14 24.6926 137.268 23.2216C137.364 21.9744 137.764 20.7271 138.467 19.4799C139.171 18.2007 140.019 17.0655 141.01 16.0741C142.033 15.0827 143.041 14.3952 144.032 14.0114C144.512 13.6916 144.911 13.5477 145.231 13.5797C145.583 13.5797 146.111 13.6117 146.814 13.6756C147.55 13.7716 148.093 13.9155 148.445 14.1073C148.829 14.2992 149.133 14.5551 149.357 14.8749C149.836 15.3545 150.156 15.8342 150.316 16.3139C150.476 16.7617 150.556 17.2094 150.556 17.6571C150.428 18.3606 149.948 19.2241 149.117 20.2474C148.317 21.2388 147.262 22.0543 145.951 22.6939C145.247 22.9178 144.48 23.0137 143.648 22.9817C142.817 22.9497 142.129 22.7419 141.586 22.3581C140.978 22.1023 140.578 22.1502 140.386 22.502C140.194 22.8218 140.019 23.6213 139.859 24.9005C139.731 26.1157 139.827 27.0112 140.146 27.5868C140.466 28.1305 140.898 28.4502 141.442 28.5462C142.081 28.6741 142.577 28.77 142.929 28.834C143.312 28.866 143.776 28.7221 144.32 28.4023C144.831 28.0825 145.151 27.9066 145.279 27.8746C145.407 27.8107 145.503 27.7467 145.567 27.6827C145.663 27.5868 145.871 27.3789 146.191 27.0591C146.414 26.8353 146.59 26.6754 146.718 26.5794C146.846 26.4515 146.99 26.3876 147.15 26.3876C147.31 26.3876 147.454 26.4675 147.582 26.6274C147.71 26.7553 147.838 26.8513 147.965 26.9152C148.285 26.9152 148.349 27.1071 148.157 27.4909C147.997 27.8746 147.662 28.3383 147.15 28.882C146.638 29.3937 146.031 29.8733 145.327 30.3211ZM145.279 20.1515C145.631 19.9916 145.999 19.7678 146.382 19.4799C146.766 19.1601 147.086 18.8243 147.342 18.4726C147.63 18.0888 147.774 17.769 147.774 17.5132C147.774 17.0655 147.566 16.6977 147.15 16.4099C146.734 16.0901 146.111 16.0421 145.279 16.266C144.927 16.3619 144.528 16.6018 144.08 16.9855C143.632 17.3373 143.2 17.737 142.785 18.1848C142.401 18.6325 142.081 19.0322 141.825 19.384C141.602 19.7358 141.522 19.9436 141.586 20.0076C141.681 20.1675 141.953 20.2954 142.401 20.3914C142.849 20.4553 143.344 20.4713 143.888 20.4393C144.464 20.4073 144.927 20.3114 145.279 20.1515ZM159.392 30.7528C158.976 30.9447 158.496 31.0246 157.953 30.9926C157.409 30.9607 156.673 30.7848 155.746 30.465C155.682 30.465 155.538 30.401 155.314 30.2731C155.122 30.1452 154.914 29.9853 154.691 29.7934C154.499 29.5695 154.339 29.3297 154.211 29.0739C153.699 28.3383 153.491 27.251 153.587 25.8119C153.683 24.3728 154.131 22.6459 154.93 20.6312C155.154 20.1515 155.49 19.5439 155.938 18.8084C156.417 18.0728 156.881 17.4013 157.329 16.7936C157.809 16.154 158.144 15.7863 158.336 15.6903C158.336 15.6903 158.512 15.6264 158.864 15.4985C159.216 15.3705 159.663 15.1627 160.207 14.8749C160.367 14.8109 160.543 14.7469 160.735 14.683C160.959 14.619 161.182 14.571 161.406 14.5391C161.63 14.5071 161.822 14.5071 161.982 14.5391C162.622 14.571 163.277 14.8109 163.949 15.2586C164.652 15.6743 165.228 16.17 165.676 16.7457C166.123 17.2893 166.267 17.769 166.107 18.1848C166.107 18.2487 166.011 18.3766 165.82 18.5685C165.66 18.7284 165.468 18.9043 165.244 19.0962C165.052 19.2561 164.892 19.416 164.764 19.5759C164.604 19.7678 164.38 19.8477 164.093 19.8157C163.837 19.7837 163.597 19.6558 163.373 19.432C163.181 19.1761 163.069 18.8563 163.037 18.4726C162.973 18.2167 162.733 17.9769 162.318 17.753C161.934 17.5292 161.742 17.4172 161.742 17.4172C161.486 17.4172 161.119 17.6571 160.639 18.1368C160.191 18.5845 159.743 19.1282 159.296 19.7678C158.72 20.3434 158.224 21.031 157.809 21.8304C157.393 22.598 157.057 23.3335 156.801 24.037C156.577 24.7086 156.417 25.1883 156.322 25.4761C156.194 25.7959 156.178 26.2436 156.274 26.8193C156.37 27.3949 156.481 27.7467 156.609 27.8746C156.737 27.9386 157.057 27.9546 157.569 27.9226C158.112 27.8906 158.752 27.8266 159.488 27.7307C160.223 27.6028 160.943 27.4589 161.646 27.299C162.35 27.1391 162.925 26.9632 163.373 26.7713C163.981 26.3876 164.508 26.1637 164.956 26.0997C165.404 26.0358 165.74 26.0358 165.963 26.0997C166.315 26.2277 166.523 26.4035 166.587 26.6274C166.651 26.8513 166.571 27.1071 166.347 27.3949C166.123 27.6508 165.74 27.9226 165.196 28.2104C164.684 28.4662 164.221 28.7541 163.805 29.0739C163.421 29.3617 163.229 29.5855 163.229 29.7454C163.101 29.7454 162.957 29.7934 162.797 29.8893C162.67 29.9533 162.558 29.9693 162.462 29.9373C162.398 29.9373 162.142 29.9853 161.694 30.0812C161.246 30.1772 160.783 30.2891 160.303 30.417C159.855 30.5449 159.552 30.6569 159.392 30.7528ZM1.92615 87.7452C1.79823 87.7452 1.63833 87.7452 1.44645 87.7452C1.25457 87.7772 1.07868 87.6493 0.918784 87.3614C0.790865 87.2015 0.710916 86.9617 0.678936 86.6419C0.678936 86.3221 0.758885 85.7465 0.918784 84.915C1.07868 84.3713 1.2066 83.8277 1.30254 83.284C1.39848 82.7723 1.44645 82.3886 1.44645 82.1327C1.44645 82.0048 1.47843 81.749 1.54239 81.3652C1.63833 81.0135 1.6863 80.7576 1.6863 80.5977C1.8462 80.3419 1.97412 79.9901 2.07005 79.5424C2.16599 79.0947 2.21396 78.6949 2.21396 78.3431C2.21396 77.9594 2.40584 77.6076 2.7896 77.2878C2.7896 77.032 2.83757 76.7122 2.93351 76.3284C3.06143 75.9447 3.12539 75.6888 3.12539 75.5609C3.22132 75.1132 3.42919 74.3297 3.74899 73.2104C4.10077 72.0591 4.5165 70.764 4.9962 69.3249C5.50788 67.8858 6.00356 66.4787 6.48326 65.1035C6.96295 63.7284 7.39468 62.5611 7.77844 61.6018C8.16219 60.7063 8.41803 59.9388 8.54595 59.2992C8.70585 58.6276 8.7858 58.132 8.7858 57.8122C8.7858 57.6842 8.81778 57.5883 8.88174 57.5243C8.9457 57.4284 9.08961 57.2525 9.31346 56.9967C9.63326 56.6769 9.90509 56.5809 10.1289 56.7089C10.3848 56.8368 10.6886 57.0287 11.0404 57.2845C11.2962 57.7002 11.4721 58.052 11.568 58.3398C11.696 58.6276 11.696 59.1233 11.568 59.8269C11.568 60.3066 11.4881 60.7223 11.3282 61.0741C11.1683 61.4259 11.0244 61.6977 10.8965 61.8896C10.7685 62.0495 10.7366 62.1134 10.8005 62.0815C12.1117 61.4738 13.263 61.154 14.2543 61.1221C15.2777 61.0581 16.1251 61.234 16.7967 61.6497C17.5003 62.0335 18.0279 62.5771 18.3797 63.2807C18.7315 63.9842 18.9074 64.7997 18.9074 65.7271C18.9074 66.1109 18.8274 66.5746 18.6675 67.1183C18.5076 67.6299 18.2998 68.1096 18.0439 68.5573C17.8201 68.9731 17.6122 69.2769 17.4203 69.4688C17.2924 69.4688 17.1645 69.5807 17.0366 69.8046C16.9087 69.9964 16.7807 70.2203 16.6528 70.4761C16.397 70.7959 15.9812 71.1637 15.4056 71.5794C14.8619 71.9632 14.3183 72.283 13.7746 72.5388C13.231 72.7627 12.8312 72.8266 12.5754 72.7307C12.5754 72.7307 12.5274 72.7467 12.4315 72.7787C12.3675 72.7787 12.3356 72.8586 12.3356 73.0185C12.3356 73.0825 12.0797 73.2264 11.568 73.4502C11.0564 73.6421 10.4647 73.834 9.79316 74.0259C9.12159 74.1858 8.52996 74.2657 8.01829 74.2657C7.34671 74.2657 6.86701 74.1378 6.5792 73.882C6.51524 73.9459 6.43529 74.0419 6.33935 74.1698C6.27539 74.2977 6.24341 74.4096 6.24341 74.5056C6.24341 74.6975 6.16346 75.0652 6.00356 75.6089C5.87564 76.1206 5.71574 76.6162 5.52387 77.0959C5.33199 77.5756 5.1561 77.8155 4.9962 77.8155C4.9962 77.8155 4.96422 77.8635 4.90026 77.9594C4.8363 78.0553 4.86828 78.1833 4.9962 78.3431C4.9962 78.3431 4.98021 78.519 4.94823 78.8708C4.94823 79.2546 4.86828 79.5744 4.70838 79.8302C4.70838 80.086 4.66041 80.4698 4.56447 80.9815C4.46853 81.4932 4.35661 81.8769 4.22869 82.1327C4.22869 82.5165 4.16473 82.8843 4.03681 83.236C3.94087 83.6198 3.82894 83.8117 3.70102 83.8117C3.5731 83.8437 3.49315 84.0355 3.46117 84.3873C3.42919 84.7711 3.4132 85.0429 3.4132 85.2028C3.38122 86.0023 3.22133 86.6259 2.93351 87.0736C2.64569 87.5213 2.3099 87.7452 1.92615 87.7452ZM7.73047 71.7233C7.98631 71.7233 8.51397 71.6114 9.31346 71.3876C10.113 71.1637 10.9284 70.8919 11.7599 70.5721C12.6234 70.2203 13.263 69.8685 13.6787 69.5167C14.5102 68.7812 15.1498 67.9497 15.5975 67.0223C16.0772 66.0629 16.0452 65.1515 15.5015 64.2881C15.2457 63.8403 14.782 63.6645 14.1104 63.7604C13.4389 63.8243 12.7033 64.0802 11.9038 64.5279C11.1043 64.9756 10.3528 65.5353 9.64925 66.2068C9.2655 66.6226 8.91372 67.1343 8.59392 67.7419C8.27412 68.3495 8.0023 68.9571 7.77844 69.5647C7.58656 70.1723 7.47463 70.684 7.44265 71.0997C7.41067 71.5155 7.50661 71.7233 7.73047 71.7233ZM25.236 76.2805C24.8203 76.2805 24.4845 76.2005 24.2286 76.0406C24.0048 75.8807 23.717 75.6569 23.3652 75.369C22.7576 74.7294 22.3258 74.1218 22.07 73.5462C21.8142 72.9386 21.7342 72.3629 21.8302 71.8193C21.9261 71.5634 21.9581 71.3236 21.9261 71.0997C21.9261 70.8439 21.9261 70.716 21.9261 70.716C21.7662 70.5561 21.7182 70.4601 21.7822 70.4282C21.8461 70.3642 21.9101 70.2683 21.9741 70.1403C22.1659 70.1403 22.2299 69.9645 22.1659 69.6127C22.102 69.3568 22.2299 68.7972 22.5497 67.9337C22.8695 67.0703 23.2692 66.2548 23.7489 65.4873C23.9408 65.1675 24.2286 64.7518 24.6124 64.2401C24.9962 63.6964 25.4119 63.1688 25.8596 62.6571C26.3393 62.1134 26.771 61.6817 27.1548 61.3619C27.9543 60.6903 28.6578 60.1946 29.2654 59.8749C29.8731 59.5551 30.5286 59.3152 31.2322 59.1553C31.9358 58.9954 32.4155 58.9155 32.6713 58.9155C32.9591 58.9155 33.3429 59.1713 33.8226 59.683C34.5581 60.0028 35.0858 60.3865 35.4056 60.8342C35.7573 61.282 35.9812 61.9375 36.0771 62.801C36.1731 63.7604 36.0931 64.8637 35.8373 66.1109C35.6134 67.3261 34.8619 68.8452 33.5827 70.668C32.7832 71.8193 32.0477 72.6827 31.3761 73.2584C30.7045 73.802 29.905 74.3457 28.9776 74.8893C28.3061 75.3371 27.6984 75.6728 27.1548 75.8967C26.6111 76.0886 25.9715 76.2165 25.236 76.2805ZM29.8411 71.1957C30.6086 70.3322 31.2162 69.5167 31.6639 68.7492C32.1436 67.9817 32.5913 67.0063 33.0071 65.8231C33.135 65.4713 33.2149 65.0396 33.2469 64.5279C33.2789 63.9842 33.2629 63.4886 33.199 63.0408C33.167 62.5611 33.055 62.2893 32.8632 62.2254C32.4794 62.0015 32.0157 61.9375 31.472 62.0335C30.9284 62.0974 30.3368 62.4013 29.6972 62.9449C28.7058 63.7764 27.8423 64.8157 27.1068 66.0629C26.3713 67.2782 25.6517 68.6693 24.9482 70.2363C24.4685 71.3876 24.3566 72.315 24.6124 73.0185C24.9002 73.6901 25.4918 73.9299 26.3873 73.7381C27.3147 73.5142 28.466 72.6667 29.8411 71.1957ZM43.8741 75.8967C43.1705 75.8967 42.6428 75.8647 42.2911 75.8008C41.9393 75.7368 41.6675 75.6409 41.4756 75.5129C41.2837 75.385 41.0598 75.2091 40.804 74.9853C40.6761 74.7294 40.5162 74.4576 40.3243 74.1698C40.1324 73.882 39.9725 73.6741 39.8446 73.5462C39.7167 73.0665 39.6527 72.4429 39.6527 71.6754C39.6847 70.9079 39.7807 70.0764 39.9406 69.181C40.1324 68.2855 40.3883 67.454 40.7081 66.6865C40.836 66.4307 40.9479 66.1749 41.0439 65.919C41.1398 65.6632 41.1878 65.5353 41.1878 65.5353C41.1878 65.3754 41.3796 64.9916 41.7634 64.384C42.1791 63.7764 42.6269 63.1368 43.1065 62.4652C43.6182 61.7936 44.034 61.3139 44.3538 61.0261C44.5776 60.7703 44.9134 60.4985 45.3611 60.2106C45.8408 59.9228 46.2566 59.715 46.6083 59.587C46.9601 59.4591 47.3119 59.3472 47.6637 59.2512C48.0474 59.1553 48.4791 59.1073 48.9588 59.1073C49.4066 59.1073 49.8223 59.2033 50.2061 59.3952C50.5898 59.587 50.9576 59.9228 51.3094 60.4025C51.885 60.9782 52.2048 61.5538 52.2687 62.1294C52.3647 62.6731 52.3487 63.2327 52.2208 63.8084C52.0609 64.448 51.853 64.9436 51.5972 65.2954C51.3413 65.6152 51.0535 65.7591 50.7337 65.7271C50.4139 65.6952 50.0462 65.4553 49.6304 65.0076C49.5025 64.7518 49.4385 64.5439 49.4385 64.384C49.4385 64.1921 49.5025 63.9203 49.6304 63.5685C49.7583 63.1208 49.7583 62.6571 49.6304 62.1774C49.5025 61.6977 49.2946 61.4578 49.0068 61.4578C48.5911 61.4578 48.1274 61.6497 47.6157 62.0335C47.136 62.3853 46.6403 62.833 46.1286 63.3766C45.9048 63.6325 45.585 64.0322 45.1692 64.5759C44.7855 65.0875 44.4017 65.6632 44.018 66.3028C43.6342 66.9104 43.3144 67.502 43.0586 68.0777C42.7068 69.133 42.419 69.9804 42.1951 70.62C42.0032 71.2596 41.9073 71.5794 41.9073 71.5794C41.9073 71.7074 41.9393 71.8353 42.0032 71.9632C42.0992 72.0591 42.1472 72.1711 42.1472 72.299C42.1472 72.6827 42.371 72.9865 42.8187 73.2104C43.1705 73.4343 43.5862 73.5622 44.0659 73.5942C44.5456 73.5942 45.1373 73.4343 45.8408 73.1145C46.3525 72.8586 46.8322 72.5228 47.2799 72.1071C47.7596 71.6914 48.2553 71.3236 48.767 71.0038C49.1187 70.7799 49.3906 70.5881 49.5824 70.4282C49.8063 70.2683 49.9182 70.2523 49.9182 70.3802C49.9182 70.5081 49.9662 70.5721 50.0621 70.5721C50.1581 70.5721 50.27 70.5081 50.3979 70.3802C50.5898 70.1244 50.7977 69.9645 51.0215 69.9005C51.2454 69.8046 51.4373 69.7726 51.5972 69.8046C51.789 69.8046 51.885 69.8525 51.885 69.9485C51.821 70.2363 51.885 70.4761 52.0769 70.668C52.0769 70.7959 52.0289 70.9718 51.933 71.1957C51.869 71.3876 51.7731 71.5475 51.6451 71.6754C51.4852 71.8992 51.2454 72.1551 50.9256 72.4429C50.6378 72.7307 50.3659 72.9865 50.1101 73.2104C49.8543 73.4023 49.7264 73.4982 49.7264 73.4982C49.5984 73.4662 49.4705 73.4982 49.3426 73.5942C49.2467 73.6901 49.1347 73.802 49.0068 73.9299C48.751 74.1538 48.5111 74.3297 48.2873 74.4576C48.0634 74.5536 47.8875 74.6015 47.7596 74.6015C47.5357 74.7294 47.3599 74.8094 47.2319 74.8414C47.136 74.8733 47.088 74.9533 47.088 75.0812C46.7682 75.401 46.3685 75.6249 45.8888 75.7528C45.4411 75.8487 44.7695 75.8967 43.8741 75.8967ZM57.9093 74.6495C57.5575 74.4256 57.2377 74.1378 56.9499 73.786C56.6621 73.4023 56.5182 72.9226 56.5182 72.3469C56.5182 72.0272 56.5821 71.4835 56.7101 70.716C56.838 69.9485 57.0139 69.085 57.2377 68.1256C57.4616 67.1662 57.6854 66.2708 57.9093 65.4393C58.2291 64.8637 58.5009 64.2881 58.7248 63.7124C58.9486 63.1368 59.0606 62.785 59.0606 62.6571C59.1245 62.2733 59.2045 61.8256 59.3004 61.3139C59.4283 60.8023 59.5562 60.3386 59.6842 59.9228C59.8121 59.5071 59.908 59.2672 59.972 59.2033C60.1319 59.0434 60.3238 58.9474 60.5476 58.9155C60.7715 58.8515 60.9953 58.8835 61.2192 59.0114C61.475 59.1073 61.6669 59.3152 61.7948 59.635C62.1466 60.0188 62.3225 60.4825 62.3225 61.0261C62.3225 61.5378 62.1466 62.3053 61.7948 63.3287C61.507 63.9683 61.2192 64.7198 60.9314 65.5832C60.6436 66.4467 60.3877 67.2462 60.1639 67.9817C59.972 68.6853 59.8601 69.165 59.8281 69.4208L58.8687 69.7086C59.4123 69.1969 59.924 68.6693 60.4037 68.1256C60.8834 67.55 61.2352 67.1023 61.459 66.7825C62.0027 66.0469 62.4664 65.4393 62.8502 64.9596C63.2659 64.448 63.7936 63.8403 64.4332 63.1368C65.0728 62.4013 65.6964 61.9535 66.304 61.7936C66.9436 61.6018 67.4393 61.5058 67.791 61.5058C68.4946 61.6337 69.0542 62.0015 69.47 62.6091C69.9177 63.1848 70.2055 64.0482 70.3334 65.1995C70.3334 65.6472 70.2855 66.1749 70.1895 66.7825C70.1256 67.3901 70.0936 67.6939 70.0936 67.6939C70.0936 67.6939 70.3494 67.3581 70.8611 66.6865C71.4047 66.015 72.1243 65.2794 73.0197 64.4799C73.6273 64.0322 74.219 63.7764 74.7946 63.7124C75.3702 63.6165 75.8819 63.8084 76.3296 64.2881C77.1611 64.7358 77.7047 65.4233 77.9606 66.3507C78.2164 67.2462 78.2804 68.3975 78.1525 69.8046C78.0565 70.636 78.0405 71.2596 78.1045 71.6754C78.1685 72.0591 78.2644 72.4429 78.3923 72.8266C78.6482 72.9546 78.6961 73.2264 78.5362 73.6421C78.3763 74.0259 78.1844 74.2178 77.9606 74.2178C77.6408 74.2178 77.273 74.1538 76.8573 74.0259C76.4735 73.898 76.1218 73.6901 75.802 73.4023C75.5141 73.0825 75.3702 72.6508 75.3702 72.1071V69.133C75.3702 68.4294 75.3382 67.8538 75.2743 67.4061C75.2423 66.9584 75.1624 66.6865 75.0344 66.5906C74.6827 66.3987 74.171 66.6066 73.4994 67.2142C72.8278 67.8218 72.1083 68.6373 71.3408 69.6607C70.5733 70.684 69.8537 71.7393 69.1822 72.8266C68.5745 73.818 68.1908 74.3937 68.0309 74.5536C67.903 74.6815 67.6631 74.6335 67.3113 74.4096C66.6078 74.1858 66.1601 73.882 65.9682 73.4982C65.8083 73.0825 65.7923 72.6188 65.9202 72.1071C66.0801 71.5634 66.272 70.8279 66.4959 69.9005C66.7517 68.9731 66.9915 68.0777 67.2154 67.2142C67.4393 66.3188 67.5832 65.6792 67.6471 65.2954C67.5192 65.0396 67.2953 64.9596 66.9755 65.0556C66.6877 65.1195 66.3839 65.2634 66.0641 65.4873C65.6804 65.7431 65.2167 66.2228 64.673 66.9264C64.1294 67.6299 63.5697 68.4454 62.9941 69.3728C62.6103 69.9804 62.2106 70.5881 61.7948 71.1957C61.3791 71.7713 60.9953 72.283 60.6436 72.7307C60.2918 73.1784 59.988 73.5142 59.7321 73.7381C59.2844 74.4416 58.9806 74.8254 58.8207 74.8893C58.6608 74.9533 58.357 74.8733 57.9093 74.6495ZM87.1022 77.1439C85.6951 77.1439 84.5438 76.6162 83.6484 75.5609C82.7529 74.4736 82.3212 73.1305 82.3532 71.5315C82.4171 70.3802 82.641 69.149 83.0248 67.8378C83.4405 66.4947 83.9841 65.2155 84.6557 64.0002C85.3273 62.753 86.0628 61.6657 86.8623 60.7383C87.6618 59.8109 88.4933 59.1553 89.3567 58.7716C89.6765 58.6117 90.0123 58.4837 90.3641 58.3878C90.7479 58.2919 91.1316 58.2439 91.5154 58.2439C91.8671 58.2439 92.2349 58.3078 92.6187 58.4358C93.0024 58.5317 93.3222 58.6436 93.5781 58.7716C94.1217 58.9954 94.5375 59.2672 94.8253 59.587C95.1131 59.9068 95.3689 60.4025 95.5928 61.0741C95.6887 61.6817 95.7367 62.1134 95.7367 62.3693C95.7367 62.6251 95.6567 63.0089 95.4968 63.5205C95.1131 64.6718 94.6174 65.6632 94.0098 66.4947C93.4022 67.3261 92.5867 68.0297 91.5633 68.6053C91.3075 68.7652 91.0037 68.8931 90.6519 68.9891C90.3321 69.053 89.9963 69.085 89.6446 69.085C89.005 69.085 88.3814 68.9731 87.7737 68.7492C87.1981 68.4934 86.7344 68.1256 86.3826 67.6459L86.0468 67.2622L85.9029 67.6459C85.5831 68.5094 85.3273 69.3089 85.1354 70.0444C84.9755 70.7799 84.8956 71.4515 84.8956 72.0591C84.8956 72.4429 84.9275 72.8107 84.9915 73.1624C85.0874 73.5142 85.2154 73.818 85.3753 74.0739C85.5032 74.2657 85.7111 74.4096 85.9989 74.5056C86.3187 74.5695 86.6545 74.6015 87.0062 74.6015C87.2301 74.6015 87.4539 74.6015 87.6778 74.6015C87.9336 74.5695 88.1735 74.5056 88.3973 74.4096C88.941 74.2178 89.3727 74.0099 89.6925 73.786C90.0443 73.5622 90.3961 73.3223 90.7479 73.0665L90.9397 72.9706H90.8918C91.2755 72.7787 91.6113 72.5868 91.8991 72.3949C92.2189 72.203 92.3788 72.1071 92.3788 72.1071C92.5067 72.1071 92.6347 72.0272 92.7626 71.8673C93.0184 71.7393 93.3382 71.7873 93.722 72.0112C94.1377 72.235 94.3456 72.5228 94.3456 72.8746C94.3136 73.0345 94.1697 73.2904 93.9139 73.6421C93.658 73.9619 93.3702 74.2657 93.0504 74.5536C92.7626 74.8414 92.5227 75.0013 92.3309 75.0332C92.2989 75.0652 92.1869 75.1292 91.9951 75.2251C91.8032 75.2891 91.6753 75.353 91.6113 75.417H91.6593C91.3715 75.8008 91.0836 75.9926 90.7958 75.9926H90.4121C90.2842 76.2165 89.8684 76.4723 89.1649 76.7602C88.4613 77.016 87.7737 77.1439 87.1022 77.1439ZM89.2608 66.5906C89.8364 66.5906 90.3321 66.4307 90.7479 66.1109C91.1956 65.7591 91.5793 65.3754 91.8991 64.9596C92.5387 64.0962 92.9065 63.2647 93.0024 62.4652C93.1303 61.6337 93.0344 61.0581 92.7146 60.7383C92.5227 60.6424 92.3468 60.5944 92.1869 60.5944C92.059 60.5624 91.7872 60.6104 91.3715 60.7383C91.0836 60.8023 90.6839 61.0421 90.1722 61.4578C89.6605 61.8736 89.1489 62.3373 88.6372 62.849C88.1575 63.3606 87.7897 63.7924 87.5339 64.1441L86.9103 65.1515C87.1661 65.0556 87.406 65.0076 87.6298 65.0076C87.8857 64.9756 88.0296 64.9916 88.0616 65.0556C88.0616 65.3434 88.1095 65.6152 88.2055 65.8711C88.3334 66.0949 88.4773 66.2708 88.6372 66.3987C88.8291 66.5266 89.0369 66.5906 89.2608 66.5906Z" fill="#002D6E"/>
</svg>
