<svg width="91" height="44" viewBox="0 0 91 44" fill="none" xmlns="http://www.w3.org/2000/svg">
<path d="M5.59 19.144C5.45133 19.144 5.29533 19.0313 5.122 18.806C4.94867 18.5807 4.87067 18.364 4.888 18.156C4.90533 17.8787 4.98333 17.48 5.122 16.96C5.26067 16.44 5.41667 15.9113 5.59 15.374C5.76333 14.8367 5.91933 14.412 6.058 14.1C6.12733 13.8227 6.188 13.58 6.24 13.372C6.30933 13.1467 6.35267 12.9993 6.37 12.93C6.422 12.8607 6.5 12.6787 6.604 12.384C6.72533 12.0893 6.82067 11.8033 6.89 11.526C6.92467 11.3873 6.994 11.1273 7.098 10.746C7.21933 10.3473 7.358 9.888 7.514 9.368C7.68733 8.848 7.852 8.33667 8.008 7.834C8.18133 7.33133 8.32867 6.88933 8.45 6.508C8.57133 6.12667 8.64933 5.87533 8.684 5.754C8.82267 5.546 8.92667 5.34667 8.996 5.156C9.06533 4.96533 9.10867 4.83533 9.126 4.766C9.23 4.69667 9.29067 4.61 9.308 4.506C9.32533 4.38467 9.334 4.28933 9.334 4.22C9.334 4.13333 9.36 4.064 9.412 4.012C9.48133 3.96 9.516 3.89933 9.516 3.83C9.58533 3.778 9.62867 3.7 9.646 3.596C9.66333 3.47467 9.71533 3.37067 9.802 3.284L9.932 2.842L11.466 2.816C11.4313 3.024 11.3793 3.284 11.31 3.596C11.2407 3.89067 11.076 4.28933 10.816 4.792C10.7293 5.13867 10.6253 5.45067 10.504 5.728C10.4 6.00533 10.3567 6.18733 10.374 6.274C10.3393 6.30867 10.2613 6.482 10.14 6.794C10.036 7.106 9.906 7.48733 9.75 7.938C9.61133 8.38867 9.464 8.83933 9.308 9.29C9.16933 9.74067 9.03933 10.1393 8.918 10.486C8.814 10.8153 8.74467 11.0233 8.71 11.11C8.57133 11.3873 8.41533 11.7947 8.242 12.332C8.06867 12.8693 7.80867 13.5973 7.462 14.516C7.32333 14.7933 7.15 15.2093 6.942 15.764C6.75133 16.3187 6.59533 16.8213 6.474 17.272C6.28333 17.948 6.14467 18.416 6.058 18.676C5.98867 18.9533 5.928 19.1007 5.876 19.118C5.824 19.1527 5.72867 19.1613 5.59 19.144ZM5.798 3.648C5.31267 3.66533 4.94867 3.63933 4.706 3.57C4.48067 3.50067 4.40267 3.32733 4.472 3.05C4.524 2.842 4.63667 2.686 4.81 2.582C4.98333 2.478 5.23467 2.4 5.564 2.348C5.75467 2.31333 5.99733 2.27 6.292 2.218C6.604 2.166 6.89867 2.114 7.176 2.062C7.748 1.99267 8.216 1.932 8.58 1.88C8.96133 1.828 9.35133 1.78467 9.75 1.75C10.1487 1.71533 10.6513 1.68067 11.258 1.646C11.7607 1.61133 12.1853 1.58533 12.532 1.568C12.896 1.53333 13.078 1.516 13.078 1.516C13.13 1.516 13.312 1.53333 13.624 1.568C13.936 1.60267 14.274 1.646 14.638 1.698C15.002 1.75 15.2707 1.81067 15.444 1.88C15.8427 1.96667 16.1287 2.088 16.302 2.244C16.4927 2.4 16.6227 2.62533 16.692 2.92C16.744 3.128 16.744 3.258 16.692 3.31C16.64 3.34467 16.5447 3.39667 16.406 3.466C16.0073 3.58733 15.7127 3.648 15.522 3.648C15.3313 3.648 15.1147 3.60467 14.872 3.518C14.7853 3.43133 14.6813 3.35333 14.56 3.284C14.456 3.21467 14.2653 3.16267 13.988 3.128C13.728 3.076 13.312 3.03267 12.74 2.998C12.2547 3.05 11.83 3.076 11.466 3.076C11.102 3.076 10.92 3.11933 10.92 3.206L9.386 3.284L8.112 3.414C7.93867 3.43133 7.696 3.45733 7.384 3.492C7.072 3.50933 6.76867 3.53533 6.474 3.57C6.17933 3.58733 5.954 3.61333 5.798 3.648ZM16.2624 17.922C16.0024 17.922 15.6731 17.9047 15.2744 17.87C14.8931 17.8353 14.5637 17.5927 14.2864 17.142C14.1131 16.8473 13.9831 16.5093 13.8964 16.128C13.8271 15.7467 13.8271 15.478 13.8964 15.322C14.1391 13.9873 14.3297 13.0687 14.4684 12.566C14.6071 12.0633 14.6851 11.7773 14.7024 11.708C14.7371 11.6387 14.8064 11.474 14.9104 11.214C15.0317 10.9367 15.1011 10.7633 15.1184 10.694C15.2051 10.4167 15.2311 10.1047 15.1964 9.758C15.1791 9.61933 15.1877 9.498 15.2224 9.394C15.2744 9.27267 15.3524 9.16867 15.4564 9.082C15.7511 8.85667 15.9851 8.562 16.1584 8.198C16.2104 8.07667 16.3057 7.86867 16.4444 7.574C16.6004 7.262 16.7564 6.95867 16.9124 6.664C17.0857 6.352 17.2157 6.13533 17.3024 6.014C17.5797 5.66733 17.8311 5.30333 18.0564 4.922C18.2991 4.52333 18.5937 4.17667 18.9404 3.882C19.1657 3.50067 19.4517 3.154 19.7984 2.842C20.1451 2.51267 20.4917 2.20933 20.8384 1.932C21.1851 1.65467 21.4624 1.412 21.6704 1.204C21.7571 1.11733 21.9911 1.03933 22.3724 0.969999C22.7711 0.883333 23.0917 0.805333 23.3344 0.735999C23.4384 0.683999 23.6377 0.727332 23.9324 0.865999C24.2271 0.987333 24.4351 1.126 24.5564 1.282C24.7817 1.66333 24.9117 1.97533 24.9464 2.218C24.9984 2.46067 24.9637 2.74667 24.8424 3.076C24.7384 3.388 24.5304 3.87333 24.2184 4.532C23.8717 5.22533 23.3777 5.884 22.7364 6.508C22.1124 7.11467 21.4711 7.64333 20.8124 8.094C20.4831 8.38867 20.1364 8.65733 19.7724 8.9C19.4257 9.14267 19.0704 9.35933 18.7064 9.55C18.4811 9.67133 18.2471 9.784 18.0044 9.888C17.7791 9.992 17.5451 10.0873 17.3024 10.174C17.1811 10.2087 17.0684 10.278 16.9644 10.382C16.8604 10.4687 16.7737 10.5987 16.7044 10.772C16.6004 11.0147 16.5397 11.2227 16.5224 11.396C16.5224 11.552 16.4704 11.682 16.3664 11.786C16.3144 11.838 16.2364 12.046 16.1324 12.41C16.0457 12.7567 15.9417 13.1727 15.8204 13.658C15.7164 14.126 15.6297 14.568 15.5604 14.984C15.4911 15.3827 15.4651 15.6513 15.4824 15.79C15.4997 15.8767 15.5171 15.972 15.5344 16.076C15.5691 16.1627 15.6471 16.232 15.7684 16.284C16.0284 16.232 16.2364 16.1453 16.3924 16.024C16.5484 15.8853 16.7217 15.7033 16.9124 15.478C17.1204 15.218 17.3111 14.9407 17.4844 14.646C17.6751 14.3513 17.8311 14.048 17.9524 13.736C18.0217 13.5453 18.0737 13.346 18.1084 13.138C18.1431 12.9127 18.2037 12.7133 18.2904 12.54C18.2904 12.1413 18.2817 11.8467 18.2644 11.656C18.2644 11.448 18.2471 11.2833 18.2124 11.162C18.1951 11.0233 18.1517 10.8673 18.0824 10.694C18.2211 10.6073 18.2991 10.538 18.3164 10.486C18.3511 10.434 18.4291 10.4253 18.5504 10.46C18.7757 10.512 18.9837 10.5987 19.1744 10.72C19.3824 10.8413 19.5817 10.9973 19.7724 11.188C19.8417 11.2573 19.8851 11.3267 19.9024 11.396C19.9197 11.4653 19.9111 11.5433 19.8764 11.63C19.8591 11.838 19.8331 12.046 19.7984 12.254C19.7811 12.4447 19.7724 12.6353 19.7724 12.826C19.6511 13.0513 19.5731 13.294 19.5384 13.554C19.5037 13.7967 19.4431 14.0393 19.3564 14.282C19.2524 14.5073 19.1484 14.7327 19.0444 14.958C18.9404 15.1833 18.8191 15.3913 18.6804 15.582C18.4724 15.9633 18.2297 16.3013 17.9524 16.596C17.6924 16.8907 17.4151 17.1593 17.1204 17.402L16.2624 17.922ZM17.4584 8.328C17.6664 8.36267 17.8137 8.37133 17.9004 8.354C18.0044 8.31933 18.1084 8.23267 18.2124 8.094C19.0271 7.55667 19.7724 7.028 20.4484 6.508C21.1244 5.97067 21.6877 5.45933 22.1384 4.974C22.6064 4.47133 22.9097 4.02933 23.0484 3.648C23.1351 3.45733 23.2304 3.27533 23.3344 3.102C23.4557 2.92867 23.5337 2.72933 23.5684 2.504L23.4644 1.776C22.9791 2.00133 22.5891 2.20933 22.2944 2.4C22.0171 2.59067 21.6531 2.91133 21.2024 3.362C21.0291 3.53533 20.7691 3.83 20.4224 4.246C20.0931 4.64467 19.7291 5.09533 19.3304 5.598C18.9317 6.10067 18.5591 6.59467 18.2124 7.08C17.8831 7.56533 17.6317 7.98133 17.4584 8.328ZM22.6399 17.168C22.5012 17.0293 22.3972 16.856 22.3279 16.648C22.2759 16.44 22.2586 16.232 22.2759 16.024C22.2932 15.816 22.3366 15.6427 22.4059 15.504C22.4059 15.3653 22.4232 15.2613 22.4579 15.192C22.5099 15.1053 22.5272 15.0273 22.5099 14.958C22.4926 14.8887 22.5099 14.7673 22.5619 14.594C22.6139 14.4207 22.6659 14.256 22.7179 14.1C22.8392 13.8227 22.9692 13.4933 23.1079 13.112C23.2466 12.7133 23.3766 12.3233 23.4979 11.942C23.6192 11.5607 23.7232 11.2313 23.8099 10.954C23.8966 10.6767 23.9486 10.5033 23.9659 10.434C23.9659 10.226 24.1046 10.1133 24.3819 10.096C24.5899 10.0267 24.7459 10.0267 24.8499 10.096C24.9539 10.148 25.0926 10.3127 25.2659 10.59C25.4046 10.7287 25.4566 10.9367 25.4219 11.214C25.3872 11.4913 25.2746 11.838 25.0839 12.254C25.0146 12.3927 24.9279 12.592 24.8239 12.852C24.7372 13.112 24.6766 13.346 24.6419 13.554C24.5726 13.6927 24.4859 13.892 24.3819 14.152C24.2952 14.3947 24.2172 14.6287 24.1479 14.854C24.1132 14.9407 24.0786 15.0707 24.0439 15.244C24.0092 15.4 23.9659 15.5733 23.9139 15.764C23.8619 15.9373 23.7926 16.0933 23.7059 16.232C23.5499 16.9427 23.4026 17.3587 23.2639 17.48C23.1426 17.6013 22.9346 17.4973 22.6399 17.168ZM25.1619 6.612C25.0752 6.52533 24.9972 6.404 24.9279 6.248C24.8586 6.07467 24.8152 5.91867 24.7979 5.78C24.7806 5.624 24.7979 5.546 24.8499 5.546C24.9886 5.52867 25.1532 5.38133 25.3439 5.104C25.5346 4.82667 25.6126 4.584 25.5779 4.376C25.5779 4.30667 25.6039 4.246 25.6559 4.194C25.7079 4.12467 25.7686 4.08133 25.8379 4.064C26.0459 3.92533 26.2452 3.908 26.4359 4.012C26.6439 4.09867 26.8346 4.28067 27.0079 4.558C27.1639 4.88733 27.2072 5.16467 27.1379 5.39C27.0686 5.598 26.8779 5.89267 26.5659 6.274C26.3059 6.62067 26.0632 6.81133 25.8379 6.846C25.6299 6.88067 25.4046 6.80267 25.1619 6.612ZM33.4175 17.948C33.2962 18.0173 33.1315 17.9913 32.9235 17.87C32.7328 17.7487 32.5422 17.5667 32.3515 17.324C32.2302 17.116 32.1435 16.8907 32.0915 16.648C32.0568 16.4053 32.0395 16.0673 32.0395 15.634C32.0568 15.2873 32.0395 15.062 31.9875 14.958C31.9528 14.854 31.8575 14.8713 31.7015 15.01C31.5455 15.1313 31.2768 15.3827 30.8955 15.764C30.4622 16.1973 30.0462 16.5353 29.6475 16.778C29.2662 17.0207 28.9542 17.1333 28.7115 17.116C28.5902 17.116 28.4515 17.0553 28.2955 16.934C28.1568 16.7953 28.0268 16.6307 27.9055 16.44C27.7842 16.232 27.6802 16.024 27.5935 15.816C27.4895 15.4347 27.4722 14.9493 27.5415 14.36C27.6282 13.7533 27.7668 13.1207 27.9575 12.462C28.1482 11.8033 28.3648 11.1793 28.6075 10.59C28.8675 10.0007 29.1275 9.524 29.3875 9.16C29.6648 8.796 29.9075 8.614 30.1155 8.614C30.2542 8.614 30.3755 8.68333 30.4795 8.822C30.6008 8.96067 30.7222 9.17733 30.8435 9.472C30.9128 9.59333 30.9388 9.69733 30.9215 9.784C30.9215 9.87067 30.8522 9.97467 30.7135 10.096C30.5575 10.304 30.3755 10.616 30.1675 11.032C29.9768 11.448 29.7862 11.8987 29.5955 12.384C29.4222 12.8693 29.2662 13.3373 29.1275 13.788C28.9888 14.2387 28.8935 14.6113 28.8415 14.906C28.7895 15.1833 28.7982 15.322 28.8675 15.322C29.1102 15.322 29.3962 15.2267 29.7255 15.036C30.0722 14.828 30.4015 14.5767 30.7135 14.282C31.0775 13.918 31.3982 13.5193 31.6755 13.086C31.9702 12.6527 32.2648 12.1933 32.5595 11.708C32.7848 11.3613 33.0188 10.98 33.2615 10.564C33.5215 10.148 33.6862 9.85333 33.7555 9.68C33.9982 9.22933 34.1802 8.926 34.3015 8.77C34.4228 8.59667 34.5702 8.484 34.7435 8.432C34.8302 8.432 34.9082 8.432 34.9775 8.432C35.0642 8.432 35.1075 8.432 35.1075 8.432C35.2115 8.44933 35.3328 8.52733 35.4715 8.666C35.6102 8.73533 35.6882 8.80467 35.7055 8.874C35.7228 8.926 35.7315 8.99533 35.7315 9.082C35.6622 9.25533 35.5495 9.51533 35.3935 9.862C35.2548 10.1913 35.1508 10.434 35.0815 10.59C34.7522 11.3353 34.4228 12.072 34.0935 12.8C33.7815 13.5107 33.5562 14.2387 33.4175 14.984C33.3828 15.2267 33.3742 15.5127 33.3915 15.842C33.4262 16.154 33.4782 16.3793 33.5475 16.518C33.5995 16.622 33.6602 16.7433 33.7295 16.882C33.8162 17.0033 33.9115 17.1073 34.0155 17.194C34.1715 17.298 34.1975 17.4107 34.0935 17.532C34.0068 17.6533 33.8855 17.7573 33.7295 17.844C33.5735 17.9133 33.4695 17.948 33.4175 17.948ZM33.0795 7.158C32.5422 7.22733 32.0915 7.07133 31.7275 6.69C31.3635 6.30867 31.0862 5.74533 30.8955 5C30.8608 4.86133 30.8435 4.74 30.8435 4.636C30.8608 4.51467 30.8955 4.41067 30.9475 4.324C30.9822 4.25467 31.0515 4.20267 31.1555 4.168C31.2595 4.116 31.3462 4.10733 31.4155 4.142C31.6582 4.22867 31.8315 4.34133 31.9355 4.48C32.0568 4.60133 32.1348 4.75733 32.1695 4.948C32.2042 5.03467 32.2215 5.12133 32.2215 5.208C32.2388 5.29467 32.2475 5.32933 32.2475 5.312C32.3342 5.58933 32.4468 5.78 32.5855 5.884C32.7242 5.988 32.9322 5.97933 33.2095 5.858C33.5042 5.73667 33.7902 5.598 34.0675 5.442C34.3622 5.286 34.6222 5.09533 34.8475 4.87C35.0382 4.67933 35.2202 4.506 35.3935 4.35C35.5842 4.194 35.7662 4.02933 35.9395 3.856L35.9655 3.83C36.0348 3.778 36.1215 3.76067 36.2255 3.778C36.3295 3.79533 36.3902 3.82133 36.4075 3.856C36.5288 3.97733 36.5895 4.09867 36.5895 4.22C36.5895 4.34133 36.5895 4.47133 36.5895 4.61L36.5635 4.662C36.5982 4.766 36.5115 4.96533 36.3035 5.26C36.1128 5.55467 35.8788 5.806 35.6015 6.014C35.3588 6.20467 35.0988 6.378 34.8215 6.534C34.5442 6.69 34.2582 6.83733 33.9635 6.976C33.8422 7.04533 33.7122 7.08867 33.5735 7.106C33.4522 7.106 33.2875 7.12333 33.0795 7.158ZM46.1102 17.87C45.9889 17.8007 45.8589 17.7313 45.7202 17.662C45.5989 17.5927 45.4775 17.5233 45.3562 17.454C45.2522 17.3847 45.1569 17.3153 45.0702 17.246C44.7062 16.9167 44.4635 16.5613 44.3422 16.18C44.2382 15.7813 44.2035 15.4 44.2382 15.036C44.2729 14.672 44.3249 14.36 44.3942 14.1C44.4635 13.8227 44.4982 13.632 44.4982 13.528C44.4809 13.3893 44.5069 13.2593 44.5762 13.138C44.6455 12.9993 44.7149 12.8607 44.7842 12.722C45.0962 12.1153 45.3822 11.5953 45.6422 11.162C45.9195 10.7113 46.3182 10.1913 46.8382 9.602C46.9422 9.51533 47.0375 9.43733 47.1242 9.368C47.2282 9.28133 47.3322 9.22067 47.4362 9.186L48.0342 9.628C48.1035 9.69733 48.1469 9.784 48.1642 9.888C48.1815 9.97467 48.1642 10.096 48.1122 10.252C48.0775 10.3733 48.0342 10.4947 47.9822 10.616C47.9475 10.72 47.8955 10.8153 47.8262 10.902C47.5315 11.1793 47.2975 11.4913 47.1242 11.838C46.9509 12.1673 46.7689 12.5053 46.5782 12.852C46.5782 13.008 46.5175 13.138 46.3962 13.242C46.2749 13.3287 46.2055 13.4587 46.1882 13.632C46.1882 13.7533 46.1709 13.8747 46.1362 13.996C46.1015 14.1173 46.0669 14.2473 46.0322 14.386C45.9109 14.6633 45.8589 14.932 45.8762 15.192C45.8935 15.452 45.9022 15.7207 45.9022 15.998C46.0409 16.0673 46.1622 16.1107 46.2662 16.128C46.3702 16.128 46.5089 16.0413 46.6822 15.868C47.0289 15.5733 47.2715 15.3133 47.4102 15.088C47.5662 14.8627 47.6875 14.6373 47.7742 14.412C47.8609 14.1867 47.9822 13.9267 48.1382 13.632C48.3115 13.3373 48.4589 12.9647 48.5802 12.514C48.7015 12.0633 48.7882 11.6387 48.8402 11.24C48.8922 10.824 48.8922 10.5467 48.8402 10.408C48.8229 10.3213 48.8315 10.2173 48.8662 10.096C48.9009 9.97467 48.8489 9.85333 48.7102 9.732C48.7795 9.66267 48.8142 9.53267 48.8142 9.342C48.8142 9.15133 48.7969 8.952 48.7622 8.744C48.7275 8.536 48.6755 8.38867 48.6062 8.302C48.5715 7.60867 48.5455 7.028 48.5282 6.56C48.5282 6.07467 48.5369 5.65867 48.5542 5.312C48.5889 4.948 48.6322 4.61 48.6842 4.298C48.7015 4.246 48.8055 4.07267 48.9962 3.778C49.2042 3.466 49.3949 3.22333 49.5682 3.05C49.8629 2.79 50.2615 2.59067 50.7642 2.452C51.2842 2.296 51.7262 2.23533 52.0902 2.27C52.0729 2.28733 52.1769 2.296 52.4022 2.296C52.6449 2.296 52.9135 2.28733 53.2082 2.27C53.5029 2.25267 53.7195 2.23533 53.8582 2.218C53.9969 2.18333 54.1355 2.14867 54.2742 2.114C54.4129 2.07933 54.6469 1.96667 54.9762 1.776C55.1149 1.68933 55.2275 1.66333 55.3142 1.698L56.0162 2.296C55.9989 2.78133 55.8775 3.14533 55.6522 3.388C55.4269 3.61333 54.9935 3.76067 54.3522 3.83C54.2482 3.83 54.1355 3.83 54.0142 3.83C53.8929 3.81267 53.7715 3.82133 53.6502 3.856C53.5462 3.89067 53.4509 3.89067 53.3642 3.856C53.2949 3.82133 53.1909 3.804 53.0522 3.804C52.8615 3.804 52.6622 3.83 52.4542 3.882C52.2462 3.91667 52.0295 3.908 51.8042 3.856C51.1802 4.02933 50.6949 4.26333 50.3482 4.558C50.0015 4.85267 49.8282 5.338 49.8282 6.014C49.8975 6.65533 49.9842 7.22733 50.0882 7.73C50.2095 8.23267 50.2702 8.78733 50.2702 9.394C50.3049 9.55 50.3482 9.68 50.4002 9.784C50.4522 9.888 50.4262 10.0007 50.3222 10.122C50.4089 10.5207 50.4522 10.9107 50.4522 11.292C50.4522 11.656 50.4002 11.9333 50.2962 12.124C50.2615 12.2453 50.2355 12.4707 50.2182 12.8C50.2182 13.112 50.1315 13.4413 49.9582 13.788C49.5595 14.6027 49.1522 15.3307 48.7362 15.972C48.3202 16.596 47.7915 17.1247 47.1502 17.558C47.0289 17.6273 46.8815 17.6793 46.7082 17.714C46.5522 17.7487 46.3529 17.8007 46.1102 17.87ZM52.6262 17.168C52.4876 17.0293 52.3836 16.856 52.3142 16.648C52.2622 16.44 52.2449 16.232 52.2622 16.024C52.2796 15.816 52.3229 15.6427 52.3922 15.504C52.3922 15.3653 52.4096 15.2613 52.4442 15.192C52.4962 15.1053 52.5136 15.0273 52.4962 14.958C52.4789 14.8887 52.4962 14.7673 52.5482 14.594C52.6002 14.4207 52.6522 14.256 52.7042 14.1C52.8256 13.8227 52.9556 13.4933 53.0942 13.112C53.2329 12.7133 53.3629 12.3233 53.4842 11.942C53.6056 11.5607 53.7096 11.2313 53.7962 10.954C53.8829 10.6767 53.9349 10.5033 53.9522 10.434C53.9522 10.226 54.0909 10.1133 54.3682 10.096C54.5762 10.0267 54.7322 10.0267 54.8362 10.096C54.9402 10.148 55.0789 10.3127 55.2522 10.59C55.3909 10.7287 55.4429 10.9367 55.4082 11.214C55.3736 11.4913 55.2609 11.838 55.0702 12.254C55.0009 12.3927 54.9142 12.592 54.8102 12.852C54.7236 13.112 54.6629 13.346 54.6282 13.554C54.5589 13.6927 54.4722 13.892 54.3682 14.152C54.2816 14.3947 54.2036 14.6287 54.1342 14.854C54.0996 14.9407 54.0649 15.0707 54.0302 15.244C53.9956 15.4 53.9522 15.5733 53.9002 15.764C53.8482 15.9373 53.7789 16.0933 53.6922 16.232C53.5362 16.9427 53.3889 17.3587 53.2502 17.48C53.1289 17.6013 52.9209 17.4973 52.6262 17.168ZM55.1482 6.612C55.0616 6.52533 54.9836 6.404 54.9142 6.248C54.8449 6.07467 54.8016 5.91867 54.7842 5.78C54.7669 5.624 54.7842 5.546 54.8362 5.546C54.9749 5.52867 55.1396 5.38133 55.3302 5.104C55.5209 4.82667 55.5989 4.584 55.5642 4.376C55.5642 4.30667 55.5902 4.246 55.6422 4.194C55.6942 4.12467 55.7549 4.08133 55.8242 4.064C56.0322 3.92533 56.2316 3.908 56.4222 4.012C56.6302 4.09867 56.8209 4.28067 56.9942 4.558C57.1502 4.88733 57.1936 5.16467 57.1242 5.39C57.0549 5.598 56.8642 5.89267 56.5522 6.274C56.2922 6.62067 56.0496 6.81133 55.8242 6.846C55.6162 6.88067 55.3909 6.80267 55.1482 6.612ZM54.6418 25.774C54.2605 25.774 53.8965 25.7047 53.5498 25.566C53.1858 25.4273 52.8478 25.202 52.5358 24.89C52.3798 24.5087 52.2672 24.2573 52.1978 24.136C52.1112 24.032 51.9552 23.876 51.7298 23.668C51.7298 23.5813 51.7645 23.4167 51.8338 23.174C51.9032 22.9487 52.0072 22.7493 52.1458 22.576C52.5098 22.1427 52.9518 21.7527 53.4718 21.406C53.9918 21.0767 54.5985 20.7907 55.2918 20.548C55.3785 20.5133 55.4652 20.47 55.5518 20.418C55.6558 20.3833 55.7512 20.366 55.8378 20.366C55.9245 20.366 55.9765 20.314 55.9938 20.21C56.0285 20.106 56.1065 20.0973 56.2278 20.184C56.3145 20.1493 56.3838 20.106 56.4358 20.054C56.4878 20.002 56.5745 19.9933 56.6958 20.028C56.6958 20.028 56.7912 20.002 56.9818 19.95C57.1898 19.898 57.4238 19.8287 57.6838 19.742C57.9438 19.6727 58.1692 19.6033 58.3598 19.534C58.5678 19.482 58.6718 19.456 58.6718 19.456C58.7065 18.988 58.7152 18.5027 58.6978 18C58.6978 17.4973 58.5592 17.1247 58.2818 16.882C58.1085 16.6913 57.9698 16.4747 57.8658 16.232C57.7792 15.9893 57.6665 15.7293 57.5278 15.452C57.5625 15.296 57.6232 15.166 57.7098 15.062C57.7965 14.958 57.9178 14.8713 58.0738 14.802C58.4032 14.646 58.8018 14.4033 59.2698 14.074C59.7552 13.7273 60.2492 13.32 60.7518 12.852C61.2545 12.384 61.6965 11.8813 62.0778 11.344C62.3205 10.9973 62.4072 10.668 62.3378 10.356C62.2858 10.044 61.9825 9.85333 61.4278 9.784C61.0812 9.784 60.6912 9.90533 60.2578 10.148C59.8245 10.3733 59.3738 10.6853 58.9058 11.084C58.6285 11.188 58.4292 11.162 58.3078 11.006C58.1865 10.8327 58.0912 10.642 58.0218 10.434C58.0565 10.2433 58.1258 10.0787 58.2298 9.94C58.3338 9.784 58.4465 9.63667 58.5678 9.498C58.7065 9.35933 58.8278 9.212 58.9318 9.056C59.0705 8.98667 59.1918 8.91733 59.2958 8.848C59.3998 8.76133 59.5125 8.68333 59.6338 8.614C59.7378 8.54467 59.8418 8.49267 59.9458 8.458C60.0672 8.406 60.1885 8.38 60.3098 8.38C60.4138 8.38 60.5178 8.36267 60.6218 8.328C60.7258 8.276 60.8385 8.25 60.9598 8.25C61.7745 8.28467 62.4158 8.59667 62.8838 9.186C63.3518 9.77533 63.5598 10.356 63.5078 10.928C63.4732 11.5 63.1785 12.2453 62.6238 13.164C62.4678 13.424 62.2078 13.7013 61.8438 13.996C61.4972 14.2907 61.1245 14.5767 60.7258 14.854C60.3445 15.1313 60.0065 15.374 59.7118 15.582C59.4172 15.7727 59.2438 15.894 59.1918 15.946C59.3478 16.1367 59.5125 16.4573 59.6858 16.908C59.8592 17.3413 59.9978 17.7833 60.1018 18.234C60.2232 18.702 60.2405 19.066 60.1538 19.326C60.3272 19.3607 60.5438 19.3433 60.8038 19.274C61.0812 19.222 61.2978 19.196 61.4538 19.196C61.6098 19.352 61.7658 19.4993 61.9218 19.638C62.0778 19.7767 62.1558 19.924 62.1558 20.08C62.1905 20.184 62.1645 20.2793 62.0778 20.366C62.0085 20.4527 61.9305 20.5047 61.8438 20.522C61.6185 20.5567 61.3325 20.5653 60.9858 20.548C60.6392 20.5307 60.3012 20.5913 59.9718 20.73C59.7292 21.094 59.5212 21.4927 59.3478 21.926C59.1745 22.3767 58.9492 22.836 58.6718 23.304C58.3945 23.7893 57.9612 24.2833 57.3718 24.786C57.1638 24.9593 56.9472 25.1153 56.7218 25.254C56.4965 25.41 56.3145 25.488 56.1758 25.488C55.8985 25.5747 55.6298 25.644 55.3698 25.696C55.1272 25.748 54.8845 25.774 54.6418 25.774ZM53.5238 24.448C53.5238 24.4827 53.6538 24.4913 53.9138 24.474C54.1565 24.474 54.4512 24.4307 54.7978 24.344C55.1618 24.2747 55.4825 24.162 55.7598 24.006C56.1065 23.798 56.4012 23.5467 56.6438 23.252C56.8865 22.9747 57.1205 22.6713 57.3458 22.342C57.4325 22.2033 57.5192 22.0473 57.6058 21.874C57.6925 21.718 57.7618 21.5533 57.8138 21.38C57.6925 21.2413 57.4932 21.25 57.2158 21.406C56.9385 21.562 56.6092 21.7093 56.2278 21.848C55.8292 21.9867 55.3438 22.1947 54.7718 22.472C54.2172 22.7667 53.7925 23.0873 53.4978 23.434C53.4112 23.5553 53.3158 23.668 53.2118 23.772C53.1078 23.876 52.9952 23.9713 52.8738 24.058C52.9605 24.1793 53.0558 24.2747 53.1598 24.344C53.2638 24.4133 53.3852 24.448 53.5238 24.448ZM70.6432 17.714C70.5392 17.6793 70.4352 17.6533 70.3312 17.636C70.2272 17.6013 70.1232 17.5667 70.0192 17.532C69.9326 17.4973 69.8286 17.4713 69.7072 17.454C69.5339 17.2113 69.4646 16.9167 69.4992 16.57C69.5339 16.206 69.6119 15.8333 69.7332 15.452C69.8719 15.0707 70.0019 14.698 70.1232 14.334C70.2619 13.97 70.3399 13.658 70.3572 13.398C70.3399 13.3287 70.3139 13.3113 70.2792 13.346C70.2446 13.3633 70.2272 13.3893 70.2272 13.424C70.1059 13.5627 69.9326 13.658 69.7072 13.71C69.4819 13.762 69.2739 13.8053 69.0832 13.84C68.7539 13.892 68.4246 13.9527 68.0952 14.022C67.7659 14.0913 67.4452 14.1693 67.1332 14.256C67.0812 14.2213 67.0206 14.178 66.9512 14.126C66.8992 14.074 66.8472 14.0307 66.7952 13.996C66.6739 13.996 66.5699 14.1087 66.4832 14.334C66.3966 14.5593 66.3186 14.8367 66.2492 15.166C66.1799 15.478 66.1106 15.7813 66.0412 16.076C65.9892 16.3533 65.9372 16.5527 65.8852 16.674C65.6079 16.7087 65.4086 16.7173 65.2872 16.7C65.1832 16.6827 64.9839 16.6307 64.6892 16.544C64.5506 16.3533 64.4726 16.1713 64.4552 15.998C64.4552 15.8247 64.4812 15.634 64.5332 15.426C64.6199 15.0273 64.6892 14.7067 64.7412 14.464C64.8106 14.2213 64.9232 13.9093 65.0792 13.528C65.1659 13.3373 65.2439 13.1553 65.3132 12.982C65.3999 12.7913 65.4432 12.5833 65.4432 12.358C65.5819 12.1847 65.6772 11.994 65.7292 11.786C65.7812 11.578 65.8419 11.37 65.9112 11.162C66.1886 10.4513 66.4052 9.90533 66.5612 9.524C66.7346 9.12533 66.8559 8.81333 66.9252 8.588C66.9946 8.36267 67.0379 8.15467 67.0552 7.964C67.0726 7.72133 67.2199 7.6 67.4972 7.6C67.6706 7.6 67.8526 7.66933 68.0432 7.808C68.2339 7.92933 68.3812 8.08533 68.4852 8.276C68.5892 8.46667 68.5979 8.666 68.5112 8.874C68.4592 9.01267 68.3726 9.238 68.2512 9.55C68.1472 9.84467 68.0259 10.174 67.8872 10.538C67.7659 10.8847 67.6446 11.214 67.5232 11.526C67.4192 11.8207 67.3326 12.0373 67.2632 12.176C67.2459 12.2453 67.2112 12.306 67.1592 12.358C67.1072 12.3927 67.0812 12.4533 67.0812 12.54C67.2026 12.6267 67.4019 12.6613 67.6792 12.644C67.9739 12.6093 68.1819 12.5573 68.3032 12.488C68.5632 12.488 68.8146 12.488 69.0572 12.488C69.3172 12.488 69.5772 12.488 69.8372 12.488C70.0972 12.644 70.2966 12.878 70.4352 13.19C70.5566 12.8607 70.7212 12.4273 70.9292 11.89C71.1372 11.3353 71.3366 10.7893 71.5272 10.252C71.7179 9.71467 71.8306 9.30733 71.8652 9.03C71.8999 8.874 71.9692 8.73533 72.0732 8.614C72.1772 8.49267 72.2899 8.39733 72.4112 8.328C72.6539 8.44933 72.8879 8.55333 73.1132 8.64C73.3559 8.70933 73.5119 8.90867 73.5812 9.238C73.5639 9.394 73.5292 9.55 73.4772 9.706C73.4252 9.84467 73.3732 9.98333 73.3212 10.122C73.1479 10.6247 72.9312 11.1793 72.6712 11.786C72.4112 12.3753 72.1686 12.982 71.9432 13.606C71.7352 14.2127 71.5879 14.7847 71.5012 15.322C71.5012 15.374 71.4579 15.5473 71.3712 15.842C71.3019 16.1367 71.2239 16.4227 71.1372 16.7C71.0679 16.9773 71.0246 17.1247 71.0072 17.142C71.0072 17.2633 70.9726 17.376 70.9032 17.48C70.8339 17.5667 70.7472 17.6447 70.6432 17.714ZM79.3108 17.09C78.9468 17.402 78.5221 17.584 78.0368 17.636C77.5688 17.688 77.1094 17.6187 76.6588 17.428C76.2081 17.22 75.8354 16.908 75.5408 16.492C75.2461 16.1107 75.0554 15.6773 74.9688 15.192C74.8821 14.6893 74.8734 14.0393 74.9428 13.242C74.9948 12.566 75.2114 11.89 75.5928 11.214C75.9741 10.5207 76.4334 9.90533 76.9708 9.368C77.5254 8.83067 78.0714 8.458 78.6088 8.25C78.8688 8.07667 79.0854 7.99867 79.2588 8.016C79.4494 8.016 79.7354 8.03333 80.1168 8.068C80.5154 8.12 80.8101 8.198 81.0008 8.302C81.2088 8.406 81.3734 8.54467 81.4948 8.718C81.7548 8.978 81.9281 9.238 82.0148 9.498C82.1014 9.74067 82.1448 9.98333 82.1448 10.226C82.0754 10.6073 81.8154 11.0753 81.3648 11.63C80.9314 12.1673 80.3594 12.6093 79.6488 12.956C79.2674 13.0773 78.8514 13.1293 78.4008 13.112C77.9501 13.0947 77.5774 12.982 77.2828 12.774C76.9534 12.6353 76.7368 12.6613 76.6328 12.852C76.5288 13.0253 76.4334 13.4587 76.3468 14.152C76.2774 14.8107 76.3294 15.296 76.5028 15.608C76.6761 15.9027 76.9101 16.076 77.2048 16.128C77.5514 16.1973 77.8201 16.2493 78.0108 16.284C78.2188 16.3013 78.4701 16.2233 78.7648 16.05C79.0421 15.8767 79.2154 15.7813 79.2848 15.764C79.3541 15.7293 79.4061 15.6947 79.4408 15.66C79.4928 15.608 79.6054 15.4953 79.7788 15.322C79.9001 15.2007 79.9954 15.114 80.0648 15.062C80.1341 14.9927 80.2121 14.958 80.2988 14.958C80.3854 14.958 80.4634 15.0013 80.5328 15.088C80.6021 15.1573 80.6714 15.2093 80.7408 15.244C80.9141 15.244 80.9488 15.348 80.8448 15.556C80.7581 15.764 80.5761 16.0153 80.2988 16.31C80.0214 16.5873 79.6921 16.8473 79.3108 17.09ZM79.2848 11.578C79.4754 11.4913 79.6748 11.37 79.8828 11.214C80.0908 11.0407 80.2641 10.8587 80.4028 10.668C80.5588 10.46 80.6368 10.2867 80.6368 10.148C80.6368 9.90533 80.5241 9.706 80.2988 9.55C80.0734 9.37667 79.7354 9.35067 79.2848 9.472C79.0941 9.524 78.8774 9.654 78.6348 9.862C78.3921 10.0527 78.1581 10.2693 77.9328 10.512C77.7248 10.7547 77.5514 10.9713 77.4128 11.162C77.2914 11.3527 77.2481 11.4653 77.2828 11.5C77.3348 11.5867 77.4821 11.656 77.7248 11.708C77.9674 11.7427 78.2361 11.7513 78.5308 11.734C78.8428 11.7167 79.0941 11.6647 79.2848 11.578ZM86.9338 17.324C86.7085 17.428 86.4485 17.4713 86.1538 17.454C85.8592 17.4367 85.4605 17.3413 84.9578 17.168C84.9232 17.168 84.8452 17.1333 84.7238 17.064C84.6198 16.9947 84.5072 16.908 84.3858 16.804C84.2818 16.6827 84.1952 16.5527 84.1258 16.414C83.8485 16.0153 83.7358 15.426 83.7878 14.646C83.8398 13.866 84.0825 12.93 84.5158 11.838C84.6372 11.578 84.8192 11.2487 85.0618 10.85C85.3218 10.4513 85.5732 10.0873 85.8158 9.758C86.0758 9.41133 86.2578 9.212 86.3618 9.16C86.3618 9.16 86.4572 9.12533 86.6478 9.056C86.8385 8.98667 87.0812 8.874 87.3758 8.718C87.4625 8.68333 87.5578 8.64867 87.6618 8.614C87.7832 8.57933 87.9045 8.55333 88.0258 8.536C88.1472 8.51867 88.2512 8.51867 88.3378 8.536C88.6845 8.55333 89.0398 8.68333 89.4038 8.926C89.7852 9.15133 90.0972 9.42 90.3398 9.732C90.5825 10.0267 90.6605 10.2867 90.5738 10.512C90.5738 10.5467 90.5218 10.616 90.4178 10.72C90.3312 10.8067 90.2272 10.902 90.1058 11.006C90.0018 11.0927 89.9152 11.1793 89.8458 11.266C89.7592 11.37 89.6378 11.4133 89.4818 11.396C89.3432 11.3787 89.2132 11.3093 89.0918 11.188C88.9878 11.0493 88.9272 10.876 88.9098 10.668C88.8752 10.5293 88.7452 10.3993 88.5198 10.278C88.3118 10.1567 88.2078 10.096 88.2078 10.096C88.0692 10.096 87.8698 10.226 87.6098 10.486C87.3672 10.7287 87.1245 11.0233 86.8818 11.37C86.5698 11.682 86.3012 12.0547 86.0758 12.488C85.8505 12.904 85.6685 13.3027 85.5298 13.684C85.4085 14.048 85.3218 14.308 85.2698 14.464C85.2005 14.6373 85.1918 14.88 85.2438 15.192C85.2958 15.504 85.3565 15.6947 85.4258 15.764C85.4952 15.7987 85.6685 15.8073 85.9458 15.79C86.2405 15.7727 86.5872 15.738 86.9858 15.686C87.3845 15.6167 87.7745 15.5387 88.1558 15.452C88.5372 15.3653 88.8492 15.27 89.0918 15.166C89.4212 14.958 89.7072 14.8367 89.9498 14.802C90.1925 14.7673 90.3745 14.7673 90.4958 14.802C90.6865 14.8713 90.7992 14.9667 90.8338 15.088C90.8685 15.2093 90.8252 15.348 90.7038 15.504C90.5825 15.6427 90.3745 15.79 90.0798 15.946C89.8025 16.0847 89.5512 16.2407 89.3258 16.414C89.1178 16.57 89.0138 16.6913 89.0138 16.778C88.9445 16.778 88.8665 16.804 88.7798 16.856C88.7105 16.8907 88.6498 16.8993 88.5978 16.882C88.5632 16.882 88.4245 16.908 88.1818 16.96C87.9392 17.012 87.6878 17.0727 87.4278 17.142C87.1852 17.2113 87.0205 17.272 86.9338 17.324ZM1.586 43.824C1.51667 43.824 1.43 43.824 1.326 43.824C1.222 43.8413 1.12667 43.772 1.04 43.616C0.970667 43.5293 0.927333 43.3993 0.91 43.226C0.91 43.0527 0.953333 42.7407 1.04 42.29C1.12667 41.9953 1.196 41.7007 1.248 41.406C1.3 41.1287 1.326 40.9207 1.326 40.782C1.326 40.7127 1.34333 40.574 1.378 40.366C1.43 40.1753 1.456 40.0367 1.456 39.95C1.54267 39.8113 1.612 39.6207 1.664 39.378C1.716 39.1353 1.742 38.9187 1.742 38.728C1.742 38.52 1.846 38.3293 2.054 38.156C2.054 38.0173 2.08 37.844 2.132 37.636C2.20133 37.428 2.236 37.2893 2.236 37.22C2.288 36.9773 2.40067 36.5527 2.574 35.946C2.76467 35.322 2.99 34.62 3.25 33.84C3.52733 33.06 3.796 32.2973 4.056 31.552C4.316 30.8067 4.55 30.174 4.758 29.654C4.966 29.1687 5.10467 28.7527 5.174 28.406C5.26067 28.042 5.304 27.7733 5.304 27.6C5.304 27.5307 5.32133 27.4787 5.356 27.444C5.39067 27.392 5.46867 27.2967 5.59 27.158C5.76333 26.9847 5.91067 26.9327 6.032 27.002C6.17067 27.0713 6.33533 27.1753 6.526 27.314C6.66467 27.5393 6.76 27.73 6.812 27.886C6.88133 28.042 6.88133 28.3107 6.812 28.692C6.812 28.952 6.76867 29.1773 6.682 29.368C6.59533 29.5587 6.51733 29.706 6.448 29.81C6.37867 29.8967 6.36133 29.9313 6.396 29.914C7.10667 29.5847 7.73067 29.4113 8.268 29.394C8.82267 29.3593 9.282 29.4547 9.646 29.68C10.0273 29.888 10.3133 30.1827 10.504 30.564C10.6947 30.9453 10.79 31.3873 10.79 31.89C10.79 32.098 10.7467 32.3493 10.66 32.644C10.5733 32.9213 10.4607 33.1813 10.322 33.424C10.2007 33.6493 10.088 33.814 9.984 33.918C9.91467 33.918 9.84533 33.9787 9.776 34.1C9.70667 34.204 9.63733 34.3253 9.568 34.464C9.42933 34.6373 9.204 34.8367 8.892 35.062C8.59733 35.27 8.30267 35.4433 8.008 35.582C7.71333 35.7033 7.49667 35.738 7.358 35.686C7.358 35.686 7.332 35.6947 7.28 35.712C7.24533 35.712 7.228 35.7553 7.228 35.842C7.228 35.8767 7.08933 35.9547 6.812 36.076C6.53467 36.18 6.214 36.284 5.85 36.388C5.486 36.4747 5.16533 36.518 4.888 36.518C4.524 36.518 4.264 36.4487 4.108 36.31C4.07333 36.3447 4.03 36.3967 3.978 36.466C3.94333 36.5353 3.926 36.596 3.926 36.648C3.926 36.752 3.88267 36.9513 3.796 37.246C3.72667 37.5233 3.64 37.792 3.536 38.052C3.432 38.312 3.33667 38.442 3.25 38.442C3.25 38.442 3.23267 38.468 3.198 38.52C3.16333 38.572 3.18067 38.6413 3.25 38.728C3.25 38.728 3.24133 38.8233 3.224 39.014C3.224 39.222 3.18067 39.3953 3.094 39.534C3.094 39.6727 3.068 39.8807 3.016 40.158C2.964 40.4353 2.90333 40.6433 2.834 40.782C2.834 40.99 2.79933 41.1893 2.73 41.38C2.678 41.588 2.61733 41.692 2.548 41.692C2.47867 41.7093 2.43533 41.8133 2.418 42.004C2.40067 42.212 2.392 42.3593 2.392 42.446C2.37467 42.8793 2.288 43.2173 2.132 43.46C1.976 43.7027 1.794 43.824 1.586 43.824ZM4.732 35.14C4.87067 35.14 5.15667 35.0793 5.59 34.958C6.02333 34.8367 6.46533 34.6893 6.916 34.516C7.384 34.3253 7.73067 34.1347 7.956 33.944C8.40667 33.5453 8.75333 33.0947 8.996 32.592C9.256 32.072 9.23867 31.578 8.944 31.11C8.80533 30.8673 8.554 30.772 8.19 30.824C7.826 30.8587 7.42733 30.9973 6.994 31.24C6.56067 31.4827 6.15333 31.786 5.772 32.15C5.564 32.3753 5.37333 32.6527 5.2 32.982C5.02667 33.3113 4.87933 33.6407 4.758 33.97C4.654 34.2993 4.59333 34.5767 4.576 34.802C4.55867 35.0273 4.61067 35.14 4.732 35.14ZM14.2202 37.61C13.9948 37.61 13.8128 37.5667 13.6742 37.48C13.5528 37.3933 13.3968 37.272 13.2062 37.116C12.8768 36.7693 12.6428 36.44 12.5042 36.128C12.3655 35.7987 12.3222 35.4867 12.3742 35.192C12.4262 35.0533 12.4435 34.9233 12.4262 34.802C12.4262 34.6633 12.4262 34.594 12.4262 34.594C12.3395 34.5073 12.3135 34.4553 12.3482 34.438C12.3828 34.4033 12.4175 34.3513 12.4522 34.282C12.5562 34.282 12.5908 34.1867 12.5562 33.996C12.5215 33.8573 12.5908 33.554 12.7642 33.086C12.9375 32.618 13.1542 32.176 13.4142 31.76C13.5182 31.5867 13.6742 31.3613 13.8822 31.084C14.0902 30.7893 14.3155 30.5033 14.5582 30.226C14.8182 29.9313 15.0522 29.6973 15.2602 29.524C15.6935 29.16 16.0748 28.8913 16.4042 28.718C16.7335 28.5447 17.0888 28.4147 17.4702 28.328C17.8515 28.2413 18.1115 28.198 18.2502 28.198C18.4062 28.198 18.6142 28.3367 18.8742 28.614C19.2728 28.7873 19.5588 28.9953 19.7322 29.238C19.9228 29.4807 20.0442 29.836 20.0962 30.304C20.1482 30.824 20.1048 31.422 19.9662 32.098C19.8448 32.7567 19.4375 33.58 18.7442 34.568C18.3108 35.192 17.9122 35.66 17.5482 35.972C17.1842 36.2667 16.7508 36.5613 16.2482 36.856C15.8842 37.0987 15.5548 37.2807 15.2602 37.402C14.9655 37.506 14.6188 37.5753 14.2202 37.61ZM16.7162 34.854C17.1322 34.386 17.4615 33.944 17.7042 33.528C17.9642 33.112 18.2068 32.5833 18.4322 31.942C18.5015 31.7513 18.5448 31.5173 18.5622 31.24C18.5795 30.9453 18.5708 30.6767 18.5362 30.434C18.5188 30.174 18.4582 30.0267 18.3542 29.992C18.1462 29.8707 17.8948 29.836 17.6002 29.888C17.3055 29.9227 16.9848 30.0873 16.6382 30.382C16.1008 30.8327 15.6328 31.396 15.2342 32.072C14.8355 32.7307 14.4455 33.4847 14.0642 34.334C13.8042 34.958 13.7435 35.4607 13.8822 35.842C14.0382 36.206 14.3588 36.336 14.8442 36.232C15.3468 36.1107 15.9708 35.6513 16.7162 34.854ZM24.3222 37.402C23.9409 37.402 23.6549 37.3847 23.4642 37.35C23.2735 37.3153 23.1262 37.2633 23.0222 37.194C22.9182 37.1247 22.7969 37.0293 22.6582 36.908C22.5889 36.7693 22.5022 36.622 22.3982 36.466C22.2942 36.31 22.2075 36.1973 22.1382 36.128C22.0689 35.868 22.0342 35.53 22.0342 35.114C22.0515 34.698 22.1035 34.2473 22.1902 33.762C22.2942 33.2767 22.4329 32.826 22.6062 32.41C22.6755 32.2713 22.7362 32.1327 22.7882 31.994C22.8402 31.8553 22.8662 31.786 22.8662 31.786C22.8662 31.6993 22.9702 31.4913 23.1782 31.162C23.4035 30.8327 23.6462 30.486 23.9062 30.122C24.1835 29.758 24.4089 29.498 24.5822 29.342C24.7035 29.2033 24.8855 29.056 25.1282 28.9C25.3882 28.744 25.6135 28.6313 25.8042 28.562C25.9949 28.4927 26.1855 28.432 26.3762 28.38C26.5842 28.328 26.8182 28.302 27.0782 28.302C27.3209 28.302 27.5462 28.354 27.7542 28.458C27.9622 28.562 28.1615 28.744 28.3522 29.004C28.6642 29.316 28.8375 29.628 28.8722 29.94C28.9242 30.2347 28.9155 30.538 28.8462 30.85C28.7595 31.1967 28.6469 31.4653 28.5082 31.656C28.3695 31.8293 28.2135 31.9073 28.0402 31.89C27.8669 31.8727 27.6675 31.7427 27.4422 31.5C27.3729 31.3613 27.3382 31.2487 27.3382 31.162C27.3382 31.058 27.3729 30.9107 27.4422 30.72C27.5115 30.4773 27.5115 30.226 27.4422 29.966C27.3729 29.706 27.2602 29.576 27.1042 29.576C26.8789 29.576 26.6275 29.68 26.3502 29.888C26.0902 30.0787 25.8215 30.3213 25.5442 30.616C25.4229 30.7547 25.2495 30.9713 25.0242 31.266C24.8162 31.5433 24.6082 31.8553 24.4002 32.202C24.1922 32.5313 24.0189 32.852 23.8802 33.164C23.6895 33.736 23.5335 34.1953 23.4122 34.542C23.3082 34.8887 23.2562 35.062 23.2562 35.062C23.2562 35.1313 23.2735 35.2007 23.3082 35.27C23.3602 35.322 23.3862 35.3827 23.3862 35.452C23.3862 35.66 23.5075 35.8247 23.7502 35.946C23.9409 36.0673 24.1662 36.1367 24.4262 36.154C24.6862 36.154 25.0069 36.0673 25.3882 35.894C25.6655 35.7553 25.9255 35.5733 26.1682 35.348C26.4282 35.1227 26.6969 34.9233 26.9742 34.75C27.1649 34.6287 27.3122 34.5247 27.4162 34.438C27.5375 34.3513 27.5982 34.3427 27.5982 34.412C27.5982 34.4813 27.6242 34.516 27.6762 34.516C27.7282 34.516 27.7889 34.4813 27.8582 34.412C27.9622 34.2733 28.0749 34.1867 28.1962 34.152C28.3175 34.1 28.4215 34.0827 28.5082 34.1C28.6122 34.1 28.6642 34.126 28.6642 34.178C28.6295 34.334 28.6642 34.464 28.7682 34.568C28.7682 34.6373 28.7422 34.7327 28.6902 34.854C28.6555 34.958 28.6035 35.0447 28.5342 35.114C28.4475 35.2353 28.3175 35.374 28.1442 35.53C27.9882 35.686 27.8409 35.8247 27.7022 35.946C27.5635 36.05 27.4942 36.102 27.4942 36.102C27.4249 36.0847 27.3555 36.102 27.2862 36.154C27.2342 36.206 27.1735 36.2667 27.1042 36.336C26.9655 36.4573 26.8355 36.5527 26.7142 36.622C26.5929 36.674 26.4975 36.7 26.4282 36.7C26.3069 36.7693 26.2115 36.8127 26.1422 36.83C26.0902 36.8473 26.0642 36.8907 26.0642 36.96C25.8909 37.1333 25.6742 37.2547 25.4142 37.324C25.1715 37.376 24.8075 37.402 24.3222 37.402ZM31.9294 36.726C31.7388 36.6047 31.5654 36.4487 31.4094 36.258C31.2534 36.05 31.1754 35.79 31.1754 35.478C31.1754 35.3047 31.2101 35.01 31.2794 34.594C31.3488 34.178 31.4441 33.71 31.5654 33.19C31.6868 32.67 31.8081 32.1847 31.9294 31.734C32.1028 31.422 32.2501 31.11 32.3714 30.798C32.4928 30.486 32.5534 30.2953 32.5534 30.226C32.5881 30.018 32.6314 29.7753 32.6834 29.498C32.7528 29.2207 32.8221 28.9693 32.8914 28.744C32.9608 28.5187 33.0128 28.3887 33.0474 28.354C33.1341 28.2673 33.2381 28.2153 33.3594 28.198C33.4808 28.1633 33.6021 28.1807 33.7234 28.25C33.8621 28.302 33.9661 28.4147 34.0354 28.588C34.2261 28.796 34.3214 29.0473 34.3214 29.342C34.3214 29.6193 34.2261 30.0353 34.0354 30.59C33.8794 30.9367 33.7234 31.344 33.5674 31.812C33.4114 32.28 33.2728 32.7133 33.1514 33.112C33.0474 33.4933 32.9868 33.7533 32.9694 33.892L32.4494 34.048C32.7441 33.7707 33.0214 33.4847 33.2814 33.19C33.5414 32.878 33.7321 32.6353 33.8534 32.462C34.1481 32.0633 34.3994 31.734 34.6074 31.474C34.8328 31.1967 35.1188 30.8673 35.4654 30.486C35.8121 30.0873 36.1501 29.8447 36.4794 29.758C36.8261 29.654 37.0948 29.602 37.2854 29.602C37.6668 29.6713 37.9701 29.8707 38.1954 30.2C38.4381 30.512 38.5941 30.98 38.6634 31.604C38.6634 31.8467 38.6374 32.1327 38.5854 32.462C38.5508 32.7913 38.5334 32.956 38.5334 32.956C38.5334 32.956 38.6721 32.774 38.9494 32.41C39.2441 32.046 39.6341 31.6473 40.1194 31.214C40.4488 30.9713 40.7694 30.8327 41.0814 30.798C41.3934 30.746 41.6708 30.85 41.9134 31.11C42.3641 31.3527 42.6588 31.7253 42.7974 32.228C42.9361 32.7133 42.9708 33.3373 42.9014 34.1C42.8494 34.5507 42.8408 34.8887 42.8754 35.114C42.9101 35.322 42.9621 35.53 43.0314 35.738C43.1701 35.8073 43.1961 35.9547 43.1094 36.18C43.0228 36.388 42.9188 36.492 42.7974 36.492C42.6241 36.492 42.4248 36.4573 42.1994 36.388C41.9914 36.3187 41.8008 36.206 41.6274 36.05C41.4714 35.8767 41.3934 35.6427 41.3934 35.348V33.736C41.3934 33.3547 41.3761 33.0427 41.3414 32.8C41.3241 32.5573 41.2808 32.41 41.2114 32.358C41.0208 32.254 40.7434 32.3667 40.3794 32.696C40.0154 33.0253 39.6254 33.4673 39.2094 34.022C38.7934 34.5767 38.4034 35.1487 38.0394 35.738C37.7101 36.2753 37.5021 36.5873 37.4154 36.674C37.3461 36.7433 37.2161 36.7173 37.0254 36.596C36.6441 36.4747 36.4014 36.31 36.2974 36.102C36.2108 35.8767 36.2021 35.6253 36.2714 35.348C36.3581 35.0533 36.4621 34.6547 36.5834 34.152C36.7221 33.6493 36.8521 33.164 36.9734 32.696C37.0948 32.2107 37.1728 31.864 37.2074 31.656C37.1381 31.5173 37.0168 31.474 36.8434 31.526C36.6874 31.5607 36.5228 31.6387 36.3494 31.76C36.1414 31.8987 35.8901 32.1587 35.5954 32.54C35.3008 32.9213 34.9974 33.3633 34.6854 33.866C34.4774 34.1953 34.2608 34.5247 34.0354 34.854C33.8101 35.166 33.6021 35.4433 33.4114 35.686C33.2208 35.9287 33.0561 36.1107 32.9174 36.232C32.6748 36.6133 32.5101 36.8213 32.4234 36.856C32.3368 36.8907 32.1721 36.8473 31.9294 36.726ZM47.7523 38.078C46.9896 38.078 46.3656 37.792 45.8803 37.22C45.3949 36.6307 45.1609 35.9027 45.1783 35.036C45.2129 34.412 45.3343 33.7447 45.5423 33.034C45.7676 32.306 46.0623 31.6127 46.4263 30.954C46.7903 30.278 47.1889 29.6887 47.6223 29.186C48.0556 28.6833 48.5063 28.328 48.9743 28.12C49.1476 28.0333 49.3296 27.964 49.5202 27.912C49.7283 27.86 49.9363 27.834 50.1443 27.834C50.3349 27.834 50.5343 27.8687 50.7423 27.938C50.9503 27.99 51.1236 28.0507 51.2623 28.12C51.5569 28.2413 51.7823 28.3887 51.9383 28.562C52.0943 28.7353 52.2329 29.004 52.3543 29.368C52.4063 29.6973 52.4323 29.9313 52.4323 30.07C52.4323 30.2087 52.3889 30.4167 52.3023 30.694C52.0943 31.318 51.8256 31.8553 51.4963 32.306C51.1669 32.7567 50.7249 33.138 50.1703 33.45C50.0316 33.5367 49.8669 33.606 49.6763 33.658C49.5029 33.6927 49.3209 33.71 49.1303 33.71C48.7836 33.71 48.4456 33.6493 48.1163 33.528C47.8043 33.3893 47.5529 33.19 47.3623 32.93L47.1803 32.722L47.1023 32.93C46.9289 33.398 46.7903 33.8313 46.6863 34.23C46.5996 34.6287 46.5563 34.9927 46.5563 35.322C46.5563 35.53 46.5736 35.7293 46.6083 35.92C46.6603 36.1107 46.7296 36.2753 46.8163 36.414C46.8856 36.518 46.9983 36.596 47.1543 36.648C47.3276 36.6827 47.5096 36.7 47.7003 36.7C47.8216 36.7 47.9429 36.7 48.0643 36.7C48.2029 36.6827 48.3329 36.648 48.4543 36.596C48.7489 36.492 48.9829 36.3793 49.1562 36.258C49.3469 36.1367 49.5376 36.0067 49.7283 35.868L49.8323 35.816H49.8063C50.0143 35.712 50.1963 35.608 50.3523 35.504C50.5256 35.4 50.6123 35.348 50.6123 35.348C50.6816 35.348 50.7509 35.3047 50.8203 35.218C50.9589 35.1487 51.1323 35.1747 51.3403 35.296C51.5656 35.4173 51.6783 35.5733 51.6783 35.764C51.6609 35.8507 51.5829 35.9893 51.4443 36.18C51.3056 36.3533 51.1496 36.518 50.9763 36.674C50.8203 36.83 50.6903 36.9167 50.5863 36.934C50.5689 36.9513 50.5083 36.986 50.4043 37.038C50.3003 37.0727 50.2309 37.1073 50.1963 37.142H50.2223C50.0663 37.35 49.9103 37.454 49.7543 37.454H49.5463C49.4769 37.5753 49.2516 37.714 48.8703 37.87C48.4889 38.0087 48.1163 38.078 47.7523 38.078ZM48.9223 32.358C49.2343 32.358 49.5029 32.2713 49.7283 32.098C49.9709 31.9073 50.1789 31.6993 50.3523 31.474C50.6989 31.006 50.8983 30.5553 50.9503 30.122C51.0196 29.6713 50.9676 29.3593 50.7943 29.186C50.6903 29.134 50.5949 29.108 50.5083 29.108C50.4389 29.0907 50.2916 29.1167 50.0663 29.186C49.9103 29.2207 49.6936 29.3507 49.4163 29.576C49.1389 29.8013 48.8616 30.0527 48.5843 30.33C48.3243 30.6073 48.1249 30.8413 47.9863 31.032L47.6483 31.578C47.7869 31.526 47.9169 31.5 48.0383 31.5C48.1769 31.4827 48.2549 31.4913 48.2723 31.526C48.2723 31.682 48.2983 31.8293 48.3503 31.968C48.4196 32.0893 48.4976 32.1847 48.5843 32.254C48.6883 32.3233 48.8009 32.358 48.9223 32.358Z" fill="#002D6E"/>
</svg>
