<svg width="112" height="42" viewBox="0 0 112 42" fill="none" xmlns="http://www.w3.org/2000/svg">
<path d="M1.44938 18.144C1.31071 18.144 1.15471 18.0313 0.981375 17.806C0.808042 17.5807 0.730042 17.364 0.747375 17.156C0.764709 16.8787 0.842709 16.48 0.981375 15.96C1.12004 15.44 1.27604 14.9113 1.44938 14.374C1.62271 13.8367 1.77871 13.412 1.91738 13.1C1.98671 12.8227 2.04738 12.58 2.09938 12.372C2.16871 12.1467 2.21204 11.9993 2.22938 11.93C2.28138 11.8607 2.35938 11.6787 2.46338 11.384C2.58471 11.0893 2.68004 10.8033 2.74938 10.526C2.78404 10.3873 2.85338 10.1273 2.95738 9.746C3.07871 9.34733 3.21738 8.888 3.37338 8.368C3.54671 7.848 3.71138 7.33667 3.86738 6.834C4.04071 6.33133 4.18804 5.88933 4.30938 5.508C4.43071 5.12667 4.50871 4.87533 4.54338 4.754C4.68204 4.546 4.78604 4.34667 4.85538 4.156C4.92471 3.96533 4.96804 3.83533 4.98538 3.766C5.08938 3.69667 5.15004 3.61 5.16738 3.506C5.18471 3.38467 5.19338 3.28933 5.19338 3.22C5.19338 3.13333 5.21938 3.064 5.27138 3.012C5.34071 2.96 5.37538 2.89933 5.37538 2.83C5.44471 2.778 5.48804 2.7 5.50538 2.596C5.52271 2.47467 5.57471 2.37067 5.66138 2.284L5.79138 1.842L7.32538 1.816C7.29071 2.024 7.23871 2.284 7.16938 2.596C7.10004 2.89067 6.93538 3.28933 6.67538 3.792C6.58871 4.13867 6.48471 4.45067 6.36338 4.728C6.25938 5.00533 6.21604 5.18733 6.23338 5.274C6.19871 5.30867 6.12071 5.482 5.99938 5.794C5.89538 6.106 5.76538 6.48733 5.60938 6.938C5.47071 7.38867 5.32338 7.83933 5.16738 8.29C5.02871 8.74067 4.89871 9.13933 4.77738 9.486C4.67338 9.81533 4.60404 10.0233 4.56938 10.11C4.43071 10.3873 4.27471 10.7947 4.10138 11.332C3.92804 11.8693 3.66804 12.5973 3.32138 13.516C3.18271 13.7933 3.00938 14.2093 2.80138 14.764C2.61071 15.3187 2.45471 15.8213 2.33338 16.272C2.14271 16.948 2.00404 17.416 1.91738 17.676C1.84804 17.9533 1.78738 18.1007 1.73538 18.118C1.68338 18.1527 1.58804 18.1613 1.44938 18.144ZM1.65738 2.648C1.17204 2.66533 0.808042 2.63933 0.565375 2.57C0.340042 2.50067 0.262042 2.32733 0.331375 2.05C0.383375 1.842 0.496042 1.686 0.669375 1.582C0.842708 1.478 1.09404 1.4 1.42338 1.348C1.61404 1.31333 1.85671 1.27 2.15138 1.218C2.46338 1.166 2.75804 1.114 3.03538 1.062C3.60738 0.992666 4.07538 0.931999 4.43938 0.88C4.82071 0.828 5.21071 0.784666 5.60938 0.75C6.00804 0.715333 6.51071 0.680666 7.11738 0.646C7.62004 0.611333 8.04471 0.585332 8.39138 0.567999C8.75538 0.533333 8.93738 0.516 8.93738 0.516C8.98938 0.516 9.17138 0.533333 9.48338 0.567999C9.79538 0.602665 10.1334 0.645999 10.4974 0.697999C10.8614 0.749999 11.13 0.810666 11.3034 0.88C11.702 0.966666 11.988 1.088 12.1614 1.244C12.352 1.4 12.482 1.62533 12.5514 1.92C12.6034 2.128 12.6034 2.258 12.5514 2.31C12.4994 2.34467 12.404 2.39667 12.2654 2.466C11.8667 2.58733 11.572 2.648 11.3814 2.648C11.1907 2.648 10.974 2.60467 10.7314 2.518C10.6447 2.43133 10.5407 2.35333 10.4194 2.284C10.3154 2.21467 10.1247 2.16267 9.84738 2.128C9.58738 2.076 9.17138 2.03267 8.59938 1.998C8.11404 2.05 7.68938 2.076 7.32538 2.076C6.96138 2.076 6.77938 2.11933 6.77938 2.206L5.24538 2.284L3.97138 2.414C3.79804 2.43133 3.55538 2.45733 3.24338 2.492C2.93138 2.50933 2.62804 2.53533 2.33338 2.57C2.03871 2.58733 1.81338 2.61333 1.65738 2.648ZM13.9917 16.948C13.8184 16.7747 13.6451 16.5407 13.4717 16.246C13.2984 15.934 13.1597 15.5787 13.0557 15.18C13.0211 15.0413 13.0037 14.8507 13.0037 14.608C13.0211 14.3653 13.0211 14.192 13.0037 14.088C12.9517 14.2093 12.8651 14.3393 12.7437 14.478C12.6397 14.5993 12.5357 14.7033 12.4317 14.79C12.3624 14.8593 12.2064 14.998 11.9637 15.206C11.7211 15.3967 11.4784 15.5527 11.2357 15.674C10.6637 16.038 10.1871 16.2373 9.80573 16.272C9.44173 16.3067 9.09507 16.116 8.76573 15.7C8.4884 15.4747 8.28907 15.2233 8.16773 14.946C8.06373 14.6687 8.06373 14.2873 8.16773 13.802C8.2024 13.1953 8.28907 12.606 8.42773 12.034C8.5664 11.4447 8.8524 10.6647 9.28573 9.694C9.64973 8.98333 9.92707 8.46333 10.1177 8.134C10.3084 7.78733 10.4297 7.57933 10.4817 7.51C10.7417 7.42333 10.9584 7.432 11.1317 7.536C11.3051 7.62267 11.4091 7.78733 11.4437 8.03C11.5477 8.20333 11.5304 8.498 11.3917 8.914C11.2704 9.33 11.0537 9.84133 10.7417 10.448C10.4991 11.0373 10.2737 11.6267 10.0657 12.216C9.87507 12.8053 9.7624 13.308 9.72773 13.724C9.69307 14.14 9.79707 14.3913 10.0397 14.478C10.1957 14.5647 10.4644 14.5387 10.8457 14.4C11.2444 14.2613 11.6864 13.9147 12.1717 13.36C12.6744 12.8053 13.1597 11.9647 13.6277 10.838C13.7664 10.4913 13.8704 10.188 13.9397 9.928C14.0091 9.65067 14.0524 9.34733 14.0697 9.018C14.0351 8.81 14.0437 8.628 14.0957 8.472C14.1651 8.29867 14.3037 8.15133 14.5117 8.03C14.5811 7.94333 14.6764 7.86533 14.7977 7.796C14.9191 7.70933 14.9971 7.70933 15.0317 7.796L15.4477 7.77C15.5171 7.75267 15.5604 7.796 15.5777 7.9C15.6124 7.98667 15.6731 8.06467 15.7597 8.134C15.9504 8.29 16.0024 8.628 15.9157 9.148C15.8291 9.668 15.5864 10.396 15.1877 11.332C14.8584 12.0427 14.6331 12.58 14.5117 12.944C14.4077 13.308 14.3471 13.6633 14.3297 14.01C14.3297 14.322 14.3904 14.6167 14.5117 14.894C14.6331 15.1713 14.8237 15.4227 15.0837 15.648C15.2744 15.7693 15.3784 15.908 15.3957 16.064C15.4304 16.22 15.4391 16.402 15.4217 16.61C15.3871 16.766 15.2831 16.896 15.1097 17C14.9537 17.0867 14.7717 17.13 14.5637 17.13C14.3557 17.13 14.1651 17.0693 13.9917 16.948ZM26.4277 16.012C26.0637 16.0813 25.8297 16.1073 25.7257 16.09C25.639 16.0553 25.5003 15.9513 25.3097 15.778C25.0323 15.6393 24.7983 15.466 24.6077 15.258C24.4343 15.05 24.3043 14.8333 24.2177 14.608C24.1483 14.3653 24.1223 14.166 24.1397 14.01C24.1917 13.4033 24.339 12.7533 24.5817 12.06C24.8243 11.3667 25.119 10.6993 25.4657 10.058C25.8123 9.41667 26.185 8.87067 26.5837 8.42C26.9997 7.952 27.3983 7.64867 27.7797 7.51C28.1263 7.37133 28.4557 7.31933 28.7677 7.354C29.0797 7.38867 29.305 7.55333 29.4437 7.848C29.7037 8.35067 29.643 8.67133 29.2617 8.81C29.2097 8.81 29.149 8.836 29.0797 8.888C29.0103 8.92267 28.9757 8.97467 28.9757 9.044C29.045 9.07867 29.2357 9.08733 29.5477 9.07C29.8597 9.03533 30.1717 8.98333 30.4837 8.914C30.813 8.82733 31.0297 8.74067 31.1337 8.654C31.2377 8.602 31.3157 8.576 31.3677 8.576C31.4197 8.576 31.5497 8.59333 31.7577 8.628C32.0523 8.71467 32.1997 8.81867 32.1997 8.94C32.1997 9.00933 32.2257 9.07867 32.2777 9.148C32.3297 9.2 32.3903 9.226 32.4597 9.226C32.581 9.24333 32.5637 9.32133 32.4077 9.46C32.269 9.59867 32.0263 9.78933 31.6797 10.032C31.3503 10.24 31.1423 10.3787 31.0557 10.448C30.9863 10.5 30.9777 10.6213 31.0297 10.812C31.1683 11.1413 31.177 11.5227 31.0557 11.956C30.9343 12.3893 30.7177 12.8313 30.4057 13.282C30.0937 13.7327 29.7123 14.1573 29.2617 14.556C28.8283 14.9373 28.3603 15.2667 27.8577 15.544C27.3723 15.804 26.8957 15.96 26.4277 16.012ZM25.9857 14.868C26.055 14.868 26.1763 14.8333 26.3497 14.764C26.523 14.6773 26.6617 14.608 26.7657 14.556C26.835 14.4867 26.9217 14.4087 27.0257 14.322C27.147 14.218 27.2423 14.1573 27.3117 14.14C27.381 14.14 27.4677 14.114 27.5717 14.062C27.6757 13.9927 27.823 13.8627 28.0137 13.672C28.2043 13.464 28.4557 13.1607 28.7677 12.762C29.1143 12.3807 29.383 12.034 29.5737 11.722C29.7643 11.3927 29.8163 11.0893 29.7297 10.812C29.7123 10.7427 29.6603 10.6993 29.5737 10.682C29.5043 10.6647 29.409 10.6213 29.2877 10.552C29.1143 10.552 28.9497 10.5087 28.7937 10.422C28.655 10.318 28.4903 10.188 28.2997 10.032L27.8837 9.512L27.4417 9.954C27.1643 10.2313 26.8697 10.6473 26.5577 11.202C26.263 11.7393 26.0117 12.294 25.8037 12.866C25.5957 13.4207 25.4743 13.8627 25.4397 14.192C25.4223 14.452 25.4657 14.6253 25.5697 14.712C25.6737 14.7987 25.8123 14.8507 25.9857 14.868ZM33.6957 15.726C33.505 15.6047 33.3317 15.4487 33.1757 15.258C33.0197 15.05 32.9417 14.79 32.9417 14.478C32.9417 14.3047 32.9763 14.01 33.0457 13.594C33.115 13.178 33.2103 12.71 33.3317 12.19C33.453 11.67 33.5743 11.1847 33.6957 10.734C33.869 10.422 34.0163 10.11 34.1377 9.798C34.259 9.486 34.3197 9.29533 34.3197 9.226C34.3543 9.018 34.3977 8.77533 34.4497 8.498C34.519 8.22067 34.5883 7.96933 34.6577 7.744C34.727 7.51867 34.779 7.38867 34.8137 7.354C34.9003 7.26733 35.0043 7.21533 35.1257 7.198C35.247 7.16333 35.3683 7.18067 35.4897 7.25C35.6283 7.302 35.7323 7.41467 35.8017 7.588C35.9923 7.796 36.0877 8.04733 36.0877 8.342C36.0877 8.61933 35.9923 9.03533 35.8017 9.59C35.6457 9.93667 35.4897 10.344 35.3337 10.812C35.1777 11.28 35.039 11.7133 34.9177 12.112C34.8137 12.4933 34.753 12.7533 34.7357 12.892L34.2157 13.048C34.5103 12.7707 34.7877 12.4847 35.0477 12.19C35.3077 11.878 35.4983 11.6353 35.6197 11.462C35.9143 11.0633 36.1657 10.734 36.3737 10.474C36.599 10.1967 36.885 9.86733 37.2317 9.486C37.5783 9.08733 37.9163 8.84467 38.2457 8.758C38.5923 8.654 38.861 8.602 39.0517 8.602C39.433 8.67133 39.7363 8.87067 39.9617 9.2C40.2043 9.512 40.3603 9.98 40.4297 10.604C40.4297 10.8467 40.4037 11.1327 40.3517 11.462C40.317 11.7913 40.2997 11.956 40.2997 11.956C40.2997 11.956 40.4383 11.774 40.7157 11.41C41.0103 11.046 41.4003 10.6473 41.8857 10.214C42.215 9.97133 42.5357 9.83267 42.8477 9.798C43.1597 9.746 43.437 9.85 43.6797 10.11C44.1303 10.3527 44.425 10.7253 44.5637 11.228C44.7023 11.7133 44.737 12.3373 44.6677 13.1C44.6157 13.5507 44.607 13.8887 44.6417 14.114C44.6763 14.322 44.7283 14.53 44.7977 14.738C44.9363 14.8073 44.9623 14.9547 44.8757 15.18C44.789 15.388 44.685 15.492 44.5637 15.492C44.3903 15.492 44.191 15.4573 43.9657 15.388C43.7577 15.3187 43.567 15.206 43.3937 15.05C43.2377 14.8767 43.1597 14.6427 43.1597 14.348V12.736C43.1597 12.3547 43.1423 12.0427 43.1077 11.8C43.0903 11.5573 43.047 11.41 42.9777 11.358C42.787 11.254 42.5097 11.3667 42.1457 11.696C41.7817 12.0253 41.3917 12.4673 40.9757 13.022C40.5597 13.5767 40.1697 14.1487 39.8057 14.738C39.4763 15.2753 39.2683 15.5873 39.1817 15.674C39.1123 15.7433 38.9823 15.7173 38.7917 15.596C38.4103 15.4747 38.1677 15.31 38.0637 15.102C37.977 14.8767 37.9683 14.6253 38.0377 14.348C38.1243 14.0533 38.2283 13.6547 38.3497 13.152C38.4883 12.6493 38.6183 12.164 38.7397 11.696C38.861 11.2107 38.939 10.864 38.9737 10.656C38.9043 10.5173 38.783 10.474 38.6097 10.526C38.4537 10.5607 38.289 10.6387 38.1157 10.76C37.9077 10.8987 37.6563 11.1587 37.3617 11.54C37.067 11.9213 36.7637 12.3633 36.4517 12.866C36.2437 13.1953 36.027 13.5247 35.8017 13.854C35.5763 14.166 35.3683 14.4433 35.1777 14.686C34.987 14.9287 34.8223 15.1107 34.6837 15.232C34.441 15.6133 34.2763 15.8213 34.1897 15.856C34.103 15.8907 33.9383 15.8473 33.6957 15.726ZM46.1962 21.55C45.9882 21.6887 45.7715 21.68 45.5462 21.524C45.3382 21.368 45.1822 21.134 45.0782 20.822C44.9742 20.51 44.9829 20.1807 45.1042 19.834C45.1389 19.73 45.1909 19.5567 45.2602 19.314C45.3295 19.0887 45.3729 18.8893 45.3902 18.716C45.4075 18.5947 45.4595 18.3867 45.5462 18.092C45.6329 17.8147 45.7282 17.5373 45.8322 17.26C45.9535 16.9827 46.0489 16.7833 46.1182 16.662C46.2222 16.4887 46.2915 16.2893 46.3262 16.064C46.3782 15.8387 46.4042 15.6653 46.4042 15.544C46.4389 15.4227 46.4822 15.284 46.5342 15.128C46.6035 14.972 46.6729 14.8507 46.7422 14.764C46.7769 14.6253 46.8289 14.478 46.8982 14.322C46.9675 14.1487 47.0455 14.0013 47.1322 13.88C47.1669 13.7587 47.1929 13.6113 47.2102 13.438C47.2449 13.2647 47.2969 13.1693 47.3662 13.152C47.3835 13.0827 47.3922 13.0133 47.3922 12.944C47.4095 12.8747 47.4442 12.7793 47.4962 12.658C47.5309 12.4673 47.6089 12.19 47.7302 11.826C47.8515 11.462 47.9989 11.0633 48.1722 10.63C48.3629 10.1273 48.4495 9.65067 48.4322 9.2C48.4322 8.732 48.3022 8.446 48.0422 8.342C47.9035 8.27267 47.8169 8.17733 47.7822 8.056C47.7475 7.91733 47.7649 7.77867 47.8342 7.64C47.9035 7.50133 48.0075 7.406 48.1462 7.354C48.3022 7.28467 48.4669 7.25867 48.6402 7.276C48.8309 7.29333 48.9955 7.328 49.1342 7.38C49.2729 7.41467 49.3335 7.44933 49.3162 7.484C49.3162 7.57067 49.3595 7.62267 49.4462 7.64C49.4809 7.588 49.5502 7.64867 49.6542 7.822C49.7755 7.978 49.8882 8.16 49.9922 8.368C50.0962 8.576 50.1482 8.72333 50.1482 8.81C50.1135 8.87933 50.0962 8.92267 50.0962 8.94C50.0962 8.94 50.1309 8.94 50.2002 8.94C50.2002 8.94 50.2955 8.89667 50.4862 8.81C50.6769 8.706 50.8762 8.59333 51.0842 8.472C51.3095 8.33333 51.4569 8.22933 51.5262 8.16C51.5262 8.16 51.5695 8.14267 51.6562 8.108C51.7602 8.056 51.8469 7.99533 51.9162 7.926C52.2629 7.78733 52.6355 7.76133 53.0342 7.848C53.4502 7.93467 53.7795 8.09067 54.0222 8.316C54.3689 8.74933 54.5422 9.16533 54.5422 9.564C54.5595 9.96267 54.4469 10.4653 54.2042 11.072C54.1695 11.1587 54.0915 11.306 53.9702 11.514C53.8662 11.7047 53.7622 11.8867 53.6582 12.06C53.5542 12.216 53.5022 12.294 53.5022 12.294C53.1035 12.918 52.6355 13.438 52.0982 13.854C51.5609 14.27 51.0149 14.634 50.4602 14.946C50.2869 15.0673 50.1049 15.1627 49.9142 15.232C49.7409 15.284 49.5849 15.3187 49.4462 15.336C49.3075 15.336 49.2122 15.3187 49.1602 15.284C48.9695 15.1453 48.7962 14.8507 48.6402 14.4C48.5535 14.6253 48.4669 14.8507 48.3802 15.076C48.3109 15.284 48.2675 15.4227 48.2502 15.492C48.2329 15.6133 48.2155 15.7173 48.1982 15.804C48.1809 15.8733 48.1375 15.934 48.0682 15.986C48.0682 15.986 48.0595 16.0207 48.0422 16.09C48.0249 16.1593 47.9642 16.2633 47.8602 16.402C47.6869 16.9047 47.5309 17.338 47.3922 17.702C47.2535 18.0833 47.1409 18.404 47.0542 18.664C46.9675 18.9413 46.8982 19.184 46.8462 19.392C46.8115 19.86 46.7162 20.3193 46.5602 20.77C46.4042 21.238 46.2829 21.498 46.1962 21.55ZM49.2902 14.14C49.3595 14.1053 49.5069 14.01 49.7322 13.854C49.9749 13.6807 50.2435 13.4813 50.5382 13.256C50.8329 13.0133 51.1015 12.788 51.3442 12.58C51.6042 12.372 51.7775 12.216 51.8642 12.112C52.0029 11.956 52.1329 11.7913 52.2542 11.618C52.3755 11.4273 52.4709 11.2193 52.5402 10.994C52.5922 10.8553 52.6529 10.6993 52.7222 10.526C52.7915 10.3527 52.8522 10.188 52.9042 10.032C52.9735 9.89333 52.9995 9.75467 52.9822 9.616C52.9822 9.46 52.9302 9.33 52.8262 9.226C52.7569 9.20867 52.5489 9.26067 52.2022 9.382C51.8555 9.486 51.4742 9.668 51.0582 9.928C50.6422 10.1707 50.2782 10.4913 49.9662 10.89C49.6022 11.358 49.3335 11.8433 49.1602 12.346C49.0042 12.8487 48.9349 13.2733 48.9522 13.62C48.9869 13.9667 49.0995 14.14 49.2902 14.14ZM62.5224 17.026C62.349 17.1127 62.1497 17.0607 61.9244 16.87C61.699 16.6793 61.543 16.5233 61.4564 16.402C61.3004 16.194 61.1877 15.908 61.1184 15.544C61.049 15.18 61.0144 14.8767 61.0144 14.634C61.0144 14.1833 60.9797 13.9233 60.9104 13.854C60.8584 13.7847 60.7457 13.8453 60.5724 14.036C60.4164 14.2093 60.1824 14.452 59.8704 14.764C59.7317 14.9027 59.5064 15.0847 59.1944 15.31C58.8824 15.5353 58.5617 15.726 58.2324 15.882C57.903 16.038 57.6257 16.116 57.4004 16.116C57.2444 16.0987 57.0884 16.012 56.9324 15.856C56.7764 15.7 56.6377 15.5267 56.5164 15.336C56.4124 15.128 56.3344 14.9547 56.2824 14.816C56.1957 14.556 56.187 14.1313 56.2564 13.542C56.343 12.9353 56.4817 12.268 56.6724 11.54C56.8804 10.7947 57.1144 10.084 57.3744 9.408C57.6517 8.71467 57.929 8.15133 58.2064 7.718C58.501 7.26733 58.787 7.042 59.0644 7.042C59.255 7.042 59.4024 7.15467 59.5064 7.38C59.6277 7.588 59.723 7.76133 59.7924 7.9C59.879 8.07333 59.905 8.186 59.8704 8.238C59.853 8.29 59.7837 8.38533 59.6624 8.524C59.5237 8.69733 59.359 8.992 59.1684 9.408C58.9777 9.80667 58.7784 10.2487 58.5704 10.734C58.3797 11.202 58.2064 11.6527 58.0504 12.086C57.8944 12.5193 57.7817 12.8487 57.7124 13.074C57.6777 13.2127 57.6257 13.4033 57.5564 13.646C57.5044 13.8887 57.487 14.0793 57.5044 14.218C57.5044 14.2353 57.513 14.2787 57.5304 14.348C57.5477 14.4 57.617 14.426 57.7384 14.426C58.1197 14.426 58.501 14.27 58.8824 13.958C59.281 13.6287 59.671 13.204 60.0524 12.684C60.451 12.164 60.8237 11.618 61.1704 11.046C61.517 10.474 61.8377 9.928 62.1324 9.408C62.4444 8.888 62.713 8.46333 62.9384 8.134C63.1637 7.78733 63.3457 7.60533 63.4844 7.588C63.6057 7.57067 63.7444 7.588 63.9004 7.64C64.0737 7.67467 64.221 7.73533 64.3424 7.822C64.4637 7.90867 64.5157 8.03 64.4984 8.186C64.2904 8.82733 64.039 9.46867 63.7444 10.11C63.4497 10.734 63.1724 11.3667 62.9124 12.008C62.6697 12.6493 62.4964 13.308 62.3924 13.984C62.323 14.4 62.349 14.8073 62.4704 15.206C62.609 15.6047 62.8257 15.96 63.1204 16.272C63.2937 16.4453 63.2764 16.61 63.0684 16.766C62.8604 16.922 62.6784 17.0087 62.5224 17.026ZM75.4825 16.324C75.4305 16.2893 75.3179 16.2373 75.1445 16.168C74.9885 16.0813 74.8932 16.0293 74.8585 16.012C74.7372 15.908 74.6679 15.778 74.6505 15.622C74.6332 15.466 74.6245 15.2927 74.6245 15.102C74.6419 14.9113 74.6245 14.712 74.5725 14.504C74.6245 14.2613 74.6765 13.984 74.7285 13.672C74.7805 13.36 74.8672 13.1087 74.9885 12.918C75.0579 12.6233 75.1619 12.2767 75.3005 11.878C75.4565 11.462 75.5952 11.0547 75.7165 10.656C75.8552 10.24 75.9419 9.88467 75.9765 9.59C75.6992 9.76333 75.4565 9.954 75.2485 10.162C75.0405 10.37 74.8672 10.578 74.7285 10.786C74.6592 10.89 74.5812 10.9767 74.4945 11.046C74.4079 11.098 74.3212 11.1673 74.2345 11.254C74.0265 11.4793 73.8272 11.7133 73.6365 11.956C73.4459 12.1987 73.2552 12.45 73.0645 12.71C72.7525 13.1433 72.3972 13.542 71.9985 13.906C71.5999 14.27 71.2185 14.634 70.8545 14.998C70.7159 15.154 70.5599 15.258 70.3865 15.31C70.2305 15.3447 70.0745 15.3273 69.9185 15.258C69.7105 15.1713 69.5372 15.0673 69.3985 14.946C69.2772 14.8247 69.1472 14.6513 69.0085 14.426C68.9912 14.0793 69.0432 13.6807 69.1645 13.23C69.3032 12.7793 69.4592 12.32 69.6325 11.852C69.8232 11.384 69.9879 10.9507 70.1265 10.552C70.2652 10.136 70.3345 9.80667 70.3345 9.564C70.3172 9.54667 70.2912 9.538 70.2565 9.538C70.2392 9.538 70.2132 9.55533 70.1785 9.59C69.4332 10.2313 68.7919 10.9073 68.2545 11.618C67.7345 12.3287 67.1972 13.178 66.6425 14.166C66.5039 14.426 66.3652 14.7553 66.2265 15.154C66.1052 15.5353 65.9232 15.8213 65.6805 16.012C65.6632 16.012 65.6459 16.012 65.6285 16.012C65.6285 15.9947 65.6199 15.986 65.6025 15.986C65.5852 15.9513 65.5592 15.9513 65.5245 15.986C65.4899 16.0207 65.4379 16.0467 65.3685 16.064C65.2819 16.064 65.1952 16.0207 65.1085 15.934C64.9872 15.8127 64.8572 15.6913 64.7185 15.57C64.5972 15.4487 64.5105 15.3013 64.4585 15.128C64.4932 14.9893 64.5365 14.868 64.5885 14.764C64.6405 14.6427 64.7359 14.504 64.8745 14.348C64.9265 14.1747 64.9959 14.0187 65.0825 13.88C65.1865 13.7413 65.2732 13.5853 65.3425 13.412C65.5159 12.9613 65.7932 12.4413 66.1745 11.852C66.5559 11.2627 66.9979 10.682 67.5005 10.11C68.0032 9.538 68.5232 9.03533 69.0605 8.602C69.5979 8.16867 70.1005 7.874 70.5685 7.718C70.5859 7.718 70.5945 7.718 70.5945 7.718C70.6119 7.718 70.6292 7.718 70.6465 7.718C70.8199 7.77 70.9759 7.83067 71.1145 7.9C71.2532 7.952 71.4005 8.01267 71.5565 8.082C71.6259 8.16867 71.7039 8.28133 71.7905 8.42C71.8772 8.54133 71.9379 8.67133 71.9725 8.81C72.0419 9.018 72.0332 9.31267 71.9465 9.694C71.8599 10.0753 71.7559 10.4567 71.6345 10.838C71.5132 11.2193 71.4092 11.5227 71.3225 11.748C71.3052 11.8173 71.2445 11.9647 71.1405 12.19C71.0365 12.4153 70.9759 12.5887 70.9585 12.71C70.9585 12.7273 70.9585 12.7447 70.9585 12.762C70.9585 12.7793 70.9672 12.7967 70.9845 12.814C71.2619 12.554 71.5305 12.2853 71.7905 12.008C72.0679 11.7307 72.3192 11.4533 72.5445 11.176C73.0819 10.552 73.6279 9.91933 74.1825 9.278C74.7545 8.61933 75.3959 8.082 76.1065 7.666C76.2799 7.57933 76.4792 7.59667 76.7045 7.718C76.9472 7.83933 77.1292 7.96933 77.2505 8.108C77.4412 8.264 77.5452 8.472 77.5625 8.732C77.5972 9.07867 77.5539 9.55533 77.4325 10.162C77.3112 10.7513 77.1552 11.3407 76.9645 11.93C76.7912 12.5193 76.6265 12.9873 76.4705 13.334C76.4359 13.4207 76.4099 13.49 76.3925 13.542C76.3752 13.594 76.3579 13.672 76.3405 13.776C76.3232 13.8973 76.2885 14.0187 76.2365 14.14C76.2019 14.2613 76.1672 14.374 76.1325 14.478C76.0805 14.7033 76.0719 14.9287 76.1065 15.154C76.1585 15.3793 76.1932 15.6047 76.2105 15.83C76.2105 15.8473 76.1845 15.8733 76.1325 15.908C76.0285 15.9773 75.9245 16.0467 75.8205 16.116C75.7339 16.168 75.6385 16.2373 75.5345 16.324C75.5172 16.324 75.5085 16.324 75.5085 16.324C75.5085 16.324 75.4999 16.324 75.4825 16.324ZM78.1731 22.174C77.7571 22.2953 77.2978 22.3127 76.7951 22.226C76.3098 22.1567 75.8851 22.0093 75.5211 21.784C75.1398 21.5587 74.9231 21.3073 74.8711 21.03C74.8538 20.926 74.8885 20.8133 74.9751 20.692C75.0445 20.5707 75.1398 20.484 75.2611 20.432C75.3651 20.3973 75.4605 20.432 75.5471 20.536C75.6858 20.6227 75.9371 20.7267 76.3011 20.848C76.6651 20.9867 77.0725 21.0127 77.5231 20.926C77.9218 20.8393 78.3118 20.6053 78.6931 20.224C79.0918 19.8427 79.4125 19.4873 79.6551 19.158C79.7938 18.95 80.0278 18.5773 80.3571 18.04C80.6865 17.5027 81.0245 16.9133 81.3711 16.272C81.7351 15.6133 82.0385 15.0067 82.2811 14.452C82.3331 14.3133 82.3938 14.1487 82.4631 13.958C82.5325 13.7673 82.6191 13.6113 82.7231 13.49C82.8271 13.282 82.9138 13.0913 82.9831 12.918C83.0698 12.7273 83.1218 12.5973 83.1391 12.528C83.1565 12.4413 83.2345 12.268 83.3731 12.008C83.5118 11.748 83.6418 11.488 83.7631 11.228C83.8498 10.968 83.9798 10.5867 84.1531 10.084C84.3265 9.58133 84.4998 9.174 84.6731 8.862C84.8811 8.46333 85.0458 8.14267 85.1671 7.9C85.3058 7.64 85.4531 7.484 85.6091 7.432C85.7651 7.31067 85.8691 7.25 85.9211 7.25C85.9905 7.25 86.1205 7.302 86.3111 7.406C86.5191 7.614 86.6491 7.822 86.7011 8.03C86.7531 8.22067 86.7271 8.46333 86.6231 8.758C86.5365 9.03533 86.3631 9.41667 86.1031 9.902C85.9645 10.318 85.8085 10.6993 85.6351 11.046C85.4791 11.3753 85.3578 11.592 85.2711 11.696C85.1845 11.904 85.0805 12.138 84.9591 12.398C84.8551 12.6407 84.7598 12.866 84.6731 13.074C84.3611 13.7673 84.0925 14.3307 83.8671 14.764C83.6418 15.1973 83.4425 15.596 83.2691 15.96C83.0958 16.324 82.9138 16.7487 82.7231 17.234C82.3245 17.8753 81.9345 18.482 81.5531 19.054C81.1891 19.6433 80.7991 20.1893 80.3831 20.692C80.2098 20.848 79.9931 21.03 79.7331 21.238C79.4731 21.446 79.2045 21.6367 78.9271 21.81C78.6671 21.9833 78.4158 22.1047 78.1731 22.174ZM81.6831 15.934C81.4231 15.8993 81.1631 15.7433 80.9031 15.466C80.6605 15.1887 80.4698 14.894 80.3311 14.582C80.1925 14.27 80.1405 14.0447 80.1751 13.906C80.1751 13.8193 80.1751 13.75 80.1751 13.698C80.1751 13.646 80.1751 13.62 80.1751 13.62C80.0711 13.62 79.9758 13.49 79.8891 13.23C79.8198 12.97 79.7678 12.632 79.7331 12.216C79.6985 11.8 79.6725 11.358 79.6551 10.89C79.6551 10.422 79.6725 9.98 79.7071 9.564C79.7765 9.26933 79.8111 8.94867 79.8111 8.602C79.8111 8.238 79.8198 7.952 79.8371 7.744C79.8198 7.46667 79.8458 7.28467 79.9151 7.198C79.9845 7.094 80.0538 7.016 80.1231 6.964C80.6085 6.756 80.9291 6.886 81.0851 7.354C81.2585 7.80467 81.3018 8.654 81.2151 9.902C81.1805 10.5953 81.1805 11.2887 81.2151 11.982C81.2498 12.6753 81.3451 13.282 81.5011 13.802C81.6745 14.322 81.9085 14.6773 82.2031 14.868C82.3245 14.9373 82.3851 15.0327 82.3851 15.154C82.3851 15.2753 82.3505 15.4053 82.2811 15.544C82.2118 15.6653 82.1165 15.7693 81.9951 15.856C81.8911 15.9253 81.7871 15.9513 81.6831 15.934ZM90.1545 16.818C89.7385 16.9913 89.3225 16.974 88.9065 16.766C88.7851 16.714 88.6291 16.636 88.4385 16.532C88.2651 16.428 88.1351 16.2893 88.0485 16.116C87.9445 15.9253 87.8318 15.7433 87.7105 15.57C87.5891 15.3967 87.4591 15.206 87.3205 14.998C87.3205 15.05 87.3031 14.998 87.2685 14.842C87.2511 14.686 87.2251 14.5127 87.1905 14.322C87.1558 14.114 87.1385 13.9927 87.1385 13.958C87.1731 13.5073 87.2251 13.0653 87.2945 12.632C87.3811 12.1987 87.5198 11.7913 87.7105 11.41C88.0051 10.8207 88.3258 10.2747 88.6725 9.772C89.0365 9.26933 89.4351 8.81 89.8685 8.394C89.9378 8.30733 90.0071 8.238 90.0765 8.186C90.1458 8.134 90.2411 8.09933 90.3625 8.082C90.6571 7.822 90.9431 7.64 91.2205 7.536C91.4978 7.432 91.7925 7.36267 92.1045 7.328C92.1565 7.29333 92.2431 7.26733 92.3645 7.25C92.5031 7.21533 92.5898 7.198 92.6245 7.198C92.9365 7.26733 93.1878 7.328 93.3785 7.38C93.5691 7.432 93.7511 7.51 93.9245 7.614C94.1151 7.70067 94.3318 7.874 94.5745 8.134C94.7998 8.394 94.9385 8.66267 94.9905 8.94C95.0598 9.2 95.1031 9.65067 95.1205 10.292C95.1378 10.656 94.9645 10.9593 94.6005 11.202C94.5831 11.1673 94.5571 11.1413 94.5225 11.124C94.5051 11.0893 94.4791 11.0633 94.4445 11.046C94.3751 11.0113 94.2971 10.994 94.2105 10.994C94.1411 10.9767 94.0718 10.9333 94.0025 10.864C93.9158 10.7773 93.8378 10.6733 93.7685 10.552C93.6991 10.4307 93.6125 10.3093 93.5085 10.188C93.6125 9.928 93.6905 9.668 93.7425 9.408C93.8118 9.148 93.8551 9.00067 93.8725 8.966C93.8551 8.82733 93.7945 8.732 93.6905 8.68C93.6038 8.628 93.4911 8.61933 93.3525 8.654C93.3351 8.67133 93.3178 8.68867 93.3005 8.706C93.2831 8.72333 93.2571 8.74067 93.2225 8.758C92.9798 8.758 92.7458 8.80133 92.5205 8.888C92.2951 8.95733 92.0871 9.07867 91.8965 9.252C91.6885 9.32133 91.4198 9.50333 91.0905 9.798C90.7785 10.0753 90.4578 10.37 90.1285 10.682C89.8165 10.994 89.5738 11.228 89.4005 11.384C89.6951 11.3147 90.0505 11.2453 90.4665 11.176C90.8998 11.0893 91.2291 11.02 91.4545 10.968C91.6278 10.916 91.7751 10.8987 91.8965 10.916C92.0351 10.916 92.1651 10.9507 92.2865 11.02C92.4945 11.1413 92.6591 11.3407 92.7805 11.618C92.9018 11.8087 92.9451 11.9387 92.9105 12.008C92.8758 12.0773 92.7631 12.216 92.5725 12.424C92.5031 12.424 92.4251 12.4327 92.3385 12.45C92.2518 12.45 92.1825 12.4413 92.1305 12.424C91.9571 12.4413 91.7838 12.4587 91.6105 12.476C91.4545 12.4933 91.2898 12.5193 91.1165 12.554C90.8218 12.554 90.5185 12.554 90.2065 12.554C89.9118 12.554 89.6085 12.554 89.2965 12.554C89.1231 12.6753 89.0278 12.84 89.0105 13.048C88.9931 13.2387 88.9411 13.412 88.8545 13.568C88.8371 13.8453 88.8371 14.114 88.8545 14.374C88.8718 14.634 88.9585 14.8853 89.1145 15.128C89.2358 15.18 89.4265 15.206 89.6865 15.206C89.9638 15.206 90.1718 15.18 90.3105 15.128C90.5185 15.0587 90.7611 14.9547 91.0385 14.816C91.3331 14.66 91.6105 14.504 91.8705 14.348C92.1478 14.1747 92.3558 14.036 92.4945 13.932C92.6331 13.8453 92.7545 13.7587 92.8585 13.672C92.9798 13.568 93.1011 13.4553 93.2225 13.334C93.3438 13.3687 93.4305 13.3773 93.4825 13.36C93.5518 13.3427 93.6038 13.334 93.6385 13.334C93.7425 13.438 93.8551 13.5507 93.9765 13.672C94.0978 13.7933 94.2191 13.8973 94.3405 13.984C94.3751 14.2613 94.3491 14.504 94.2625 14.712C94.1931 14.9027 94.0458 15.0587 93.8205 15.18C93.5431 15.336 93.2745 15.5007 93.0145 15.674C92.7545 15.8473 92.4771 15.986 92.1825 16.09C92.0091 16.1247 91.8531 16.194 91.7145 16.298C91.5758 16.3847 91.4285 16.4627 91.2725 16.532C91.1511 16.584 90.9691 16.6273 90.7265 16.662C90.4838 16.6967 90.2931 16.7487 90.1545 16.818ZM97.3555 16.272C97.1301 16.064 96.9221 15.8907 96.7315 15.752C96.5581 15.596 96.4108 15.414 96.2895 15.206C96.1855 14.9807 96.1075 14.6687 96.0555 14.27C96.0381 13.958 96.0555 13.6633 96.1075 13.386C96.1595 13.1087 96.2375 12.84 96.3415 12.58C96.4975 12.1987 96.6621 11.826 96.8355 11.462C97.0088 11.098 97.1821 10.7253 97.3555 10.344C97.5808 9.80667 97.8235 9.33867 98.0835 8.94C98.3435 8.524 98.5948 8.316 98.8375 8.316C99.1321 8.33333 99.3401 8.43733 99.4615 8.628C99.6001 8.80133 99.7821 9.03533 100.007 9.33C99.9728 9.50333 99.9121 9.67667 99.8255 9.85C99.7388 10.006 99.6348 10.1533 99.5135 10.292C99.2881 10.5173 99.0975 10.7687 98.9415 11.046C98.7855 11.3233 98.6641 11.6093 98.5775 11.904C98.4561 12.164 98.3348 12.424 98.2135 12.684C98.0921 12.9267 97.9795 13.178 97.8755 13.438C97.5635 14.01 97.4508 14.3567 97.5375 14.478C97.6241 14.5993 97.8235 14.556 98.1355 14.348C98.4648 14.14 98.8115 13.8367 99.1755 13.438C99.4875 13.1087 99.7301 12.8573 99.9035 12.684C100.077 12.5107 100.241 12.32 100.397 12.112C100.449 12.06 100.571 11.904 100.761 11.644C100.969 11.3667 101.177 11.0807 101.385 10.786C101.611 10.474 101.775 10.2573 101.879 10.136C102.018 9.96267 102.139 9.78933 102.243 9.616C102.347 9.42533 102.434 9.23467 102.503 9.044C102.538 8.87067 102.607 8.758 102.711 8.706C102.833 8.63667 102.98 8.61933 103.153 8.654C103.327 8.758 103.5 8.87933 103.673 9.018C103.847 9.13933 103.994 9.34733 104.115 9.642C104.202 9.81533 104.167 10.084 104.011 10.448C103.873 10.812 103.708 11.176 103.517 11.54C103.361 11.852 103.24 12.1727 103.153 12.502C103.084 12.8313 103.006 13.1693 102.919 13.516C102.867 13.7587 102.919 14.036 103.075 14.348C103.422 14.2093 103.682 14.0533 103.855 13.88C104.046 13.6893 104.219 13.49 104.375 13.282C104.549 13.074 104.774 12.8833 105.051 12.71C105.138 12.502 105.268 12.3373 105.441 12.216C105.632 12.0773 105.762 11.8953 105.831 11.67L106.845 10.474C106.984 10.318 107.105 10.1273 107.209 9.902C107.331 9.65933 107.452 9.46 107.573 9.304C107.712 9.13067 107.859 9.07 108.015 9.122C108.553 9.31267 108.908 9.67667 109.081 10.214C109.081 10.4393 108.986 10.812 108.795 11.332C108.622 11.8347 108.492 12.3373 108.405 12.84C108.353 13.1347 108.319 13.438 108.301 13.75C108.301 14.0447 108.345 14.348 108.431 14.66C108.57 14.764 108.743 14.79 108.951 14.738C109.177 14.6687 109.376 14.634 109.549 14.634C109.688 14.8073 109.749 15.024 109.731 15.284C109.714 15.544 109.688 15.7347 109.653 15.856C109.497 15.9427 109.341 16.0207 109.185 16.09C109.029 16.142 108.856 16.1593 108.665 16.142C108.405 16.09 108.223 16.0293 108.119 15.96C108.015 15.8907 107.92 15.804 107.833 15.7C107.764 15.5787 107.643 15.4487 107.469 15.31C107.192 15.0673 107.001 14.7553 106.897 14.374C106.811 13.9927 106.75 13.6027 106.715 13.204C106.646 13.1867 106.533 13.256 106.377 13.412C106.221 13.568 106.039 13.776 105.831 14.036C105.623 14.2787 105.389 14.5473 105.129 14.842C104.887 15.1193 104.618 15.388 104.323 15.648C104.133 15.8213 103.925 15.96 103.699 16.064C103.474 16.1507 103.197 16.1593 102.867 16.09C102.659 15.9687 102.477 15.804 102.321 15.596C102.183 15.3707 102.009 15.1887 101.801 15.05C101.732 14.8593 101.663 14.686 101.593 14.53C101.541 14.3567 101.498 14.1833 101.463 14.01C101.429 13.854 101.403 13.698 101.385 13.542C101.368 13.3687 101.403 13.2127 101.489 13.074C101.385 13.0393 101.273 13.1087 101.151 13.282C101.03 13.438 100.891 13.6287 100.735 13.854C100.579 14.062 100.389 14.2527 100.163 14.426C99.8861 14.6513 99.6521 14.8593 99.4615 15.05C99.2708 15.2407 99.0801 15.4313 98.8895 15.622C98.6988 15.8127 98.4648 16.0293 98.1875 16.272H97.3555ZM66.4585 36.948C66.4065 36.8787 66.3545 36.8267 66.3025 36.792C66.2505 36.74 66.1898 36.688 66.1205 36.636C66.0685 36.5667 65.9818 36.48 65.8605 36.376C65.8432 36.168 65.8692 35.882 65.9385 35.518C66.0252 35.154 66.1205 34.79 66.2245 34.426C66.3285 34.062 66.4152 33.7933 66.4845 33.62C66.4845 33.62 66.5278 33.4727 66.6145 33.178C66.7185 32.8833 66.8398 32.528 66.9785 32.112C67.1172 31.6787 67.2558 31.254 67.3945 30.838C67.5505 30.4047 67.6718 30.0493 67.7585 29.772C67.8625 29.4773 67.9145 29.33 67.9145 29.33C67.9492 29.2607 67.9665 29.1913 67.9665 29.122C67.9665 29.0353 67.9665 28.9313 67.9665 28.81C67.9145 28.498 67.9405 28.264 68.0445 28.108C68.1658 27.952 68.2612 27.7873 68.3305 27.614C68.5212 27.6313 68.6512 27.6313 68.7205 27.614C68.8072 27.5967 68.9025 27.614 69.0065 27.666C69.1278 27.6833 69.3618 27.666 69.7085 27.614C70.0552 27.562 70.4018 27.4927 70.7485 27.406C71.1125 27.3193 71.3552 27.25 71.4765 27.198C71.7192 27.198 71.9532 27.1893 72.1785 27.172C72.4212 27.1547 72.6552 27.1633 72.8805 27.198C73.1752 27.198 73.4352 27.302 73.6605 27.51C73.8858 27.718 74.0418 27.8827 74.1285 28.004C74.0938 28.0733 74.0505 28.1427 73.9985 28.212C73.9638 28.264 73.9292 28.316 73.8945 28.368C73.8598 28.42 73.8165 28.472 73.7645 28.524C73.6605 28.524 73.4438 28.524 73.1145 28.524C72.7852 28.524 72.4298 28.5413 72.0485 28.576C71.6845 28.6107 71.3812 28.6713 71.1385 28.758C70.9132 28.8273 70.6705 28.8707 70.4105 28.888C70.1678 28.888 69.9425 28.9313 69.7345 29.018C69.6478 29.1047 69.5612 29.278 69.4745 29.538C69.3878 29.798 69.3098 30.0667 69.2405 30.344C69.1712 30.6213 69.1105 30.8293 69.0585 30.968C69.0585 30.9507 69.0065 31.072 68.9025 31.332C68.8158 31.592 68.7118 31.8867 68.5905 32.216C68.4865 32.5453 68.3998 32.814 68.3305 33.022C68.2612 33.126 68.1745 33.3253 68.0705 33.62C67.9665 33.9147 67.8712 34.2093 67.7845 34.504C67.6978 34.7987 67.6372 35.0153 67.6025 35.154C67.5332 35.466 67.4465 35.778 67.3425 36.09C67.2385 36.3847 67.1085 36.6793 66.9525 36.974C66.8832 36.974 66.8052 36.974 66.7185 36.974C66.6318 36.9567 66.5452 36.948 66.4585 36.948ZM73.7196 41.55C73.5116 41.6887 73.295 41.68 73.0696 41.524C72.8616 41.368 72.7056 41.134 72.6016 40.822C72.4976 40.51 72.5063 40.1807 72.6276 39.834C72.6623 39.73 72.7143 39.5567 72.7836 39.314C72.853 39.0887 72.8963 38.8893 72.9136 38.716C72.931 38.5947 72.983 38.3867 73.0696 38.092C73.1563 37.8147 73.2516 37.5373 73.3556 37.26C73.477 36.9827 73.5723 36.7833 73.6416 36.662C73.7456 36.4887 73.815 36.2893 73.8496 36.064C73.9016 35.8387 73.9276 35.6653 73.9276 35.544C73.9623 35.4227 74.0056 35.284 74.0576 35.128C74.127 34.972 74.1963 34.8507 74.2656 34.764C74.3003 34.6253 74.3523 34.478 74.4216 34.322C74.491 34.1487 74.569 34.0013 74.6556 33.88C74.6903 33.7587 74.7163 33.6113 74.7336 33.438C74.7683 33.2647 74.8203 33.1693 74.8896 33.152C74.907 33.0827 74.9156 33.0133 74.9156 32.944C74.933 32.8747 74.9676 32.7793 75.0196 32.658C75.0543 32.4673 75.1323 32.19 75.2536 31.826C75.375 31.462 75.5223 31.0633 75.6956 30.63C75.8863 30.1273 75.973 29.6507 75.9556 29.2C75.9556 28.732 75.8256 28.446 75.5656 28.342C75.427 28.2727 75.3403 28.1773 75.3056 28.056C75.271 27.9173 75.2883 27.7787 75.3576 27.64C75.427 27.5013 75.531 27.406 75.6696 27.354C75.8256 27.2847 75.9903 27.2587 76.1636 27.276C76.3543 27.2933 76.519 27.328 76.6576 27.38C76.7963 27.4147 76.857 27.4493 76.8396 27.484C76.8396 27.5707 76.883 27.6227 76.9696 27.64C77.0043 27.588 77.0736 27.6487 77.1776 27.822C77.299 27.978 77.4116 28.16 77.5156 28.368C77.6196 28.576 77.6716 28.7233 77.6716 28.81C77.637 28.8793 77.6196 28.9227 77.6196 28.94C77.6196 28.94 77.6543 28.94 77.7236 28.94C77.7236 28.94 77.819 28.8967 78.0096 28.81C78.2003 28.706 78.3996 28.5933 78.6076 28.472C78.833 28.3333 78.9803 28.2293 79.0496 28.16C79.0496 28.16 79.093 28.1427 79.1796 28.108C79.2836 28.056 79.3703 27.9953 79.4396 27.926C79.7863 27.7873 80.159 27.7613 80.5576 27.848C80.9736 27.9347 81.303 28.0907 81.5456 28.316C81.8923 28.7493 82.0656 29.1653 82.0656 29.564C82.083 29.9627 81.9703 30.4653 81.7276 31.072C81.693 31.1587 81.615 31.306 81.4936 31.514C81.3896 31.7047 81.2856 31.8867 81.1816 32.06C81.0776 32.216 81.0256 32.294 81.0256 32.294C80.627 32.918 80.159 33.438 79.6216 33.854C79.0843 34.27 78.5383 34.634 77.9836 34.946C77.8103 35.0673 77.6283 35.1627 77.4376 35.232C77.2643 35.284 77.1083 35.3187 76.9696 35.336C76.831 35.336 76.7356 35.3187 76.6836 35.284C76.493 35.1453 76.3196 34.8507 76.1636 34.4C76.077 34.6253 75.9903 34.8507 75.9036 35.076C75.8343 35.284 75.791 35.4227 75.7736 35.492C75.7563 35.6133 75.739 35.7173 75.7216 35.804C75.7043 35.8733 75.661 35.934 75.5916 35.986C75.5916 35.986 75.583 36.0207 75.5656 36.09C75.5483 36.1593 75.4876 36.2633 75.3836 36.402C75.2103 36.9047 75.0543 37.338 74.9156 37.702C74.777 38.0833 74.6643 38.404 74.5776 38.664C74.491 38.9413 74.4216 39.184 74.3696 39.392C74.335 39.86 74.2396 40.3193 74.0836 40.77C73.9276 41.238 73.8063 41.498 73.7196 41.55ZM76.8136 34.14C76.883 34.1053 77.0303 34.01 77.2556 33.854C77.4983 33.6807 77.767 33.4813 78.0616 33.256C78.3563 33.0133 78.625 32.788 78.8676 32.58C79.1276 32.372 79.301 32.216 79.3876 32.112C79.5263 31.956 79.6563 31.7913 79.7776 31.618C79.899 31.4273 79.9943 31.2193 80.0636 30.994C80.1156 30.8553 80.1763 30.6993 80.2456 30.526C80.315 30.3527 80.3756 30.188 80.4276 30.032C80.497 29.8933 80.523 29.7547 80.5056 29.616C80.5056 29.46 80.4536 29.33 80.3496 29.226C80.2803 29.2087 80.0723 29.2607 79.7256 29.382C79.379 29.486 78.9976 29.668 78.5816 29.928C78.1656 30.1707 77.8016 30.4913 77.4896 30.89C77.1256 31.358 76.857 31.8433 76.6836 32.346C76.5276 32.8487 76.4583 33.2733 76.4756 33.62C76.5103 33.9667 76.623 34.14 76.8136 34.14ZM85.2358 36.61C85.0105 36.61 84.8285 36.5667 84.6898 36.48C84.5685 36.3933 84.4125 36.272 84.2218 36.116C83.8925 35.7693 83.6585 35.44 83.5198 35.128C83.3811 34.7987 83.3378 34.4867 83.3898 34.192C83.4418 34.0533 83.4591 33.9233 83.4418 33.802C83.4418 33.6633 83.4418 33.594 83.4418 33.594C83.3551 33.5073 83.3291 33.4553 83.3638 33.438C83.3985 33.4033 83.4331 33.3513 83.4678 33.282C83.5718 33.282 83.6065 33.1867 83.5718 32.996C83.5371 32.8573 83.6065 32.554 83.7798 32.086C83.9531 31.618 84.1698 31.176 84.4298 30.76C84.5338 30.5867 84.6898 30.3613 84.8978 30.084C85.1058 29.7893 85.3311 29.5033 85.5738 29.226C85.8338 28.9313 86.0678 28.6973 86.2758 28.524C86.7091 28.16 87.0905 27.8913 87.4198 27.718C87.7491 27.5447 88.1045 27.4147 88.4858 27.328C88.8671 27.2413 89.1271 27.198 89.2658 27.198C89.4218 27.198 89.6298 27.3367 89.8898 27.614C90.2885 27.7873 90.5745 27.9953 90.7478 28.238C90.9385 28.4807 91.0598 28.836 91.1118 29.304C91.1638 29.824 91.1205 30.422 90.9818 31.098C90.8605 31.7567 90.4531 32.58 89.7598 33.568C89.3265 34.192 88.9278 34.66 88.5638 34.972C88.1998 35.2667 87.7665 35.5613 87.2638 35.856C86.8998 36.0987 86.5705 36.2807 86.2758 36.402C85.9811 36.506 85.6345 36.5753 85.2358 36.61ZM87.7318 33.854C88.1478 33.386 88.4771 32.944 88.7198 32.528C88.9798 32.112 89.2225 31.5833 89.4478 30.942C89.5171 30.7513 89.5605 30.5173 89.5778 30.24C89.5951 29.9453 89.5865 29.6767 89.5518 29.434C89.5345 29.174 89.4738 29.0267 89.3698 28.992C89.1618 28.8707 88.9105 28.836 88.6158 28.888C88.3211 28.9227 88.0005 29.0873 87.6538 29.382C87.1165 29.8327 86.6485 30.396 86.2498 31.072C85.8511 31.7307 85.4611 32.4847 85.0798 33.334C84.8198 33.958 84.7591 34.4607 84.8978 34.842C85.0538 35.206 85.3745 35.336 85.8598 35.232C86.3625 35.1107 86.9865 34.6513 87.7318 33.854ZM96.2998 35.96C96.1091 35.9427 95.9705 35.96 95.8838 36.012C95.8145 36.0467 95.6498 36.0207 95.3898 35.934C94.7658 35.7087 94.2025 35.3967 93.6998 34.998C93.2145 34.582 92.9371 34.0187 92.8678 33.308C92.8331 32.8573 92.8591 32.398 92.9458 31.93C93.0325 31.4447 93.1105 30.9767 93.1798 30.526C93.2838 30.3353 93.3791 30.084 93.4658 29.772C93.5698 29.4427 93.6825 29.1133 93.8038 28.784C93.9251 28.4373 94.0638 28.1427 94.2198 27.9C94.3931 27.64 94.5925 27.484 94.8178 27.432C94.9738 27.5187 95.1211 27.614 95.2598 27.718C95.4158 27.8047 95.5545 27.9087 95.6758 28.03C95.7971 28.134 95.8578 28.2553 95.8578 28.394C95.8578 28.5153 95.8318 28.6453 95.7798 28.784C95.7105 28.94 95.6325 29.096 95.5458 29.252C95.4765 29.3907 95.3985 29.538 95.3118 29.694C95.1731 29.9713 95.0345 30.318 94.8958 30.734C94.7745 31.15 94.6705 31.5747 94.5838 32.008C94.5145 32.424 94.4885 32.7967 94.5058 33.126C94.5231 33.3513 94.6098 33.6027 94.7658 33.88C94.9391 34.1573 95.1645 34.296 95.4418 34.296C95.7538 34.296 96.0485 34.3047 96.3258 34.322C96.6205 34.322 96.9065 34.2527 97.1838 34.114C97.1665 34.01 97.1491 33.906 97.1318 33.802C97.1145 33.6807 97.1058 33.568 97.1058 33.464C97.1058 33.412 97.1491 33.2213 97.2358 32.892C97.3225 32.5453 97.4265 32.138 97.5478 31.67C97.6691 31.202 97.7905 30.734 97.9118 30.266C98.0505 29.7807 98.1718 29.3647 98.2758 29.018C98.3798 28.654 98.4491 28.4373 98.4838 28.368C98.5705 28.316 98.6658 28.264 98.7698 28.212C98.8738 28.16 98.9778 28.1167 99.0818 28.082C99.1858 28.0993 99.2898 28.1167 99.3938 28.134C99.5151 28.1513 99.6278 28.1773 99.7318 28.212C99.7838 28.2813 99.8271 28.3507 99.8618 28.42C99.9138 28.472 99.9658 28.5327 100.018 28.602C100.156 28.758 100.226 28.9053 100.226 29.044C100.226 29.1653 100.182 29.3127 100.096 29.486C99.7665 30.1793 99.5238 30.8987 99.3678 31.644C99.2291 32.3893 99.0385 33.1173 98.7958 33.828C98.8651 33.984 98.9605 34.036 99.0818 33.984C99.3245 33.8973 99.5498 33.8713 99.7578 33.906C99.9831 33.9233 100.2 33.8973 100.408 33.828C100.546 33.7933 100.65 33.7933 100.72 33.828C100.789 33.8627 100.867 33.8627 100.954 33.828C101.127 33.7587 101.292 33.724 101.448 33.724C101.604 33.724 101.768 33.724 101.942 33.724C102.011 33.62 102.098 33.4033 102.202 33.074C102.323 32.7273 102.444 32.346 102.566 31.93C102.687 31.4967 102.791 31.098 102.878 30.734C102.982 30.37 103.051 30.11 103.086 29.954C103.103 29.8847 103.12 29.7547 103.138 29.564C103.172 29.3733 103.198 29.1913 103.216 29.018C103.233 28.8273 103.25 28.7233 103.268 28.706C103.372 28.5673 103.389 28.4633 103.32 28.394C103.268 28.3073 103.233 28.1947 103.216 28.056C103.25 27.952 103.285 27.848 103.32 27.744C103.372 27.6227 103.45 27.5273 103.554 27.458C104.23 27.2847 104.724 27.5273 105.036 28.186C105.018 28.4287 105.018 28.6713 105.036 28.914C105.053 29.1567 105.001 29.3907 104.88 29.616C104.897 29.8067 104.871 30.006 104.802 30.214C104.75 30.4047 104.689 30.5953 104.62 30.786C104.568 30.9593 104.542 31.15 104.542 31.358C104.42 31.7393 104.29 32.2073 104.152 32.762C104.013 33.3167 103.866 33.7673 103.71 34.114C103.658 34.166 103.64 34.2527 103.658 34.374C103.675 34.4953 103.658 34.6427 103.606 34.816C103.554 34.972 103.389 35.154 103.112 35.362C102.99 35.362 102.774 35.362 102.462 35.362C102.167 35.3447 101.864 35.3447 101.552 35.362C101.24 35.362 101.006 35.3967 100.85 35.466C100.59 35.57 100.286 35.6047 99.9398 35.57C99.6105 35.5353 99.2985 35.5613 99.0038 35.648C98.9518 35.6653 98.8998 35.674 98.8478 35.674C98.8131 35.6567 98.7698 35.648 98.7178 35.648C98.3018 35.648 97.8945 35.7087 97.4958 35.83C97.0971 35.934 96.6985 35.9773 96.2998 35.96ZM107.036 36.168C106.898 36.0293 106.794 35.856 106.724 35.648C106.672 35.44 106.655 35.232 106.672 35.024C106.69 34.816 106.733 34.6427 106.802 34.504C106.802 34.3653 106.82 34.2613 106.854 34.192C106.906 34.1053 106.924 34.0273 106.906 33.958C106.889 33.8887 106.906 33.7673 106.958 33.594C107.01 33.4207 107.062 33.256 107.114 33.1C107.236 32.8227 107.366 32.4933 107.504 32.112C107.643 31.7133 107.773 31.3233 107.894 30.942C108.016 30.5607 108.12 30.2313 108.206 29.954C108.293 29.6767 108.345 29.5033 108.362 29.434C108.362 29.226 108.501 29.1133 108.778 29.096C108.986 29.0267 109.142 29.0267 109.246 29.096C109.35 29.148 109.489 29.3127 109.662 29.59C109.801 29.7287 109.853 29.9367 109.818 30.214C109.784 30.4913 109.671 30.838 109.48 31.254C109.411 31.3927 109.324 31.592 109.22 31.852C109.134 32.112 109.073 32.346 109.038 32.554C108.969 32.6927 108.882 32.892 108.778 33.152C108.692 33.3947 108.614 33.6287 108.544 33.854C108.51 33.9407 108.475 34.0707 108.44 34.244C108.406 34.4 108.362 34.5733 108.31 34.764C108.258 34.9373 108.189 35.0933 108.102 35.232C107.946 35.9427 107.799 36.3587 107.66 36.48C107.539 36.6013 107.331 36.4973 107.036 36.168ZM109.558 25.612C109.472 25.5253 109.394 25.404 109.324 25.248C109.255 25.0747 109.212 24.9187 109.194 24.78C109.177 24.624 109.194 24.546 109.246 24.546C109.385 24.5287 109.55 24.3813 109.74 24.104C109.931 23.8267 110.009 23.584 109.974 23.376C109.974 23.3067 110 23.246 110.052 23.194C110.104 23.1247 110.165 23.0813 110.234 23.064C110.442 22.9253 110.642 22.908 110.832 23.012C111.04 23.0987 111.231 23.2807 111.404 23.558C111.56 23.8873 111.604 24.1647 111.534 24.39C111.465 24.598 111.274 24.8927 110.962 25.274C110.702 25.6207 110.46 25.8113 110.234 25.846C110.026 25.8807 109.801 25.8027 109.558 25.612Z" fill="#002D6E"/>
</svg>
